<svg width="69" height="72" viewBox="0 0 69 72" fill="none" xmlns="http://www.w3.org/2000/svg">
<g filter="url(#filter0_d_498_2605)">
<path d="M51 2H8C3.58172 2 0 5.58172 0 10V54C0 58.4183 3.58172 62 8 62H51C55.4183 62 59 58.4183 59 54V10C59 5.58172 55.4183 2 51 2Z" fill="#FF9D42"/>
</g>
<path d="M40.5391 24.3984C40.5391 26.5391 39.8906 28.3594 38.5938 29.8594C37.2969 31.3594 35.4766 32.3906 33.1328 32.9531V33.0938C35.8984 33.4375 37.9922 34.2812 39.4141 35.625C40.8359 36.9531 41.5469 38.75 41.5469 41.0156C41.5469 44.3125 40.3516 46.8828 37.9609 48.7266C35.5703 50.5547 32.1562 51.4688 27.7188 51.4688C24 51.4688 20.7031 50.8516 17.8281 49.6172V43.4531C19.1562 44.125 20.6172 44.6719 22.2109 45.0938C23.8047 45.5156 25.3828 45.7266 26.9453 45.7266C29.3359 45.7266 31.1016 45.3203 32.2422 44.5078C33.3828 43.6953 33.9531 42.3906 33.9531 40.5938C33.9531 38.9844 33.2969 37.8438 31.9844 37.1719C30.6719 36.5 28.5781 36.1641 25.7031 36.1641H23.1016V30.6094H25.75C28.4062 30.6094 30.3438 30.2656 31.5625 29.5781C32.7969 28.875 33.4141 27.6797 33.4141 25.9922C33.4141 23.3984 31.7891 22.1016 28.5391 22.1016C27.4141 22.1016 26.2656 22.2891 25.0938 22.6641C23.9375 23.0391 22.6484 23.6875 21.2266 24.6094L17.875 19.6172C21 17.3672 24.7266 16.2422 29.0547 16.2422C32.6016 16.2422 35.3984 16.9609 37.4453 18.3984C39.5078 19.8359 40.5391 21.8359 40.5391 24.3984Z" fill="black"/>
<defs>
<filter id="filter0_d_498_2605" x="0" y="2" width="69" height="70" filterUnits="userSpaceOnUse" color-interpolation-filters="sRGB">
<feFlood flood-opacity="0" result="BackgroundImageFix"/>
<feColorMatrix in="SourceAlpha" type="matrix" values="0 0 0 0 0 0 0 0 0 0 0 0 0 0 0 0 0 0 127 0" result="hardAlpha"/>
<feOffset dx="6" dy="6"/>
<feGaussianBlur stdDeviation="2"/>
<feComposite in2="hardAlpha" operator="out"/>
<feColorMatrix type="matrix" values="0 0 0 0 1 0 0 0 0 0.614333 0 0 0 0 0.258333 0 0 0 0.15 0"/>
<feBlend mode="normal" in2="BackgroundImageFix" result="effect1_dropShadow_498_2605"/>
<feBlend mode="normal" in="SourceGraphic" in2="effect1_dropShadow_498_2605" result="shape"/>
</filter>
</defs>
</svg>
