<svg width="69" height="72" viewBox="0 0 69 72" fill="none" xmlns="http://www.w3.org/2000/svg">
<g filter="url(#filter0_d_498_2604)">
<path d="M51 2H8C3.58172 2 0 5.58172 0 10V54C0 58.4183 3.58172 62 8 62H51C55.4183 62 59 58.4183 59 54V10C59 5.58172 55.4183 2 51 2Z" fill="#FF9D42"/>
</g>
<path d="M42.6484 43.8984H38.5234V51H31.4453V43.8984H16.8203V38.8594L31.8438 16.7344H38.5234V38.2734H42.6484V43.8984ZM31.4453 38.2734V32.4609C31.4453 31.4922 31.4844 30.0859 31.5625 28.2422C31.6406 26.3984 31.7031 25.3281 31.75 25.0312H31.5625C30.9844 26.3125 30.2891 27.5625 29.4766 28.7812L23.1953 38.2734H31.4453Z" fill="black"/>
<defs>
<filter id="filter0_d_498_2604" x="0" y="2" width="69" height="70" filterUnits="userSpaceOnUse" color-interpolation-filters="sRGB">
<feFlood flood-opacity="0" result="BackgroundImageFix"/>
<feColorMatrix in="SourceAlpha" type="matrix" values="0 0 0 0 0 0 0 0 0 0 0 0 0 0 0 0 0 0 127 0" result="hardAlpha"/>
<feOffset dx="6" dy="6"/>
<feGaussianBlur stdDeviation="2"/>
<feComposite in2="hardAlpha" operator="out"/>
<feColorMatrix type="matrix" values="0 0 0 0 1 0 0 0 0 0.614333 0 0 0 0 0.258333 0 0 0 0.15 0"/>
<feBlend mode="normal" in2="BackgroundImageFix" result="effect1_dropShadow_498_2604"/>
<feBlend mode="normal" in="SourceGraphic" in2="effect1_dropShadow_498_2604" result="shape"/>
</filter>
</defs>
</svg>
