<svg width="19" height="19" viewBox="0 0 19 19" fill="none" xmlns="http://www.w3.org/2000/svg">
<circle cx="9.5" cy="9.5" r="9.5" fill="white"/>
<path d="M9.08897 7.22329L8.07874 6.96243L5.75773 15.948L8.5908 16.6798L10.9118 7.69424L9.90159 7.43338L10.9116 3.54246L11.2002 3.61707L11.3878 2.87089L9.99811 2.51201L9.81043 3.25798L10.0989 3.33271L9.08897 7.22329Z" fill="black"/>
<path d="M11.5438 10.6207C11.6139 10.3563 11.7358 10.1085 11.9024 9.89148C12.069 9.67451 12.277 9.49275 12.5144 9.35675C12.7788 9.20446 13.0733 9.11185 13.3773 9.08542L12.3649 12.8637C12.0141 12.6196 11.747 12.2733 11.6001 11.8719C11.4531 11.4706 11.4335 11.0337 11.5438 10.6207ZM12.6996 13.0554L13.762 9.09019C13.9854 9.1112 14.2037 9.16968 14.4076 9.26317L13.3452 13.2283C13.2337 13.2174 13.1234 13.1975 13.0151 13.169C12.9068 13.1405 12.8012 13.1024 12.6996 13.0554ZM13.7299 13.2331L14.7423 9.45481C15.0296 9.65463 15.2618 9.92378 15.4173 10.2373C15.5729 10.5508 15.6467 10.8985 15.632 11.2481C15.6174 11.5978 15.5146 11.9381 15.3333 12.2374C15.152 12.5368 14.8981 12.7855 14.595 12.9605C14.3299 13.1132 14.0347 13.2062 13.7299 13.2331Z" fill="black"/>
</svg>
