<svg width="19" height="19" viewBox="0 0 19 19" fill="none" xmlns="http://www.w3.org/2000/svg">
<circle cx="9.5" cy="9.5" r="9.5" fill="white"/>
<path d="M5.57463 15.8047C5.51413 15.838 5.44099 15.8427 5.3765 15.8174C5.22824 15.7587 5.09993 15.7161 4.99089 15.6441C4.34067 15.2144 3.78685 14.6821 3.3547 14.0285C3.08145 13.6154 3.1014 13.3036 3.44313 12.9605C5.6225 10.7725 7.80585 8.58925 9.98389 6.40063C10.184 6.19943 10.3522 6.17677 10.5789 6.37198C10.9247 6.66979 11.3236 6.90964 11.6493 7.22611C11.9764 7.54391 12.2557 7.91567 12.5323 8.28211C12.8274 8.6732 12.8135 8.71717 12.4731 9.05762C10.6893 10.8452 8.90551 12.6327 7.12173 14.4202C6.74808 14.7947 6.38242 15.1791 5.99548 15.5389C5.87647 15.6501 5.72222 15.7234 5.57529 15.804L5.57463 15.8047Z" fill="#575757"/>
<path d="M15.1111 3.21731C15.383 3.50579 15.5685 3.69367 15.7926 3.94218C15.9136 4.07677 15.756 4.38057 15.5213 4.51249C15.3824 4.59044 15.2361 4.67039 15.1264 4.78299C14.2169 5.71307 13.3147 6.65047 12.4304 7.56456C12.0761 7.22344 11.7915 6.94962 11.4697 6.64048C11.8746 6.24406 12.2762 5.85564 12.6724 5.46256C13.2123 4.92623 13.7694 4.40656 14.2807 3.84291C14.3452 3.77163 14.4462 3.69634 14.5433 3.52845C14.7727 3.13336 15.0187 3.1207 15.1104 3.21797L15.1111 3.21731Z" fill="#575757"/>
</svg>
