<svg width="19" height="19" viewBox="0 0 19 19" fill="none" xmlns="http://www.w3.org/2000/svg">
<circle cx="9.5" cy="9.5" r="9.5" fill="white"/>
<path d="M15.1805 12.6581C15.9983 11.1875 16.2139 9.45706 15.782 7.83078C15.35 6.2045 14.3041 4.80913 12.8644 3.9382C11.4246 3.06726 9.7032 2.78865 8.06223 3.16096C6.42125 3.53327 4.98862 4.52749 4.0657 5.93447L15.1805 12.6581ZM6.50122 6.9563L6.02668 6.66921C5.99991 6.65302 5.9766 6.63171 5.95807 6.60651C5.93954 6.58131 5.92615 6.55271 5.91867 6.52233C5.9112 6.49196 5.90978 6.46041 5.91449 6.42948C5.91921 6.39856 5.92997 6.36887 5.94616 6.3421C5.96235 6.31534 5.98365 6.29203 6.00885 6.27349C6.03406 6.25496 6.06266 6.24157 6.09303 6.2341C6.12341 6.22662 6.15496 6.2252 6.18588 6.22992C6.21681 6.23463 6.2465 6.24539 6.27326 6.26158L6.74781 6.5487C6.80187 6.5814 6.84072 6.63423 6.85582 6.69558C6.87092 6.75692 6.86104 6.82175 6.82834 6.87581C6.79564 6.92986 6.7428 6.96871 6.68146 6.98381C6.62012 6.99891 6.55529 6.98903 6.50123 6.95633L6.50122 6.9563ZM7.68758 7.67395L7.21312 7.38691C7.15906 7.35421 7.12021 7.30138 7.10511 7.24003C7.09001 7.17869 7.0999 7.11386 7.1326 7.0598C7.1653 7.00575 7.21813 6.9669 7.27947 6.9518C7.34082 6.9367 7.40565 6.94658 7.4597 6.97928L7.93424 7.26634C7.961 7.28253 7.98432 7.30383 8.00285 7.32903C8.02138 7.35423 8.03477 7.38284 8.04224 7.41321C8.04972 7.44359 8.05114 7.47514 8.04643 7.50606C8.04171 7.53698 8.03095 7.56668 8.01476 7.59344C7.99857 7.62021 7.97726 7.64352 7.95206 7.66205C7.92686 7.68058 7.89826 7.69397 7.86788 7.70145C7.83751 7.70892 7.80596 7.71035 7.77503 7.70563C7.74411 7.70091 7.71442 7.69015 7.68765 7.67396L7.68758 7.67395ZM8.87394 8.3916L8.39936 8.10452C8.3726 8.08833 8.34928 8.06702 8.33075 8.04182C8.31222 8.01662 8.29883 7.98802 8.29135 7.95764C8.28388 7.92727 8.28246 7.89572 8.28717 7.8648C8.29189 7.83387 8.30265 7.80418 8.31884 7.77741C8.33503 7.75065 8.35633 7.72734 8.38154 7.7088C8.40674 7.69027 8.43534 7.67689 8.46572 7.66941C8.49609 7.66193 8.52764 7.66051 8.55856 7.66523C8.58949 7.66994 8.61918 7.6807 8.64594 7.69689L9.12048 7.98395C9.14724 8.00014 9.17056 8.02144 9.18909 8.04664C9.20762 8.07184 9.22101 8.10045 9.22848 8.13082C9.23596 8.1612 9.23738 8.19275 9.23267 8.22367C9.22795 8.25459 9.21719 8.28429 9.201 8.31105C9.18481 8.33782 9.16351 8.36113 9.1383 8.37966C9.1131 8.39819 9.0845 8.41158 9.05412 8.41906C9.02375 8.42653 8.9922 8.42796 8.96128 8.42324C8.93035 8.41852 8.90066 8.40776 8.87389 8.39157L8.87394 8.3916ZM10.0603 9.10928L9.58583 8.82221C9.53178 8.78951 9.49293 8.73668 9.47783 8.67534C9.46273 8.61399 9.47261 8.54916 9.50531 8.49511C9.53801 8.44105 9.59084 8.4022 9.65219 8.3871C9.71353 8.372 9.77836 8.38189 9.83242 8.41459L10.307 8.70167C10.361 8.73436 10.3999 8.7872 10.415 8.84854C10.4301 8.90988 10.4202 8.97471 10.3875 9.02877C10.3548 9.08282 10.302 9.12167 10.2406 9.13678C10.1793 9.15188 10.1145 9.14199 10.0604 9.10929L10.0603 9.10928ZM11.2467 9.82698L10.7722 9.53989C10.7181 9.5072 10.6793 9.45436 10.6642 9.39302C10.6491 9.33168 10.659 9.26685 10.6917 9.21279C10.7244 9.15874 10.7772 9.11989 10.8386 9.10479C10.8999 9.08968 10.9647 9.09957 11.0188 9.13227L11.4933 9.41936C11.5201 9.43555 11.5434 9.45685 11.5619 9.48205C11.5805 9.50725 11.5939 9.53586 11.6013 9.56623C11.6088 9.59661 11.6102 9.62816 11.6055 9.65908C11.6008 9.69 11.59 9.7197 11.5738 9.74646C11.5577 9.77323 11.5363 9.79654 11.5111 9.81507C11.4859 9.8336 11.4573 9.84699 11.427 9.85447C11.3966 9.86194 11.365 9.86337 11.3341 9.85865C11.3032 9.85393 11.2735 9.84317 11.2467 9.82698ZM12.4331 10.5446L11.9586 10.2576C11.9318 10.2414 11.9085 10.2201 11.89 10.1949C11.8714 10.1697 11.858 10.1411 11.8506 10.1107C11.8355 10.0494 11.8453 9.98453 11.878 9.93048C11.9107 9.87642 11.9636 9.83757 12.0249 9.82247C12.0863 9.80737 12.1511 9.81726 12.2051 9.84995L12.6797 10.137C12.7338 10.1697 12.7726 10.2226 12.7877 10.2839C12.8028 10.3453 12.7929 10.4101 12.7602 10.4641C12.7275 10.5182 12.6747 10.557 12.6134 10.5721C12.552 10.5872 12.4872 10.5774 12.4331 10.5447L12.4331 10.5446ZM13.6195 11.2623L13.1449 10.9752C13.0909 10.9425 13.052 10.8897 13.0369 10.8283C13.0218 10.767 13.0317 10.7021 13.0644 10.6481C13.0971 10.594 13.1499 10.5552 13.2113 10.5401C13.2726 10.525 13.3374 10.5349 13.3915 10.5676L13.8661 10.8546C13.8928 10.8708 13.9161 10.8921 13.9347 10.9173C13.9532 10.9425 13.9666 10.9711 13.9741 11.0015C13.9815 11.0319 13.983 11.0634 13.9783 11.0943C13.9735 11.1253 13.9628 11.155 13.9466 11.1817C13.9304 11.2085 13.9091 11.2318 13.8839 11.2503C13.8587 11.2689 13.8301 11.2823 13.7997 11.2897C13.7693 11.2972 13.7378 11.2986 13.7069 11.2939C13.6759 11.2892 13.6462 11.2784 13.6195 11.2622L13.6195 11.2623ZM15.1065 11.8835C15.0903 11.9103 15.069 11.9336 15.0438 11.9521C15.0186 11.9707 14.99 11.984 14.9597 11.9915C14.9293 11.999 14.8977 12.0004 14.8668 11.9957C14.8359 11.991 14.8062 11.9802 14.7794 11.964L14.3049 11.677C14.2781 11.6608 14.2548 11.6395 14.2363 11.6143C14.2178 11.5891 14.2044 11.5605 14.1969 11.5301C14.1894 11.4997 14.188 11.4682 14.1927 11.4373C14.1974 11.4063 14.2082 11.3766 14.2244 11.3499C14.2406 11.3231 14.2619 11.2998 14.2871 11.2813C14.3123 11.2627 14.3409 11.2494 14.3713 11.2419C14.4016 11.2344 14.4332 11.233 14.4641 11.2377C14.495 11.2424 14.5247 11.2532 14.5515 11.2694L15.026 11.5564C15.0528 11.5726 15.0761 11.5939 15.0946 11.6191C15.1132 11.6443 15.1266 11.6729 15.134 11.7033C15.1415 11.7337 15.1429 11.7652 15.1382 11.7961C15.1335 11.8271 15.1227 11.8568 15.1065 11.8835ZM14.9821 10.5575L15.4566 10.8445C15.4833 10.8607 15.5067 10.882 15.5252 10.9072C15.5437 10.9324 15.5571 10.961 15.5646 10.9913C15.5721 11.0217 15.5735 11.0533 15.5688 11.0842C15.5641 11.1151 15.5533 11.1448 15.5371 11.1716C15.5209 11.1983 15.4996 11.2216 15.4744 11.2402C15.4492 11.2587 15.4206 11.2721 15.3902 11.2796C15.3599 11.287 15.3283 11.2885 15.2974 11.2838C15.2665 11.279 15.2368 11.2683 15.21 11.2521L14.7354 10.965C14.6814 10.9323 14.6425 10.8795 14.6274 10.8182C14.6123 10.7568 14.6222 10.692 14.6549 10.6379C14.6876 10.5839 14.7404 10.545 14.8018 10.5299C14.8631 10.5148 14.928 10.5247 14.982 10.5574L14.9821 10.5575ZM13.8221 9.85586L14.2966 10.1429C14.3507 10.1756 14.3895 10.2284 14.4046 10.2898C14.4197 10.3511 14.4098 10.4159 14.3771 10.47C14.3444 10.524 14.2916 10.5629 14.2303 10.578C14.1689 10.5931 14.1041 10.5832 14.05 10.5505L13.5755 10.2635C13.5214 10.2308 13.4826 10.1779 13.4675 10.1166C13.4524 10.0552 13.4623 9.9904 13.495 9.93635C13.5277 9.88229 13.5805 9.84344 13.6418 9.82834C13.7032 9.81324 13.768 9.82313 13.8221 9.85583L13.8221 9.85586ZM12.6357 9.13814L13.1103 9.42523C13.1643 9.45793 13.2032 9.51076 13.2183 9.57211C13.2334 9.63345 13.2235 9.69828 13.1908 9.75233C13.1581 9.80639 13.1052 9.84524 13.0439 9.86034C12.9826 9.87544 12.9177 9.86555 12.8637 9.83286L12.3892 9.54576C12.3624 9.52957 12.3391 9.50826 12.3206 9.48306C12.302 9.45786 12.2886 9.42926 12.2812 9.39888C12.2661 9.33754 12.2759 9.27271 12.3086 9.21866C12.3413 9.1646 12.3942 9.12575 12.4555 9.11065C12.5169 9.09555 12.5817 9.10544 12.6357 9.13813L12.6357 9.13814ZM11.4494 8.42049L11.9239 8.70751C11.9506 8.7237 11.974 8.74501 11.9925 8.77021C12.011 8.79541 12.0244 8.82401 12.0319 8.85439C12.0394 8.88476 12.0408 8.91631 12.0361 8.94724C12.0314 8.97816 12.0206 9.00785 12.0044 9.03462C11.9882 9.06138 11.9669 9.0847 11.9417 9.10323C11.9165 9.12176 11.8879 9.13515 11.8575 9.14262C11.8272 9.1501 11.7956 9.15152 11.7647 9.14681C11.7338 9.14209 11.7041 9.13133 11.6773 9.11514L11.2027 8.82809C11.1487 8.79539 11.1098 8.74256 11.0947 8.68122C11.0796 8.61987 11.0895 8.55504 11.1222 8.50099C11.1549 8.44693 11.2077 8.40808 11.2691 8.39298C11.3304 8.37788 11.3953 8.38777 11.4493 8.42047L11.4494 8.42049ZM10.2629 7.70277L10.7375 7.98993C10.7916 8.02263 10.8304 8.07546 10.8455 8.1368C10.8606 8.19815 10.8508 8.26298 10.8181 8.31703C10.7854 8.37109 10.7325 8.40994 10.6712 8.42504C10.6098 8.44014 10.545 8.43025 10.491 8.39755L10.0163 8.11042C9.96225 8.07772 9.92339 8.02489 9.90829 7.96355C9.89319 7.9022 9.90308 7.83737 9.93578 7.78332C9.96848 7.72927 10.0213 7.69041 10.0827 7.67531C10.144 7.66021 10.2088 7.6701 10.2629 7.7028L10.2629 7.70277ZM9.07662 6.98509L9.55115 7.27215C9.60521 7.30484 9.64406 7.35768 9.65916 7.41902C9.67426 7.48036 9.66437 7.54519 9.63167 7.59925C9.59897 7.6533 9.54614 7.69215 9.4848 7.70725C9.42345 7.72236 9.35862 7.71247 9.30457 7.67977L8.83003 7.39271C8.77598 7.36002 8.73713 7.30718 8.72203 7.24584C8.70693 7.1845 8.71681 7.11967 8.74951 7.06561C8.78221 7.01156 8.83504 6.97271 8.89639 6.95761C8.95773 6.9425 9.02256 6.95239 9.07662 6.98509ZM7.89026 6.26744L8.36474 6.55454C8.41879 6.58724 8.45764 6.64007 8.47274 6.70142C8.48784 6.76276 8.47796 6.82759 8.44526 6.88165C8.41256 6.9357 8.35973 6.97455 8.29838 6.98965C8.23704 7.00475 8.17221 6.99487 8.11815 6.96217L7.64359 6.67512C7.58953 6.64242 7.55068 6.58959 7.53558 6.52825C7.52048 6.4669 7.53037 6.40207 7.56306 6.34802C7.59576 6.29396 7.6486 6.25511 7.70994 6.24001C7.77129 6.22491 7.83611 6.2348 7.89017 6.2675L7.89026 6.26744ZM6.7039 5.54979L7.17844 5.83684C7.2052 5.85303 7.22852 5.87434 7.24705 5.89954C7.26558 5.92474 7.27897 5.95334 7.28645 5.98372C7.29392 6.01409 7.29534 6.04564 7.29063 6.07656C7.28591 6.10749 7.27515 6.13718 7.25896 6.16395C7.24277 6.19071 7.22147 6.21402 7.19626 6.23256C7.17106 6.25109 7.14246 6.26447 7.11208 6.27195C7.08171 6.27943 7.05016 6.28085 7.01924 6.27613C6.98831 6.27142 6.95862 6.26066 6.93186 6.24447L6.45728 5.95739C6.43051 5.9412 6.4072 5.91989 6.38867 5.89469C6.37014 5.86949 6.35675 5.84089 6.34927 5.81051C6.3418 5.78014 6.34037 5.74859 6.34509 5.71766C6.34981 5.68674 6.36057 5.65705 6.37676 5.63028C6.39295 5.60352 6.41425 5.5802 6.43945 5.56167C6.46466 5.54314 6.49326 5.52975 6.52363 5.52228C6.55401 5.5148 6.58556 5.51338 6.61648 5.5181C6.64741 5.52281 6.6771 5.53357 6.70386 5.54976L6.7039 5.54979ZM5.18932 5.10882C5.17806 5.06308 5.18061 5.01502 5.19666 4.97073C5.21271 4.92643 5.24154 4.88789 5.27949 4.85998C5.31745 4.83207 5.36282 4.81604 5.40989 4.81392C5.45695 4.8118 5.50359 4.82369 5.5439 4.84808L6.01843 5.13513C6.07249 5.16783 6.11134 5.22066 6.12644 5.28201C6.14154 5.34335 6.13165 5.40818 6.09896 5.46224C6.06626 5.51629 6.01342 5.55514 5.95208 5.57024C5.89073 5.58534 5.8259 5.57546 5.77185 5.54276L5.29731 5.25567C5.27052 5.23951 5.2472 5.21822 5.22867 5.19302C5.21014 5.16782 5.19676 5.13921 5.18932 5.10882ZM5.1133 5.5599L5.58787 5.84694C5.61463 5.86313 5.63795 5.88444 5.65648 5.90964C5.67501 5.93484 5.6884 5.96344 5.69587 5.99382C5.70335 6.02419 5.70477 6.05574 5.70006 6.08667C5.69534 6.11759 5.68458 6.14728 5.66839 6.17405C5.6522 6.20081 5.63089 6.22413 5.60569 6.24266C5.58049 6.26119 5.55189 6.27458 5.52151 6.28205C5.49114 6.28953 5.45959 6.29095 5.42867 6.28624C5.39774 6.28152 5.36805 6.27076 5.34128 6.25457L4.86662 5.96755C4.81256 5.93485 4.77371 5.88201 4.75861 5.82067C4.74351 5.75933 4.7534 5.6945 4.7861 5.64044C4.81879 5.58639 4.87163 5.54754 4.93297 5.53244C4.99432 5.51734 5.05915 5.52722 5.1132 5.55992L5.1133 5.5599ZM3.81911 6.3421C3.0014 7.81265 2.78589 9.54303 3.21791 11.1692C3.64993 12.7954 4.6958 14.1907 6.13553 15.0615C7.57521 15.9326 9.2966 16.2112 10.9376 15.839C12.5785 15.4668 14.0112 14.4726 14.9341 13.0656L3.81911 6.3421ZM12.4984 12.0439L12.973 12.331C12.9997 12.3472 13.0231 12.3685 13.0416 12.3937C13.0601 12.4189 13.0735 12.4475 13.081 12.4778C13.0885 12.5082 13.0899 12.5398 13.0852 12.5707C13.0805 12.6016 13.0697 12.6313 13.0535 12.6581C13.0373 12.6848 13.016 12.7081 12.9908 12.7267C12.9656 12.7452 12.937 12.7586 12.9066 12.7661C12.8763 12.7735 12.8447 12.775 12.8138 12.7703C12.7829 12.7655 12.7532 12.7548 12.7264 12.7386L12.2518 12.4515C12.2251 12.4353 12.2018 12.414 12.1832 12.3888C12.1647 12.3636 12.1513 12.335 12.1438 12.3046C12.1364 12.2742 12.1349 12.2427 12.1397 12.2117C12.1444 12.1808 12.1551 12.1511 12.1713 12.1244C12.1875 12.0976 12.2088 12.0743 12.234 12.0558C12.2592 12.0372 12.2878 12.0238 12.3182 12.0164C12.3486 12.0089 12.3801 12.0075 12.4111 12.0122C12.442 12.0169 12.4717 12.0277 12.4984 12.0438L12.4984 12.0439ZM11.3121 11.3262L11.7866 11.6132C11.8407 11.6459 11.8795 11.6988 11.8946 11.7601C11.9097 11.8215 11.8998 11.8863 11.8671 11.9403C11.8344 11.9944 11.7816 12.0333 11.7203 12.0484C11.6589 12.0635 11.5941 12.0536 11.54 12.0209L11.0655 11.7338C11.0114 11.7011 10.9726 11.6483 10.9575 11.5869C10.9424 11.5256 10.9523 11.4608 10.985 11.4067C11.0177 11.3527 11.0705 11.3138 11.1318 11.2987C11.1932 11.2836 11.258 11.2935 11.3121 11.3262L11.3121 11.3262ZM10.1257 10.6086L10.6003 10.8957C10.6544 10.9284 10.6932 10.9812 10.7083 11.0425C10.7234 11.1039 10.7135 11.1687 10.6808 11.2228C10.6481 11.2768 10.5953 11.3157 10.5339 11.3308C10.4726 11.3459 10.4078 11.336 10.3537 11.3033L9.87918 11.0162C9.82513 10.9835 9.78628 10.9307 9.77118 10.8693C9.75608 10.808 9.76596 10.7432 9.79866 10.6891C9.83136 10.6351 9.88419 10.5962 9.94554 10.5811C10.0069 10.566 10.0717 10.5759 10.1258 10.6086L10.1257 10.6086ZM8.93936 9.89089L9.4139 10.1779C9.46795 10.2106 9.5068 10.2635 9.5219 10.3248C9.537 10.3862 9.52712 10.451 9.49442 10.505C9.46172 10.5591 9.40889 10.598 9.34754 10.6131C9.2862 10.6282 9.22137 10.6183 9.16731 10.5856L8.69274 10.2985C8.66597 10.2823 8.64266 10.261 8.62413 10.2358C8.60559 10.2106 8.59221 10.182 8.58473 10.1516C8.57725 10.1212 8.57583 10.0897 8.58055 10.0588C8.58526 10.0278 8.59602 9.99815 8.61221 9.97138C8.62841 9.94462 8.64971 9.92131 8.67491 9.90277C8.70011 9.88424 8.72872 9.87086 8.75909 9.86338C8.78947 9.8559 8.82102 9.85448 8.85194 9.8592C8.88286 9.86391 8.91255 9.87467 8.93932 9.89086L8.93936 9.89089ZM7.75292 9.17319L8.22746 9.46028C8.28152 9.49297 8.32037 9.54581 8.33547 9.60715C8.35057 9.66849 8.34069 9.73332 8.30799 9.78738C8.27529 9.84143 8.22245 9.88028 8.16111 9.89538C8.09977 9.91048 8.03494 9.9006 7.98088 9.8679L7.50634 9.58081C7.45228 9.54811 7.41343 9.49528 7.39833 9.43394C7.38323 9.37259 7.39312 9.30776 7.42582 9.25371C7.45852 9.19965 7.51135 9.1608 7.57269 9.1457C7.63404 9.1306 7.69887 9.14049 7.75292 9.17319ZM6.56656 8.45554L7.0411 8.74259C7.06786 8.75878 7.09118 8.78009 7.10971 8.80529C7.12824 8.83049 7.14163 8.85909 7.14911 8.88947C7.15658 8.91984 7.158 8.95139 7.15329 8.98231C7.14857 9.01324 7.13781 9.04293 7.12162 9.06969C7.10543 9.09646 7.08413 9.11977 7.05892 9.1383C7.03372 9.15684 7.00512 9.17022 6.97475 9.1777C6.94437 9.18518 6.91282 9.1866 6.8819 9.18188C6.85097 9.17717 6.82128 9.16641 6.79452 9.15022L6.31994 8.86314C6.29318 8.84694 6.26986 8.82564 6.25133 8.80044C6.2328 8.77524 6.21941 8.74663 6.21193 8.71626C6.20446 8.68589 6.20304 8.65434 6.20775 8.62341C6.21247 8.59249 6.22323 8.5628 6.23942 8.53603C6.25561 8.50927 6.27691 8.48595 6.30212 8.46742C6.32732 8.44889 6.35592 8.4355 6.38629 8.42803C6.41667 8.42055 6.44822 8.41913 6.47914 8.42384C6.51007 8.42856 6.53976 8.43932 6.56652 8.45551L6.56656 8.45554ZM5.38023 7.73795L5.85475 8.02497C5.88152 8.04116 5.90483 8.06247 5.92336 8.08767C5.94189 8.11287 5.95528 8.14147 5.96276 8.17185C5.97023 8.20222 5.97166 8.23377 5.96694 8.2647C5.96222 8.29562 5.95146 8.32531 5.93527 8.35208C5.91908 8.37884 5.89778 8.40216 5.87258 8.42069C5.84737 8.43922 5.81877 8.4526 5.7884 8.46008C5.75802 8.46756 5.72647 8.46898 5.69555 8.46426C5.66462 8.45955 5.63493 8.44879 5.60817 8.4326L5.13365 8.14561C5.10689 8.12942 5.08357 8.10811 5.06504 8.08291C5.04651 8.05771 5.03312 8.02911 5.02564 7.99873C5.01817 7.96836 5.01675 7.93681 5.02146 7.90589C5.02618 7.87496 5.03694 7.84527 5.05313 7.81851C5.06932 7.79174 5.09062 7.76843 5.11582 7.74989C5.14102 7.73136 5.16963 7.71798 5.2 7.7105C5.23038 7.70302 5.26193 7.7016 5.29285 7.70632C5.32378 7.71103 5.35347 7.72179 5.38023 7.73798L5.38023 7.73795ZM3.86575 7.297C3.85448 7.25125 3.85704 7.20319 3.87309 7.1589C3.88914 7.1146 3.91797 7.07606 3.95592 7.04815C3.99387 7.02024 4.03925 7.00421 4.08632 7.0021C4.13338 6.99998 4.18002 7.01186 4.22033 7.03625L4.69486 7.3233C4.72163 7.33949 4.74494 7.3608 4.76347 7.386C4.782 7.4112 4.79539 7.4398 4.80287 7.47018C4.81035 7.50055 4.81177 7.5321 4.80705 7.56303C4.80233 7.59395 4.79157 7.62364 4.77538 7.65041C4.75919 7.67717 4.73789 7.70049 4.71269 7.71902C4.68749 7.73755 4.65888 7.75094 4.62851 7.75841C4.59813 7.76589 4.56658 7.76731 4.53566 7.7626C4.50474 7.75788 4.47504 7.74712 4.44828 7.73093L3.97364 7.44376C3.94689 7.4276 3.92358 7.40632 3.90507 7.38113C3.88655 7.35595 3.87319 7.32735 3.86575 7.297ZM4.01771 8.44274L3.54308 8.15571C3.51631 8.13952 3.493 8.11821 3.47447 8.09301C3.45594 8.06781 3.44255 8.03921 3.43507 8.00883C3.4276 7.97846 3.42617 7.94691 3.43089 7.91599C3.43561 7.88506 3.44637 7.85537 3.46256 7.82861C3.47875 7.80184 3.50005 7.77853 3.52525 7.76C3.55045 7.74146 3.57906 7.72808 3.60943 7.7206C3.63981 7.71312 3.67136 7.7117 3.70228 7.71642C3.7332 7.72113 3.7629 7.73189 3.78966 7.74808L4.26423 8.03513C4.31828 8.06783 4.35713 8.12066 4.37224 8.18201C4.38734 8.24335 4.37745 8.30818 4.34475 8.36224C4.31205 8.41629 4.25922 8.45514 4.19787 8.47024C4.13653 8.48534 4.0717 8.47546 4.01765 8.44276L4.01771 8.44274ZM5.17771 9.14442L4.70318 8.8574C4.64913 8.8247 4.61028 8.77187 4.59518 8.71052C4.58007 8.64918 4.58996 8.58435 4.62266 8.53029C4.65536 8.47624 4.70819 8.43739 4.76954 8.42229C4.83088 8.40719 4.89571 8.41707 4.94977 8.44977L5.4243 8.73683C5.47835 8.76953 5.51721 8.82236 5.53231 8.8837C5.54741 8.94505 5.53752 9.00988 5.50482 9.06393C5.47212 9.11798 5.41929 9.15684 5.35795 9.17194C5.2966 9.18704 5.23177 9.17715 5.17772 9.14445L5.17771 9.14442ZM6.36395 9.86203L5.88941 9.57494C5.86264 9.55875 5.83933 9.53744 5.8208 9.51224C5.80226 9.48704 5.78888 9.45844 5.7814 9.42806C5.77392 9.39769 5.7725 9.36614 5.77722 9.33522C5.78194 9.30429 5.7927 9.2746 5.80889 9.24784C5.82508 9.22107 5.84638 9.19776 5.87158 9.17923C5.89678 9.16069 5.92539 9.14731 5.95576 9.13983C5.98614 9.13235 6.01769 9.13093 6.04861 9.13565C6.07953 9.14036 6.10923 9.15112 6.13599 9.16731L6.6105 9.45441C6.63726 9.4706 6.66058 9.49191 6.67911 9.51711C6.69764 9.54231 6.71103 9.57091 6.71851 9.60129C6.72598 9.63166 6.7274 9.66321 6.72269 9.69413C6.71797 9.72506 6.70721 9.75475 6.69102 9.78151C6.67483 9.80828 6.65353 9.83159 6.62833 9.85013C6.60312 9.86866 6.57452 9.88204 6.54415 9.88952C6.51377 9.897 6.48222 9.89842 6.4513 9.8937C6.42037 9.88899 6.39068 9.87823 6.36392 9.86204L6.36395 9.86203ZM7.55031 10.5797L7.07578 10.2927C7.04902 10.2765 7.0257 10.2552 7.00717 10.23C6.98864 10.2048 6.97525 10.1762 6.96777 10.1458C6.9603 10.1154 6.95888 10.0839 6.96359 10.0529C6.96831 10.022 6.97907 9.99232 6.99526 9.96555C7.01145 9.93879 7.03275 9.91547 7.05795 9.89694C7.08316 9.87841 7.11176 9.86502 7.14214 9.85755C7.17251 9.85007 7.20406 9.84865 7.23498 9.85336C7.26591 9.85808 7.2956 9.86884 7.32236 9.88503L7.79693 10.1721C7.8237 10.1883 7.84701 10.2096 7.86554 10.2348C7.88407 10.26 7.89746 10.2886 7.90494 10.319C7.91241 10.3493 7.91384 10.3809 7.90912 10.4118C7.9044 10.4427 7.89364 10.4724 7.87745 10.4992C7.86126 10.5259 7.83996 10.5493 7.81476 10.5678C7.78956 10.5863 7.76095 10.5997 7.73058 10.6072C7.7002 10.6147 7.66865 10.6161 7.63773 10.6114C7.60681 10.6067 7.57711 10.5959 7.55035 10.5797L7.55031 10.5797ZM8.73679 11.2974L8.26212 11.0102C8.23536 10.9941 8.21204 10.9727 8.19351 10.9475C8.17498 10.9223 8.16159 10.8937 8.15411 10.8634C8.14664 10.833 8.14522 10.8014 8.14993 10.7705C8.15465 10.7396 8.16541 10.7099 8.1816 10.6831C8.19779 10.6564 8.21909 10.6331 8.2443 10.6145C8.2695 10.596 8.2981 10.5826 8.32848 10.5751C8.35885 10.5677 8.3904 10.5662 8.42132 10.5709C8.45225 10.5757 8.48194 10.5864 8.5087 10.6026L8.98336 10.8897C9.01013 10.9059 9.03344 10.9272 9.05197 10.9524C9.07051 10.9776 9.08389 11.0062 9.09137 11.0366C9.09885 11.067 9.10027 11.0985 9.09555 11.1295C9.09084 11.1604 9.08007 11.1901 9.06388 11.2169C9.04769 11.2436 9.02639 11.2669 9.00119 11.2855C8.97599 11.304 8.94738 11.3174 8.91701 11.3249C8.88663 11.3323 8.85508 11.3338 8.82416 11.329C8.79324 11.3243 8.76354 11.3136 8.73678 11.2974L8.73679 11.2974ZM9.92314 12.0151L9.44861 11.728C9.42184 11.7118 9.39853 11.6905 9.38 11.6653C9.36147 11.6401 9.34808 11.6115 9.3406 11.5811C9.33313 11.5508 9.3317 11.5192 9.33642 11.4883C9.34114 11.4574 9.3519 11.4277 9.36809 11.4009C9.38428 11.3741 9.40558 11.3508 9.43078 11.3323C9.45599 11.3138 9.48459 11.3004 9.51496 11.2929C9.54534 11.2854 9.57689 11.284 9.60781 11.2887C9.63874 11.2934 9.66843 11.3042 9.69519 11.3204L10.1698 11.6075C10.1965 11.6236 10.2198 11.645 10.2384 11.6702C10.2569 11.6954 10.2703 11.724 10.2778 11.7543C10.2853 11.7847 10.2867 11.8163 10.282 11.8472C10.2772 11.8781 10.2665 11.9078 10.2503 11.9346C10.2341 11.9613 10.2128 11.9846 10.1876 12.0032C10.1624 12.0217 10.1338 12.0351 10.1034 12.0426C10.073 12.05 10.0415 12.0515 10.0106 12.0467C9.97964 12.042 9.94995 12.0313 9.92319 12.0151L9.92314 12.0151ZM11.1095 12.7327L10.6349 12.4456C10.5809 12.4129 10.542 12.3601 10.5269 12.2988C10.5118 12.2374 10.5217 12.1726 10.5544 12.1185C10.5871 12.0645 10.6399 12.0256 10.7013 12.0105C10.7626 11.9954 10.8275 12.0053 10.8815 12.038L11.3561 12.325C11.3828 12.3412 11.4062 12.3625 11.4247 12.3877C11.4432 12.4129 11.4566 12.4416 11.4641 12.4719C11.4716 12.5023 11.473 12.5338 11.4683 12.5648C11.4635 12.5957 11.4528 12.6254 11.4366 12.6522C11.4204 12.6789 11.3991 12.7022 11.3739 12.7208C11.3487 12.7393 11.3201 12.7527 11.2897 12.7602C11.2593 12.7676 11.2278 12.7691 11.1969 12.7643C11.1659 12.7596 11.1363 12.7489 11.1095 12.7327L11.1095 12.7327ZM12.2959 13.4504L11.8213 13.1633C11.7673 13.1306 11.7284 13.0778 11.7133 13.0164C11.6982 12.9551 11.7081 12.8903 11.7408 12.8362C11.7735 12.7821 11.8263 12.7433 11.8877 12.7282C11.949 12.7131 12.0139 12.723 12.0679 12.7557L12.5425 13.0428C12.5965 13.0755 12.6354 13.1283 12.6505 13.1896C12.6656 13.251 12.6557 13.3158 12.623 13.3699C12.5903 13.4239 12.5375 13.4628 12.4761 13.4779C12.4148 13.493 12.35 13.4831 12.2959 13.4504L12.2959 13.4504ZM13.7829 14.0716C13.7667 14.0983 13.7454 14.1216 13.7202 14.1402C13.695 14.1587 13.6664 14.1721 13.6361 14.1796C13.6057 14.187 13.5741 14.1885 13.5432 14.1837C13.5123 14.179 13.4826 14.1683 13.4558 14.1521L12.9813 13.865C12.9272 13.8323 12.8884 13.7795 12.8733 13.7181C12.8582 13.6568 12.8681 13.592 12.9008 13.5379C12.9335 13.4839 12.9863 13.445 13.0476 13.4299C13.109 13.4148 13.1738 13.4247 13.2279 13.4574L13.7024 13.7445C13.7565 13.7772 13.7953 13.83 13.8104 13.8914C13.8254 13.9527 13.8155 14.0175 13.7828 14.0716L13.7829 14.0716ZM13.8865 13.4402L13.4119 13.1532C13.3578 13.1205 13.319 13.0677 13.3039 13.0063C13.2888 12.945 13.2987 12.8802 13.3314 12.8261C13.3641 12.772 13.4169 12.7332 13.4782 12.7181C13.5396 12.703 13.6044 12.7129 13.6585 12.7456L14.133 13.0326C14.1598 13.0488 14.1831 13.0701 14.2017 13.0953C14.2202 13.1205 14.2336 13.1491 14.2411 13.1795C14.2485 13.2099 14.2499 13.2414 14.2452 13.2723C14.2405 13.3033 14.2298 13.333 14.2136 13.3597C14.1974 13.3865 14.1761 13.4098 14.1509 13.4283C14.1257 13.4469 14.0971 13.4603 14.0667 13.4677C14.0363 13.4752 14.0048 13.4766 13.9738 13.4719C13.9429 13.4672 13.9132 13.4564 13.8865 13.4402Z" fill="black"/>
</svg>
