<svg width="391" height="32" viewBox="0 0 391 32" fill="none" xmlns="http://www.w3.org/2000/svg">
<rect width="390.942" height="32" fill="#FF9D42"/>
<path d="M69.0586 23L66.3086 14.0391H66.2383C66.3372 15.862 66.3867 17.0781 66.3867 17.6875V23H64.2227V11.5781H67.5195L70.2227 20.3125H70.2695L73.1367 11.5781H76.4336V23H74.1758V17.5938C74.1758 17.3385 74.1784 17.0443 74.1836 16.7109C74.194 16.3776 74.2305 15.4922 74.293 14.0547H74.2227L71.2773 23H69.0586ZM84.6758 23L84.2148 21.8125H84.1523C83.7513 22.3177 83.3372 22.6693 82.9102 22.8672C82.4883 23.0599 81.9362 23.1562 81.2539 23.1562C80.4154 23.1562 79.7539 22.9167 79.2695 22.4375C78.7904 21.9583 78.5508 21.276 78.5508 20.3906C78.5508 19.4635 78.8737 18.7812 79.5195 18.3438C80.1706 17.901 81.1497 17.6562 82.457 17.6094L83.9727 17.5625V17.1797C83.9727 16.2943 83.5195 15.8516 82.6133 15.8516C81.9154 15.8516 81.0951 16.0625 80.1523 16.4844L79.3633 14.875C80.3685 14.349 81.4831 14.0859 82.707 14.0859C83.8789 14.0859 84.7773 14.3411 85.4023 14.8516C86.0273 15.362 86.3398 16.138 86.3398 17.1797V23H84.6758ZM83.9727 18.9531L83.0508 18.9844C82.3581 19.0052 81.8424 19.1302 81.5039 19.3594C81.1654 19.5885 80.9961 19.9375 80.9961 20.4062C80.9961 21.0781 81.3815 21.4141 82.1523 21.4141C82.7044 21.4141 83.1445 21.2552 83.4727 20.9375C83.806 20.6198 83.9727 20.1979 83.9727 19.6719V18.9531ZM92.4805 21.2578C92.8971 21.2578 93.3971 21.1667 93.9805 20.9844V22.7578C93.3867 23.0234 92.6576 23.1562 91.793 23.1562C90.8398 23.1562 90.1445 22.9167 89.707 22.4375C89.2747 21.9531 89.0586 21.2292 89.0586 20.2656V16.0547H87.918V15.0469L89.2305 14.25L89.918 12.4062H91.4414V14.2656H93.8867V16.0547H91.4414V20.2656C91.4414 20.6042 91.5352 20.8542 91.7227 21.0156C91.9154 21.1771 92.168 21.2578 92.4805 21.2578ZM99.3008 23.1562C96.582 23.1562 95.2227 21.6641 95.2227 18.6797C95.2227 17.1953 95.5924 16.0625 96.332 15.2812C97.0716 14.4948 98.1315 14.1016 99.5117 14.1016C100.522 14.1016 101.428 14.2995 102.23 14.6953L101.527 16.5391C101.152 16.388 100.803 16.2656 100.48 16.1719C100.158 16.0729 99.8346 16.0234 99.5117 16.0234C98.2721 16.0234 97.6523 16.9036 97.6523 18.6641C97.6523 20.3724 98.2721 21.2266 99.5117 21.2266C99.9701 21.2266 100.395 21.1667 100.785 21.0469C101.176 20.9219 101.566 20.7292 101.957 20.4688V22.5078C101.572 22.7526 101.181 22.9219 100.785 23.0156C100.395 23.1094 99.8997 23.1562 99.3008 23.1562ZM112.051 23H109.668V17.8984C109.668 16.638 109.199 16.0078 108.262 16.0078C107.595 16.0078 107.113 16.2344 106.816 16.6875C106.52 17.1406 106.371 17.875 106.371 18.8906V23H103.988V10.8438H106.371V13.3203C106.371 13.513 106.353 13.9661 106.316 14.6797L106.262 15.3828H106.387C106.918 14.5286 107.762 14.1016 108.918 14.1016C109.944 14.1016 110.723 14.3776 111.254 14.9297C111.785 15.4818 112.051 16.2734 112.051 17.3047V23ZM124.207 23L123.746 21.8125H123.684C123.283 22.3177 122.868 22.6693 122.441 22.8672C122.02 23.0599 121.467 23.1562 120.785 23.1562C119.947 23.1562 119.285 22.9167 118.801 22.4375C118.322 21.9583 118.082 21.276 118.082 20.3906C118.082 19.4635 118.405 18.7812 119.051 18.3438C119.702 17.901 120.681 17.6562 121.988 17.6094L123.504 17.5625V17.1797C123.504 16.2943 123.051 15.8516 122.145 15.8516C121.447 15.8516 120.626 16.0625 119.684 16.4844L118.895 14.875C119.9 14.349 121.014 14.0859 122.238 14.0859C123.41 14.0859 124.309 14.3411 124.934 14.8516C125.559 15.362 125.871 16.138 125.871 17.1797V23H124.207ZM123.504 18.9531L122.582 18.9844C121.889 19.0052 121.374 19.1302 121.035 19.3594C120.697 19.5885 120.527 19.9375 120.527 20.4062C120.527 21.0781 120.913 21.4141 121.684 21.4141C122.236 21.4141 122.676 21.2552 123.004 20.9375C123.337 20.6198 123.504 20.1979 123.504 19.6719V18.9531ZM136.395 23H134.012V17.8984C134.012 17.2682 133.9 16.7969 133.676 16.4844C133.452 16.1667 133.095 16.0078 132.605 16.0078C131.939 16.0078 131.457 16.2318 131.16 16.6797C130.863 17.1224 130.715 17.8594 130.715 18.8906V23H128.332V14.2656H130.152L130.473 15.3828H130.605C130.871 14.9609 131.236 14.6432 131.699 14.4297C132.168 14.2109 132.699 14.1016 133.293 14.1016C134.309 14.1016 135.079 14.3776 135.605 14.9297C136.132 15.4766 136.395 16.2682 136.395 17.3047V23ZM144.395 23L143.934 21.8125H143.871C143.47 22.3177 143.056 22.6693 142.629 22.8672C142.207 23.0599 141.655 23.1562 140.973 23.1562C140.134 23.1562 139.473 22.9167 138.988 22.4375C138.509 21.9583 138.27 21.276 138.27 20.3906C138.27 19.4635 138.592 18.7812 139.238 18.3438C139.889 17.901 140.868 17.6562 142.176 17.6094L143.691 17.5625V17.1797C143.691 16.2943 143.238 15.8516 142.332 15.8516C141.634 15.8516 140.814 16.0625 139.871 16.4844L139.082 14.875C140.087 14.349 141.202 14.0859 142.426 14.0859C143.598 14.0859 144.496 14.3411 145.121 14.8516C145.746 15.362 146.059 16.138 146.059 17.1797V23H144.395ZM143.691 18.9531L142.77 18.9844C142.077 19.0052 141.561 19.1302 141.223 19.3594C140.884 19.5885 140.715 19.9375 140.715 20.4062C140.715 21.0781 141.1 21.4141 141.871 21.4141C142.423 21.4141 142.863 21.2552 143.191 20.9375C143.525 20.6198 143.691 20.1979 143.691 19.6719V18.9531ZM150.902 23H148.52V10.8438H150.902V23ZM152.16 14.2656H154.77L156.418 19.1797C156.559 19.6068 156.655 20.112 156.707 20.6953H156.754C156.811 20.1589 156.923 19.6536 157.09 19.1797L158.707 14.2656H161.262L157.566 24.1172C157.228 25.0286 156.743 25.7109 156.113 26.1641C155.488 26.6172 154.757 26.8438 153.918 26.8438C153.507 26.8438 153.103 26.7995 152.707 26.7109V24.8203C152.993 24.888 153.306 24.9219 153.645 24.9219C154.066 24.9219 154.434 24.7917 154.746 24.5312C155.064 24.276 155.311 23.888 155.488 23.3672L155.629 22.9375L152.16 14.2656ZM168.613 20.4062C168.613 21.3021 168.301 21.9844 167.676 22.4531C167.056 22.9219 166.126 23.1562 164.887 23.1562C164.251 23.1562 163.71 23.112 163.262 23.0234C162.814 22.9401 162.395 22.8151 162.004 22.6484V20.6797C162.447 20.888 162.944 21.0625 163.496 21.2031C164.053 21.3438 164.543 21.4141 164.965 21.4141C165.829 21.4141 166.262 21.1641 166.262 20.6641C166.262 20.4766 166.204 20.3255 166.09 20.2109C165.975 20.0911 165.777 19.9583 165.496 19.8125C165.215 19.6615 164.84 19.487 164.371 19.2891C163.699 19.0078 163.204 18.7474 162.887 18.5078C162.574 18.2682 162.345 17.9948 162.199 17.6875C162.059 17.375 161.988 16.9922 161.988 16.5391C161.988 15.763 162.288 15.1641 162.887 14.7422C163.491 14.3151 164.345 14.1016 165.449 14.1016C166.501 14.1016 167.525 14.3307 168.52 14.7891L167.801 16.5078C167.363 16.3203 166.954 16.1667 166.574 16.0469C166.194 15.9271 165.806 15.8672 165.41 15.8672C164.707 15.8672 164.355 16.0573 164.355 16.4375C164.355 16.651 164.467 16.8359 164.691 16.9922C164.921 17.1484 165.418 17.3802 166.184 17.6875C166.866 17.9635 167.366 18.2214 167.684 18.4609C168.001 18.7005 168.236 18.9766 168.387 19.2891C168.538 19.6016 168.613 19.974 168.613 20.4062ZM170.371 12.0078C170.371 11.2318 170.803 10.8438 171.668 10.8438C172.533 10.8438 172.965 11.2318 172.965 12.0078C172.965 12.3776 172.855 12.6667 172.637 12.875C172.423 13.0781 172.1 13.1797 171.668 13.1797C170.803 13.1797 170.371 12.7891 170.371 12.0078ZM172.855 23H170.473V14.2656H172.855V23ZM181.457 20.4062C181.457 21.3021 181.145 21.9844 180.52 22.4531C179.9 22.9219 178.97 23.1562 177.73 23.1562C177.095 23.1562 176.553 23.112 176.105 23.0234C175.658 22.9401 175.238 22.8151 174.848 22.6484V20.6797C175.29 20.888 175.788 21.0625 176.34 21.2031C176.897 21.3438 177.387 21.4141 177.809 21.4141C178.673 21.4141 179.105 21.1641 179.105 20.6641C179.105 20.4766 179.048 20.3255 178.934 20.2109C178.819 20.0911 178.621 19.9583 178.34 19.8125C178.059 19.6615 177.684 19.487 177.215 19.2891C176.543 19.0078 176.048 18.7474 175.73 18.5078C175.418 18.2682 175.189 17.9948 175.043 17.6875C174.902 17.375 174.832 16.9922 174.832 16.5391C174.832 15.763 175.132 15.1641 175.73 14.7422C176.335 14.3151 177.189 14.1016 178.293 14.1016C179.345 14.1016 180.368 14.3307 181.363 14.7891L180.645 16.5078C180.207 16.3203 179.798 16.1667 179.418 16.0469C179.038 15.9271 178.65 15.8672 178.254 15.8672C177.551 15.8672 177.199 16.0573 177.199 16.4375C177.199 16.651 177.311 16.8359 177.535 16.9922C177.764 17.1484 178.262 17.3802 179.027 17.6875C179.71 17.9635 180.21 18.2214 180.527 18.4609C180.845 18.7005 181.079 18.9766 181.23 19.2891C181.382 19.6016 181.457 19.974 181.457 20.4062ZM192.301 16.0547H190.238V23H187.855V16.0547H186.543V14.9062L187.855 14.2656V13.625C187.855 12.6302 188.1 11.9036 188.59 11.4453C189.079 10.987 189.863 10.7578 190.941 10.7578C191.764 10.7578 192.496 10.8802 193.137 11.125L192.527 12.875C192.048 12.724 191.605 12.6484 191.199 12.6484C190.861 12.6484 190.616 12.75 190.465 12.9531C190.314 13.151 190.238 13.4062 190.238 13.7188V14.2656H192.301V16.0547ZM198.551 14.1016C198.874 14.1016 199.142 14.125 199.355 14.1719L199.176 16.4062C198.983 16.3542 198.749 16.3281 198.473 16.3281C197.712 16.3281 197.118 16.5234 196.691 16.9141C196.27 17.3047 196.059 17.8516 196.059 18.5547V23H193.676V14.2656H195.48L195.832 15.7344H195.949C196.22 15.2448 196.585 14.8516 197.043 14.5547C197.507 14.2526 198.009 14.1016 198.551 14.1016ZM202.84 18.6172C202.84 19.4818 202.98 20.1354 203.262 20.5781C203.548 21.0208 204.012 21.2422 204.652 21.2422C205.288 21.2422 205.743 21.0234 206.02 20.5859C206.301 20.1432 206.441 19.487 206.441 18.6172C206.441 17.7526 206.301 17.1042 206.02 16.6719C205.738 16.2396 205.277 16.0234 204.637 16.0234C204.001 16.0234 203.543 16.2396 203.262 16.6719C202.98 17.099 202.84 17.7474 202.84 18.6172ZM208.879 18.6172C208.879 20.0391 208.504 21.151 207.754 21.9531C207.004 22.7552 205.96 23.1562 204.621 23.1562C203.783 23.1562 203.043 22.974 202.402 22.6094C201.762 22.2396 201.27 21.7109 200.926 21.0234C200.582 20.3359 200.41 19.5339 200.41 18.6172C200.41 17.1901 200.783 16.0807 201.527 15.2891C202.272 14.4974 203.319 14.1016 204.668 14.1016C205.507 14.1016 206.246 14.2839 206.887 14.6484C207.527 15.013 208.02 15.5365 208.363 16.2188C208.707 16.901 208.879 17.7005 208.879 18.6172ZM218.668 23H216.285V17.8984C216.285 17.2682 216.178 16.7969 215.965 16.4844C215.757 16.1667 215.426 16.0078 214.973 16.0078C214.363 16.0078 213.921 16.2318 213.645 16.6797C213.368 17.1276 213.23 17.8646 213.23 18.8906V23H210.848V14.2656H212.668L212.988 15.3828H213.121C213.355 14.9818 213.694 14.6693 214.137 14.4453C214.579 14.2161 215.087 14.1016 215.66 14.1016C216.967 14.1016 217.853 14.5286 218.316 15.3828H218.527C218.762 14.9766 219.105 14.6615 219.559 14.4375C220.017 14.2135 220.533 14.1016 221.105 14.1016C222.095 14.1016 222.842 14.3568 223.348 14.8672C223.858 15.3724 224.113 16.1849 224.113 17.3047V23H221.723V17.8984C221.723 17.2682 221.616 16.7969 221.402 16.4844C221.194 16.1667 220.863 16.0078 220.41 16.0078C219.827 16.0078 219.389 16.2161 219.098 16.6328C218.811 17.0495 218.668 17.7109 218.668 18.6172V23ZM234.402 21.2578C234.819 21.2578 235.319 21.1667 235.902 20.9844V22.7578C235.309 23.0234 234.579 23.1562 233.715 23.1562C232.762 23.1562 232.066 22.9167 231.629 22.4375C231.197 21.9531 230.98 21.2292 230.98 20.2656V16.0547H229.84V15.0469L231.152 14.25L231.84 12.4062H233.363V14.2656H235.809V16.0547H233.363V20.2656C233.363 20.6042 233.457 20.8542 233.645 21.0156C233.837 21.1771 234.09 21.2578 234.402 21.2578ZM245.738 23H243.355V17.8984C243.355 16.638 242.887 16.0078 241.949 16.0078C241.283 16.0078 240.801 16.2344 240.504 16.6875C240.207 17.1406 240.059 17.875 240.059 18.8906V23H237.676V10.8438H240.059V13.3203C240.059 13.513 240.04 13.9661 240.004 14.6797L239.949 15.3828H240.074C240.605 14.5286 241.449 14.1016 242.605 14.1016C243.632 14.1016 244.41 14.3776 244.941 14.9297C245.473 15.4818 245.738 16.2734 245.738 17.3047V23ZM251.809 15.7969C251.303 15.7969 250.908 15.9583 250.621 16.2812C250.335 16.599 250.171 17.0521 250.129 17.6406H253.473C253.462 17.0521 253.309 16.599 253.012 16.2812C252.715 15.9583 252.314 15.7969 251.809 15.7969ZM252.145 23.1562C250.738 23.1562 249.639 22.7682 248.848 21.9922C248.056 21.2161 247.66 20.1172 247.66 18.6953C247.66 17.2318 248.025 16.1016 248.754 15.3047C249.488 14.5026 250.501 14.1016 251.793 14.1016C253.027 14.1016 253.988 14.4531 254.676 15.1562C255.363 15.8594 255.707 16.8307 255.707 18.0703V19.2266H250.074C250.1 19.9036 250.301 20.4323 250.676 20.8125C251.051 21.1927 251.577 21.3828 252.254 21.3828C252.78 21.3828 253.277 21.3281 253.746 21.2188C254.215 21.1094 254.704 20.9349 255.215 20.6953V22.5391C254.798 22.7474 254.353 22.901 253.879 23C253.405 23.1042 252.827 23.1562 252.145 23.1562ZM269.621 23H267.238V17.8984C267.238 17.2682 267.132 16.7969 266.918 16.4844C266.71 16.1667 266.379 16.0078 265.926 16.0078C265.316 16.0078 264.874 16.2318 264.598 16.6797C264.322 17.1276 264.184 17.8646 264.184 18.8906V23H261.801V14.2656H263.621L263.941 15.3828H264.074C264.309 14.9818 264.647 14.6693 265.09 14.4453C265.533 14.2161 266.04 14.1016 266.613 14.1016C267.921 14.1016 268.806 14.5286 269.27 15.3828H269.48C269.715 14.9766 270.059 14.6615 270.512 14.4375C270.97 14.2135 271.486 14.1016 272.059 14.1016C273.048 14.1016 273.796 14.3568 274.301 14.8672C274.811 15.3724 275.066 16.1849 275.066 17.3047V23H272.676V17.8984C272.676 17.2682 272.569 16.7969 272.355 16.4844C272.147 16.1667 271.816 16.0078 271.363 16.0078C270.78 16.0078 270.342 16.2161 270.051 16.6328C269.764 17.0495 269.621 17.7109 269.621 18.6172V23ZM283.066 23L282.605 21.8125H282.543C282.142 22.3177 281.728 22.6693 281.301 22.8672C280.879 23.0599 280.327 23.1562 279.645 23.1562C278.806 23.1562 278.145 22.9167 277.66 22.4375C277.181 21.9583 276.941 21.276 276.941 20.3906C276.941 19.4635 277.264 18.7812 277.91 18.3438C278.561 17.901 279.54 17.6562 280.848 17.6094L282.363 17.5625V17.1797C282.363 16.2943 281.91 15.8516 281.004 15.8516C280.306 15.8516 279.486 16.0625 278.543 16.4844L277.754 14.875C278.759 14.349 279.874 14.0859 281.098 14.0859C282.27 14.0859 283.168 14.3411 283.793 14.8516C284.418 15.362 284.73 16.138 284.73 17.1797V23H283.066ZM282.363 18.9531L281.441 18.9844C280.749 19.0052 280.233 19.1302 279.895 19.3594C279.556 19.5885 279.387 19.9375 279.387 20.4062C279.387 21.0781 279.772 21.4141 280.543 21.4141C281.095 21.4141 281.535 21.2552 281.863 20.9375C282.197 20.6198 282.363 20.1979 282.363 19.6719V18.9531ZM293.285 20.4062C293.285 21.3021 292.973 21.9844 292.348 22.4531C291.728 22.9219 290.798 23.1562 289.559 23.1562C288.923 23.1562 288.382 23.112 287.934 23.0234C287.486 22.9401 287.066 22.8151 286.676 22.6484V20.6797C287.118 20.888 287.616 21.0625 288.168 21.2031C288.725 21.3438 289.215 21.4141 289.637 21.4141C290.501 21.4141 290.934 21.1641 290.934 20.6641C290.934 20.4766 290.876 20.3255 290.762 20.2109C290.647 20.0911 290.449 19.9583 290.168 19.8125C289.887 19.6615 289.512 19.487 289.043 19.2891C288.371 19.0078 287.876 18.7474 287.559 18.5078C287.246 18.2682 287.017 17.9948 286.871 17.6875C286.73 17.375 286.66 16.9922 286.66 16.5391C286.66 15.763 286.96 15.1641 287.559 14.7422C288.163 14.3151 289.017 14.1016 290.121 14.1016C291.173 14.1016 292.197 14.3307 293.191 14.7891L292.473 16.5078C292.035 16.3203 291.626 16.1667 291.246 16.0469C290.866 15.9271 290.478 15.8672 290.082 15.8672C289.379 15.8672 289.027 16.0573 289.027 16.4375C289.027 16.651 289.139 16.8359 289.363 16.9922C289.592 17.1484 290.09 17.3802 290.855 17.6875C291.538 17.9635 292.038 18.2214 292.355 18.4609C292.673 18.7005 292.908 18.9766 293.059 19.2891C293.21 19.6016 293.285 19.974 293.285 20.4062ZM298.824 21.2578C299.241 21.2578 299.741 21.1667 300.324 20.9844V22.7578C299.73 23.0234 299.001 23.1562 298.137 23.1562C297.184 23.1562 296.488 22.9167 296.051 22.4375C295.618 21.9531 295.402 21.2292 295.402 20.2656V16.0547H294.262V15.0469L295.574 14.25L296.262 12.4062H297.785V14.2656H300.23V16.0547H297.785V20.2656C297.785 20.6042 297.879 20.8542 298.066 21.0156C298.259 21.1771 298.512 21.2578 298.824 21.2578ZM305.715 15.7969C305.21 15.7969 304.814 15.9583 304.527 16.2812C304.241 16.599 304.077 17.0521 304.035 17.6406H307.379C307.368 17.0521 307.215 16.599 306.918 16.2812C306.621 15.9583 306.22 15.7969 305.715 15.7969ZM306.051 23.1562C304.645 23.1562 303.546 22.7682 302.754 21.9922C301.962 21.2161 301.566 20.1172 301.566 18.6953C301.566 17.2318 301.931 16.1016 302.66 15.3047C303.395 14.5026 304.408 14.1016 305.699 14.1016C306.934 14.1016 307.895 14.4531 308.582 15.1562C309.27 15.8594 309.613 16.8307 309.613 18.0703V19.2266H303.98C304.007 19.9036 304.207 20.4323 304.582 20.8125C304.957 21.1927 305.483 21.3828 306.16 21.3828C306.686 21.3828 307.184 21.3281 307.652 21.2188C308.121 21.1094 308.611 20.9349 309.121 20.6953V22.5391C308.704 22.7474 308.259 22.901 307.785 23C307.311 23.1042 306.733 23.1562 306.051 23.1562ZM316.426 14.1016C316.749 14.1016 317.017 14.125 317.23 14.1719L317.051 16.4062C316.858 16.3542 316.624 16.3281 316.348 16.3281C315.587 16.3281 314.993 16.5234 314.566 16.9141C314.145 17.3047 313.934 17.8516 313.934 18.5547V23H311.551V14.2656H313.355L313.707 15.7344H313.824C314.095 15.2448 314.46 14.8516 314.918 14.5547C315.382 14.2526 315.884 14.1016 316.426 14.1016ZM324.91 20.4062C324.91 21.3021 324.598 21.9844 323.973 22.4531C323.353 22.9219 322.423 23.1562 321.184 23.1562C320.548 23.1562 320.007 23.112 319.559 23.0234C319.111 22.9401 318.691 22.8151 318.301 22.6484V20.6797C318.743 20.888 319.241 21.0625 319.793 21.2031C320.35 21.3438 320.84 21.4141 321.262 21.4141C322.126 21.4141 322.559 21.1641 322.559 20.6641C322.559 20.4766 322.501 20.3255 322.387 20.2109C322.272 20.0911 322.074 19.9583 321.793 19.8125C321.512 19.6615 321.137 19.487 320.668 19.2891C319.996 19.0078 319.501 18.7474 319.184 18.5078C318.871 18.2682 318.642 17.9948 318.496 17.6875C318.355 17.375 318.285 16.9922 318.285 16.5391C318.285 15.763 318.585 15.1641 319.184 14.7422C319.788 14.3151 320.642 14.1016 321.746 14.1016C322.798 14.1016 323.822 14.3307 324.816 14.7891L324.098 16.5078C323.66 16.3203 323.251 16.1667 322.871 16.0469C322.491 15.9271 322.103 15.8672 321.707 15.8672C321.004 15.8672 320.652 16.0573 320.652 16.4375C320.652 16.651 320.764 16.8359 320.988 16.9922C321.217 17.1484 321.715 17.3802 322.48 17.6875C323.163 17.9635 323.663 18.2214 323.98 18.4609C324.298 18.7005 324.533 18.9766 324.684 19.2891C324.835 19.6016 324.91 19.974 324.91 20.4062Z" fill="#141414"/>
</svg>
