<svg width="9" height="9" viewBox="0 0 9 9" fill="none" xmlns="http://www.w3.org/2000/svg">
<path d="M4.09604 0.554363L4.49263 0.133363C4.53228 0.0910935 4.57941 0.0575533 4.6313 0.0346673C4.68319 0.0117812 4.73883 0 4.79502 0C4.85122 0 4.90686 0.0117812 4.95875 0.0346673C5.01064 0.0575533 5.05777 0.0910935 5.09741 0.133363L8.56785 3.81736C8.60767 3.85945 8.63926 3.90948 8.66082 3.96456C8.68238 4.01965 8.69348 4.07871 8.69348 4.13836C8.69348 4.19801 8.68238 4.25708 8.66082 4.31216C8.63926 4.36725 8.60767 4.41727 8.56785 4.45936L5.09741 8.14336C5.05777 8.18563 5.01064 8.21917 4.95875 8.24206C4.90686 8.26494 4.85122 8.27672 4.79502 8.27672C4.73883 8.27672 4.68319 8.26494 4.6313 8.24206C4.57941 8.21917 4.53228 8.18563 4.49263 8.14336L4.09604 7.72236C4.05579 7.67947 4.02402 7.62848 4.00257 7.57238C3.98113 7.51629 3.97044 7.45622 3.97114 7.39568C3.97184 7.33515 3.98392 7.27537 4.00666 7.21985C4.0294 7.16433 4.06235 7.11419 4.10357 7.07236L6.25328 4.89736H1.12394C1.06761 4.89749 1.01182 4.88582 0.959763 4.863C0.907704 4.84018 0.860404 4.80667 0.820577 4.76439C0.780751 4.72211 0.749184 4.6719 0.727688 4.61664C0.706191 4.56138 0.695189 4.50215 0.695314 4.44236V3.83636C0.695189 3.77657 0.706191 3.71735 0.727688 3.66209C0.749184 3.60682 0.780751 3.55661 0.820577 3.51433C0.860404 3.47206 0.907704 3.43855 0.959763 3.41573C1.01182 3.39291 1.06761 3.38123 1.12394 3.38136H6.25328L4.10357 1.20636C4.06171 1.16472 4.0282 1.11453 4.00507 1.05881C3.98193 1.00308 3.96964 0.942962 3.96894 0.882067C3.96824 0.821172 3.97913 0.760754 4.00097 0.704441C4.02281 0.648127 4.05515 0.597079 4.09604 0.554363Z" fill="black"/>
</svg>
