<svg width="124" height="41" viewBox="0 0 124 41" fill="none" xmlns="http://www.w3.org/2000/svg">
<g filter="url(#filter0_d_498_2640)">
<path d="M102.5 3H18.6594C11.1155 3 5 9.49187 5 17.5C5 25.5081 11.1155 32 18.6594 32H102.5C110.044 32 116.159 25.5081 116.159 17.5C116.159 9.49187 110.044 3 102.5 3Z" fill="#FF9D42"/>
</g>
<path d="M19.1816 24.5195C18.7715 24.5195 18.4141 24.4766 18.1094 24.3906V22.8789C18.4219 22.957 18.707 22.9961 18.9648 22.9961C19.3633 22.9961 19.6484 22.8711 19.8203 22.6211C19.9922 22.375 20.0781 21.9883 20.0781 21.4609V13.4336H21.8945V21.4492C21.8945 22.4492 21.666 23.2109 21.209 23.7344C20.752 24.2578 20.0762 24.5195 19.1816 24.5195ZM31.8262 17.7051C31.8262 19.123 31.4746 20.2129 30.7715 20.9746C30.0684 21.7363 29.0605 22.1172 27.748 22.1172C26.4355 22.1172 25.4277 21.7363 24.7246 20.9746C24.0215 20.2129 23.6699 19.1191 23.6699 17.6934C23.6699 16.2676 24.0215 15.1797 24.7246 14.4297C25.4316 13.6758 26.4434 13.2988 27.7598 13.2988C29.0762 13.2988 30.082 13.6777 30.7773 14.4355C31.4766 15.1934 31.8262 16.2832 31.8262 17.7051ZM25.5742 17.7051C25.5742 18.6621 25.7559 19.3828 26.1191 19.8672C26.4824 20.3516 27.0254 20.5938 27.748 20.5938C29.1973 20.5938 29.9219 19.6309 29.9219 17.7051C29.9219 15.7754 29.2012 14.8105 27.7598 14.8105C27.0371 14.8105 26.4922 15.0547 26.125 15.543C25.7578 16.0273 25.5742 16.748 25.5742 17.7051ZM33.6016 22V13.4336H35.418V22H33.6016ZM45.1738 22H42.8652L39.1387 15.5195H39.0859C39.1602 16.6641 39.1973 17.4805 39.1973 17.9688V22H37.5742V13.4336H39.8652L43.5859 19.8496H43.627C43.5684 18.7363 43.5391 17.9492 43.5391 17.4883V13.4336H45.1738V22ZM58.0527 22H55.7441L52.0176 15.5195H51.9648C52.0391 16.6641 52.0762 17.4805 52.0762 17.9688V22H50.4531V13.4336H52.7441L56.4648 19.8496H56.5059C56.4473 18.7363 56.418 17.9492 56.418 17.4883V13.4336H58.0527V22ZM67.9902 17.7051C67.9902 19.123 67.6387 20.2129 66.9355 20.9746C66.2324 21.7363 65.2246 22.1172 63.9121 22.1172C62.5996 22.1172 61.5918 21.7363 60.8887 20.9746C60.1855 20.2129 59.834 19.1191 59.834 17.6934C59.834 16.2676 60.1855 15.1797 60.8887 14.4297C61.5957 13.6758 62.6074 13.2988 63.9238 13.2988C65.2402 13.2988 66.2461 13.6777 66.9414 14.4355C67.6406 15.1934 67.9902 16.2832 67.9902 17.7051ZM61.7383 17.7051C61.7383 18.6621 61.9199 19.3828 62.2832 19.8672C62.6465 20.3516 63.1895 20.5938 63.9121 20.5938C65.3613 20.5938 66.0859 19.6309 66.0859 17.7051C66.0859 15.7754 65.3652 14.8105 63.9238 14.8105C63.2012 14.8105 62.6562 15.0547 62.2891 15.543C61.9219 16.0273 61.7383 16.748 61.7383 17.7051ZM78.1094 22H76.041L74.8809 17.5C74.8379 17.3398 74.7637 17.0098 74.6582 16.5098C74.5566 16.0059 74.498 15.668 74.4824 15.4961C74.459 15.707 74.4004 16.0469 74.3066 16.5156C74.2129 16.9805 74.1406 17.3125 74.0898 17.5117L72.9355 22H70.873L68.6875 13.4336H70.4746L71.5703 18.1094C71.7617 18.9727 71.9004 19.7207 71.9863 20.3535C72.0098 20.1309 72.0625 19.7871 72.1445 19.3223C72.2305 18.8535 72.3105 18.4902 72.3848 18.2324L73.6328 13.4336H75.3496L76.5977 18.2324C76.6523 18.4473 76.7207 18.7754 76.8027 19.2168C76.8848 19.6582 76.9473 20.0371 76.9902 20.3535C77.0293 20.0488 77.0918 19.6699 77.1777 19.2168C77.2637 18.7598 77.3418 18.3906 77.4121 18.1094L78.502 13.4336H80.2891L78.1094 22Z" fill="white"/>
<path d="M96.096 14.5544L96.4926 14.1334C96.5323 14.0911 96.5794 14.0576 96.6313 14.0347C96.6832 14.0118 96.7388 14 96.795 14C96.8512 14 96.9069 14.0118 96.9587 14.0347C97.0106 14.0576 97.0578 14.0911 97.0974 14.1334L100.568 17.8174C100.608 17.8595 100.639 17.9095 100.661 17.9646C100.682 18.0196 100.693 18.0787 100.693 18.1384C100.693 18.198 100.682 18.2571 100.661 18.3122C100.639 18.3672 100.608 18.4173 100.568 18.4594L97.0974 22.1434C97.0578 22.1856 97.0106 22.2192 96.9587 22.2421C96.9069 22.2649 96.8512 22.2767 96.795 22.2767C96.7388 22.2767 96.6832 22.2649 96.6313 22.2421C96.5794 22.2192 96.5323 22.1856 96.4926 22.1434L96.096 21.7224C96.0558 21.6795 96.024 21.6285 96.0026 21.5724C95.9811 21.5163 95.9704 21.4562 95.9711 21.3957C95.9718 21.3351 95.9839 21.2754 96.0067 21.2199C96.0294 21.1643 96.0623 21.1142 96.1036 21.0724L98.2533 18.8974H93.1239C93.0676 18.8975 93.0118 18.8858 92.9598 18.863C92.9077 18.8402 92.8604 18.8067 92.8206 18.7644C92.7808 18.7221 92.7492 18.6719 92.7277 18.6166C92.7062 18.5614 92.6952 18.5022 92.6953 18.4424V17.8364C92.6952 17.7766 92.7062 17.7173 92.7277 17.6621C92.7492 17.6068 92.7808 17.5566 92.8206 17.5143C92.8604 17.4721 92.9077 17.4385 92.9598 17.4157C93.0118 17.3929 93.0676 17.3812 93.1239 17.3814H98.2533L96.1036 15.2064C96.0617 15.1647 96.0282 15.1145 96.0051 15.0588C95.9819 15.0031 95.9696 14.943 95.9689 14.8821C95.9682 14.8212 95.9791 14.7608 96.001 14.7044C96.0228 14.6481 96.0551 14.5971 96.096 14.5544Z" fill="white"/>
<defs>
<filter id="filter0_d_498_2640" x="0" y="0" width="123.159" height="41" filterUnits="userSpaceOnUse" color-interpolation-filters="sRGB">
<feFlood flood-opacity="0" result="BackgroundImageFix"/>
<feColorMatrix in="SourceAlpha" type="matrix" values="0 0 0 0 0 0 0 0 0 0 0 0 0 0 0 0 0 0 127 0" result="hardAlpha"/>
<feOffset dx="1" dy="3"/>
<feGaussianBlur stdDeviation="3"/>
<feColorMatrix type="matrix" values="0 0 0 0 1 0 0 0 0 0.545098 0 0 0 0 0.211765 0 0 0 0.4 0"/>
<feBlend mode="normal" in2="BackgroundImageFix" result="effect1_dropShadow_498_2640"/>
<feBlend mode="normal" in="SourceGraphic" in2="effect1_dropShadow_498_2640" result="shape"/>
</filter>
</defs>
</svg>
