<svg width="125" height="40" viewBox="0 0 125 40" fill="none" xmlns="http://www.w3.org/2000/svg">
<g filter="url(#filter0_d_470_1978)">
<path d="M104 3H19C11.268 3 5 9.26801 5 17C5 24.732 11.268 31 19 31H104C111.732 31 118 24.732 118 17C118 9.26801 111.732 3 104 3Z" fill="white"/>
</g>
<path d="M33.965 10.5H36.02V18.18C36.02 18.58 35.975 18.96 35.885 19.32C35.795 19.68 35.645 20 35.435 20.28C35.235 20.55 34.975 20.77 34.655 20.94C34.335 21.1 33.945 21.18 33.485 21.18C33.195 21.18 32.88 21.15 32.54 21.09C32.2 21.03 31.905 20.945 31.655 20.835L32.105 19.155C32.365 19.285 32.66 19.35 32.99 19.35C33.41 19.35 33.675 19.195 33.785 18.885C33.905 18.575 33.965 18.165 33.965 17.655V10.5ZM37.5048 17.25C37.5048 15.98 37.8148 15.005 38.4348 14.325C39.0548 13.635 39.9248 13.29 41.0448 13.29C41.6448 13.29 42.1648 13.385 42.6048 13.575C43.0448 13.765 43.4098 14.035 43.6998 14.385C43.9898 14.725 44.2048 15.14 44.3448 15.63C44.4948 16.12 44.5698 16.66 44.5698 17.25C44.5698 18.52 44.2598 19.5 43.6398 20.19C43.0298 20.87 42.1648 21.21 41.0448 21.21C40.4448 21.21 39.9248 21.115 39.4848 20.925C39.0448 20.735 38.6748 20.47 38.3748 20.13C38.0848 19.78 37.8648 19.36 37.7148 18.87C37.5748 18.38 37.5048 17.84 37.5048 17.25ZM39.5148 17.25C39.5148 17.58 39.5448 17.885 39.6048 18.165C39.6648 18.445 39.7548 18.69 39.8748 18.9C39.9948 19.11 40.1498 19.275 40.3398 19.395C40.5398 19.505 40.7748 19.56 41.0448 19.56C41.5548 19.56 41.9348 19.375 42.1848 19.005C42.4348 18.635 42.5598 18.05 42.5598 17.25C42.5598 16.56 42.4448 16.005 42.2148 15.585C41.9848 15.155 41.5948 14.94 41.0448 14.94C40.5648 14.94 40.1898 15.12 39.9198 15.48C39.6498 15.84 39.5148 16.43 39.5148 17.25ZM46.0864 13.5H48.0364V21H46.0864V13.5ZM45.8014 11.385C45.8014 11.095 45.9064 10.85 46.1164 10.65C46.3364 10.44 46.6364 10.335 47.0164 10.335C47.3964 10.335 47.7014 10.44 47.9314 10.65C48.1714 10.85 48.2914 11.095 48.2914 11.385C48.2914 11.675 48.1714 11.92 47.9314 12.12C47.7014 12.31 47.3964 12.405 47.0164 12.405C46.6364 12.405 46.3364 12.31 46.1164 12.12C45.9064 11.92 45.8014 11.675 45.8014 11.385ZM54.5397 21V16.74C54.5397 16.13 54.4497 15.69 54.2697 15.42C54.0997 15.15 53.8047 15.015 53.3847 15.015C53.0147 15.015 52.6997 15.125 52.4397 15.345C52.1897 15.555 52.0097 15.82 51.8997 16.14V21H49.9497V13.5H51.4947L51.7197 14.49H51.7797C52.0097 14.17 52.3147 13.89 52.6947 13.65C53.0747 13.41 53.5647 13.29 54.1647 13.29C54.5347 13.29 54.8647 13.34 55.1547 13.44C55.4447 13.54 55.6897 13.705 55.8897 13.935C56.0897 14.165 56.2397 14.48 56.3397 14.88C56.4397 15.27 56.4897 15.755 56.4897 16.335V21H54.5397ZM64.5725 15.525L63.7475 13.875H63.6725L63.9125 15.525V21H61.9625V10.425H63.4625L67.4375 16.02L68.2325 17.625H68.3075L68.0675 16.02V10.5H70.0175V21.075H68.5175L64.5725 15.525ZM71.4159 17.25C71.4159 15.98 71.7259 15.005 72.3459 14.325C72.9659 13.635 73.8359 13.29 74.9559 13.29C75.5559 13.29 76.0759 13.385 76.5159 13.575C76.9559 13.765 77.3209 14.035 77.6109 14.385C77.9009 14.725 78.1159 15.14 78.2559 15.63C78.4059 16.12 78.4809 16.66 78.4809 17.25C78.4809 18.52 78.1709 19.5 77.5509 20.19C76.9409 20.87 76.0759 21.21 74.9559 21.21C74.3559 21.21 73.8359 21.115 73.3959 20.925C72.9559 20.735 72.5859 20.47 72.2859 20.13C71.9959 19.78 71.7759 19.36 71.6259 18.87C71.4859 18.38 71.4159 17.84 71.4159 17.25ZM73.4259 17.25C73.4259 17.58 73.4559 17.885 73.5159 18.165C73.5759 18.445 73.6659 18.69 73.7859 18.9C73.9059 19.11 74.0609 19.275 74.2509 19.395C74.4509 19.505 74.6859 19.56 74.9559 19.56C75.4659 19.56 75.8459 19.375 76.0959 19.005C76.3459 18.635 76.4709 18.05 76.4709 17.25C76.4709 16.56 76.3559 16.005 76.1259 15.585C75.8959 15.155 75.5059 14.94 74.9559 14.94C74.4759 14.94 74.1009 15.12 73.8309 15.48C73.5609 15.84 73.4259 16.43 73.4259 17.25ZM85.1307 13.5L86.4957 17.34L86.7657 18.585H86.8257L87.0357 17.325L87.9957 13.5H89.7807L87.4707 21.075H86.0307L84.5157 16.875L84.3207 15.93H84.2457L84.0657 16.89L82.6257 21.075H81.1407L78.7257 13.5H80.8407L81.9357 17.265L82.1157 18.6H82.1907L82.4457 17.25L83.6907 13.5H85.1307Z" fill="#FF7814"/>
<defs>
<filter id="filter0_d_470_1978" x="0" y="0" width="125" height="40" filterUnits="userSpaceOnUse" color-interpolation-filters="sRGB">
<feFlood flood-opacity="0" result="BackgroundImageFix"/>
<feColorMatrix in="SourceAlpha" type="matrix" values="0 0 0 0 0 0 0 0 0 0 0 0 0 0 0 0 0 0 127 0" result="hardAlpha"/>
<feOffset dx="1" dy="3"/>
<feGaussianBlur stdDeviation="3"/>
<feColorMatrix type="matrix" values="0 0 0 0 1 0 0 0 0 0.545098 0 0 0 0 0.211765 0 0 0 0.612 0"/>
<feBlend mode="normal" in2="BackgroundImageFix" result="effect1_dropShadow_470_1978"/>
<feBlend mode="normal" in="SourceGraphic" in2="effect1_dropShadow_470_1978" result="shape"/>
</filter>
</defs>
</svg>
