<svg width="68" height="65" viewBox="0 0 68 65" fill="none" xmlns="http://www.w3.org/2000/svg">
<path d="M27.8136 0.767674C28.0992 0.524206 28.4404 0.330841 28.8172 0.198992C29.1939 0.0671425 29.5986 -0.000518963 30.0073 2.99701e-06C30.416 0.000524957 30.8204 0.0692194 31.1967 0.20203C31.573 0.334841 31.9135 0.529078 32.1981 0.773275L67.0454 30.5471C67.6575 31.07 68 31.7712 68 32.5014C68 33.2316 67.6575 33.9328 67.0454 34.4557L32.1981 64.2295C31.913 64.4734 31.5722 64.6672 31.1956 64.7995C30.8191 64.9318 30.4146 65 30.0059 65C29.5972 65 29.1927 64.9318 28.8161 64.7995C28.4396 64.6672 28.0987 64.4734 27.8136 64.2295C27.2271 63.7295 26.8987 63.0582 26.8987 62.3592C26.8987 61.6602 27.2271 60.9889 27.8136 60.4889L60.583 32.5014L27.8136 4.5027C27.2291 4.00291 26.902 3.33283 26.902 2.63519C26.902 1.93754 27.2291 1.26746 27.8136 0.767674ZM0.91491 0.767674C1.20046 0.524206 1.54169 0.330841 1.91846 0.198992C2.29522 0.0671425 2.69989 -0.000518963 3.10858 2.99701e-06C3.51726 0.000524957 3.92168 0.0692194 4.29796 0.20203C4.67424 0.334841 5.01475 0.529078 5.2994 0.773275L40.1467 30.5471C40.7587 31.07 41.1013 31.7712 41.1013 32.5014C41.1013 33.2316 40.7587 33.9328 40.1467 34.4557L5.2994 64.2295C5.0143 64.4734 4.67343 64.6672 4.29691 64.7995C3.92038 64.9318 3.51584 65 3.10716 65C2.69847 65 2.29393 64.9318 1.91741 64.7995C1.54088 64.6672 1.20001 64.4734 0.91491 64.2295C0.328368 63.7295 0 63.0582 0 62.3592C0 61.6602 0.328368 60.9889 0.91491 60.4889L33.6843 32.5014L0.91491 4.5027C0.33038 4.00291 0.00327873 3.33283 0.00327873 2.63519C0.00327873 1.93754 0.33038 1.26746 0.91491 0.767674Z" fill="white" fill-opacity="0.1"/>
</svg>
