<svg width="24" height="18" viewBox="0 0 24 18" fill="none" xmlns="http://www.w3.org/2000/svg">
<path d="M19.2422 18H15.1055L12.7852 9C12.6992 8.67969 12.5508 8.01953 12.3398 7.01953C12.1367 6.01172 12.0195 5.33594 11.9883 4.99219C11.9414 5.41406 11.8242 6.09375 11.6367 7.03125C11.4492 7.96094 11.3047 8.625 11.2031 9.02344L8.89453 18H4.76953L0.398438 0.867188H3.97266L6.16406 10.2188C6.54688 11.9453 6.82422 13.4414 6.99609 14.707C7.04297 14.2617 7.14844 13.5742 7.3125 12.6445C7.48438 11.707 7.64453 10.9805 7.79297 10.4648L10.2891 0.867188H13.7227L16.2188 10.4648C16.3281 10.8945 16.4648 11.5508 16.6289 12.4336C16.793 13.3164 16.918 14.0742 17.0039 14.707C17.082 14.0977 17.207 13.3398 17.3789 12.4336C17.5508 11.5195 17.707 10.7812 17.8477 10.2188L20.0273 0.867188H23.6016L19.2422 18Z" fill="#FF364D"/>
</svg>
