<svg width="13" height="19" viewBox="0 0 13 19" fill="none" xmlns="http://www.w3.org/2000/svg">
<path d="M0.488281 10.7227C0.488281 7.33203 1.20312 4.80859 2.63281 3.15234C4.07031 1.49609 6.21875 0.667969 9.07812 0.667969C10.0547 0.667969 10.8203 0.726562 11.375 0.84375V3.73828C10.6797 3.58203 9.99219 3.50391 9.3125 3.50391C8.07031 3.50391 7.05469 3.69141 6.26562 4.06641C5.48438 4.44141 4.89844 4.99609 4.50781 5.73047C4.11719 6.46484 3.88672 7.50781 3.81641 8.85938H3.96875C4.74219 7.53125 5.98047 6.86719 7.68359 6.86719C9.21484 6.86719 10.4141 7.34766 11.2812 8.30859C12.1484 9.26953 12.582 10.5977 12.582 12.293C12.582 14.1211 12.0664 15.5703 11.0352 16.6406C10.0039 17.7031 8.57422 18.2344 6.74609 18.2344C5.48047 18.2344 4.375 17.9414 3.42969 17.3555C2.49219 16.7695 1.76562 15.9141 1.25 14.7891C0.742188 13.6641 0.488281 12.3086 0.488281 10.7227ZM6.67578 15.3398C7.44922 15.3398 8.04297 15.082 8.45703 14.5664C8.87109 14.043 9.07812 13.3008 9.07812 12.3398C9.07812 11.5039 8.88281 10.8477 8.49219 10.3711C8.10938 9.88672 7.52734 9.64453 6.74609 9.64453C6.01172 9.64453 5.38281 9.88281 4.85938 10.3594C4.34375 10.8359 4.08594 11.3906 4.08594 12.0234C4.08594 12.9531 4.32812 13.7383 4.8125 14.3789C5.30469 15.0195 5.92578 15.3398 6.67578 15.3398Z" fill="#71EC4C"/>
</svg>
