<svg width="35" height="35" viewBox="0 0 35 35" fill="none" xmlns="http://www.w3.org/2000/svg">
<g clip-path="url(#clip0_288_1614)">
<g clip-path="url(#clip1_288_1614)">
<path d="M18.3334 32.9167C14.4657 32.9167 10.7563 31.3802 8.02144 28.6453C5.28654 25.9104 3.75008 22.2011 3.75008 18.3334C3.75008 14.4656 5.28654 10.7563 8.02144 8.02138C10.7563 5.28647 14.4657 3.75002 18.3334 3.75002C22.2012 3.75002 25.9105 5.28647 28.6454 8.02138C31.3803 10.7563 32.9167 14.4656 32.9167 18.3334C32.9167 22.2011 31.3803 25.9104 28.6454 28.6453C25.9105 31.3802 22.2012 32.9167 18.3334 32.9167ZM18.3334 35C22.7537 35 26.9929 33.2441 30.1185 30.1185C33.2441 26.9929 35.0001 22.7536 35.0001 18.3334C35.0001 13.9131 33.2441 9.67385 30.1185 6.54824C26.9929 3.42263 22.7537 1.66669 18.3334 1.66669C13.9131 1.66669 9.67391 3.42263 6.5483 6.54824C3.4227 9.67385 1.66675 13.9131 1.66675 18.3334C1.66675 22.7536 3.4227 26.9929 6.5483 30.1185C9.67391 33.2441 13.9131 35 18.3334 35Z" fill="#FF9D42"/>
<path d="M20.2709 15.3917L15.5001 15.9896L15.3292 16.7813L16.2667 16.9542C16.8792 17.1 17.0001 17.3209 16.8667 17.9313L15.3292 25.1563C14.9251 27.025 15.548 27.9042 17.0126 27.9042C18.148 27.9042 19.4667 27.3792 20.0646 26.6584L20.248 25.7917C19.8313 26.1584 19.223 26.3042 18.8188 26.3042C18.2459 26.3042 18.0376 25.9021 18.1855 25.1938L20.2709 15.3917ZM20.4167 11.0417C20.4167 11.5942 20.1972 12.1241 19.8065 12.5148C19.4158 12.9055 18.8859 13.125 18.3334 13.125C17.7809 13.125 17.251 12.9055 16.8603 12.5148C16.4696 12.1241 16.2501 11.5942 16.2501 11.0417C16.2501 10.4892 16.4696 9.95927 16.8603 9.56857C17.251 9.17787 17.7809 8.95837 18.3334 8.95837C18.8859 8.95837 19.4158 9.17787 19.8065 9.56857C20.1972 9.95927 20.4167 10.4892 20.4167 11.0417Z" fill="#FF9D42"/>
</g>
</g>
<g clip-path="url(#clip2_288_1614)">
<g clip-path="url(#clip3_288_1614)">
<path d="M17.4999 32.0833C13.6322 32.0833 9.92285 30.5469 7.18794 27.812C4.45304 25.077 2.91659 21.3677 2.91659 17.5C2.91659 13.6322 4.45304 9.92291 7.18794 7.18801C9.92285 4.4531 13.6322 2.91665 17.4999 2.91665C21.3677 2.91665 25.077 4.4531 27.8119 7.18801C30.5468 9.92291 32.0833 13.6322 32.0833 17.5C32.0833 21.3677 30.5468 25.077 27.8119 27.812C25.077 30.5469 21.3677 32.0833 17.4999 32.0833ZM17.4999 34.1666C21.9202 34.1666 26.1594 32.4107 29.285 29.2851C32.4106 26.1595 34.1666 21.9203 34.1666 17.5C34.1666 13.0797 32.4106 8.84047 29.285 5.71487C26.1594 2.58926 21.9202 0.833313 17.4999 0.833313C13.0796 0.833313 8.84041 2.58926 5.71481 5.71487C2.5892 8.84047 0.833252 13.0797 0.833252 17.5C0.833252 21.9203 2.5892 26.1595 5.71481 29.2851C8.84041 32.4107 13.0796 34.1666 17.4999 34.1666Z" fill="black"/>
<path d="M19.4374 14.5583L14.6666 15.1562L14.4957 15.9479L15.4332 16.1208C16.0457 16.2667 16.1666 16.4875 16.0332 17.0979L14.4957 24.3229C14.0916 26.1917 14.7145 27.0708 16.1791 27.0708C17.3145 27.0708 18.6332 26.5458 19.2312 25.825L19.4145 24.9583C18.9978 25.325 18.3895 25.4708 17.9853 25.4708C17.4124 25.4708 17.2041 25.0688 17.352 24.3604L19.4374 14.5583ZM19.5832 10.2083C19.5832 10.7609 19.3637 11.2908 18.973 11.6815C18.5823 12.0722 18.0524 12.2917 17.4999 12.2917C16.9474 12.2917 16.4175 12.0722 16.0268 11.6815C15.6361 11.2908 15.4166 10.7609 15.4166 10.2083C15.4166 9.6558 15.6361 9.12589 16.0268 8.73519C16.4175 8.34449 16.9474 8.125 17.4999 8.125C18.0524 8.125 18.5823 8.34449 18.973 8.73519C19.3637 9.12589 19.5832 9.6558 19.5832 10.2083Z" fill="black"/>
</g>
</g>
<g clip-path="url(#clip4_288_1614)">
<g clip-path="url(#clip5_288_1614)">
<path d="M16.6667 31.25C12.7989 31.25 9.0896 29.7135 6.35469 26.9786C3.61979 24.2437 2.08333 20.5344 2.08333 16.6667C2.08333 12.7989 3.61979 9.0896 6.35469 6.35469C9.0896 3.61979 12.7989 2.08333 16.6667 2.08333C20.5344 2.08333 24.2437 3.61979 26.9786 6.35469C29.7135 9.0896 31.25 12.7989 31.25 16.6667C31.25 20.5344 29.7135 24.2437 26.9786 26.9786C24.2437 29.7135 20.5344 31.25 16.6667 31.25ZM16.6667 33.3333C21.0869 33.3333 25.3262 31.5774 28.4518 28.4518C31.5774 25.3262 33.3333 21.0869 33.3333 16.6667C33.3333 12.2464 31.5774 8.00716 28.4518 4.88155C25.3262 1.75595 21.0869 0 16.6667 0C12.2464 0 8.00716 1.75595 4.88155 4.88155C1.75595 8.00716 0 12.2464 0 16.6667C0 21.0869 1.75595 25.3262 4.88155 28.4518C8.00716 31.5774 12.2464 33.3333 16.6667 33.3333Z" fill="white"/>
<path d="M18.6041 13.725L13.8333 14.3229L13.6625 15.1146L14.6 15.2875C15.2125 15.4334 15.3333 15.6542 15.2 16.2646L13.6625 23.4896C13.2583 25.3584 13.8812 26.2375 15.3458 26.2375C16.4812 26.2375 17.8 25.7125 18.3979 24.9917L18.5812 24.125C18.1646 24.4917 17.5562 24.6375 17.1521 24.6375C16.5791 24.6375 16.3708 24.2354 16.5187 23.5271L18.6041 13.725ZM18.75 9.37502C18.75 9.92755 18.5305 10.4575 18.1398 10.8482C17.7491 11.2389 17.2192 11.4584 16.6666 11.4584C16.1141 11.4584 15.5842 11.2389 15.1935 10.8482C14.8028 10.4575 14.5833 9.92755 14.5833 9.37502C14.5833 8.82249 14.8028 8.29258 15.1935 7.90188C15.5842 7.51118 16.1141 7.29169 16.6666 7.29169C17.2192 7.29169 17.7491 7.51118 18.1398 7.90188C18.5305 8.29258 18.75 8.82249 18.75 9.37502Z" fill="white"/>
</g>
</g>
<defs>
<clipPath id="clip0_288_1614">
<rect width="33.3333" height="33.3333" fill="white" transform="translate(1.66675 1.66669)"/>
</clipPath>
<clipPath id="clip1_288_1614">
<rect width="33.3333" height="33.3333" fill="white" transform="translate(1.66675 1.66669)"/>
</clipPath>
<clipPath id="clip2_288_1614">
<rect width="33.3333" height="33.3333" fill="white" transform="translate(0.833252 0.833313)"/>
</clipPath>
<clipPath id="clip3_288_1614">
<rect width="33.3333" height="33.3333" fill="white" transform="translate(0.833252 0.833313)"/>
</clipPath>
<clipPath id="clip4_288_1614">
<rect width="33.3333" height="33.3333" fill="white"/>
</clipPath>
<clipPath id="clip5_288_1614">
<rect width="33.3333" height="33.3333" fill="white"/>
</clipPath>
</defs>
</svg>
