<svg width="35" height="35" viewBox="0 0 35 35" fill="none" xmlns="http://www.w3.org/2000/svg">
<path d="M19.6557 26.6304H5.70645C5.33649 26.6304 4.98169 26.4834 4.72009 26.2218C4.45849 25.9602 4.31152 25.6054 4.31152 25.2355V7.10141C4.31152 6.73145 4.45849 6.37665 4.72009 6.11505C4.98169 5.85345 5.33649 5.70648 5.70645 5.70648H30.8151C31.1851 5.70648 31.5399 5.85345 31.8015 6.11505C32.0631 6.37665 32.2101 6.73145 32.2101 7.10141V25.2355C32.2101 25.6054 32.0631 25.9602 31.8015 26.2218C31.5399 26.4834 31.1851 26.6304 30.8151 26.6304H25.2354M9.89123 11.2862H26.6304M9.89123 16.1684H14.076M9.89123 21.0507H12.6811" stroke="#FF9D42" stroke-width="4" stroke-linecap="round" stroke-linejoin="round"/>
<path d="M22.4455 24.538C23.5554 24.538 24.6198 24.0971 25.4046 23.3123C26.1894 22.5275 26.6303 21.4631 26.6303 20.3532C26.6303 19.2434 26.1894 18.1789 25.4046 17.3942C24.6198 16.6094 23.5554 16.1685 22.4455 16.1685C21.3357 16.1685 20.2712 16.6094 19.4864 17.3942C18.7016 18.1789 18.2607 19.2434 18.2607 20.3532C18.2607 21.4631 18.7016 22.5275 19.4864 23.3123C20.2712 24.0971 21.3357 24.538 22.4455 24.538V24.538Z" stroke="#FF9D42" stroke-width="4"/>
<path d="M22.4456 29.4203L25.2355 30.8152V23.4723C25.2355 23.4723 24.4404 24.538 22.4456 24.538C20.4509 24.538 19.6558 23.4918 19.6558 23.4918V30.8152L22.4456 29.4203Z" stroke="#FF9D42" stroke-width="4" stroke-linecap="round" stroke-linejoin="round"/>
<path d="M18.895 25.8695H4.94571C4.57575 25.8695 4.22095 25.7226 3.95935 25.461C3.69775 25.1994 3.55078 24.8446 3.55078 24.4746V6.34055C3.55078 5.97059 3.69775 5.61578 3.95935 5.35418C4.22095 5.09258 4.57575 4.94562 4.94571 4.94562H30.0544C30.4244 4.94562 30.7792 5.09258 31.0408 5.35418C31.3024 5.61578 31.4493 5.97059 31.4493 6.34055V24.4746C31.4493 24.8446 31.3024 25.1994 31.0408 25.461C30.7792 25.7226 30.4244 25.8695 30.0544 25.8695H24.4747M9.13049 10.5253H25.8696M9.13049 15.4076H13.3153M9.13049 20.2898H11.9203" stroke="black" stroke-width="4" stroke-linecap="round" stroke-linejoin="round"/>
<path d="M21.6848 23.7772C22.7947 23.7772 23.8591 23.3363 24.6439 22.5515C25.4287 21.7667 25.8696 20.7022 25.8696 19.5924C25.8696 18.4825 25.4287 17.4181 24.6439 16.6333C23.8591 15.8485 22.7947 15.4076 21.6848 15.4076C20.5749 15.4076 19.5105 15.8485 18.7257 16.6333C17.9409 17.4181 17.5 18.4825 17.5 19.5924C17.5 20.7022 17.9409 21.7667 18.7257 22.5515C19.5105 23.3363 20.5749 23.7772 21.6848 23.7772V23.7772Z" stroke="black" stroke-width="4"/>
<path d="M21.6849 28.6594L24.4747 30.0543V22.7114C24.4747 22.7114 23.6796 23.7772 21.6849 23.7772C19.6901 23.7772 18.895 22.731 18.895 22.731V30.0543L21.6849 28.6594Z" stroke="black" stroke-width="4" stroke-linecap="round" stroke-linejoin="round"/>
<path d="M18.134 25.1087H4.18472C3.81476 25.1087 3.45996 24.9617 3.19836 24.7001C2.93676 24.4385 2.78979 24.0837 2.78979 23.7137V5.57968C2.78979 5.20972 2.93676 4.85492 3.19836 4.59332C3.45996 4.33172 3.81476 4.18475 4.18472 4.18475H29.2934C29.6634 4.18475 30.0182 4.33172 30.2798 4.59332C30.5414 4.85492 30.6883 5.20972 30.6883 5.57968V23.7137C30.6883 24.0837 30.5414 24.4385 30.2798 24.7001C30.0182 24.9617 29.6634 25.1087 29.2934 25.1087H23.7137M8.36951 9.76446H25.1086M8.36951 14.6467H12.5543M8.36951 19.529H11.1594" stroke="white" stroke-width="4" stroke-linecap="round" stroke-linejoin="round"/>
<path d="M20.9238 23.0163C22.0337 23.0163 23.0981 22.5754 23.8829 21.7906C24.6677 21.0058 25.1086 19.9414 25.1086 18.8315C25.1086 17.7216 24.6677 16.6572 23.8829 15.8724C23.0981 15.0876 22.0337 14.6467 20.9238 14.6467C19.8139 14.6467 18.7495 15.0876 17.9647 15.8724C17.1799 16.6572 16.739 17.7216 16.739 18.8315C16.739 19.9414 17.1799 21.0058 17.9647 21.7906C18.7495 22.5754 19.8139 23.0163 20.9238 23.0163V23.0163Z" stroke="white" stroke-width="4"/>
<path d="M20.9239 27.8985L23.7137 29.2935V21.9506C23.7137 21.9506 22.9186 23.0163 20.9239 23.0163C18.9291 23.0163 18.134 21.9701 18.134 21.9701V29.2935L20.9239 27.8985Z" stroke="white" stroke-width="4" stroke-linecap="round" stroke-linejoin="round"/>
</svg>
