<svg width="122" height="31" viewBox="0 0 122 31" fill="none" xmlns="http://www.w3.org/2000/svg">
<rect width="122" height="30.0159" rx="15.0079" fill="#FF9D42"/>
<path d="M24.3223 20L23.7012 17.9609H20.5781L19.957 20H18L21.0234 11.3984H23.2441L26.2793 20H24.3223ZM23.2676 16.4375C22.6934 14.5898 22.3691 13.5449 22.2949 13.3027C22.2246 13.0605 22.1738 12.8691 22.1426 12.7285C22.0137 13.2285 21.6445 14.4648 21.0352 16.4375H23.2676ZM29.1797 15.4648H29.7773C30.3359 15.4648 30.7539 15.3555 31.0312 15.1367C31.3086 14.9141 31.4473 14.5918 31.4473 14.1699C31.4473 13.7441 31.3301 13.4297 31.0957 13.2266C30.8652 13.0234 30.502 12.9219 30.0059 12.9219H29.1797V15.4648ZM33.2812 14.1055C33.2812 15.0273 32.9922 15.7324 32.4141 16.2207C31.8398 16.709 31.0215 16.9531 29.959 16.9531H29.1797V20H27.3633V11.4336H30.0996C31.1387 11.4336 31.9277 11.6582 32.4668 12.1074C33.0098 12.5527 33.2812 13.2188 33.2812 14.1055ZM36.7148 15.4648H37.3125C37.8711 15.4648 38.2891 15.3555 38.5664 15.1367C38.8438 14.9141 38.9824 14.5918 38.9824 14.1699C38.9824 13.7441 38.8652 13.4297 38.6309 13.2266C38.4004 13.0234 38.0371 12.9219 37.541 12.9219H36.7148V15.4648ZM40.8164 14.1055C40.8164 15.0273 40.5273 15.7324 39.9492 16.2207C39.375 16.709 38.5566 16.9531 37.4941 16.9531H36.7148V20H34.8984V11.4336H37.6348C38.6738 11.4336 39.4629 11.6582 40.002 12.1074C40.5449 12.5527 40.8164 13.2188 40.8164 14.1055ZM42.4336 20V11.4336H44.25V18.5H47.7246V20H42.4336ZM51.8848 14.9609L53.6719 11.4336H55.6289L52.7871 16.666V20H50.9824V16.7246L48.1406 11.4336H50.1094L51.8848 14.9609ZM67.4238 20H65.1152L61.3887 13.5195H61.3359C61.4102 14.6641 61.4473 15.4805 61.4473 15.9688V20H59.8242V11.4336H62.1152L65.8359 17.8496H65.877C65.8184 16.7363 65.7891 15.9492 65.7891 15.4883V11.4336H67.4238V20ZM77.3613 15.7051C77.3613 17.123 77.0098 18.2129 76.3066 18.9746C75.6035 19.7363 74.5957 20.1172 73.2832 20.1172C71.9707 20.1172 70.9629 19.7363 70.2598 18.9746C69.5566 18.2129 69.2051 17.1191 69.2051 15.6934C69.2051 14.2676 69.5566 13.1797 70.2598 12.4297C70.9668 11.6758 71.9785 11.2988 73.2949 11.2988C74.6113 11.2988 75.6172 11.6777 76.3125 12.4355C77.0117 13.1934 77.3613 14.2832 77.3613 15.7051ZM71.1094 15.7051C71.1094 16.6621 71.291 17.3828 71.6543 17.8672C72.0176 18.3516 72.5605 18.5938 73.2832 18.5938C74.7324 18.5938 75.457 17.6309 75.457 15.7051C75.457 13.7754 74.7363 12.8105 73.2949 12.8105C72.5723 12.8105 72.0273 13.0547 71.6602 13.543C71.293 14.0273 71.1094 14.748 71.1094 15.7051ZM87.4805 20H85.4121L84.252 15.5C84.209 15.3398 84.1348 15.0098 84.0293 14.5098C83.9277 14.0059 83.8691 13.668 83.8535 13.4961C83.8301 13.707 83.7715 14.0469 83.6777 14.5156C83.584 14.9805 83.5117 15.3125 83.4609 15.5117L82.3066 20H80.2441L78.0586 11.4336H79.8457L80.9414 16.1094C81.1328 16.9727 81.2715 17.7207 81.3574 18.3535C81.3809 18.1309 81.4336 17.7871 81.5156 17.3223C81.6016 16.8535 81.6816 16.4902 81.7559 16.2324L83.0039 11.4336H84.7207L85.9688 16.2324C86.0234 16.4473 86.0918 16.7754 86.1738 17.2168C86.2559 17.6582 86.3184 18.0371 86.3613 18.3535C86.4004 18.0488 86.4629 17.6699 86.5488 17.2168C86.6348 16.7598 86.7129 16.3906 86.7832 16.1094L87.873 11.4336H89.6602L87.4805 20Z" fill="white"/>
<path d="M100.401 12.5544L100.797 12.1334C100.837 12.0911 100.884 12.0576 100.936 12.0347C100.988 12.0118 101.044 12 101.1 12C101.156 12 101.212 12.0118 101.263 12.0347C101.315 12.0576 101.362 12.0911 101.402 12.1334L104.873 15.8174C104.912 15.8595 104.944 15.9095 104.966 15.9646C104.987 16.0196 104.998 16.0787 104.998 16.1384C104.998 16.198 104.987 16.2571 104.966 16.3122C104.944 16.3672 104.912 16.4173 104.873 16.4594L101.402 20.1434C101.362 20.1856 101.315 20.2192 101.263 20.2421C101.212 20.2649 101.156 20.2767 101.1 20.2767C101.044 20.2767 100.988 20.2649 100.936 20.2421C100.884 20.2192 100.837 20.1856 100.797 20.1434L100.401 19.7224C100.36 19.6795 100.329 19.6285 100.307 19.5724C100.286 19.5163 100.275 19.4562 100.276 19.3957C100.277 19.3351 100.289 19.2754 100.311 19.2199C100.334 19.1643 100.367 19.1142 100.408 19.0724L102.558 16.8974H97.4286C97.3723 16.8975 97.3165 16.8858 97.2645 16.863C97.2124 16.8402 97.1651 16.8067 97.1253 16.7644C97.0854 16.7221 97.0539 16.6719 97.0324 16.6166C97.0109 16.5614 96.9999 16.5022 97 16.4424V15.8364C96.9999 15.7766 97.0109 15.7173 97.0324 15.6621C97.0539 15.6068 97.0854 15.5566 97.1253 15.5143C97.1651 15.4721 97.2124 15.4385 97.2645 15.4157C97.3165 15.3929 97.3723 15.3812 97.4286 15.3814H102.558L100.408 13.2064C100.366 13.1647 100.333 13.1145 100.31 13.0588C100.287 13.0031 100.274 12.943 100.274 12.8821C100.273 12.8212 100.284 12.7608 100.306 12.7044C100.328 12.6481 100.36 12.5971 100.401 12.5544Z" fill="white"/>
</svg>
