<svg width="22" height="22" viewBox="0 0 22 22" fill="none" xmlns="http://www.w3.org/2000/svg">
<path d="M11 21C5.48598 21 1 16.514 1 11C1 5.48598 5.48598 1 11 1C16.514 1 21 5.48598 21 11C21 16.514 16.514 21 11 21Z" fill="url(#paint0_linear_286_2300)"/>
<path d="M11 2C6.03738 2 2 6.03738 2 11C2 15.9626 6.03738 20 11 20C15.9626 20 20 15.9626 20 11C20 6.03738 15.9626 2 11 2ZM11 0C17.0751 0 22 4.92487 22 11C22 17.0751 17.0751 22 11 22C4.92487 22 0 17.0751 0 11C0 4.92487 4.92487 0 11 0Z" fill="white"/>
<path d="M6.47101 11.323H13.587" stroke="white" stroke-width="3" stroke-linecap="round"/>
<path d="M11.13 7.05606L15.214 11.14L11.13 15.224" stroke="white" stroke-width="3" stroke-linecap="round"/>
<defs>
<linearGradient id="paint0_linear_286_2300" x1="11" y1="1" x2="11" y2="21" gradientUnits="userSpaceOnUse">
<stop stop-color="#FF9D42"/>
<stop offset="1" stop-color="#FF9D42"/>
</linearGradient>
</defs>
</svg>
