<svg width="24" height="24" viewBox="0 0 24 24" fill="none" xmlns="http://www.w3.org/2000/svg">
<circle cx="12" cy="12" r="12" fill="white"/>
<path d="M7.04135 19.9638C6.96493 20.0059 6.87255 20.0118 6.79109 19.9798C6.60381 19.9057 6.44173 19.8519 6.304 19.761C5.48267 19.2182 4.78311 18.5458 4.23724 17.7202C3.89208 17.1984 3.91727 16.8045 4.34893 16.3711C7.10182 13.6074 9.85974 10.8496 12.611 8.085C12.8637 7.83084 13.0762 7.80223 13.3626 8.04881C13.7993 8.425 14.3032 8.72796 14.7147 9.12771C15.1279 9.52914 15.4806 9.99874 15.8299 10.4616C16.2028 10.9556 16.1852 11.0112 15.7552 11.4412C13.502 13.6991 11.2488 15.9571 8.99558 18.215C8.52361 18.688 8.06172 19.1736 7.57295 19.628C7.42262 19.7686 7.22779 19.8611 7.04219 19.963L7.04135 19.9638Z" fill="black"/>
<path d="M19.0874 4.06396C19.4309 4.42836 19.6652 4.66568 19.9482 4.97959C20.1011 5.14959 19.902 5.53335 19.6056 5.69998C19.4301 5.79844 19.2453 5.89943 19.1067 6.04166C17.9579 7.21649 16.8183 8.40059 15.7013 9.55523C15.2537 9.12434 14.8943 8.77846 14.4878 8.38797C14.9992 7.88723 15.5065 7.39659 16.007 6.90006C16.6889 6.2226 17.3927 5.56617 18.0385 4.8542C18.12 4.76415 18.2476 4.66905 18.3702 4.45697C18.66 3.95792 18.9707 3.94193 19.0866 4.0648L19.0874 4.06396Z" fill="black"/>
</svg>
