<svg width="35" height="30" viewBox="0 0 35 30" fill="none" xmlns="http://www.w3.org/2000/svg">
<g clip-path="url(#clip0_304_1585)">
<path d="M30.9968 27.3317C31.9543 27.3317 32.5981 26.6166 32.5981 25.5529V1.98317C32.5981 1.86523 32.5559 1.75211 32.4808 1.66871C32.4057 1.58532 32.3039 1.53846 32.1977 1.53846C32.0916 1.53846 31.9897 1.58532 31.9147 1.66871C31.8396 1.75211 31.7974 1.86523 31.7974 1.98317V25.5529C31.7974 26.3267 31.2954 26.4423 30.9968 26.4423C30.9143 26.4423 30.1961 26.4174 30.1961 25.5529V1.98317C30.1961 1.86523 30.1539 1.75211 30.0789 1.66871C30.0038 1.58532 29.902 1.53846 29.7958 1.53846C29.6896 1.53846 29.5878 1.58532 29.5127 1.66871C29.4376 1.75211 29.3955 1.86523 29.3955 1.98317V25.5529C29.3955 26.7207 30.2009 27.3317 30.9968 27.3317ZM4.97552 20.2163H12.9821C13.0882 20.2163 13.1901 20.1695 13.2651 20.0861C13.3402 20.0027 13.3824 19.8896 13.3824 19.7716V11.7668C13.3824 11.6489 13.3402 11.5358 13.2651 11.4524C13.1901 11.369 13.0882 11.3221 12.9821 11.3221H4.97552C4.86935 11.3221 4.76752 11.369 4.69245 11.4524C4.61737 11.5358 4.5752 11.6489 4.5752 11.7668V19.7716C4.5752 19.8896 4.61737 20.0027 4.69245 20.0861C4.76752 20.1695 4.86935 20.2163 4.97552 20.2163ZM5.37585 12.2115H12.5817V19.3269H5.37585V12.2115ZM4.97552 8.65385H24.1912C24.2974 8.65385 24.3992 8.60699 24.4743 8.52359C24.5494 8.44019 24.5915 8.32708 24.5915 8.20913V4.65144C24.5915 4.5335 24.5494 4.42038 24.4743 4.33698C24.3992 4.25358 24.2974 4.20673 24.1912 4.20673H4.97552C4.86935 4.20673 4.76752 4.25358 4.69245 4.33698C4.61737 4.42038 4.5752 4.5335 4.5752 4.65144V8.20913C4.5752 8.32708 4.61737 8.44019 4.69245 8.52359C4.76752 8.60699 4.86935 8.65385 4.97552 8.65385ZM5.37585 5.09615H23.7909V7.76442H5.37585V5.09615ZM24.1912 11.3221H16.1847C16.0785 11.3221 15.9767 11.369 15.9016 11.4524C15.8265 11.5358 15.7843 11.6489 15.7843 11.7668C15.7843 11.8848 15.8265 11.9979 15.9016 12.0813C15.9767 12.1647 16.0785 12.2115 16.1847 12.2115H24.1912C24.2974 12.2115 24.3992 12.1647 24.4743 12.0813C24.5494 11.9979 24.5915 11.8848 24.5915 11.7668C24.5915 11.6489 24.5494 11.5358 24.4743 11.4524C24.3992 11.369 24.2974 11.3221 24.1912 11.3221ZM24.1912 13.9904H16.1847C16.0785 13.9904 15.9767 14.0372 15.9016 14.1206C15.8265 14.204 15.7843 14.3172 15.7843 14.4351C15.7843 14.553 15.8265 14.6662 15.9016 14.7496C15.9767 14.833 16.0785 14.8798 16.1847 14.8798H24.1912C24.2974 14.8798 24.3992 14.833 24.4743 14.7496C24.5494 14.6662 24.5915 14.553 24.5915 14.4351C24.5915 14.3172 24.5494 14.204 24.4743 14.1206C24.3992 14.0372 24.2974 13.9904 24.1912 13.9904ZM24.1912 16.6587H16.1847C16.0785 16.6587 15.9767 16.7055 15.9016 16.7889C15.8265 16.8723 15.7843 16.9854 15.7843 17.1034C15.7843 17.2213 15.8265 17.3344 15.9016 17.4178C15.9767 17.5012 16.0785 17.5481 16.1847 17.5481H24.1912C24.2974 17.5481 24.3992 17.5012 24.4743 17.4178C24.5494 17.3344 24.5915 17.2213 24.5915 17.1034C24.5915 16.9854 24.5494 16.8723 24.4743 16.7889C24.3992 16.7055 24.2974 16.6587 24.1912 16.6587ZM24.1912 19.3269H16.1847C16.0785 19.3269 15.9767 19.3738 15.9016 19.4572C15.8265 19.5406 15.7843 19.6537 15.7843 19.7716C15.7843 19.8896 15.8265 20.0027 15.9016 20.0861C15.9767 20.1695 16.0785 20.2163 16.1847 20.2163H24.1912C24.2974 20.2163 24.3992 20.1695 24.4743 20.0861C24.5494 20.0027 24.5915 19.8896 24.5915 19.7716C24.5915 19.6537 24.5494 19.5406 24.4743 19.4572C24.3992 19.3738 24.2974 19.3269 24.1912 19.3269ZM24.1912 21.9952H16.1847C16.0785 21.9952 15.9767 22.042 15.9016 22.1254C15.8265 22.2088 15.7843 22.322 15.7843 22.4399C15.7843 22.5578 15.8265 22.671 15.9016 22.7544C15.9767 22.8378 16.0785 22.8846 16.1847 22.8846H24.1912C24.2974 22.8846 24.3992 22.8378 24.4743 22.7544C24.5494 22.671 24.5915 22.5578 24.5915 22.4399C24.5915 22.322 24.5494 22.2088 24.4743 22.1254C24.3992 22.042 24.2974 21.9952 24.1912 21.9952ZM4.97552 22.8846H12.9821C13.0882 22.8846 13.1901 22.8378 13.2651 22.7544C13.3402 22.671 13.3824 22.5578 13.3824 22.4399C13.3824 22.322 13.3402 22.2088 13.2651 22.1254C13.1901 22.042 13.0882 21.9952 12.9821 21.9952H4.97552C4.86935 21.9952 4.76752 22.042 4.69245 22.1254C4.61737 22.2088 4.5752 22.322 4.5752 22.4399C4.5752 22.5578 4.61737 22.671 4.69245 22.7544C4.76752 22.8378 4.86935 22.8846 4.97552 22.8846ZM24.1912 24.6635H16.1847C16.0785 24.6635 15.9767 24.7103 15.9016 24.7937C15.8265 24.8771 15.7843 24.9902 15.7843 25.1082C15.7843 25.2261 15.8265 25.3392 15.9016 25.4226C15.9767 25.506 16.0785 25.5529 16.1847 25.5529H24.1912C24.2974 25.5529 24.3992 25.506 24.4743 25.4226C24.5494 25.3392 24.5915 25.2261 24.5915 25.1082C24.5915 24.9902 24.5494 24.8771 24.4743 24.7937C24.3992 24.7103 24.2974 24.6635 24.1912 24.6635ZM4.97552 25.5529H12.9821C13.0882 25.5529 13.1901 25.506 13.2651 25.4226C13.3402 25.3392 13.3824 25.2261 13.3824 25.1082C13.3824 24.9902 13.3402 24.8771 13.2651 24.7937C13.1901 24.7103 13.0882 24.6635 12.9821 24.6635H4.97552C4.86935 24.6635 4.76752 24.7103 4.69245 24.7937C4.61737 24.8771 4.5752 24.9902 4.5752 25.1082C4.5752 25.2261 4.61737 25.3392 4.69245 25.4226C4.76752 25.506 4.86935 25.5529 4.97552 25.5529Z" fill="#FF9D42"/>
<path d="M5.37587 29.9529H31.0128C31.0184 29.9529 31.0232 29.9493 31.0288 29.9493C32.0731 29.9392 33.0715 29.4718 33.8073 28.6486C34.5431 27.8254 34.9568 26.7129 34.9584 25.5529V1.98317C34.9584 1.87773 34.9207 1.77661 34.8536 1.70205C34.7865 1.62749 34.6954 1.5856 34.6005 1.5856C34.5056 1.5856 34.4146 1.62749 34.3475 1.70205C34.2803 1.77661 34.2426 1.87773 34.2426 1.98317V25.5529C34.2426 27.5407 32.787 29.1577 30.9976 29.1577C29.2081 29.1577 27.7517 27.5407 27.7517 25.5529V1.98317C27.7517 1.76349 27.5916 1.5856 27.3938 1.5856H1.77293C1.57517 1.5856 1.41504 1.76349 1.41504 1.98317V25.5529C1.4161 26.7195 1.83374 27.8379 2.57631 28.6628C3.31888 29.4877 4.32572 29.9517 5.37587 29.9529ZM2.13082 2.38075H27.0352V25.5529C27.0352 25.825 27.0648 26.0892 27.1072 26.3489C27.116 26.4005 27.1232 26.4521 27.1336 26.5028C27.1833 26.75 27.2489 26.9893 27.3346 27.2197C27.3498 27.2615 27.3682 27.3006 27.385 27.3415C27.4715 27.5568 27.5716 27.764 27.6877 27.9597C27.7013 27.9819 27.7117 28.0059 27.7253 28.0282C27.8518 28.2327 27.9959 28.4222 28.1505 28.6C28.1841 28.6383 28.2169 28.6756 28.2521 28.713C28.4011 28.8731 28.558 29.0252 28.7277 29.1577H5.37587C4.51556 29.1565 3.69078 28.7764 3.08245 28.1006C2.47411 27.4248 2.13188 26.5086 2.13082 25.5529V2.38075Z" fill="#FF9D42"/>
</g>
<g clip-path="url(#clip1_304_1585)">
<path d="M30.3105 26.5625C31.2681 26.5625 31.9118 25.8474 31.9118 24.7837V1.21394C31.9118 1.096 31.8696 0.982882 31.7945 0.899483C31.7195 0.816083 31.6176 0.76923 31.5115 0.76923C31.4053 0.76923 31.3035 0.816083 31.2284 0.899483C31.1533 0.982882 31.1111 1.096 31.1111 1.21394V24.7837C31.1111 25.5574 30.6091 25.6731 30.3105 25.6731C30.228 25.6731 29.5098 25.6482 29.5098 24.7837V1.21394C29.5098 1.096 29.4677 0.982882 29.3926 0.899483C29.3175 0.816083 29.2157 0.76923 29.1095 0.76923C29.0033 0.76923 28.9015 0.816083 28.8264 0.899483C28.7514 0.982882 28.7092 1.096 28.7092 1.21394V24.7837C28.7092 25.9515 29.5146 26.5625 30.3105 26.5625ZM4.28924 19.4471H12.2958C12.402 19.4471 12.5038 19.4003 12.5789 19.3169C12.6539 19.2335 12.6961 19.1203 12.6961 19.0024V10.9976C12.6961 10.8797 12.6539 10.7665 12.5789 10.6831C12.5038 10.5997 12.402 10.5529 12.2958 10.5529H4.28924C4.18307 10.5529 4.08124 10.5997 4.00617 10.6831C3.93109 10.7665 3.88892 10.8797 3.88892 10.9976V19.0024C3.88892 19.1203 3.93109 19.2335 4.00617 19.3169C4.08124 19.4003 4.18307 19.4471 4.28924 19.4471ZM4.68957 11.4423H11.8955V18.5577H4.68957V11.4423ZM4.28924 7.88461H23.5049C23.6111 7.88461 23.7129 7.83776 23.788 7.75436C23.8631 7.67096 23.9053 7.55785 23.9053 7.4399V3.88221C23.9053 3.76427 23.8631 3.65115 23.788 3.56775C23.7129 3.48435 23.6111 3.4375 23.5049 3.4375H4.28924C4.18307 3.4375 4.08124 3.48435 4.00617 3.56775C3.93109 3.65115 3.88892 3.76427 3.88892 3.88221V7.4399C3.88892 7.55785 3.93109 7.67096 4.00617 7.75436C4.08124 7.83776 4.18307 7.88461 4.28924 7.88461ZM4.68957 4.32692H23.1046V6.99519H4.68957V4.32692ZM23.5049 10.5529H15.4984C15.3922 10.5529 15.2904 10.5997 15.2153 10.6831C15.1402 10.7665 15.0981 10.8797 15.0981 10.9976C15.0981 11.1155 15.1402 11.2287 15.2153 11.3121C15.2904 11.3955 15.3922 11.4423 15.4984 11.4423H23.5049C23.6111 11.4423 23.7129 11.3955 23.788 11.3121C23.8631 11.2287 23.9053 11.1155 23.9053 10.9976C23.9053 10.8797 23.8631 10.7665 23.788 10.6831C23.7129 10.5997 23.6111 10.5529 23.5049 10.5529ZM23.5049 13.2212H15.4984C15.3922 13.2212 15.2904 13.268 15.2153 13.3514C15.1402 13.4348 15.0981 13.5479 15.0981 13.6659C15.0981 13.7838 15.1402 13.8969 15.2153 13.9803C15.2904 14.0637 15.3922 14.1106 15.4984 14.1106H23.5049C23.6111 14.1106 23.7129 14.0637 23.788 13.9803C23.8631 13.8969 23.9053 13.7838 23.9053 13.6659C23.9053 13.5479 23.8631 13.4348 23.788 13.3514C23.7129 13.268 23.6111 13.2212 23.5049 13.2212ZM23.5049 15.8894H15.4984C15.3922 15.8894 15.2904 15.9363 15.2153 16.0197C15.1402 16.1031 15.0981 16.2162 15.0981 16.3341C15.0981 16.4521 15.1402 16.5652 15.2153 16.6486C15.2904 16.732 15.3922 16.7788 15.4984 16.7788H23.5049C23.6111 16.7788 23.7129 16.732 23.788 16.6486C23.8631 16.5652 23.9053 16.4521 23.9053 16.3341C23.9053 16.2162 23.8631 16.1031 23.788 16.0197C23.7129 15.9363 23.6111 15.8894 23.5049 15.8894ZM23.5049 18.5577H15.4984C15.3922 18.5577 15.2904 18.6045 15.2153 18.6879C15.1402 18.7713 15.0981 18.8845 15.0981 19.0024C15.0981 19.1203 15.1402 19.2335 15.2153 19.3169C15.2904 19.4003 15.3922 19.4471 15.4984 19.4471H23.5049C23.6111 19.4471 23.7129 19.4003 23.788 19.3169C23.8631 19.2335 23.9053 19.1203 23.9053 19.0024C23.9053 18.8845 23.8631 18.7713 23.788 18.6879C23.7129 18.6045 23.6111 18.5577 23.5049 18.5577ZM23.5049 21.226H15.4984C15.3922 21.226 15.2904 21.2728 15.2153 21.3562C15.1402 21.4396 15.0981 21.5527 15.0981 21.6707C15.0981 21.7886 15.1402 21.9017 15.2153 21.9851C15.2904 22.0685 15.3922 22.1154 15.4984 22.1154H23.5049C23.6111 22.1154 23.7129 22.0685 23.788 21.9851C23.8631 21.9017 23.9053 21.7886 23.9053 21.6707C23.9053 21.5527 23.8631 21.4396 23.788 21.3562C23.7129 21.2728 23.6111 21.226 23.5049 21.226ZM4.28924 22.1154H12.2958C12.402 22.1154 12.5038 22.0685 12.5789 21.9851C12.6539 21.9017 12.6961 21.7886 12.6961 21.6707C12.6961 21.5527 12.6539 21.4396 12.5789 21.3562C12.5038 21.2728 12.402 21.226 12.2958 21.226H4.28924C4.18307 21.226 4.08124 21.2728 4.00617 21.3562C3.93109 21.4396 3.88892 21.5527 3.88892 21.6707C3.88892 21.7886 3.93109 21.9017 4.00617 21.9851C4.08124 22.0685 4.18307 22.1154 4.28924 22.1154ZM23.5049 23.8942H15.4984C15.3922 23.8942 15.2904 23.9411 15.2153 24.0245C15.1402 24.1079 15.0981 24.221 15.0981 24.3389C15.0981 24.4569 15.1402 24.57 15.2153 24.6534C15.2904 24.7368 15.3922 24.7837 15.4984 24.7837H23.5049C23.6111 24.7837 23.7129 24.7368 23.788 24.6534C23.8631 24.57 23.9053 24.4569 23.9053 24.3389C23.9053 24.221 23.8631 24.1079 23.788 24.0245C23.7129 23.9411 23.6111 23.8942 23.5049 23.8942ZM4.28924 24.7837H12.2958C12.402 24.7837 12.5038 24.7368 12.5789 24.6534C12.6539 24.57 12.6961 24.4569 12.6961 24.3389C12.6961 24.221 12.6539 24.1079 12.5789 24.0245C12.5038 23.9411 12.402 23.8942 12.2958 23.8942H4.28924C4.18307 23.8942 4.08124 23.9411 4.00617 24.0245C3.93109 24.1079 3.88892 24.221 3.88892 24.3389C3.88892 24.4569 3.93109 24.57 4.00617 24.6534C4.08124 24.7368 4.18307 24.7837 4.28924 24.7837Z" fill="black"/>
<path d="M4.68959 29.1836H30.3265C30.3321 29.1836 30.3369 29.1801 30.3425 29.1801C31.3868 29.17 32.3853 28.7026 33.121 27.8794C33.8568 27.0562 34.2705 25.9437 34.2721 24.7837V1.21394C34.2721 1.1085 34.2344 1.00738 34.1673 0.932816C34.1002 0.858257 34.0092 0.81637 33.9142 0.81637C33.8193 0.81637 33.7283 0.858257 33.6612 0.932816C33.5941 1.00738 33.5564 1.1085 33.5564 1.21394V24.7837C33.5564 26.7715 32.1008 28.3885 30.3113 28.3885C28.5218 28.3885 27.0655 26.7715 27.0655 24.7837V1.21394C27.0655 0.994255 26.9053 0.81637 26.7076 0.81637H1.08665C0.88889 0.81637 0.72876 0.994255 0.72876 1.21394V24.7837C0.72982 25.9502 1.14746 27.0687 1.89003 27.8936C2.6326 28.7185 3.63944 29.1825 4.68959 29.1836ZM1.44454 1.61151H26.3489V24.7837C26.3489 25.0558 26.3785 25.32 26.4209 25.5797C26.4297 25.6313 26.4369 25.6829 26.4474 25.7336C26.497 25.9808 26.5626 26.2201 26.6483 26.4504C26.6635 26.4922 26.6819 26.5314 26.6988 26.5723C26.7852 26.7875 26.8853 26.9948 27.0014 27.1904C27.015 27.2127 27.0254 27.2367 27.039 27.2589C27.1655 27.4635 27.3097 27.6529 27.4642 27.8308C27.4978 27.8691 27.5306 27.9064 27.5659 27.9438C27.7148 28.1039 27.8717 28.256 28.0415 28.3885H4.68959C3.82928 28.3873 3.0045 28.0071 2.39617 27.3314C1.78783 26.6556 1.4456 25.7394 1.44454 24.7837V1.61151Z" fill="black"/>
</g>
<g clip-path="url(#clip2_304_1585)">
<path d="M29.6242 25.7933C30.5818 25.7933 31.2255 25.0782 31.2255 24.0144V0.444712C31.2255 0.326767 31.1833 0.213653 31.1083 0.130253C31.0332 0.0468534 30.9314 0 30.8252 0C30.719 0 30.6172 0.0468534 30.5421 0.130253C30.467 0.213653 30.4249 0.326767 30.4249 0.444712V24.0144C30.4249 24.7882 29.9228 24.9038 29.6242 24.9038C29.5417 24.9038 28.8236 24.8789 28.8236 24.0144V0.444712C28.8236 0.326767 28.7814 0.213653 28.7063 0.130253C28.6312 0.0468534 28.5294 0 28.4232 0C28.3171 0 28.2152 0.0468534 28.1402 0.130253C28.0651 0.213653 28.0229 0.326767 28.0229 0.444712V24.0144C28.0229 25.1822 28.8284 25.7933 29.6242 25.7933ZM3.60296 18.6779H11.6095C11.7157 18.6779 11.8175 18.631 11.8926 18.5476C11.9676 18.4642 12.0098 18.3511 12.0098 18.2332V10.2284C12.0098 10.1104 11.9676 9.9973 11.8926 9.91391C11.8175 9.83051 11.7157 9.78365 11.6095 9.78365H3.60296C3.49679 9.78365 3.39497 9.83051 3.31989 9.91391C3.24481 9.9973 3.20264 10.1104 3.20264 10.2284V18.2332C3.20264 18.3511 3.24481 18.4642 3.31989 18.5476C3.39497 18.631 3.49679 18.6779 3.60296 18.6779ZM4.00329 10.6731H11.2092V17.7885H4.00329V10.6731ZM3.60296 7.11538H22.8187C22.9248 7.11538 23.0266 7.06853 23.1017 6.98513C23.1768 6.90173 23.219 6.78862 23.219 6.67067V3.11298C23.219 2.99504 23.1768 2.88192 23.1017 2.79852C23.0266 2.71512 22.9248 2.66827 22.8187 2.66827H3.60296C3.49679 2.66827 3.39497 2.71512 3.31989 2.79852C3.24481 2.88192 3.20264 2.99504 3.20264 3.11298V6.67067C3.20264 6.78862 3.24481 6.90173 3.31989 6.98513C3.39497 7.06853 3.49679 7.11538 3.60296 7.11538ZM4.00329 3.55769H22.4183V6.22596H4.00329V3.55769ZM22.8187 9.78365H14.8121C14.7059 9.78365 14.6041 9.83051 14.529 9.91391C14.454 9.9973 14.4118 10.1104 14.4118 10.2284C14.4118 10.3463 14.454 10.4594 14.529 10.5428C14.6041 10.6262 14.7059 10.6731 14.8121 10.6731H22.8187C22.9248 10.6731 23.0266 10.6262 23.1017 10.5428C23.1768 10.4594 23.219 10.3463 23.219 10.2284C23.219 10.1104 23.1768 9.9973 23.1017 9.91391C23.0266 9.83051 22.9248 9.78365 22.8187 9.78365ZM22.8187 12.4519H14.8121C14.7059 12.4519 14.6041 12.4988 14.529 12.5822C14.454 12.6656 14.4118 12.7787 14.4118 12.8966C14.4118 13.0146 14.454 13.1277 14.529 13.2111C14.6041 13.2945 14.7059 13.3413 14.8121 13.3413H22.8187C22.9248 13.3413 23.0266 13.2945 23.1017 13.2111C23.1768 13.1277 23.219 13.0146 23.219 12.8966C23.219 12.7787 23.1768 12.6656 23.1017 12.5822C23.0266 12.4988 22.9248 12.4519 22.8187 12.4519ZM22.8187 15.1202H14.8121C14.7059 15.1202 14.6041 15.167 14.529 15.2504C14.454 15.3338 14.4118 15.447 14.4118 15.5649C14.4118 15.6828 14.454 15.796 14.529 15.8794C14.6041 15.9628 14.7059 16.0096 14.8121 16.0096H22.8187C22.9248 16.0096 23.0266 15.9628 23.1017 15.8794C23.1768 15.796 23.219 15.6828 23.219 15.5649C23.219 15.447 23.1768 15.3338 23.1017 15.2504C23.0266 15.167 22.9248 15.1202 22.8187 15.1202ZM22.8187 17.7885H14.8121C14.7059 17.7885 14.6041 17.8353 14.529 17.9187C14.454 18.0021 14.4118 18.1152 14.4118 18.2332C14.4118 18.3511 14.454 18.4642 14.529 18.5476C14.6041 18.631 14.7059 18.6779 14.8121 18.6779H22.8187C22.9248 18.6779 23.0266 18.631 23.1017 18.5476C23.1768 18.4642 23.219 18.3511 23.219 18.2332C23.219 18.1152 23.1768 18.0021 23.1017 17.9187C23.0266 17.8353 22.9248 17.7885 22.8187 17.7885ZM22.8187 20.4567H14.8121C14.7059 20.4567 14.6041 20.5036 14.529 20.587C14.454 20.6704 14.4118 20.7835 14.4118 20.9014C14.4118 21.0194 14.454 21.1325 14.529 21.2159C14.6041 21.2993 14.7059 21.3462 14.8121 21.3462H22.8187C22.9248 21.3462 23.0266 21.2993 23.1017 21.2159C23.1768 21.1325 23.219 21.0194 23.219 20.9014C23.219 20.7835 23.1768 20.6704 23.1017 20.587C23.0266 20.5036 22.9248 20.4567 22.8187 20.4567ZM3.60296 21.3462H11.6095C11.7157 21.3462 11.8175 21.2993 11.8926 21.2159C11.9676 21.1325 12.0098 21.0194 12.0098 20.9014C12.0098 20.7835 11.9676 20.6704 11.8926 20.587C11.8175 20.5036 11.7157 20.4567 11.6095 20.4567H3.60296C3.49679 20.4567 3.39497 20.5036 3.31989 20.587C3.24481 20.6704 3.20264 20.7835 3.20264 20.9014C3.20264 21.0194 3.24481 21.1325 3.31989 21.2159C3.39497 21.2993 3.49679 21.3462 3.60296 21.3462ZM22.8187 23.125H14.8121C14.7059 23.125 14.6041 23.1719 14.529 23.2553C14.454 23.3386 14.4118 23.4518 14.4118 23.5697C14.4118 23.6877 14.454 23.8008 14.529 23.8842C14.6041 23.9676 14.7059 24.0144 14.8121 24.0144H22.8187C22.9248 24.0144 23.0266 23.9676 23.1017 23.8842C23.1768 23.8008 23.219 23.6877 23.219 23.5697C23.219 23.4518 23.1768 23.3386 23.1017 23.2553C23.0266 23.1719 22.9248 23.125 22.8187 23.125ZM3.60296 24.0144H11.6095C11.7157 24.0144 11.8175 23.9676 11.8926 23.8842C11.9676 23.8008 12.0098 23.6877 12.0098 23.5697C12.0098 23.4518 11.9676 23.3386 11.8926 23.2553C11.8175 23.1719 11.7157 23.125 11.6095 23.125H3.60296C3.49679 23.125 3.39497 23.1719 3.31989 23.2553C3.24481 23.3386 3.20264 23.4518 3.20264 23.5697C3.20264 23.6877 3.24481 23.8008 3.31989 23.8842C3.39497 23.9676 3.49679 24.0144 3.60296 24.0144Z" fill="white"/>
<path d="M4.00331 28.4144H29.6402C29.6458 28.4144 29.6507 28.4108 29.6563 28.4108C30.7005 28.4008 31.699 27.9334 32.4348 27.1102C33.1706 26.287 33.5842 25.1745 33.5859 24.0144V0.444712C33.5859 0.33927 33.5482 0.238146 33.481 0.163586C33.4139 0.0890271 33.3229 0.0471401 33.228 0.0471401C33.1331 0.0471401 33.042 0.0890271 32.9749 0.163586C32.9078 0.238146 32.8701 0.33927 32.8701 0.444712V24.0144C32.8701 26.0023 31.4145 27.6193 29.625 27.6193C27.8356 27.6193 26.3792 26.0023 26.3792 24.0144V0.444712C26.3792 0.225025 26.219 0.0471401 26.0213 0.0471401H0.400373C0.202611 0.0471401 0.0424805 0.225025 0.0424805 0.444712V24.0144C0.0435403 25.181 0.461182 26.2995 1.20375 27.1244C1.94632 27.9493 2.95316 28.4132 4.00331 28.4144ZM0.758265 0.842284H25.6626V24.0144C25.6626 24.2866 25.6922 24.5507 25.7347 24.8105C25.7435 24.862 25.7507 24.9136 25.7611 24.9643C25.8107 25.2116 25.8764 25.4508 25.962 25.6812C25.9773 25.723 25.9957 25.7621 26.0125 25.8031C26.0989 26.0183 26.199 26.2255 26.3151 26.4212C26.3287 26.4434 26.3391 26.4675 26.3528 26.4897C26.4793 26.6943 26.6234 26.8837 26.7779 27.0616C26.8115 27.0998 26.8444 27.1372 26.8796 27.1745C27.0285 27.3346 27.1854 27.4867 27.3552 27.6193H4.00331C3.143 27.6181 2.31822 27.2379 1.70989 26.5621C1.10155 25.8863 0.759324 24.9701 0.758265 24.0144V0.842284Z" fill="white"/>
</g>
<defs>
<clipPath id="clip0_304_1585">
<rect width="33.6275" height="28.4615" fill="white" transform="translate(1.37256 1.53846)"/>
</clipPath>
<clipPath id="clip1_304_1585">
<rect width="33.6275" height="28.4615" fill="white" transform="translate(0.686279 0.76923)"/>
</clipPath>
<clipPath id="clip2_304_1585">
<rect width="33.6275" height="28.4615" fill="white"/>
</clipPath>
</defs>
</svg>
