<svg width="84" height="84" viewBox="0 0 84 84" fill="none" xmlns="http://www.w3.org/2000/svg">
<path d="M42 84C65.196 84 84 65.196 84 42C84 18.804 65.196 0 42 0C18.804 0 0 18.804 0 42C0 65.196 18.804 84 42 84Z" fill="#FF9D42"/>
<path d="M41.9751 16.286C36.8904 16.2909 31.9213 17.8033 27.696 20.6318C23.4706 23.4603 20.1787 27.478 18.2363 32.177C16.2939 36.8761 15.7883 42.0455 16.7833 47.0319C17.7783 52.0183 20.2293 56.5978 23.8265 60.1914C27.4236 63.7851 32.0055 66.2316 36.9928 67.2218C41.9802 68.2119 47.1491 67.7012 51.8463 65.7543C56.5435 63.8073 60.558 60.5115 63.3823 56.2833C66.2067 52.0552 67.7142 47.0847 67.7142 42C67.7159 38.6206 67.051 35.2741 65.7578 32.1519C64.4646 29.0298 62.5683 26.1933 60.1776 23.8049C57.7868 21.4165 54.9485 19.523 51.8251 18.2328C48.7017 16.9426 45.3545 16.281 41.9751 16.286ZM42.0002 62.5712C37.9316 62.5712 33.9543 61.3647 30.5714 59.1044C27.1885 56.844 24.5518 53.6312 22.9948 49.8723C21.4379 46.1134 21.0305 41.9772 21.8242 37.9868C22.618 33.9963 24.5772 30.3309 27.4541 27.454C30.3311 24.577 33.9965 22.6178 37.9869 21.8241C41.9774 21.0303 46.1135 21.4377 49.8724 22.9947C53.6313 24.5517 56.8441 27.1883 59.1045 30.5712C61.3649 33.9542 62.5714 37.9314 62.5714 42C62.5714 47.4558 60.4041 52.6882 56.5462 56.5461C52.6884 60.4039 47.456 62.5712 42.0002 62.5712Z" fill="white"/>
<path d="M43.2842 29.143H39.4277V44.5702L52.9279 52.6681L54.8562 49.5036L43.2855 42.642L43.2842 29.143Z" fill="white"/>
</svg>
