<svg width="35" height="35" viewBox="0 0 35 35" fill="none" xmlns="http://www.w3.org/2000/svg">
<path d="M30.8285 4.40894H9.97095C9.23338 4.40894 8.52602 4.70193 8.00448 5.22347C7.48294 5.74501 7.18994 6.45237 7.18994 7.18994V11.3615H4.40894V14.1425H7.18994V16.9235H4.40894V19.7045H7.18994V22.4855H4.40894V25.2665H7.18994V29.438C7.18994 30.1756 7.48294 30.8829 8.00448 31.4045C8.52602 31.926 9.23338 32.219 9.97095 32.219H30.8285C31.1973 32.219 31.551 32.0725 31.8117 31.8117C32.0725 31.551 32.219 31.1973 32.219 30.8285V5.79944C32.219 5.43066 32.0725 5.07697 31.8117 4.8162C31.551 4.55543 31.1973 4.40894 30.8285 4.40894ZM19.7045 8.57906C21.996 8.57906 23.876 10.4576 23.876 12.7506C23.872 13.8558 23.4312 14.9147 22.6498 15.6963C21.8684 16.478 20.8097 16.9191 19.7045 16.9235C17.4143 16.9235 15.533 15.0421 15.533 12.7506C15.533 10.4576 17.4143 8.57906 19.7045 8.57906ZM28.0475 26.657H11.3615V25.6141C11.3615 22.5286 15.1228 19.3569 19.7045 19.3569C24.2862 19.3569 28.0475 22.5286 28.0475 25.6141V26.657Z" fill="#FF9D42"/>
<path d="M30.0145 3.59497H9.15699C8.41942 3.59497 7.71206 3.88797 7.19052 4.40951C6.66898 4.93105 6.37598 5.63841 6.37598 6.37598V10.5475H3.59497V13.3285H6.37598V16.1095H3.59497V18.8905H6.37598V21.6715H3.59497V24.4525H6.37598V28.624C6.37598 29.3616 6.66898 30.069 7.19052 30.5905C7.71206 31.1121 8.41942 31.4051 9.15699 31.4051H30.0145C30.3833 31.4051 30.737 31.2586 30.9978 30.9978C31.2586 30.737 31.4051 30.3833 31.4051 30.0145V4.98547C31.4051 4.61669 31.2586 4.26301 30.9978 4.00224C30.737 3.74147 30.3833 3.59497 30.0145 3.59497ZM18.8905 7.76509C21.1821 7.76509 23.062 9.64366 23.062 11.9366C23.058 13.0418 22.6173 14.1007 21.8359 14.8824C21.0545 15.664 19.9958 16.1051 18.8905 16.1095C16.6004 16.1095 14.719 14.2282 14.719 11.9366C14.719 9.64366 16.6004 7.76509 18.8905 7.76509ZM27.2335 25.843H10.5475V24.8002C10.5475 21.7146 14.3088 18.5429 18.8905 18.5429C23.4722 18.5429 27.2335 21.7146 27.2335 24.8002V25.843Z" fill="black"/>
<path d="M29.2006 2.78101H8.34302C7.60545 2.78101 6.89809 3.074 6.37655 3.59554C5.85501 4.11708 5.56201 4.82444 5.56201 5.56201V9.73353H2.78101V12.5145H5.56201V15.2955H2.78101V18.0765H5.56201V20.8576H2.78101V23.6386H5.56201V27.8101C5.56201 28.5476 5.85501 29.255 6.37655 29.7765C6.89809 30.2981 7.60545 30.5911 8.34302 30.5911H29.2006C29.5694 30.5911 29.923 30.4446 30.1838 30.1838C30.4446 29.923 30.5911 29.5694 30.5911 29.2006V4.17151C30.5911 3.80273 30.4446 3.44905 30.1838 3.18827C29.923 2.9275 29.5694 2.78101 29.2006 2.78101ZM18.0765 6.95113C20.3681 6.95113 22.2481 8.8297 22.2481 11.1226C22.244 12.2279 21.8033 13.2867 21.0219 14.0684C20.2405 14.85 19.1818 15.2911 18.0765 15.2955C15.7864 15.2955 13.905 13.4142 13.905 11.1226C13.905 8.8297 15.7864 6.95113 18.0765 6.95113ZM26.4196 25.0291H9.73353V23.9862C9.73353 20.9007 13.4948 17.7289 18.0765 17.7289C22.6583 17.7289 26.4196 20.9007 26.4196 23.9862V25.0291Z" fill="white"/>
</svg>
