<svg width="34" height="34" viewBox="0 0 34 34" fill="none" xmlns="http://www.w3.org/2000/svg">
<path d="M1.89959 33.4091C1.46961 33.248 1.02987 33.0987 0.715856 32.7142C0.278988 32.1797 0.0195082 31.5508 0.0103231 30.8365C-0.0074731 29.3963 0.00228612 27.956 0.00630461 26.5151C0.00802683 25.8868 0.252581 25.3611 0.611375 24.882C1.21645 24.0738 2.05287 23.6806 2.91971 23.3291C4.24065 22.7941 5.54896 22.2211 6.87678 21.7078C7.67532 21.3992 8.49739 21.161 9.31544 20.9165C9.6794 20.8076 9.77756 20.9152 9.88032 21.3134C10.2695 22.8227 10.6467 24.337 11.0715 25.8351C11.4274 27.0919 11.8425 28.3293 12.2323 29.5748C12.2576 29.6557 12.2891 29.7347 12.315 29.8088C12.42 29.0174 12.5302 28.2322 12.6273 27.4459C12.6961 26.8903 12.7449 26.3316 12.8069 25.7748C12.8374 25.5029 12.8798 25.2323 12.9154 24.9604C12.9614 24.6108 12.912 24.2798 12.7518 23.9687C12.6875 23.8443 12.6473 23.7043 12.5744 23.5867C12.2576 23.079 12.3448 22.6012 12.6227 22.1116C12.7932 21.8111 13.0802 21.8627 13.3012 21.8559C14.0326 21.8347 14.7657 21.8746 15.4976 21.9107C15.5986 21.9156 15.7267 22.009 15.7875 22.1029C16.0694 22.534 16.1618 22.9776 15.9069 23.489C15.7186 23.866 15.4626 24.2393 15.5074 24.7059C15.5636 25.2932 15.6434 25.8774 15.7146 26.4629C15.7772 26.9774 15.8449 27.4913 15.9046 28.0064C15.9701 28.5701 16.0292 29.135 16.152 29.721C16.2307 29.4821 16.3116 29.2445 16.3868 29.0043C16.7445 27.8639 17.1291 26.7323 17.4512 25.5794C17.8622 24.1087 18.2256 22.6224 18.6005 21.1398C18.647 20.9557 18.7227 20.8692 18.8927 20.9084C19.368 21.0166 19.8548 21.0888 20.3141 21.2518C21.2796 21.5958 22.2338 21.9797 23.1867 22.3642C24.2195 22.781 25.258 23.1842 26.2706 23.6533C27.2994 24.1298 28.1151 24.8633 28.3861 26.1226C28.405 26.2109 28.4199 26.303 28.4199 26.3938C28.4222 27.8963 28.4486 29.4 28.4119 30.9012C28.3872 31.9085 27.8355 32.9854 26.8332 33.3021C26.7304 33.3344 26.6288 33.373 26.5272 33.4085C18.318 33.4091 10.1088 33.4091 1.89959 33.4091Z" fill="white"/>
<path d="M33.5309 15.1853C33.404 15.4379 33.2978 15.706 33.1468 15.9406C32.8609 16.3848 32.443 16.6031 31.9499 16.6119C31.1846 16.6262 30.4188 16.6392 29.6547 16.6063C29.2471 16.5888 28.9693 16.7742 28.7179 17.0735C28.5135 17.3167 28.3154 17.5668 28.1019 17.8001C27.2258 18.7564 26.3458 19.7083 25.4629 20.657C25.3716 20.7553 25.2614 20.8486 25.1437 20.9003C24.8239 21.0396 24.6414 20.899 24.6345 20.5202C24.6132 19.3431 24.5845 18.1653 24.5834 16.9882C24.5828 16.6803 24.4927 16.6069 24.2235 16.61C22.9519 16.6237 21.6803 16.6162 20.3904 16.6162C20.5615 16.1365 20.7245 15.678 20.8996 15.1859C21.1602 15.1859 21.4559 15.1859 21.7509 15.1859C23.0231 15.1859 24.2952 15.1946 25.5674 15.1791C25.8418 15.1759 25.9072 15.2724 25.902 15.553C25.8865 16.368 25.8963 17.183 25.8963 18.0546C26.0427 17.9302 26.1604 17.8499 26.2568 17.746C26.9698 16.9795 27.6828 16.2131 28.3866 15.4366C28.5531 15.2525 28.7282 15.1778 28.9653 15.1809C29.8832 15.1927 30.8017 15.1865 31.7202 15.1853C32.1026 15.1847 32.2111 15.0689 32.2111 14.6583C32.2116 11.7044 32.2116 8.75107 32.2116 5.79714C32.2116 5.23721 32.0957 5.10967 31.5853 5.10967C28.5531 5.10967 25.5209 5.10967 22.4886 5.10967C22.3749 5.10967 22.2613 5.10967 22.1292 5.10967C22.0718 4.63497 22.0161 4.17521 21.9564 3.67936C22.0604 3.67936 22.1711 3.67936 22.2819 3.67936C25.429 3.67936 28.5761 3.68185 31.7231 3.67749C32.532 3.67625 33.2467 4.15157 33.4792 5.04683C33.4855 5.07109 33.5142 5.08851 33.532 5.10967C33.5309 8.468 33.5309 11.827 33.5309 15.1853Z" fill="white"/>
<path d="M14.1284 0C15.6348 0.0690579 17.0734 0.376398 18.4064 1.12857C19.6889 1.85274 20.3932 3.00931 20.5689 4.58208C20.6814 5.59307 20.4644 6.54619 20.31 7.51736C20.248 7.90806 20.2061 8.30188 20.1561 8.69445C20.1257 8.93024 20.2687 9.02294 20.4409 9.0217C20.9461 9.01797 21.1648 9.50199 21.182 9.8535C21.2256 10.7357 21.1407 11.6098 20.9001 12.4572C20.7825 12.8721 20.5597 13.2069 20.225 13.4794C19.8054 13.8215 19.5258 14.2701 19.3972 14.8586C19.194 15.7894 18.7468 16.5982 18.1613 17.3205C17.5935 18.0204 16.931 18.5728 16.1428 18.9443C15.431 19.2796 14.6973 19.6056 13.912 19.46C13.3213 19.3505 12.7254 19.1521 12.1829 18.8758C10.3843 17.96 9.36132 16.3456 8.84982 14.3124C8.78036 14.0362 8.67531 13.8016 8.43936 13.6598C7.77803 13.2635 7.50248 12.6084 7.4135 11.8388C7.34346 11.2315 7.26424 10.6219 7.25448 10.0121C7.25046 9.76392 7.3848 9.48457 7.52372 9.2718C7.60983 9.13991 7.81765 9.06089 7.98068 9.03725C8.32972 8.98624 8.44396 8.82634 8.37794 8.43999C8.29298 7.94103 8.204 7.44021 8.16324 6.93627C8.11559 6.3527 8.11731 5.76353 8.10009 5.17748C8.08057 4.51863 8.10181 3.8604 8.40951 3.27247C8.53409 3.03419 8.71147 2.76356 8.9279 2.6578C9.53756 2.35917 9.98074 1.8994 10.3315 1.29779C10.6639 0.727284 11.1972 0.446076 11.7764 0.332224C12.5532 0.178555 13.3437 0.107009 14.1284 0Z" fill="white"/>
<path d="M25.5512 9.97731C25.6046 10.9342 24.8164 11.7305 23.9225 11.7075C23.0155 11.6838 22.3456 10.9043 22.3433 9.9574C22.341 8.97193 23.0689 8.20358 23.9822 8.21416C24.8135 8.22349 25.6137 8.97317 25.5512 9.97731Z" fill="white"/>
<path d="M27.5607 9.95865C27.4573 8.93523 28.3707 8.18492 29.1411 8.22038C30.1371 8.26642 30.7427 8.92527 30.7531 9.97856C30.7617 10.8776 30.2186 11.6559 29.1365 11.7013C28.3724 11.7336 27.4562 10.9895 27.5607 9.95865Z" fill="white"/>
</svg>
