<svg width="99" height="48" viewBox="0 0 99 48" fill="none" xmlns="http://www.w3.org/2000/svg">
<path d="M58.1676 24.0507C58.168 22.4487 57.712 20.8802 56.8535 19.5309C55.9951 18.1815 54.7703 17.1079 53.324 16.437C51.8778 15.7662 50.2707 15.5263 48.6931 15.7456C47.1155 15.965 45.6334 16.6345 44.4223 17.6749C43.2113 18.7153 42.322 20.0829 41.8597 21.6159C41.3975 23.1489 41.3816 24.783 41.814 26.3248C42.2465 27.8666 43.1091 29.2514 44.2997 30.3154C45.4904 31.3793 46.9592 32.0778 48.5322 32.3281V26.4731H46.4166V24.0507H48.5322V22.2035C48.4867 21.7722 48.536 21.3362 48.6766 20.9263C48.8173 20.5164 49.0459 20.1426 49.3461 19.8315C49.6464 19.5203 50.0111 19.2794 50.4143 19.1259C50.8174 18.9723 51.2492 18.9098 51.6791 18.9428C52.3041 18.951 52.9277 19.0057 53.5447 19.1062V21.1714H52.4947C52.3159 21.1479 52.134 21.1651 51.9627 21.2218C51.7913 21.2785 51.6349 21.3733 51.5048 21.499C51.3748 21.6248 51.2746 21.7783 51.2115 21.9483C51.1484 22.1183 51.1242 22.3004 51.1406 22.4811V24.0528H53.452L53.0822 26.4752H51.1364V32.3333C53.0971 32.0214 54.8826 31.0156 56.1716 29.4972C57.4606 27.9788 58.1685 26.0474 58.1676 24.0507Z" fill="#FF9D42"/>
<path d="M24.667 2H75.0003V-2H24.667V2ZM75.0003 46H24.667V50H75.0003V46ZM24.667 46C12.5167 46 2.66699 36.1503 2.66699 24H-1.33301C-1.33301 38.3594 10.3076 50 24.667 50V46ZM97.0003 24C97.0003 36.1503 87.1506 46 75.0003 46V50C89.3597 50 101 38.3594 101 24H97.0003ZM75.0003 2C87.1506 2 97.0003 11.8497 97.0003 24H101C101 9.64059 89.3597 -2 75.0003 -2V2ZM24.667 -2C10.3076 -2 -1.33301 9.6406 -1.33301 24H2.66699C2.66699 11.8497 12.5167 2 24.667 2V-2Z" fill="#1F2022"/>
</svg>
