<svg width="56" height="56" viewBox="0 0 56 56" fill="none" xmlns="http://www.w3.org/2000/svg">
<circle cx="28" cy="28" r="27.5" stroke="#3D3D3D"/>
<path d="M40.2934 41.1465H15V40.6465C15 33.6733 20.6733 28 27.6465 28C34.6201 28 40.2934 33.6733 40.2934 40.6465V41.1465ZM16.0107 40.1465H39.2827C39.0205 33.9556 33.9013 29 27.6465 29C21.3921 29 16.2729 33.9556 16.0107 40.1465V40.1465Z" fill="white"/>
<path d="M27.9913 27.9829C24.1363 27.9829 21 24.8467 21 20.9912C21 17.1362 24.1363 14 27.9913 14C31.8467 14 34.983 17.1362 34.983 20.9912C34.983 24.8467 31.8467 27.9829 27.9913 27.9829V27.9829ZM27.9913 15C24.6875 15 22 17.6875 22 20.9912C22 24.2949 24.6875 26.9829 27.9913 26.9829C31.2951 26.9829 33.983 24.2949 33.983 20.9912C33.983 17.6875 31.295 15 27.9913 15Z" fill="white"/>
</svg>
