<svg width="35" height="35" viewBox="0 0 35 35" fill="none" xmlns="http://www.w3.org/2000/svg">
<g clip-path="url(#clip0_288_1666)">
<path d="M32.9167 4.78819L24.5761 4.78823V2.71218C24.5761 2.13666 24.11 1.67052 23.5345 1.67052C22.9589 1.67052 22.4928 2.13666 22.4928 2.71218V4.7877H14.1595V2.71218C14.1595 2.13666 13.6933 1.67052 13.1178 1.67052C12.5423 1.67052 12.0761 2.13666 12.0761 2.71218V4.7877H3.75008C2.59956 4.7877 1.66675 5.72052 1.66675 6.87104V32.9127C1.66675 34.0632 2.59956 34.996 3.75008 34.996H32.9167C34.0673 34.996 35.0001 34.0632 35.0001 32.9127V6.87104C35.0001 5.72101 34.0673 4.78819 32.9167 4.78819ZM32.9167 32.9127H3.75008V6.87104H12.0761V7.92052C12.0761 8.49601 12.5423 8.96218 13.1178 8.96218C13.6933 8.96218 14.1595 8.49601 14.1595 7.92052V6.87156H22.4928V7.92104C22.4928 8.49656 22.9589 8.9627 23.5345 8.9627C24.11 8.9627 24.5761 8.49656 24.5761 7.92104V6.87156H32.9167V32.9127ZM25.6251 18.3299H27.7084C28.2834 18.3299 28.7501 17.8632 28.7501 17.2882V15.2049C28.7501 14.6299 28.2834 14.1632 27.7084 14.1632H25.6251C25.0501 14.1632 24.5834 14.6299 24.5834 15.2049V17.2882C24.5834 17.8632 25.0501 18.3299 25.6251 18.3299ZM25.6251 26.6627H27.7084C28.2834 26.6627 28.7501 26.1965 28.7501 25.621V23.5377C28.7501 22.9627 28.2834 22.496 27.7084 22.496H25.6251C25.0501 22.496 24.5834 22.9627 24.5834 23.5377V25.621C24.5834 26.1971 25.0501 26.6627 25.6251 26.6627ZM19.3751 22.496H17.2917C16.7167 22.496 16.2501 22.9627 16.2501 23.5377V25.621C16.2501 26.1965 16.7167 26.6627 17.2917 26.6627H19.3751C19.9501 26.6627 20.4167 26.1965 20.4167 25.621V23.5377C20.4167 22.9632 19.9501 22.496 19.3751 22.496ZM19.3751 14.1632H17.2917C16.7167 14.1632 16.2501 14.6299 16.2501 15.2049V17.2882C16.2501 17.8632 16.7167 18.3299 17.2917 18.3299H19.3751C19.9501 18.3299 20.4167 17.8632 20.4167 17.2882V15.2049C20.4167 14.6293 19.9501 14.1632 19.3751 14.1632ZM11.0417 14.1632H8.95841C8.38341 14.1632 7.91675 14.6299 7.91675 15.2049V17.2882C7.91675 17.8632 8.38341 18.3299 8.95841 18.3299H11.0417C11.6167 18.3299 12.0834 17.8632 12.0834 17.2882V15.2049C12.0834 14.6293 11.6167 14.1632 11.0417 14.1632ZM11.0417 22.496H8.95841C8.38341 22.496 7.91675 22.9627 7.91675 23.5377V25.621C7.91675 26.1965 8.38341 26.6627 8.95841 26.6627H11.0417C11.6167 26.6627 12.0834 26.1965 12.0834 25.621V23.5377C12.0834 22.9632 11.6167 22.496 11.0417 22.496Z" fill="#FF9D42"/>
</g>
<g clip-path="url(#clip1_288_1666)">
<path d="M32.0833 3.95486L23.7426 3.9549V1.87886C23.7426 1.30333 23.2765 0.837189 22.701 0.837189C22.1254 0.837189 21.6593 1.30333 21.6593 1.87886V3.95438H13.326V1.87886C13.326 1.30333 12.8598 0.837189 12.2843 0.837189C11.7088 0.837189 11.2426 1.30333 11.2426 1.87886V3.95438H2.91659C1.76606 3.95438 0.833252 4.88719 0.833252 6.03771V32.0794C0.833252 33.2299 1.76606 34.1627 2.91659 34.1627H32.0833C33.2338 34.1627 34.1666 33.2299 34.1666 32.0794V6.03771C34.1666 4.88768 33.2338 3.95486 32.0833 3.95486ZM32.0833 32.0794H2.91659V6.03771H11.2426V7.08719C11.2426 7.66268 11.7088 8.12886 12.2843 8.12886C12.8598 8.12886 13.326 7.66268 13.326 7.08719V6.03823H21.6593V7.08771C21.6593 7.66323 22.1254 8.12938 22.701 8.12938C23.2765 8.12938 23.7426 7.66323 23.7426 7.08771V6.03823H32.0833V32.0794ZM24.7916 17.4965H26.8749C27.4499 17.4965 27.9166 17.0299 27.9166 16.4549V14.3715C27.9166 13.7965 27.4499 13.3299 26.8749 13.3299H24.7916C24.2166 13.3299 23.7499 13.7965 23.7499 14.3715V16.4549C23.7499 17.0299 24.2166 17.4965 24.7916 17.4965ZM24.7916 25.8293H26.8749C27.4499 25.8293 27.9166 25.3632 27.9166 24.7877V22.7043C27.9166 22.1293 27.4499 21.6627 26.8749 21.6627H24.7916C24.2166 21.6627 23.7499 22.1293 23.7499 22.7043V24.7877C23.7499 25.3637 24.2166 25.8293 24.7916 25.8293ZM18.5416 21.6627H16.4583C15.8833 21.6627 15.4166 22.1293 15.4166 22.7043V24.7877C15.4166 25.3632 15.8833 25.8293 16.4583 25.8293H18.5416C19.1166 25.8293 19.5833 25.3632 19.5833 24.7877V22.7043C19.5833 22.1299 19.1166 21.6627 18.5416 21.6627ZM18.5416 13.3299H16.4583C15.8833 13.3299 15.4166 13.7965 15.4166 14.3715V16.4549C15.4166 17.0299 15.8833 17.4965 16.4583 17.4965H18.5416C19.1166 17.4965 19.5833 17.0299 19.5833 16.4549V14.3715C19.5833 13.796 19.1166 13.3299 18.5416 13.3299ZM10.2083 13.3299H8.12492C7.54992 13.3299 7.08325 13.7965 7.08325 14.3715V16.4549C7.08325 17.0299 7.54992 17.4965 8.12492 17.4965H10.2083C10.7833 17.4965 11.2499 17.0299 11.2499 16.4549V14.3715C11.2499 13.796 10.7833 13.3299 10.2083 13.3299ZM10.2083 21.6627H8.12492C7.54992 21.6627 7.08325 22.1293 7.08325 22.7043V24.7877C7.08325 25.3632 7.54992 25.8293 8.12492 25.8293H10.2083C10.7833 25.8293 11.2499 25.3632 11.2499 24.7877V22.7043C11.2499 22.1299 10.7833 21.6627 10.2083 21.6627Z" fill="black"/>
</g>
<g clip-path="url(#clip2_288_1666)">
<path d="M31.25 3.12154L22.9094 3.12157V1.04553C22.9094 0.470006 22.4432 0.00386047 21.8677 0.00386047C21.2922 0.00386047 20.826 0.470006 20.826 1.04553V3.12105H12.4927V1.04553C12.4927 0.470006 12.0266 0.00386047 11.451 0.00386047C10.8755 0.00386047 10.4094 0.470006 10.4094 1.04553V3.12105H2.08333C0.932812 3.12105 0 4.05386 0 5.20438V31.246C0 32.3965 0.932812 33.3294 2.08333 33.3294H31.25C32.4005 33.3294 33.3333 32.3965 33.3333 31.246V5.20438C33.3333 4.05435 32.4005 3.12154 31.25 3.12154ZM31.25 31.246H2.08333V5.20438H10.4094V6.25386C10.4094 6.82935 10.8755 7.29553 11.451 7.29553C12.0266 7.29553 12.4927 6.82935 12.4927 6.25386V5.2049H20.826V6.25438C20.826 6.8299 21.2922 7.29605 21.8677 7.29605C22.4432 7.29605 22.9094 6.8299 22.9094 6.25438V5.2049H31.25V31.246ZM23.9583 16.6632H26.0417C26.6167 16.6632 27.0833 16.1965 27.0833 15.6215V13.5382C27.0833 12.9632 26.6167 12.4965 26.0417 12.4965H23.9583C23.3833 12.4965 22.9167 12.9632 22.9167 13.5382V15.6215C22.9167 16.1965 23.3833 16.6632 23.9583 16.6632ZM23.9583 24.996H26.0417C26.6167 24.996 27.0833 24.5299 27.0833 23.9544V21.871C27.0833 21.296 26.6167 20.8294 26.0417 20.8294H23.9583C23.3833 20.8294 22.9167 21.296 22.9167 21.871V23.9544C22.9167 24.5304 23.3833 24.996 23.9583 24.996ZM17.7083 20.8294H15.625C15.05 20.8294 14.5833 21.296 14.5833 21.871V23.9544C14.5833 24.5299 15.05 24.996 15.625 24.996H17.7083C18.2833 24.996 18.75 24.5299 18.75 23.9544V21.871C18.75 21.2965 18.2833 20.8294 17.7083 20.8294ZM17.7083 12.4965H15.625C15.05 12.4965 14.5833 12.9632 14.5833 13.5382V15.6215C14.5833 16.1965 15.05 16.6632 15.625 16.6632H17.7083C18.2833 16.6632 18.75 16.1965 18.75 15.6215V13.5382C18.75 12.9627 18.2833 12.4965 17.7083 12.4965ZM9.375 12.4965H7.29167C6.71667 12.4965 6.25 12.9632 6.25 13.5382V15.6215C6.25 16.1965 6.71667 16.6632 7.29167 16.6632H9.375C9.95 16.6632 10.4167 16.1965 10.4167 15.6215V13.5382C10.4167 12.9627 9.95 12.4965 9.375 12.4965ZM9.375 20.8294H7.29167C6.71667 20.8294 6.25 21.296 6.25 21.871V23.9544C6.25 24.5299 6.71667 24.996 7.29167 24.996H9.375C9.95 24.996 10.4167 24.5299 10.4167 23.9544V21.871C10.4167 21.2965 9.95 20.8294 9.375 20.8294Z" fill="white"/>
</g>
<defs>
<clipPath id="clip0_288_1666">
<rect width="33.3333" height="33.3333" fill="white" transform="translate(1.66675 1.66666)"/>
</clipPath>
<clipPath id="clip1_288_1666">
<rect width="33.3333" height="33.3333" fill="white" transform="translate(0.833252 0.833328)"/>
</clipPath>
<clipPath id="clip2_288_1666">
<rect width="33.3333" height="33.3333" fill="white"/>
</clipPath>
</defs>
</svg>
