<svg width="25" height="21" viewBox="0 0 25 21" fill="none" xmlns="http://www.w3.org/2000/svg">
<path fill-rule="evenodd" clip-rule="evenodd" d="M22.9523 17.7188C22.9523 18.5036 22.4924 19.0312 21.8082 19.0312C21.2396 19.0312 20.6641 18.5804 20.6641 17.7188V0.328125C20.6641 0.241101 20.6943 0.157641 20.7479 0.0961056C20.8016 0.0345702 20.8743 0 20.9502 0C21.026 0 21.0988 0.0345702 21.1524 0.0961056C21.2061 0.157641 21.2362 0.241101 21.2362 0.328125V17.7188C21.2362 18.3566 21.7493 18.375 21.8082 18.375C22.0216 18.375 22.3803 18.2897 22.3803 17.7188V0.328125C22.3803 0.241101 22.4104 0.157641 22.4641 0.0961056C22.5177 0.0345702 22.5905 0 22.6663 0C22.7422 0 22.8149 0.0345702 22.8686 0.0961056C22.9222 0.157641 22.9523 0.241101 22.9523 0.328125V17.7188ZM8.93717 13.7812H3.21669C3.14083 13.7812 3.06808 13.7467 3.01444 13.6851C2.9608 13.6236 2.93066 13.5401 2.93066 13.4531V7.54688C2.93066 7.45985 2.9608 7.37639 3.01444 7.31486C3.06808 7.25332 3.14083 7.21875 3.21669 7.21875H8.93717C9.01302 7.21875 9.08578 7.25332 9.13942 7.31486C9.19306 7.37639 9.22319 7.45985 9.22319 7.54688V13.4531C9.22319 13.5401 9.19306 13.6236 9.13942 13.6851C9.08578 13.7467 9.01302 13.7812 8.93717 13.7812ZM8.65114 7.875H3.50271V13.125H8.65114V7.875ZM16.9458 5.25H3.21669C3.14083 5.25 3.06808 5.21543 3.01444 5.15389C2.9608 5.09236 2.93066 5.0089 2.93066 4.92188V2.29688C2.93066 2.20985 2.9608 2.12639 3.01444 2.06486C3.06808 2.00332 3.14083 1.96875 3.21669 1.96875H16.9458C17.0217 1.96875 17.0944 2.00332 17.1481 2.06486C17.2017 2.12639 17.2319 2.20985 17.2319 2.29688V4.92188C17.2319 5.0089 17.2017 5.09236 17.1481 5.15389C17.0944 5.21543 17.0217 5.25 16.9458 5.25ZM16.6598 2.625H3.50271V4.59375H16.6598V2.625ZM11.2254 7.21875H16.9458C17.0217 7.21875 17.0944 7.25332 17.1481 7.31486C17.2017 7.37639 17.2319 7.45985 17.2319 7.54688C17.2319 7.6339 17.2017 7.71736 17.1481 7.77889C17.0944 7.84043 17.0217 7.875 16.9458 7.875H11.2254C11.1495 7.875 11.0767 7.84043 11.0231 7.77889C10.9695 7.71736 10.9393 7.6339 10.9393 7.54688C10.9393 7.45985 10.9695 7.37639 11.0231 7.31486C11.0767 7.25332 11.1495 7.21875 11.2254 7.21875ZM11.2254 9.1875H16.9458C17.0217 9.1875 17.0944 9.22207 17.1481 9.28361C17.2017 9.34514 17.2319 9.4286 17.2319 9.51562C17.2319 9.60265 17.2017 9.68611 17.1481 9.74764C17.0944 9.80918 17.0217 9.84375 16.9458 9.84375H11.2254C11.1495 9.84375 11.0767 9.80918 11.0231 9.74764C10.9695 9.68611 10.9393 9.60265 10.9393 9.51562C10.9393 9.4286 10.9695 9.34514 11.0231 9.28361C11.0767 9.22207 11.1495 9.1875 11.2254 9.1875ZM11.2254 11.1562H16.9458C17.0217 11.1562 17.0944 11.1908 17.1481 11.2524C17.2017 11.3139 17.2319 11.3974 17.2319 11.4844C17.2319 11.5714 17.2017 11.6549 17.1481 11.7164C17.0944 11.7779 17.0217 11.8125 16.9458 11.8125H11.2254C11.1495 11.8125 11.0767 11.7779 11.0231 11.7164C10.9695 11.6549 10.9393 11.5714 10.9393 11.4844C10.9393 11.3974 10.9695 11.3139 11.0231 11.2524C11.0767 11.1908 11.1495 11.1562 11.2254 11.1562ZM11.2254 13.125H16.9458C17.0217 13.125 17.0944 13.1596 17.1481 13.2211C17.2017 13.2826 17.2319 13.3661 17.2319 13.4531C17.2319 13.5401 17.2017 13.6236 17.1481 13.6851C17.0944 13.7467 17.0217 13.7812 16.9458 13.7812H11.2254C11.1495 13.7812 11.0767 13.7467 11.0231 13.6851C10.9695 13.6236 10.9393 13.5401 10.9393 13.4531C10.9393 13.3661 10.9695 13.2826 11.0231 13.2211C11.0767 13.1596 11.1495 13.125 11.2254 13.125ZM11.2254 15.0938H16.9458C17.0217 15.0938 17.0944 15.1283 17.1481 15.1899C17.2017 15.2514 17.2319 15.3349 17.2319 15.4219C17.2319 15.5089 17.2017 15.5924 17.1481 15.6539C17.0944 15.7154 17.0217 15.75 16.9458 15.75H11.2254C11.1495 15.75 11.0767 15.7154 11.0231 15.6539C10.9695 15.5924 10.9393 15.5089 10.9393 15.4219C10.9393 15.3349 10.9695 15.2514 11.0231 15.1899C11.0767 15.1283 11.1495 15.0938 11.2254 15.0938ZM8.93717 15.75H3.21669C3.14083 15.75 3.06808 15.7154 3.01444 15.6539C2.9608 15.5924 2.93066 15.5089 2.93066 15.4219C2.93066 15.3349 2.9608 15.2514 3.01444 15.1899C3.06808 15.1283 3.14083 15.0938 3.21669 15.0938H8.93717C9.01302 15.0938 9.08578 15.1283 9.13942 15.1899C9.19306 15.2514 9.22319 15.3349 9.22319 15.4219C9.22319 15.5089 9.19306 15.5924 9.13942 15.6539C9.08578 15.7154 9.01302 15.75 8.93717 15.75ZM11.2254 17.0625H16.9458C17.0217 17.0625 17.0944 17.0971 17.1481 17.1586C17.2017 17.2201 17.2319 17.3036 17.2319 17.3906C17.2319 17.4776 17.2017 17.5611 17.1481 17.6226C17.0944 17.6842 17.0217 17.7188 16.9458 17.7188H11.2254C11.1495 17.7188 11.0767 17.6842 11.0231 17.6226C10.9695 17.5611 10.9393 17.4776 10.9393 17.3906C10.9393 17.3036 10.9695 17.2201 11.0231 17.1586C11.0767 17.0971 11.1495 17.0625 11.2254 17.0625ZM8.93717 17.7188H3.21669C3.14083 17.7188 3.06808 17.6842 3.01444 17.6226C2.9608 17.5611 2.93066 17.4776 2.93066 17.3906C2.93066 17.3036 2.9608 17.2201 3.01444 17.1586C3.06808 17.0971 3.14083 17.0625 3.21669 17.0625H8.93717C9.01302 17.0625 9.08578 17.0971 9.13942 17.1586C9.19306 17.2201 9.22319 17.3036 9.22319 17.3906C9.22319 17.4776 9.19306 17.5611 9.13942 17.6226C9.08578 17.6842 9.01302 17.7188 8.93717 17.7188ZM21.8197 20.9652H3.50277C2.75246 20.9644 2.0331 20.622 1.50255 20.0134C0.972003 19.4048 0.673609 18.5795 0.672852 17.7188V0.328134C0.672852 0.16604 0.787261 0.03479 0.928557 0.03479H19.2341C19.3754 0.03479 19.4898 0.16604 19.4898 0.328134V17.7188C19.4898 19.1855 20.5303 20.3785 21.8089 20.3785C23.0874 20.3785 24.1274 19.1855 24.1274 17.7188V0.328134C24.1274 0.250334 24.1543 0.175721 24.2023 0.120708C24.2502 0.0656958 24.3153 0.03479 24.3831 0.03479C24.4509 0.03479 24.5159 0.0656958 24.5639 0.120708C24.6119 0.175721 24.6388 0.250334 24.6388 0.328134V17.7188C24.6376 18.5747 24.3421 19.3955 23.8164 20.0029C23.2907 20.6103 22.5773 20.9552 21.8312 20.9626C21.8283 20.9626 21.8257 20.964 21.8229 20.9647C21.8219 20.965 21.8208 20.9652 21.8197 20.9652ZM18.9778 0.621478H1.18426V17.7188C1.18502 18.4239 1.42953 19.0999 1.86417 19.5985C2.29882 20.0972 2.8881 20.3777 3.50277 20.3785H20.1871C20.0658 20.2808 19.9537 20.1685 19.8473 20.0504C19.8224 20.0231 19.7991 19.9957 19.7752 19.9677L19.7747 19.9671C19.6643 19.8358 19.5613 19.696 19.4709 19.5451C19.4661 19.5369 19.4618 19.5284 19.4575 19.5198C19.4532 19.5113 19.4489 19.5028 19.444 19.4946C19.3611 19.3502 19.2896 19.1973 19.2278 19.0385C19.2236 19.0278 19.2192 19.0174 19.2148 19.0069C19.2068 18.9877 19.1988 18.9685 19.1918 18.9486C19.1305 18.7786 19.0836 18.6021 19.0482 18.4196C19.0431 18.3943 19.0392 18.3687 19.0352 18.343C19.0332 18.3307 19.0313 18.3184 19.0293 18.3061C18.999 18.1145 18.9778 17.9196 18.9778 17.7188V0.621478Z" fill="white"/>
</svg>
