<svg width="36" height="29" viewBox="0 0 36 29" fill="none" xmlns="http://www.w3.org/2000/svg">
<path d="M34.1146 15.3227C33.9695 15.3234 33.8257 15.3007 33.6913 15.2558C33.557 15.2109 33.4348 15.1448 33.3318 15.0612L17.5758 2.1651L1.81978 15.0612C1.60885 15.209 1.33753 15.2862 1.06003 15.2774C0.782538 15.2686 0.519307 15.1745 0.322942 15.0139C0.126577 14.8533 0.0115407 14.638 0.000822291 14.4111C-0.00989615 14.1841 0.0844922 13.9622 0.265125 13.7896L16.804 0.262245C17.0106 0.0942785 17.29 0 17.5813 0C17.8726 0 18.152 0.0942785 18.3586 0.262245L34.8975 13.7896C35.0492 13.9162 35.1519 14.0766 35.1928 14.2507C35.2337 14.4248 35.211 14.6049 35.1275 14.7685C35.044 14.9321 34.9033 15.0719 34.7232 15.1705C34.543 15.269 34.3314 15.322 34.1146 15.3227V15.3227Z" fill="white"/>
<path d="M17.5757 5.21326L4.34467 16.0712V27.0465C4.34467 27.5248 4.577 27.9836 4.99055 28.3219C5.4041 28.6601 5.96499 28.8501 6.54984 28.8501H14.268V19.8319H20.8835V28.8501H28.6016C29.1865 28.8501 29.7474 28.6601 30.1609 28.3219C30.5745 27.9836 30.8068 27.5248 30.8068 27.0465V16.0081L17.5757 5.21326Z" fill="white"/>
</svg>
