<svg width="24" height="22" viewBox="0 0 24 22" fill="none" xmlns="http://www.w3.org/2000/svg">
<rect width="2.17582" height="2.17582" transform="matrix(1 0 0 -1 0 22)" fill="white"/>
<rect width="2.17582" height="2.17582" transform="matrix(1 0 0 -1 0 2.17584)" fill="white"/>
<rect width="2.17582" height="2.17582" transform="matrix(1 0 0 -1 4.35156 22)" fill="white"/>
<rect width="2.17582" height="2.17582" transform="matrix(1 0 0 -1 4.35156 2.17584)" fill="white"/>
<rect width="2.17582" height="2.17582" transform="matrix(1 0 0 -1 8.70312 22)" fill="white"/>
<rect width="2.17582" height="2.17582" transform="matrix(1 0 0 -1 8.70312 2.17584)" fill="white"/>
<rect width="2.17582" height="2.17582" transform="matrix(1 0 0 -1 13.0547 22)" fill="white"/>
<rect width="2.17582" height="2.17582" transform="matrix(1 0 0 -1 13.0547 2.17584)" fill="white"/>
<rect width="2.17582" height="2.17582" transform="matrix(1 0 0 -1 17.4067 22)" fill="white"/>
<rect width="2.17582" height="2.17582" transform="matrix(1 0 0 -1 17.4067 2.17584)" fill="white"/>
<rect width="2.17582" height="2.17582" transform="matrix(1 0 0 -1 21.7583 22)" fill="white"/>
<rect width="2.17582" height="2.17582" transform="matrix(1 0 0 -1 21.7583 2.17584)" fill="white"/>
<path fill-rule="evenodd" clip-rule="evenodd" d="M23.4505 18.1318H0V3.86811H23.4505V18.1318ZM13.7308 10.2548C14.3975 10.6397 14.3975 11.602 13.7308 11.9869L11.2912 13.3954C10.6246 13.7803 9.79124 13.2991 9.79124 12.5293V9.71239C9.79124 8.94258 10.6246 8.46146 11.2912 8.84636L13.7308 10.2548Z" fill="white"/>
</svg>
