<svg width="96" height="78" viewBox="0 0 96 78" fill="none" xmlns="http://www.w3.org/2000/svg">
<g filter="url(#filter0_f_1870_975)">
<path d="M69.9727 51.9091C58.3028 50.5416 35.8662 51.0906 25.7168 52.7293C25.6153 42.518 32.2385 24.8948 49.4413 25.6243C66.6442 26.3537 71.3134 45.9404 69.9727 51.9091Z" fill="url(#paint0_linear_1870_975)"/>
</g>
<path d="M28.4732 52.5609C36.1031 52.0542 54.4752 51.3299 66.9244 52.4866" stroke="#D9D9D9" stroke-width="2" stroke-linecap="round"/>
<path fill-rule="evenodd" clip-rule="evenodd" d="M60.1801 26.0971C60.2816 26.1386 60.3904 26.1596 60.5 26.159C60.6638 26.1583 60.8238 26.1094 60.96 26.0183C61.0961 25.9272 61.2024 25.798 61.2655 25.6468C61.3287 25.4957 61.3458 25.3292 61.3149 25.1684C61.284 25.0075 61.2064 24.8593 61.0917 24.7423L48.5917 12.2423C48.4356 12.0871 48.2243 12 48.0042 12C47.784 12 47.5728 12.0871 47.4167 12.2423L34.9167 24.7423C34.7802 24.9017 34.7088 25.1068 34.7169 25.3165C34.725 25.5263 34.812 25.7252 34.9604 25.8736C35.1088 26.022 35.3077 26.109 35.5175 26.1171C35.7272 26.1252 35.9323 26.0538 36.0917 25.9173L48 14.0007L59.9084 25.9173C59.9862 25.9946 60.0786 26.0557 60.1801 26.0971ZM38 26.8507L48 16.8173L58 26.7923V36.9923C58 37.4343 57.8244 37.8583 57.5118 38.1708C57.1993 38.4834 56.7754 38.659 56.3333 38.659H50.5V30.3257H45.5V38.659H39.6667C39.2246 38.659 38.8007 38.4834 38.4882 38.1708C38.1756 37.8583 38 37.4343 38 36.9923V26.8507Z" fill="white"/>
<defs>
<filter id="filter0_f_1870_975" x="0.715576" y="0.602295" width="94.4731" height="77.1271" filterUnits="userSpaceOnUse" color-interpolation-filters="sRGB">
<feFlood flood-opacity="0" result="BackgroundImageFix"/>
<feBlend mode="normal" in="SourceGraphic" in2="BackgroundImageFix" result="shape"/>
<feGaussianBlur stdDeviation="12.5" result="effect1_foregroundBlur_1870_975"/>
</filter>
<linearGradient id="paint0_linear_1870_975" x1="53.7076" y1="26.2196" x2="46.2557" y2="59.3929" gradientUnits="userSpaceOnUse">
<stop stop-color="#FE8A1F"/>
<stop offset="1" stop-color="#FAE20C"/>
</linearGradient>
</defs>
</svg>
