<svg width="28" height="27" viewBox="0 0 28 27" fill="none" xmlns="http://www.w3.org/2000/svg">
<path fill-rule="evenodd" clip-rule="evenodd" d="M26.1801 14.0971C26.2816 14.1386 26.3904 14.1596 26.5 14.159C26.6638 14.1583 26.8238 14.1094 26.96 14.0183C27.0961 13.9272 27.2024 13.798 27.2655 13.6468C27.3287 13.4957 27.3458 13.3292 27.3149 13.1684C27.284 13.0075 27.2064 12.8593 27.0917 12.7423L14.5917 0.242327C14.4356 0.0871181 14.2243 0 14.0042 0C13.784 0 13.5728 0.0871181 13.4167 0.242327L0.916689 12.7423C0.780168 12.9017 0.708829 13.1068 0.71693 13.3165C0.725031 13.5263 0.811975 13.7252 0.960387 13.8736C1.1088 14.022 1.30775 14.109 1.51748 14.1171C1.72721 14.1252 1.93227 14.0538 2.09169 13.9173L14 2.00066L25.9084 13.9173C25.9862 13.9946 26.0786 14.0557 26.1801 14.0971ZM4 14.8507L14 4.81732L24 14.7923V24.9923C24 25.4343 23.8244 25.8583 23.5118 26.1708C23.1993 26.4834 22.7754 26.659 22.3333 26.659H16.5V18.3257H11.5V26.659H5.66667C5.22464 26.659 4.80072 26.4834 4.48816 26.1708C4.17559 25.8583 4 25.4343 4 24.9923V14.8507Z" fill="white"/>
</svg>
