<svg width="99" height="48" viewBox="0 0 99 48" fill="none" xmlns="http://www.w3.org/2000/svg">
<path d="M57.3386 22.3679H56.6673V22.3333H49.1673V25.6667H53.8769C53.1898 27.6071 51.3436 29 49.1673 29C46.4061 29 44.1673 26.7613 44.1673 24C44.1673 21.2388 46.4061 19 49.1673 19C50.4419 19 51.6015 19.4808 52.4844 20.2663L54.8415 17.9092C53.3532 16.5221 51.3623 15.6667 49.1673 15.6667C44.5652 15.6667 40.834 19.3979 40.834 24C40.834 28.6021 44.5652 32.3333 49.1673 32.3333C53.7694 32.3333 57.5007 28.6021 57.5007 24C57.5007 23.4413 57.4432 22.8958 57.3386 22.3679Z" fill="#FFC107"/>
<path d="M41.7949 20.1213L44.5328 22.1292C45.2737 20.295 47.0678 19 49.1674 19C50.442 19 51.6016 19.4808 52.4845 20.2663L54.8416 17.9092C53.3533 16.5221 51.3624 15.6667 49.1674 15.6667C45.9666 15.6667 43.1908 17.4738 41.7949 20.1213Z" fill="#FF3D00"/>
<path d="M49.1678 32.3333C51.3203 32.3333 53.2761 31.5096 54.7549 30.17L52.1757 27.9875C51.339 28.6213 50.299 29 49.1678 29C47.0003 29 45.1599 27.6179 44.4665 25.6892L41.749 27.7829C43.1282 30.4817 45.929 32.3333 49.1678 32.3333Z" fill="#4CAF50"/>
<path d="M57.3382 22.3679H56.667V22.3333H49.167V25.6667H53.8766C53.5466 26.5988 52.947 27.4025 52.1737 27.9879C52.1741 27.9875 52.1745 27.9875 52.1749 27.9871L54.7541 30.1696C54.5716 30.3354 57.5003 28.1667 57.5003 24C57.5003 23.4413 57.4428 22.8958 57.3382 22.3679Z" fill="#1976D2"/>
<path d="M24 2H74.3333V-2H24V2ZM74.3333 46H24V50H74.3333V46ZM24 46C11.8498 46 2 36.1503 2 24H-2C-2 38.3594 9.64062 50 24 50V46ZM96.3333 24C96.3333 36.1503 86.4836 46 74.3333 46V50C88.6927 50 100.333 38.3594 100.333 24H96.3333ZM74.3333 2C86.4836 2 96.3333 11.8497 96.3333 24H100.333C100.333 9.64059 88.6927 -2 74.3333 -2V2ZM24 -2C9.6406 -2 -2 9.6406 -2 24H2C2 11.8497 11.8497 2 24 2V-2Z" fill="#1F2022"/>
</svg>
