<svg width="20" height="20" viewBox="0 0 20 20" fill="none" xmlns="http://www.w3.org/2000/svg">
<path d="M7.77772 2.22223H3.33328C2.71963 2.22223 2.22217 2.71969 2.22217 3.33334V7.77778C2.22217 8.39143 2.71963 8.8889 3.33328 8.8889H7.77772C8.39137 8.8889 8.88883 8.39143 8.88883 7.77778V3.33334C8.88883 2.71969 8.39137 2.22223 7.77772 2.22223Z" fill="white"/>
<path d="M16.6669 2.22223H12.2224C11.6088 2.22223 11.1113 2.71969 11.1113 3.33334V7.77778C11.1113 8.39143 11.6088 8.8889 12.2224 8.8889H16.6669C17.2805 8.8889 17.778 8.39143 17.778 7.77778V3.33334C17.778 2.71969 17.2805 2.22223 16.6669 2.22223Z" fill="white"/>
<path d="M7.77772 11.1111H3.33328C2.71963 11.1111 2.22217 11.6086 2.22217 12.2222V16.6667C2.22217 17.2803 2.71963 17.7778 3.33328 17.7778H7.77772C8.39137 17.7778 8.88883 17.2803 8.88883 16.6667V12.2222C8.88883 11.6086 8.39137 11.1111 7.77772 11.1111Z" fill="white"/>
<path d="M16.6669 11.1111H12.2224C11.6088 11.1111 11.1113 11.6086 11.1113 12.2222V16.6667C11.1113 17.2803 11.6088 17.7778 12.2224 17.7778H16.6669C17.2805 17.7778 17.778 17.2803 17.778 16.6667V12.2222C17.778 11.6086 17.2805 11.1111 16.6669 11.1111Z" fill="white"/>
</svg>
