<svg width="24" height="24" viewBox="0 0 24 24" fill="none" xmlns="http://www.w3.org/2000/svg">
<rect width="24" height="24" rx="6" fill="#2A2B2C"/>
<path d="M12.31 17H8.85973V6.81818H12.3796C13.3905 6.81818 14.2589 7.02202 14.9847 7.42969C15.7139 7.83404 16.274 8.41572 16.6651 9.17472C17.0562 9.93371 17.2518 10.8419 17.2518 11.8991C17.2518 12.9598 17.0546 13.8712 16.6602 14.6335C16.2691 15.3958 15.704 15.9808 14.9648 16.3885C14.229 16.7962 13.3441 17 12.31 17ZM10.7042 15.4041H12.2205C12.9298 15.4041 13.5214 15.2749 13.9954 15.0163C14.4693 14.7545 14.8256 14.3651 15.0643 13.848C15.3029 13.3277 15.4222 12.678 15.4222 11.8991C15.4222 11.1203 15.3029 10.474 15.0643 9.96023C14.8256 9.44318 14.4727 9.05706 14.0053 8.80185C13.5413 8.54332 12.9646 8.41406 12.2752 8.41406H10.7042V15.4041Z" fill="white"/>
</svg>
