<svg width="19" height="26" viewBox="0 0 19 26" fill="none" xmlns="http://www.w3.org/2000/svg">
<path d="M18.3912 13.3806L18.26 12.5807C18.2075 12.2937 18.1492 12.0078 18.0854 11.7231L17.8879 10.9059C16.5232 5.65312 13.2473 0 9.28125 0C3.91922 0 0 10.2659 0 15.6094C0 21.2317 3.90319 25.3125 9.28125 25.3125C14.6593 25.3125 18.5625 21.2317 18.5625 15.6094C18.5625 14.9247 18.5051 14.1775 18.3912 13.3806Z" fill="#3EBBDD"/>
<path d="M18.2743 12.6677C17.1403 18.1774 12.7317 21.9375 6.96091 21.9375C4.78572 21.9375 2.80586 21.4009 1.11963 20.4403C2.64808 23.42 5.62146 25.3125 9.28122 25.3125C14.6593 25.3125 18.5625 21.2317 18.5625 15.6094C18.5625 14.9247 18.5051 14.1776 18.3912 13.3806L18.2743 12.6677Z" fill="#38A8C7"/>
<path d="M5.06252 18.9844C4.97901 18.9846 4.89732 18.9599 4.82783 18.9136C4.75833 18.8673 4.70417 18.8014 4.67221 18.7242C4.64026 18.647 4.63194 18.5621 4.64833 18.4802C4.66472 18.3983 4.70507 18.3232 4.76426 18.2642L13.2018 9.82673C13.2409 9.78756 13.2874 9.75649 13.3386 9.73529C13.3898 9.7141 13.4446 9.70319 13.5 9.70319C13.5554 9.70319 13.6103 9.7141 13.6614 9.73529C13.7126 9.75649 13.7591 9.78756 13.7983 9.82673C13.8375 9.8659 13.8685 9.9124 13.8897 9.96358C13.9109 10.0148 13.9218 10.0696 13.9218 10.125C13.9218 10.1804 13.9109 10.2352 13.8897 10.2864C13.8685 10.3376 13.8375 10.3841 13.7983 10.4233L5.36079 18.8608C5.32166 18.9 5.27517 18.9311 5.22399 18.9523C5.1728 18.9735 5.11793 18.9844 5.06252 18.9844ZM11.8125 18.5625C10.8819 18.5625 10.125 17.8057 10.125 16.875C10.125 15.9443 10.8819 15.1875 11.8125 15.1875C12.7432 15.1875 13.5 15.9443 13.5 16.875C13.5 17.8057 12.7432 18.5625 11.8125 18.5625ZM11.8125 16.0312C11.3472 16.0312 10.9688 16.4097 10.9688 16.875C10.9688 17.3403 11.3472 17.7187 11.8125 17.7187C12.2778 17.7187 12.6563 17.3403 12.6563 16.875C12.6563 16.4097 12.2778 16.0312 11.8125 16.0312ZM6.75002 13.5C5.81937 13.5 5.06252 12.7432 5.06252 11.8125C5.06252 10.8818 5.81937 10.125 6.75002 10.125C7.68068 10.125 8.43752 10.8818 8.43752 11.8125C8.43752 12.7432 7.68068 13.5 6.75002 13.5ZM6.75002 10.9687C6.28469 10.9687 5.90627 11.3472 5.90627 11.8125C5.90627 12.2778 6.28469 12.6562 6.75002 12.6562C7.21535 12.6562 7.59377 12.2778 7.59377 11.8125C7.59377 11.3472 7.21535 10.9687 6.75002 10.9687Z" fill="white"/>
</svg>
