<svg width="35" height="35" viewBox="0 0 35 35" fill="none" xmlns="http://www.w3.org/2000/svg">
<path d="M6.91362 12.5309H4.10498V29.3827C4.10498 30.1276 4.40089 30.842 4.92761 31.3687C5.45434 31.8954 6.16872 32.1913 6.91362 32.1913H23.7655V29.3827H6.91362V12.5309Z" fill="#FF9D42"/>
<path d="M29.3829 4.10495H12.5311C11.7862 4.10495 11.0718 4.40086 10.545 4.92758C10.0183 5.4543 9.72241 6.16869 9.72241 6.91359V23.7654C9.72241 24.5103 10.0183 25.2247 10.545 25.7515C11.0718 26.2782 11.7862 26.5741 12.5311 26.5741H29.3829C30.1278 26.5741 30.8422 26.2782 31.3689 25.7515C31.8956 25.2247 32.1915 24.5103 32.1915 23.7654V6.91359C32.1915 6.16869 31.8956 5.4543 31.3689 4.92758C30.8422 4.40086 30.1278 4.10495 29.3829 4.10495ZM16.744 20.9568V9.72223L26.5743 15.3395L16.744 20.9568Z" fill="#FF9D42"/>
<path d="M6.26543 11.8827H3.45679V28.7346C3.45679 29.4795 3.7527 30.1939 4.27942 30.7206C4.80614 31.2473 5.52053 31.5432 6.26543 31.5432H23.1173V28.7346H6.26543V11.8827Z" fill="black"/>
<path d="M28.7347 3.45682H11.8829C11.138 3.45682 10.4236 3.75273 9.89685 4.27945C9.37013 4.80617 9.07422 5.52056 9.07422 6.26546V23.1173C9.07422 23.8622 9.37013 24.5766 9.89685 25.1033C10.4236 25.63 11.138 25.926 11.8829 25.926H28.7347C29.4796 25.926 30.194 25.63 30.7207 25.1033C31.2474 24.5766 31.5434 23.8622 31.5434 23.1173V6.26546C31.5434 5.52056 31.2474 4.80617 30.7207 4.27945C30.194 3.75273 29.4796 3.45682 28.7347 3.45682ZM16.0958 20.3087V9.0741L25.9261 14.6914L16.0958 20.3087Z" fill="black"/>
<path d="M5.61724 11.2346H2.80859V28.0864C2.80859 28.8313 3.1045 29.5457 3.63123 30.0724C4.15795 30.5991 4.87234 30.8951 5.61724 30.8951H22.4691V28.0864H5.61724V11.2346Z" fill="white"/>
<path d="M28.0865 2.80865H11.2347C10.4898 2.80865 9.77538 3.10456 9.24866 3.63129C8.72193 4.15801 8.42603 4.8724 8.42603 5.6173V22.4692C8.42603 23.214 8.72193 23.9284 9.24866 24.4552C9.77538 24.9819 10.4898 25.2778 11.2347 25.2778H28.0865C28.8314 25.2778 29.5458 24.9819 30.0725 24.4552C30.5993 23.9284 30.8952 23.214 30.8952 22.4692V5.6173C30.8952 4.8724 30.5993 4.15801 30.0725 3.63129C29.5458 3.10456 28.8314 2.80865 28.0865 2.80865ZM15.4476 19.6605V8.42594L25.2779 14.0432L15.4476 19.6605Z" fill="white"/>
</svg>
