<svg width="20" height="20" viewBox="0 0 20 20" fill="none" xmlns="http://www.w3.org/2000/svg">
<path d="M1.11108 4.44446H2.2222V5.55557H1.11108V4.44446Z" fill="white"/>
<path d="M3.88881 5.55557H17.2221C17.3695 5.55557 17.5108 5.49704 17.615 5.39285C17.7192 5.28866 17.7777 5.14736 17.7777 5.00001C17.7777 4.85267 17.7192 4.71136 17.615 4.60718C17.5108 4.50299 17.3695 4.44446 17.2221 4.44446H3.88881C3.74147 4.44446 3.60016 4.50299 3.49597 4.60718C3.39178 4.71136 3.33325 4.85267 3.33325 5.00001C3.33325 5.14736 3.39178 5.28866 3.49597 5.39285C3.60016 5.49704 3.74147 5.55557 3.88881 5.55557Z" fill="white"/>
<path d="M1.11108 7.77777H2.2222V8.88888H1.11108V7.77777Z" fill="white"/>
<path d="M17.2221 7.77777H3.88881C3.74147 7.77777 3.60016 7.8363 3.49597 7.94049C3.39178 8.04468 3.33325 8.18598 3.33325 8.33333C3.33325 8.48067 3.39178 8.62198 3.49597 8.72616C3.60016 8.83035 3.74147 8.88888 3.88881 8.88888H17.2221C17.3695 8.88888 17.5108 8.83035 17.615 8.72616C17.7192 8.62198 17.7777 8.48067 17.7777 8.33333C17.7777 8.18598 17.7192 8.04468 17.615 7.94049C17.5108 7.8363 17.3695 7.77777 17.2221 7.77777Z" fill="white"/>
<path d="M1.11108 11.1111H2.2222V12.2222H1.11108V11.1111Z" fill="white"/>
<path d="M17.2221 11.1111H3.88881C3.74147 11.1111 3.60016 11.1696 3.49597 11.2738C3.39178 11.378 3.33325 11.5193 3.33325 11.6667C3.33325 11.814 3.39178 11.9553 3.49597 12.0595C3.60016 12.1637 3.74147 12.2222 3.88881 12.2222H17.2221C17.3695 12.2222 17.5108 12.1637 17.615 12.0595C17.7192 11.9553 17.7777 11.814 17.7777 11.6667C17.7777 11.5193 17.7192 11.378 17.615 11.2738C17.5108 11.1696 17.3695 11.1111 17.2221 11.1111Z" fill="white"/>
<path d="M1.11108 14.4445H2.2222V15.5556H1.11108V14.4445Z" fill="white"/>
<path d="M17.2221 14.4445H3.88881C3.74147 14.4445 3.60016 14.503 3.49597 14.6072C3.39178 14.7114 3.33325 14.8527 3.33325 15C3.33325 15.1474 3.39178 15.2887 3.49597 15.3929C3.60016 15.497 3.74147 15.5556 3.88881 15.5556H17.2221C17.3695 15.5556 17.5108 15.497 17.615 15.3929C17.7192 15.2887 17.7777 15.1474 17.7777 15C17.7777 14.8527 17.7192 14.7114 17.615 14.6072C17.5108 14.503 17.3695 14.4445 17.2221 14.4445Z" fill="white"/>
</svg>
