<svg width="113" height="45" viewBox="0 0 113 45" fill="none" xmlns="http://www.w3.org/2000/svg">
<path d="M105 0H8C3.58172 0 0 3.58172 0 8V37C0 41.4183 3.58172 45 8 45H105C109.418 45 113 41.4183 113 37V8C113 3.58172 109.418 0 105 0Z" fill="#FF9D42"/>
<path d="M42.98 30H34.7V16H36.36V28.52H42.98V30ZM43.1402 25C43.1402 23.3067 43.5135 22.0133 44.2602 21.12C45.0202 20.2133 46.1068 19.76 47.5202 19.76C48.2668 19.76 48.9135 19.8867 49.4602 20.14C50.0202 20.38 50.4802 20.7333 50.8402 21.2C51.2002 21.6533 51.4668 22.2067 51.6402 22.86C51.8135 23.5 51.9002 24.2133 51.9002 25C51.9002 26.6933 51.5202 27.9933 50.7602 28.9C50.0135 29.7933 48.9335 30.24 47.5202 30.24C46.7735 30.24 46.1202 30.12 45.5602 29.88C45.0135 29.6267 44.5602 29.2733 44.2002 28.82C43.8402 28.3533 43.5735 27.8 43.4002 27.16C43.2268 26.5067 43.1402 25.7867 43.1402 25ZM44.8002 25C44.8002 25.5067 44.8468 25.9933 44.9402 26.46C45.0468 26.9267 45.2068 27.3333 45.4202 27.68C45.6335 28.0267 45.9135 28.3067 46.2602 28.52C46.6068 28.7333 47.0268 28.84 47.5202 28.84C49.3335 28.8533 50.2402 27.5733 50.2402 25C50.2402 24.48 50.1868 23.9867 50.0802 23.52C49.9868 23.0533 49.8335 22.6467 49.6202 22.3C49.4068 21.9533 49.1268 21.68 48.7802 21.48C48.4335 21.2667 48.0135 21.16 47.5202 21.16C45.7068 21.1467 44.8002 22.4267 44.8002 25ZM62.0828 30.46C62.0828 31.7533 61.7361 32.7067 61.0428 33.32C60.3628 33.9333 59.3495 34.24 58.0028 34.24C57.2028 34.24 56.5561 34.1867 56.0628 34.08C55.5828 33.9867 55.1695 33.86 54.8228 33.7L55.2428 32.34C55.5495 32.46 55.8895 32.5733 56.2628 32.68C56.6361 32.7867 57.1228 32.84 57.7228 32.84C58.2828 32.84 58.7361 32.7867 59.0828 32.68C59.4428 32.5867 59.7295 32.42 59.9428 32.18C60.1561 31.9533 60.3028 31.6533 60.3828 31.28C60.4628 30.92 60.5028 30.4867 60.5028 29.98V29.02H60.4228C60.1561 29.4067 59.8161 29.7067 59.4028 29.92C58.9895 30.12 58.4495 30.22 57.7828 30.22C56.4361 30.22 55.4428 29.8 54.8028 28.96C54.1761 28.12 53.8628 26.8133 53.8628 25.04C53.8628 23.3333 54.2695 22.04 55.0828 21.16C55.8961 20.2667 57.0961 19.82 58.6828 19.82C59.4428 19.82 60.0895 19.88 60.6228 20C61.1695 20.12 61.6561 20.26 62.0828 20.42V30.46ZM58.0628 28.82C58.7428 28.82 59.2761 28.6533 59.6628 28.32C60.0495 27.9733 60.3228 27.44 60.4828 26.72V21.6C59.9495 21.3467 59.2695 21.22 58.4428 21.22C57.5361 21.22 56.8228 21.5267 56.3028 22.14C55.7828 22.7533 55.5228 23.7133 55.5228 25.02C55.5228 25.58 55.5695 26.0933 55.6628 26.56C55.7561 27.0267 55.9028 27.4267 56.1028 27.76C56.3028 28.0933 56.5628 28.3533 56.8828 28.54C57.2028 28.7267 57.5961 28.82 58.0628 28.82ZM65.505 20H67.105V30H65.505V20ZM65.165 16.96C65.165 16.6533 65.265 16.3933 65.465 16.18C65.6783 15.9533 65.945 15.84 66.265 15.84C66.585 15.84 66.8583 15.9533 67.085 16.18C67.3117 16.3933 67.425 16.6533 67.425 16.96C67.425 17.2667 67.3117 17.52 67.085 17.72C66.8583 17.92 66.585 18.02 66.265 18.02C65.945 18.02 65.6783 17.92 65.465 17.72C65.265 17.52 65.165 17.2667 65.165 16.96ZM76.9366 30V24.3C76.9366 23.26 76.7832 22.48 76.4766 21.96C76.1832 21.4267 75.6366 21.16 74.8366 21.16C74.1299 21.16 73.5432 21.3533 73.0766 21.74C72.6232 22.1133 72.3032 22.5867 72.1166 23.16V30H70.5166V20H71.6366L71.9366 21.22H72.0166C72.3366 20.7933 72.7632 20.4467 73.2966 20.18C73.8432 19.9 74.4899 19.76 75.2366 19.76C75.7832 19.76 76.2632 19.8267 76.6766 19.96C77.0899 20.08 77.4299 20.3 77.6966 20.62C77.9766 20.94 78.1832 21.3733 78.3166 21.92C78.4632 22.4533 78.5366 23.1333 78.5366 23.96V30H76.9366Z" fill="white"/>
</svg>
