<svg width="116" height="26" viewBox="0 0 116 26" fill="none" xmlns="http://www.w3.org/2000/svg">
<rect width="116" height="26" rx="13" fill="#FF9D42"/>
<path d="M19.068 15.368C19.068 15.0693 18.956 14.8267 18.732 14.64C18.5173 14.4533 18.242 14.2853 17.906 14.136C17.5793 13.9773 17.22 13.8187 16.828 13.66C16.4453 13.492 16.086 13.2913 15.75 13.058C15.4233 12.8153 15.148 12.5167 14.924 12.162C14.7093 11.8073 14.602 11.3547 14.602 10.804C14.602 10.328 14.6813 9.91733 14.84 9.572C14.9987 9.21733 15.2227 8.92333 15.512 8.69C15.8107 8.45667 16.1607 8.284 16.562 8.172C16.9633 8.06 17.4113 8.004 17.906 8.004C18.4753 8.004 19.012 8.05533 19.516 8.158C20.02 8.25133 20.4353 8.39133 20.762 8.578L20.16 10.188C19.9547 10.0573 19.6467 9.94067 19.236 9.838C18.8253 9.726 18.382 9.67 17.906 9.67C17.458 9.67 17.1127 9.75867 16.87 9.936C16.6367 10.1133 16.52 10.3513 16.52 10.65C16.52 10.93 16.6273 11.1633 16.842 11.35C17.066 11.5367 17.3413 11.7093 17.668 11.868C18.004 12.0267 18.3633 12.19 18.746 12.358C19.138 12.526 19.4973 12.7313 19.824 12.974C20.16 13.2073 20.4353 13.5013 20.65 13.856C20.874 14.2013 20.986 14.6353 20.986 15.158C20.986 15.6807 20.8973 16.1333 20.72 16.516C20.552 16.8893 20.3093 17.202 19.992 17.454C19.684 17.706 19.306 17.8927 18.858 18.014C18.4193 18.1353 17.934 18.196 17.402 18.196C16.702 18.196 16.086 18.1307 15.554 18C15.022 17.8693 14.63 17.7387 14.378 17.608L14.994 15.97C15.0967 16.026 15.2273 16.0867 15.386 16.152C15.554 16.2173 15.7407 16.278 15.946 16.334C16.1513 16.39 16.366 16.4367 16.59 16.474C16.8233 16.5113 17.0613 16.53 17.304 16.53C17.8733 16.53 18.3073 16.4367 18.606 16.25C18.914 16.054 19.068 15.76 19.068 15.368ZM23.9718 11V14.976C23.9718 15.5453 24.0372 15.956 24.1678 16.208C24.3078 16.46 24.5738 16.586 24.9658 16.586C25.3112 16.586 25.5958 16.4833 25.8198 16.278C26.0532 16.0727 26.2258 15.8207 26.3378 15.522V11H28.1578V15.872C28.1578 16.2547 28.1765 16.6327 28.2138 17.006C28.2512 17.37 28.3072 17.7013 28.3818 18H27.0098L26.6878 16.964H26.6318C26.4172 17.3187 26.1185 17.6127 25.7358 17.846C25.3532 18.0793 24.9005 18.196 24.3778 18.196C24.0232 18.196 23.7058 18.1493 23.4258 18.056C23.1458 17.9627 22.9125 17.8087 22.7258 17.594C22.5392 17.3793 22.3945 17.09 22.2918 16.726C22.1985 16.362 22.1518 15.9047 22.1518 15.354V11H23.9718ZM29.755 8.2H31.575V11.56H31.631C31.827 11.336 32.079 11.1587 32.387 11.028C32.695 10.8973 33.0357 10.832 33.409 10.832C34.249 10.832 34.8884 11.1213 35.327 11.7C35.775 12.2693 35.999 13.142 35.999 14.318C35.999 15.578 35.6864 16.5347 35.061 17.188C34.445 17.8413 33.5957 18.168 32.513 18.168C31.9157 18.168 31.3697 18.1167 30.875 18.014C30.3804 17.9207 30.007 17.8133 29.755 17.692V8.2ZM32.877 12.372C32.541 12.372 32.2657 12.4607 32.051 12.638C31.8457 12.806 31.687 13.0533 31.575 13.38V16.432C31.7244 16.5067 31.883 16.558 32.051 16.586C32.2284 16.614 32.415 16.628 32.611 16.628C33.1057 16.628 33.479 16.4507 33.731 16.096C33.9924 15.732 34.123 15.158 34.123 14.374C34.123 13.0393 33.7077 12.372 32.877 12.372ZM40.1589 16.068C40.1589 15.8813 40.0796 15.732 39.9209 15.62C39.7622 15.508 39.5662 15.4053 39.3329 15.312C39.0996 15.2187 38.8429 15.1253 38.5629 15.032C38.2829 14.9293 38.0262 14.794 37.7929 14.626C37.5596 14.4487 37.3636 14.2293 37.2049 13.968C37.0462 13.6973 36.9669 13.352 36.9669 12.932C36.9669 12.2413 37.1722 11.714 37.5829 11.35C37.9936 10.986 38.5862 10.804 39.3609 10.804C39.8929 10.804 40.3736 10.86 40.8029 10.972C41.2322 11.084 41.5682 11.21 41.8109 11.35L41.4049 12.666C41.1902 12.582 40.9196 12.4933 40.5929 12.4C40.2662 12.3067 39.9349 12.26 39.5989 12.26C39.0576 12.26 38.7869 12.47 38.7869 12.89C38.7869 13.058 38.8662 13.1933 39.0249 13.296C39.1836 13.3987 39.3796 13.4967 39.6129 13.59C39.8462 13.674 40.1029 13.7673 40.3829 13.87C40.6629 13.9727 40.9196 14.108 41.1529 14.276C41.3862 14.4347 41.5822 14.6447 41.7409 14.906C41.8996 15.1673 41.9789 15.5033 41.9789 15.914C41.9789 16.6233 41.7502 17.1833 41.2929 17.594C40.8449 17.9953 40.1682 18.196 39.2629 18.196C38.7682 18.196 38.3016 18.1307 37.8629 18C37.4336 17.8787 37.0836 17.734 36.8129 17.566L37.3169 16.208C37.5316 16.3293 37.8162 16.4507 38.1709 16.572C38.5256 16.684 38.8896 16.74 39.2629 16.74C39.5336 16.74 39.7482 16.6887 39.9069 16.586C40.0749 16.4833 40.1589 16.3107 40.1589 16.068ZM48.1231 17.566C47.8431 17.7713 47.5025 17.9253 47.1011 18.028C46.7091 18.14 46.3031 18.196 45.8831 18.196C45.3231 18.196 44.8471 18.1073 44.4551 17.93C44.0725 17.7527 43.7598 17.5053 43.5171 17.188C43.2745 16.8613 43.0971 16.4693 42.9851 16.012C42.8825 15.5547 42.8311 15.0507 42.8311 14.5C42.8311 13.3147 43.0971 12.4047 43.6291 11.77C44.1611 11.126 44.9358 10.804 45.9531 10.804C46.4665 10.804 46.8771 10.846 47.1851 10.93C47.5025 11.014 47.7871 11.1213 48.0391 11.252L47.6051 12.736C47.3905 12.6333 47.1758 12.554 46.9611 12.498C46.7558 12.442 46.5178 12.414 46.2471 12.414C45.7431 12.414 45.3605 12.582 45.0991 12.918C44.8378 13.2447 44.7071 13.772 44.7071 14.5C44.7071 14.7987 44.7398 15.074 44.8051 15.326C44.8705 15.578 44.9685 15.7973 45.0991 15.984C45.2298 16.1707 45.3978 16.32 45.6031 16.432C45.8178 16.5347 46.0651 16.586 46.3451 16.586C46.6531 16.586 46.9145 16.5487 47.1291 16.474C47.3438 16.39 47.5351 16.292 47.7031 16.18L48.1231 17.566ZM53.0878 12.708C52.7984 12.6053 52.5371 12.554 52.3038 12.554C51.9771 12.554 51.7018 12.6427 51.4778 12.82C51.2631 12.988 51.1184 13.2073 51.0438 13.478V18H49.2238V11H50.6378L50.8478 11.924H50.9038C51.0624 11.5787 51.2771 11.3127 51.5478 11.126C51.8184 10.9393 52.1358 10.846 52.4998 10.846C52.7424 10.846 53.0178 10.8973 53.3258 11L53.0878 12.708ZM54.3 11H56.12V18H54.3V11ZM54.034 9.026C54.034 8.75533 54.132 8.52667 54.328 8.34C54.5333 8.144 54.8133 8.046 55.168 8.046C55.5227 8.046 55.8073 8.144 56.022 8.34C56.246 8.52667 56.358 8.75533 56.358 9.026C56.358 9.29667 56.246 9.52533 56.022 9.712C55.8073 9.88933 55.5227 9.978 55.168 9.978C54.8133 9.978 54.5333 9.88933 54.328 9.712C54.132 9.52533 54.034 9.29667 54.034 9.026ZM57.8918 8.2H59.7118V11.56H59.7678C59.9638 11.336 60.2158 11.1587 60.5238 11.028C60.8318 10.8973 61.1724 10.832 61.5458 10.832C62.3858 10.832 63.0251 11.1213 63.4638 11.7C63.9118 12.2693 64.1358 13.142 64.1358 14.318C64.1358 15.578 63.8231 16.5347 63.1978 17.188C62.5818 17.8413 61.7324 18.168 60.6498 18.168C60.0524 18.168 59.5064 18.1167 59.0118 18.014C58.5171 17.9207 58.1438 17.8133 57.8918 17.692V8.2ZM61.0138 12.372C60.6778 12.372 60.4024 12.4607 60.1878 12.638C59.9824 12.806 59.8238 13.0533 59.7118 13.38V16.432C59.8611 16.5067 60.0198 16.558 60.1878 16.586C60.3651 16.614 60.5518 16.628 60.7478 16.628C61.2424 16.628 61.6158 16.4507 61.8678 16.096C62.1291 15.732 62.2598 15.158 62.2598 14.374C62.2598 13.0393 61.8444 12.372 61.0138 12.372ZM70.9976 17.398C70.7176 17.622 70.3349 17.8133 69.8496 17.972C69.3736 18.1213 68.8649 18.196 68.3236 18.196C67.1943 18.196 66.3683 17.8693 65.8456 17.216C65.3229 16.5533 65.0616 15.648 65.0616 14.5C65.0616 13.268 65.3556 12.344 65.9436 11.728C66.5316 11.112 67.3576 10.804 68.4216 10.804C68.7763 10.804 69.1216 10.8507 69.4576 10.944C69.7936 11.0373 70.0923 11.1913 70.3536 11.406C70.6149 11.6207 70.8249 11.91 70.9836 12.274C71.1423 12.638 71.2216 13.0907 71.2216 13.632C71.2216 13.828 71.2076 14.038 71.1796 14.262C71.1609 14.486 71.1283 14.7193 71.0816 14.962H66.8816C66.9096 15.55 67.0589 15.9933 67.3296 16.292C67.6096 16.5907 68.0576 16.74 68.6736 16.74C69.0563 16.74 69.3969 16.684 69.6956 16.572C70.0036 16.4507 70.2369 16.3293 70.3956 16.208L70.9976 17.398ZM68.3936 12.26C67.9176 12.26 67.5629 12.4047 67.3296 12.694C67.1056 12.974 66.9703 13.352 66.9236 13.828H69.5276C69.5649 13.324 69.4856 12.9367 69.2896 12.666C69.1029 12.3953 68.8043 12.26 68.3936 12.26ZM78.526 12.89L77.756 11.35H77.686L77.91 12.89V18H76.09V8.13H77.49L81.2 13.352L81.942 14.85H82.012L81.788 13.352V8.2H83.608V18.07H82.208L78.526 12.89ZM84.9132 14.5C84.9132 13.3147 85.2025 12.4047 85.7812 11.77C86.3598 11.126 87.1718 10.804 88.2172 10.804C88.7772 10.804 89.2625 10.8927 89.6732 11.07C90.0838 11.2473 90.4245 11.4993 90.6952 11.826C90.9658 12.1433 91.1665 12.5307 91.2972 12.988C91.4372 13.4453 91.5072 13.9493 91.5072 14.5C91.5072 15.6853 91.2178 16.6 90.6392 17.244C90.0698 17.8787 89.2625 18.196 88.2172 18.196C87.6572 18.196 87.1718 18.1073 86.7612 17.93C86.3505 17.7527 86.0052 17.5053 85.7252 17.188C85.4545 16.8613 85.2492 16.4693 85.1092 16.012C84.9785 15.5547 84.9132 15.0507 84.9132 14.5ZM86.7892 14.5C86.7892 14.808 86.8172 15.0927 86.8732 15.354C86.9292 15.6153 87.0132 15.844 87.1252 16.04C87.2372 16.236 87.3818 16.39 87.5592 16.502C87.7458 16.6047 87.9652 16.656 88.2172 16.656C88.6932 16.656 89.0478 16.4833 89.2812 16.138C89.5145 15.7927 89.6312 15.2467 89.6312 14.5C89.6312 13.856 89.5238 13.338 89.3092 12.946C89.0945 12.5447 88.7305 12.344 88.2172 12.344C87.7692 12.344 87.4192 12.512 87.1672 12.848C86.9152 13.184 86.7892 13.7347 86.7892 14.5ZM97.7137 11L98.9877 14.584L99.2397 15.746H99.2957L99.4917 14.57L100.388 11H102.054L99.8977 18.07H98.5537L97.1397 14.15L96.9577 13.268H96.8877L96.7197 14.164L95.3757 18.07H93.9897L91.7357 11H93.7097L94.7317 14.514L94.8997 15.76H94.9697L95.2077 14.5L96.3697 11H97.7137Z" fill="black"/>
</svg>
