<svg width="35" height="35" viewBox="0 0 35 35" fill="none" xmlns="http://www.w3.org/2000/svg">
<path d="M28.0324 18.2778L8.52316 30.8194M8.52316 5.73611V18.2778M28.0324 5.73611V18.2778M8.52316 18.2778L28.0324 30.8194M7.12964 18.2778H29.4259" stroke="#FF9D42" stroke-width="1.5" stroke-linecap="round" stroke-linejoin="round"/>
<path d="M8.52319 7.12964H28.0324M8.52319 11.3102H28.0324" stroke="#FF9D42" stroke-width="1.5" stroke-linejoin="round"/>
<path d="M28.0324 18.2778L8.52316 30.8194M8.52316 5.73611V18.2778M28.0324 5.73611V18.2778M8.52316 18.2778L28.0324 30.8194M7.12964 18.2778H29.4259" stroke="#FF9D42" stroke-width="1.5" stroke-linecap="round" stroke-linejoin="round"/>
<path d="M8.52319 7.12964H28.0324M8.52319 11.3102H28.0324" stroke="#FF9D42" stroke-width="1.5" stroke-linejoin="round"/>
<path d="M27.2546 17.5L7.74533 30.0417M7.74533 4.95833V17.5M27.2546 4.95833V17.5M7.74533 17.5L27.2546 30.0417M6.35181 17.5H28.6481" stroke="black" stroke-width="1.5" stroke-linecap="round" stroke-linejoin="round"/>
<path d="M7.74536 6.35185H27.2546M7.74536 10.5324H27.2546" stroke="black" stroke-width="1.5" stroke-linejoin="round"/>
<path d="M26.4768 16.7222L6.96749 29.2639M6.96749 4.18056V16.7222M26.4768 4.18056V16.7222M6.96749 16.7222L26.4768 29.2639M5.57397 16.7222H27.8703" stroke="white" stroke-width="1.5" stroke-linecap="round" stroke-linejoin="round"/>
<path d="M6.96753 5.57408H26.4768M6.96753 9.75464H26.4768" stroke="white" stroke-width="1.5" stroke-linejoin="round"/>
</svg>
