<svg width="383" height="56" viewBox="0 0 383 56" fill="none" xmlns="http://www.w3.org/2000/svg">
<path d="M375 0H8C3.58172 0 0 3.58172 0 8V48C0 52.4183 3.58172 56 8 56H375C379.418 56 383 52.4183 383 48V8C383 3.58172 379.418 0 375 0Z" fill="#FF9D42"/>
<path d="M32.9307 24.304C31.8747 24.304 30.984 24.1387 30.2587 23.808C29.5334 23.4667 28.984 23.008 28.6107 22.432C28.2374 21.8453 28.0507 21.1733 28.0507 20.416H30.5947C30.5947 20.7147 30.6747 20.992 30.8347 21.248C31.0054 21.504 31.2614 21.712 31.6027 21.872C31.944 22.0213 32.3867 22.096 32.9307 22.096C33.4214 22.096 33.832 22.032 34.1627 21.904C34.4934 21.776 34.744 21.6 34.9147 21.376C35.0854 21.1413 35.1707 20.8747 35.1707 20.576C35.1707 20.2027 35.0107 19.9093 34.6907 19.696C34.3707 19.472 33.8534 19.328 33.1387 19.264L32.2587 19.184C31.096 19.088 30.168 18.7253 29.4747 18.096C28.7814 17.4667 28.4347 16.6347 28.4347 15.6C28.4347 14.8533 28.6107 14.208 28.9627 13.664C29.3254 13.12 29.8267 12.704 30.4667 12.416C31.1067 12.1173 31.864 11.968 32.7387 11.968C33.656 11.968 34.44 12.128 35.0907 12.448C35.752 12.7573 36.2587 13.2 36.6107 13.776C36.9627 14.3413 37.1387 15.008 37.1387 15.776H34.5787C34.5787 15.488 34.5094 15.2267 34.3707 14.992C34.232 14.7467 34.024 14.5493 33.7467 14.4C33.48 14.2507 33.144 14.176 32.7387 14.176C32.3547 14.176 32.0294 14.24 31.7627 14.368C31.5067 14.496 31.3147 14.672 31.1867 14.896C31.0587 15.1093 30.9947 15.344 30.9947 15.6C30.9947 15.9307 31.112 16.2187 31.3467 16.464C31.5814 16.7093 31.9654 16.8533 32.4987 16.896L33.3947 16.976C34.248 17.0507 35 17.2373 35.6507 17.536C36.3014 17.824 36.808 18.224 37.1707 18.736C37.544 19.2373 37.7307 19.8507 37.7307 20.576C37.7307 21.3227 37.5334 21.9787 37.1387 22.544C36.7547 23.0987 36.2054 23.5307 35.4907 23.84C34.776 24.1493 33.9227 24.304 32.9307 24.304ZM42.3546 24.272C41.3412 24.272 40.5626 23.9467 40.0186 23.296C39.4746 22.6347 39.2026 21.6427 39.2026 20.32V15.232H41.7626V20.448C41.7626 20.9173 41.8959 21.2907 42.1626 21.568C42.4292 21.8453 42.7866 21.984 43.2346 21.984C43.6932 21.984 44.0666 21.84 44.3546 21.552C44.6426 21.264 44.7866 20.8747 44.7866 20.384V15.232H47.3466V24H45.3146V20.304H45.4906C45.4906 21.1893 45.3732 21.9307 45.1386 22.528C44.9146 23.1147 44.5786 23.552 44.1306 23.84C43.6826 24.128 43.1279 24.272 42.4666 24.272H42.3546ZM55.0991 24.288C54.3844 24.288 53.7551 24.1387 53.2111 23.84C52.6671 23.5307 52.2404 23.088 51.9311 22.512C51.6217 21.936 51.4564 21.232 51.4351 20.4H51.7391V24H49.7071V12.32H52.2671V18.256L51.6591 19.024C51.6911 18.1387 51.8564 17.3973 52.1551 16.8C52.4644 16.192 52.8857 15.7387 53.4191 15.44C53.9524 15.1307 54.5604 14.976 55.2431 14.976C55.8404 14.976 56.3791 15.088 56.8591 15.312C57.3497 15.5253 57.7657 15.8347 58.1071 16.24C58.4484 16.6347 58.7097 17.104 58.8911 17.648C59.0831 18.192 59.1791 18.784 59.1791 19.424V19.776C59.1791 20.416 59.0831 21.008 58.8911 21.552C58.7097 22.096 58.4377 22.576 58.0751 22.992C57.7231 23.3973 57.2964 23.7173 56.7951 23.952C56.2937 24.176 55.7284 24.288 55.0991 24.288ZM54.4271 22.144C54.8644 22.144 55.2431 22.0373 55.5631 21.824C55.8937 21.6107 56.1497 21.312 56.3311 20.928C56.5124 20.5333 56.6031 20.0907 56.6031 19.6C56.6031 19.0987 56.5124 18.6613 56.3311 18.288C56.1497 17.9147 55.8937 17.6267 55.5631 17.424C55.2431 17.2107 54.8644 17.104 54.4271 17.104C54.0431 17.104 53.6804 17.1947 53.3391 17.376C52.9977 17.5573 52.7204 17.8187 52.5071 18.16C52.3044 18.4907 52.2031 18.896 52.2031 19.376V19.968C52.2031 20.4267 52.3097 20.8213 52.5231 21.152C52.7471 21.472 53.0297 21.7173 53.3711 21.888C53.7124 22.0587 54.0644 22.144 54.4271 22.144ZM64.2851 24.272C63.0371 24.272 62.0611 24.016 61.3571 23.504C60.6531 22.992 60.2797 22.272 60.2371 21.344H62.5091C62.5517 21.6213 62.7171 21.872 63.0051 22.096C63.3037 22.3093 63.7464 22.416 64.3331 22.416C64.7811 22.416 65.1491 22.3413 65.4371 22.192C65.7357 22.032 65.8851 21.808 65.8851 21.52C65.8851 21.264 65.7731 21.0613 65.5491 20.912C65.3251 20.752 64.9251 20.64 64.3491 20.576L63.6611 20.512C62.6051 20.4053 61.8104 20.112 61.2771 19.632C60.7544 19.152 60.4931 18.5387 60.4931 17.792C60.4931 17.1733 60.6477 16.656 60.9571 16.24C61.2664 15.824 61.6931 15.5093 62.2371 15.296C62.7917 15.0827 63.4211 14.976 64.1251 14.976C65.2557 14.976 66.1677 15.2267 66.8611 15.728C67.5544 16.2187 67.9171 16.9333 67.9491 17.872H65.6771C65.6344 17.584 65.4851 17.344 65.2291 17.152C64.9731 16.9493 64.5944 16.848 64.0931 16.848C63.6984 16.848 63.3837 16.9227 63.1491 17.072C62.9144 17.2213 62.7971 17.424 62.7971 17.68C62.7971 17.9253 62.8984 18.112 63.1011 18.24C63.3037 18.368 63.6344 18.4587 64.0931 18.512L64.7811 18.576C65.8584 18.6933 66.6957 18.992 67.2931 19.472C67.8904 19.952 68.1891 20.5973 68.1891 21.408C68.1891 21.9947 68.0291 22.5067 67.7091 22.944C67.3891 23.3707 66.9357 23.7013 66.3491 23.936C65.7624 24.16 65.0744 24.272 64.2851 24.272ZM73.7837 24.304C73.0264 24.304 72.365 24.1813 71.7997 23.936C71.245 23.68 70.781 23.3387 70.4077 22.912C70.0344 22.4853 69.757 22.0053 69.5757 21.472C69.3944 20.928 69.3037 20.368 69.3037 19.792V19.488C69.3037 18.8907 69.3997 18.32 69.5917 17.776C69.7837 17.2213 70.0664 16.7307 70.4397 16.304C70.813 15.8773 71.277 15.5413 71.8317 15.296C72.397 15.0507 73.0424 14.928 73.7677 14.928C74.557 14.928 75.2557 15.0827 75.8637 15.392C76.4717 15.6907 76.957 16.112 77.3197 16.656C77.6824 17.2 77.885 17.824 77.9277 18.528H75.4157C75.373 18.1333 75.213 17.8027 74.9357 17.536C74.669 17.2587 74.2797 17.12 73.7677 17.12C73.341 17.12 72.9837 17.2267 72.6957 17.44C72.4184 17.6533 72.2104 17.9467 72.0717 18.32C71.933 18.6933 71.8637 19.136 71.8637 19.648C71.8637 20.1173 71.9277 20.544 72.0557 20.928C72.1837 21.3013 72.3864 21.5947 72.6637 21.808C72.9517 22.0107 73.325 22.112 73.7837 22.112C74.125 22.112 74.413 22.0533 74.6477 21.936C74.893 21.808 75.085 21.6373 75.2237 21.424C75.373 21.2 75.4637 20.944 75.4957 20.656H77.9917C77.9597 21.3813 77.757 22.0213 77.3837 22.576C77.0104 23.12 76.5144 23.5467 75.8957 23.856C75.277 24.1547 74.573 24.304 73.7837 24.304ZM79.6289 24V15.232H81.6609V18.992H81.6129C81.6129 17.7547 81.8743 16.8 82.3969 16.128C82.9303 15.456 83.6983 15.12 84.7009 15.12H85.0369V17.328H84.3969C83.6929 17.328 83.1489 17.52 82.7649 17.904C82.3809 18.2773 82.1889 18.8213 82.1889 19.536V24H79.6289ZM86.7793 24V15.232H89.3393V24H86.7793ZM85.6113 17.12V15.232H89.3393V17.12H85.6113ZM87.7713 14.368C87.2913 14.368 86.934 14.2453 86.6993 14C86.4753 13.744 86.3633 13.424 86.3633 13.04C86.3633 12.6453 86.4753 12.3253 86.6993 12.08C86.934 11.824 87.2913 11.696 87.7713 11.696C88.2513 11.696 88.6033 11.824 88.8273 12.08C89.062 12.3253 89.1793 12.6453 89.1793 13.04C89.1793 13.424 89.062 13.744 88.8273 14C88.6033 14.2453 88.2513 14.368 87.7713 14.368ZM97.0991 24.288C96.3844 24.288 95.7551 24.1387 95.2111 23.84C94.6671 23.5307 94.2404 23.088 93.9311 22.512C93.6217 21.936 93.4564 21.232 93.4351 20.4H93.7391V24H91.7071V12.32H94.2671V18.256L93.6591 19.024C93.6911 18.1387 93.8564 17.3973 94.1551 16.8C94.4644 16.192 94.8857 15.7387 95.4191 15.44C95.9524 15.1307 96.5604 14.976 97.2431 14.976C97.8404 14.976 98.3791 15.088 98.8591 15.312C99.3497 15.5253 99.7657 15.8347 100.107 16.24C100.448 16.6347 100.71 17.104 100.891 17.648C101.083 18.192 101.179 18.784 101.179 19.424V19.776C101.179 20.416 101.083 21.008 100.891 21.552C100.71 22.096 100.438 22.576 100.075 22.992C99.7231 23.3973 99.2964 23.7173 98.7951 23.952C98.2937 24.176 97.7284 24.288 97.0991 24.288ZM96.4271 22.144C96.8644 22.144 97.2431 22.0373 97.5631 21.824C97.8937 21.6107 98.1497 21.312 98.3311 20.928C98.5124 20.5333 98.6031 20.0907 98.6031 19.6C98.6031 19.0987 98.5124 18.6613 98.3311 18.288C98.1497 17.9147 97.8937 17.6267 97.5631 17.424C97.2431 17.2107 96.8644 17.104 96.4271 17.104C96.0431 17.104 95.6804 17.1947 95.3391 17.376C94.9977 17.5573 94.7204 17.8187 94.5071 18.16C94.3044 18.4907 94.2031 18.896 94.2031 19.376V19.968C94.2031 20.4267 94.3097 20.8213 94.5231 21.152C94.7471 21.472 95.0297 21.7173 95.3711 21.888C95.7124 22.0587 96.0644 22.144 96.4271 22.144ZM106.973 24.304C106.226 24.304 105.565 24.176 104.989 23.92C104.424 23.664 103.949 23.3227 103.565 22.896C103.192 22.4587 102.904 21.9733 102.701 21.44C102.509 20.896 102.413 20.3413 102.413 19.776V19.456C102.413 18.8693 102.509 18.3093 102.701 17.776C102.904 17.232 103.192 16.7467 103.565 16.32C103.938 15.8933 104.402 15.5573 104.957 15.312C105.522 15.056 106.162 14.928 106.877 14.928C107.816 14.928 108.605 15.1413 109.245 15.568C109.896 15.984 110.392 16.5333 110.733 17.216C111.074 17.888 111.245 18.624 111.245 19.424V20.288H103.485V18.832H109.693L108.861 19.504C108.861 18.9813 108.786 18.5333 108.637 18.16C108.488 17.7867 108.264 17.504 107.965 17.312C107.677 17.1093 107.314 17.008 106.877 17.008C106.429 17.008 106.05 17.1093 105.741 17.312C105.432 17.5147 105.197 17.8133 105.037 18.208C104.877 18.592 104.797 19.0667 104.797 19.632C104.797 20.1547 104.872 20.6133 105.021 21.008C105.17 21.392 105.405 21.6907 105.725 21.904C106.045 22.1173 106.461 22.224 106.973 22.224C107.442 22.224 107.826 22.1333 108.125 21.952C108.424 21.7707 108.626 21.5467 108.733 21.28H111.085C110.957 21.8667 110.706 22.3893 110.333 22.848C109.96 23.3067 109.49 23.664 108.925 23.92C108.36 24.176 107.709 24.304 106.973 24.304ZM123.645 24L119.181 19.184C118.69 18.6507 118.301 18.1867 118.013 17.792C117.725 17.3867 117.517 16.9973 117.389 16.624C117.261 16.2507 117.197 15.8453 117.197 15.408C117.197 14.7467 117.341 14.176 117.629 13.696C117.917 13.216 118.359 12.8427 118.957 12.576C119.565 12.2987 120.349 12.16 121.309 12.16C121.703 12.16 122.103 12.1813 122.509 12.224C122.925 12.256 123.287 12.2987 123.597 12.352V14.464C123.383 14.432 123.122 14.4 122.813 14.368C122.503 14.336 122.194 14.3147 121.885 14.304C121.586 14.2827 121.341 14.272 121.149 14.272C120.519 14.272 120.098 14.384 119.885 14.608C119.671 14.832 119.565 15.1413 119.565 15.536C119.565 15.8987 119.65 16.2507 119.821 16.592C120.002 16.9227 120.295 17.3067 120.701 17.744L126.477 24H123.645ZM119.821 24.336C118.957 24.336 118.199 24.1707 117.549 23.84C116.909 23.4987 116.407 23.04 116.045 22.464C115.682 21.8773 115.501 21.2267 115.501 20.512V20.288C115.501 19.5093 115.719 18.816 116.157 18.208C116.594 17.6 117.159 17.1413 117.853 16.832L118.893 18.176C118.605 18.368 118.359 18.6453 118.157 19.008C117.965 19.36 117.869 19.776 117.869 20.256C117.869 20.6293 117.943 20.9707 118.093 21.28C118.253 21.5787 118.487 21.8133 118.797 21.984C119.106 22.144 119.495 22.224 119.965 22.224C120.583 22.224 121.149 22.0587 121.661 21.728C122.183 21.3973 122.599 20.8747 122.909 20.16C123.229 19.4453 123.389 18.512 123.389 17.36H125.629C125.629 18.4907 125.474 19.488 125.165 20.352C124.866 21.216 124.445 21.9467 123.901 22.544C123.367 23.1307 122.749 23.5787 122.045 23.888C121.341 24.1867 120.599 24.336 119.821 24.336ZM121.885 17.696V15.824H126.429V17.696H121.885ZM134.819 27.488C134.393 27.488 133.955 27.472 133.507 27.44C133.059 27.408 132.649 27.3653 132.275 27.312V25.152C132.649 25.2053 133.059 25.248 133.507 25.28C133.966 25.3227 134.382 25.344 134.755 25.344C135.449 25.344 136.009 25.264 136.435 25.104C136.873 24.944 137.193 24.6987 137.395 24.368C137.598 24.048 137.699 23.632 137.699 23.12V21.376L138.163 20.352C138.142 21.1307 137.987 21.7973 137.699 22.352C137.422 22.9067 137.033 23.3333 136.531 23.632C136.03 23.92 135.433 24.064 134.739 24.064C134.142 24.064 133.598 23.9573 133.107 23.744C132.627 23.52 132.217 23.2107 131.875 22.816C131.534 22.4213 131.273 21.9627 131.091 21.44C130.91 20.9067 130.819 20.3307 130.819 19.712V19.344C130.819 18.7253 130.915 18.1493 131.107 17.616C131.299 17.0827 131.577 16.6187 131.939 16.224C132.302 15.8293 132.734 15.5253 133.235 15.312C133.737 15.088 134.291 14.976 134.899 14.976C135.603 14.976 136.211 15.1307 136.723 15.44C137.246 15.7493 137.657 16.2027 137.955 16.8C138.254 17.3973 138.414 18.1173 138.435 18.96L138.083 19.056V15.232H140.115V22.96C140.115 24.0373 139.923 24.9067 139.539 25.568C139.155 26.2293 138.569 26.7147 137.779 27.024C137.001 27.3333 136.014 27.488 134.819 27.488ZM135.539 21.904C135.934 21.904 136.291 21.8187 136.611 21.648C136.931 21.4667 137.182 21.2107 137.363 20.88C137.555 20.5493 137.651 20.1493 137.651 19.68V19.216C137.651 18.7573 137.55 18.3733 137.347 18.064C137.155 17.744 136.899 17.504 136.579 17.344C136.259 17.1733 135.918 17.088 135.555 17.088C135.129 17.088 134.75 17.1893 134.419 17.392C134.089 17.5947 133.833 17.8773 133.651 18.24C133.47 18.6027 133.379 19.0293 133.379 19.52C133.379 20.0213 133.47 20.4533 133.651 20.816C133.843 21.168 134.099 21.44 134.419 21.632C134.75 21.8133 135.123 21.904 135.539 21.904ZM146.348 24.304C145.601 24.304 144.94 24.176 144.364 23.92C143.799 23.664 143.324 23.3227 142.94 22.896C142.567 22.4587 142.279 21.9733 142.076 21.44C141.884 20.896 141.788 20.3413 141.788 19.776V19.456C141.788 18.8693 141.884 18.3093 142.076 17.776C142.279 17.232 142.567 16.7467 142.94 16.32C143.313 15.8933 143.777 15.5573 144.332 15.312C144.897 15.056 145.537 14.928 146.252 14.928C147.191 14.928 147.98 15.1413 148.62 15.568C149.271 15.984 149.767 16.5333 150.108 17.216C150.449 17.888 150.62 18.624 150.62 19.424V20.288H142.86V18.832H149.068L148.236 19.504C148.236 18.9813 148.161 18.5333 148.012 18.16C147.863 17.7867 147.639 17.504 147.34 17.312C147.052 17.1093 146.689 17.008 146.252 17.008C145.804 17.008 145.425 17.1093 145.116 17.312C144.807 17.5147 144.572 17.8133 144.412 18.208C144.252 18.592 144.172 19.0667 144.172 19.632C144.172 20.1547 144.247 20.6133 144.396 21.008C144.545 21.392 144.78 21.6907 145.1 21.904C145.42 22.1173 145.836 22.224 146.348 22.224C146.817 22.224 147.201 22.1333 147.5 21.952C147.799 21.7707 148.001 21.5467 148.108 21.28H150.46C150.332 21.8667 150.081 22.3893 149.708 22.848C149.335 23.3067 148.865 23.664 148.3 23.92C147.735 24.176 147.084 24.304 146.348 24.304ZM156.3 24.112C155.415 24.112 154.7 24.0053 154.156 23.792C153.612 23.568 153.212 23.2 152.956 22.688C152.711 22.1653 152.588 21.4613 152.588 20.576V12.864H154.972V20.672C154.972 21.088 155.079 21.408 155.292 21.632C155.516 21.8453 155.831 21.952 156.236 21.952H157.532V24.112H156.3ZM151.26 17.104V15.232H157.532V17.104H151.26ZM165.573 24.272C164.56 24.272 163.781 23.9467 163.237 23.296C162.693 22.6347 162.421 21.6427 162.421 20.32V15.232H164.981V20.448C164.981 20.9173 165.115 21.2907 165.381 21.568C165.648 21.8453 166.005 21.984 166.453 21.984C166.912 21.984 167.285 21.84 167.573 21.552C167.861 21.264 168.005 20.8747 168.005 20.384V15.232H170.565V24H168.533V20.304H168.709C168.709 21.1893 168.592 21.9307 168.357 22.528C168.133 23.1147 167.797 23.552 167.349 23.84C166.901 24.128 166.347 24.272 165.685 24.272H165.573ZM172.926 24V15.232H174.958V18.992H174.814C174.814 18.096 174.926 17.3493 175.15 16.752C175.384 16.1547 175.736 15.7067 176.206 15.408C176.675 15.1093 177.246 14.96 177.918 14.96H178.03C179.054 14.96 179.832 15.296 180.366 15.968C180.91 16.6293 181.182 17.6373 181.182 18.992V24H178.622V18.848C178.622 18.3787 178.483 17.9947 178.206 17.696C177.928 17.3973 177.555 17.248 177.086 17.248C176.606 17.248 176.216 17.4027 175.918 17.712C175.63 18.0107 175.486 18.4053 175.486 18.896V24H172.926ZM183.475 24V12.32H186.051V24H183.475ZM182.435 14.208V12.32H186.051V14.208H182.435ZM188.826 24V15.232H191.386V24H188.826ZM187.658 17.12V15.232H191.386V17.12H187.658ZM189.818 14.368C189.338 14.368 188.981 14.2453 188.746 14C188.522 13.744 188.41 13.424 188.41 13.04C188.41 12.6453 188.522 12.3253 188.746 12.08C188.981 11.824 189.338 11.696 189.818 11.696C190.298 11.696 190.65 11.824 190.874 12.08C191.109 12.3253 191.226 12.6453 191.226 13.04C191.226 13.424 191.109 13.744 190.874 14C190.65 14.2453 190.298 14.368 189.818 14.368ZM193.754 24V15.232H195.786V19.008H195.642C195.642 18.112 195.754 17.3653 195.978 16.768C196.202 16.1707 196.538 15.7227 196.986 15.424C197.434 15.1147 197.983 14.96 198.634 14.96H198.746C199.407 14.96 199.957 15.1147 200.394 15.424C200.842 15.7227 201.178 16.1707 201.402 16.768C201.637 17.3653 201.754 18.112 201.754 19.008H201.13C201.13 18.112 201.242 17.3653 201.466 16.768C201.701 16.1707 202.042 15.7227 202.49 15.424C202.938 15.1147 203.487 14.96 204.138 14.96H204.25C204.911 14.96 205.466 15.1147 205.914 15.424C206.373 15.7227 206.719 16.1707 206.954 16.768C207.189 17.3653 207.306 18.112 207.306 19.008V24H204.746V18.864C204.746 18.384 204.618 17.9947 204.362 17.696C204.117 17.3973 203.765 17.248 203.306 17.248C202.847 17.248 202.485 17.4027 202.218 17.712C201.951 18.0107 201.818 18.4107 201.818 18.912V24H199.242V18.864C199.242 18.384 199.114 17.9947 198.858 17.696C198.613 17.3973 198.266 17.248 197.818 17.248C197.349 17.248 196.981 17.4027 196.714 17.712C196.447 18.0107 196.314 18.4107 196.314 18.912V24H193.754ZM209.904 24V15.232H212.464V24H209.904ZM208.736 17.12V15.232H212.464V17.12H208.736ZM210.896 14.368C210.416 14.368 210.059 14.2453 209.824 14C209.6 13.744 209.488 13.424 209.488 13.04C209.488 12.6453 209.6 12.3253 209.824 12.08C210.059 11.824 210.416 11.696 210.896 11.696C211.376 11.696 211.728 11.824 211.952 12.08C212.187 12.3253 212.304 12.6453 212.304 13.04C212.304 13.424 212.187 13.744 211.952 14C211.728 14.2453 211.376 14.368 210.896 14.368ZM218.816 24.112C217.931 24.112 217.216 24.0053 216.672 23.792C216.128 23.568 215.728 23.2 215.472 22.688C215.227 22.1653 215.104 21.4613 215.104 20.576V12.864H217.488V20.672C217.488 21.088 217.595 21.408 217.808 21.632C218.032 21.8453 218.347 21.952 218.752 21.952H220.048V24.112H218.816ZM213.776 17.104V15.232H220.048V17.104H213.776ZM225.754 24.304C225.008 24.304 224.346 24.176 223.77 23.92C223.205 23.664 222.73 23.3227 222.346 22.896C221.973 22.4587 221.685 21.9733 221.482 21.44C221.29 20.896 221.194 20.3413 221.194 19.776V19.456C221.194 18.8693 221.29 18.3093 221.482 17.776C221.685 17.232 221.973 16.7467 222.346 16.32C222.72 15.8933 223.184 15.5573 223.738 15.312C224.304 15.056 224.944 14.928 225.658 14.928C226.597 14.928 227.386 15.1413 228.026 15.568C228.677 15.984 229.173 16.5333 229.514 17.216C229.856 17.888 230.026 18.624 230.026 19.424V20.288H222.266V18.832H228.474L227.642 19.504C227.642 18.9813 227.568 18.5333 227.418 18.16C227.269 17.7867 227.045 17.504 226.746 17.312C226.458 17.1093 226.096 17.008 225.658 17.008C225.21 17.008 224.832 17.1093 224.522 17.312C224.213 17.5147 223.978 17.8133 223.818 18.208C223.658 18.592 223.578 19.0667 223.578 19.632C223.578 20.1547 223.653 20.6133 223.802 21.008C223.952 21.392 224.186 21.6907 224.506 21.904C224.826 22.1173 225.242 22.224 225.754 22.224C226.224 22.224 226.608 22.1333 226.906 21.952C227.205 21.7707 227.408 21.5467 227.514 21.28H229.866C229.738 21.8667 229.488 22.3893 229.114 22.848C228.741 23.3067 228.272 23.664 227.706 23.92C227.141 24.176 226.49 24.304 225.754 24.304ZM235.339 24.288C234.72 24.288 234.155 24.176 233.643 23.952C233.141 23.728 232.704 23.4187 232.331 23.024C231.957 22.6187 231.669 22.144 231.467 21.6C231.275 21.056 231.179 20.4693 231.179 19.84V19.472C231.179 18.8427 231.269 18.256 231.451 17.712C231.643 17.168 231.915 16.6933 232.267 16.288C232.629 15.872 233.061 15.552 233.563 15.328C234.064 15.0933 234.624 14.976 235.243 14.976C235.947 14.976 236.555 15.1307 237.067 15.44C237.579 15.7387 237.979 16.1867 238.267 16.784C238.555 17.3707 238.715 18.096 238.747 18.96L238.075 18.336V12.32H240.651V24H238.619V20.368H238.971C238.939 21.2 238.763 21.9093 238.443 22.496C238.133 23.0827 237.712 23.5307 237.179 23.84C236.645 24.1387 236.032 24.288 235.339 24.288ZM235.979 22.144C236.373 22.144 236.731 22.0587 237.051 21.888C237.381 21.7067 237.643 21.4453 237.835 21.104C238.037 20.7627 238.139 20.352 238.139 19.872V19.28C238.139 18.8107 238.037 18.416 237.835 18.096C237.632 17.776 237.365 17.5307 237.035 17.36C236.704 17.1893 236.347 17.104 235.963 17.104C235.536 17.104 235.152 17.216 234.811 17.44C234.48 17.6533 234.219 17.952 234.027 18.336C233.835 18.7093 233.739 19.1467 233.739 19.648C233.739 20.16 233.835 20.6027 234.027 20.976C234.219 21.3493 234.485 21.6373 234.827 21.84C235.168 22.0427 235.552 22.144 235.979 22.144ZM251.628 24V21.408H251.196V18.592C251.196 18.144 251.089 17.808 250.876 17.584C250.663 17.36 250.321 17.248 249.852 17.248C249.617 17.248 249.308 17.2533 248.924 17.264C248.54 17.2747 248.145 17.2907 247.74 17.312C247.335 17.3333 246.967 17.3547 246.636 17.376V15.216C246.881 15.1947 247.169 15.1733 247.5 15.152C247.831 15.1307 248.172 15.1147 248.524 15.104C248.876 15.0933 249.207 15.088 249.516 15.088C250.412 15.088 251.164 15.216 251.772 15.472C252.391 15.728 252.86 16.1173 253.18 16.64C253.5 17.152 253.66 17.8133 253.66 18.624V24H251.628ZM248.828 24.224C248.199 24.224 247.644 24.112 247.164 23.888C246.695 23.664 246.327 23.344 246.06 22.928C245.793 22.5013 245.66 21.9947 245.66 21.408C245.66 20.768 245.825 20.2453 246.156 19.84C246.487 19.424 246.951 19.12 247.548 18.928C248.145 18.7253 248.833 18.624 249.612 18.624H251.484V20.048H249.596C249.148 20.048 248.801 20.16 248.556 20.384C248.321 20.5973 248.204 20.8907 248.204 21.264C248.204 21.616 248.321 21.904 248.556 22.128C248.801 22.3413 249.148 22.448 249.596 22.448C249.884 22.448 250.14 22.4 250.364 22.304C250.599 22.1973 250.791 22.0213 250.94 21.776C251.089 21.5307 251.175 21.1893 251.196 20.752L251.804 21.392C251.751 22 251.601 22.512 251.356 22.928C251.121 23.344 250.791 23.664 250.364 23.888C249.948 24.112 249.436 24.224 248.828 24.224ZM259.768 24.304C259.011 24.304 258.349 24.1813 257.784 23.936C257.229 23.68 256.765 23.3387 256.392 22.912C256.019 22.4853 255.741 22.0053 255.56 21.472C255.379 20.928 255.288 20.368 255.288 19.792V19.488C255.288 18.8907 255.384 18.32 255.576 17.776C255.768 17.2213 256.051 16.7307 256.424 16.304C256.797 15.8773 257.261 15.5413 257.816 15.296C258.381 15.0507 259.027 14.928 259.752 14.928C260.541 14.928 261.24 15.0827 261.848 15.392C262.456 15.6907 262.941 16.112 263.304 16.656C263.667 17.2 263.869 17.824 263.912 18.528H261.4C261.357 18.1333 261.197 17.8027 260.92 17.536C260.653 17.2587 260.264 17.12 259.752 17.12C259.325 17.12 258.968 17.2267 258.68 17.44C258.403 17.6533 258.195 17.9467 258.056 18.32C257.917 18.6933 257.848 19.136 257.848 19.648C257.848 20.1173 257.912 20.544 258.04 20.928C258.168 21.3013 258.371 21.5947 258.648 21.808C258.936 22.0107 259.309 22.112 259.768 22.112C260.109 22.112 260.397 22.0533 260.632 21.936C260.877 21.808 261.069 21.6373 261.208 21.424C261.357 21.2 261.448 20.944 261.48 20.656H263.976C263.944 21.3813 263.741 22.0213 263.368 22.576C262.995 23.12 262.499 23.5467 261.88 23.856C261.261 24.1547 260.557 24.304 259.768 24.304ZM269.549 24.304C268.792 24.304 268.131 24.1813 267.565 23.936C267.011 23.68 266.547 23.3387 266.173 22.912C265.8 22.4853 265.523 22.0053 265.341 21.472C265.16 20.928 265.069 20.368 265.069 19.792V19.488C265.069 18.8907 265.165 18.32 265.357 17.776C265.549 17.2213 265.832 16.7307 266.205 16.304C266.579 15.8773 267.043 15.5413 267.597 15.296C268.163 15.0507 268.808 14.928 269.533 14.928C270.323 14.928 271.021 15.0827 271.629 15.392C272.237 15.6907 272.723 16.112 273.085 16.656C273.448 17.2 273.651 17.824 273.693 18.528H271.181C271.139 18.1333 270.979 17.8027 270.701 17.536C270.435 17.2587 270.045 17.12 269.533 17.12C269.107 17.12 268.749 17.2267 268.461 17.44C268.184 17.6533 267.976 17.9467 267.837 18.32C267.699 18.6933 267.629 19.136 267.629 19.648C267.629 20.1173 267.693 20.544 267.821 20.928C267.949 21.3013 268.152 21.5947 268.429 21.808C268.717 22.0107 269.091 22.112 269.549 22.112C269.891 22.112 270.179 22.0533 270.413 21.936C270.659 21.808 270.851 21.6373 270.989 21.424C271.139 21.2 271.229 20.944 271.261 20.656H273.757C273.725 21.3813 273.523 22.0213 273.149 22.576C272.776 23.12 272.28 23.5467 271.661 23.856C271.043 24.1547 270.339 24.304 269.549 24.304ZM279.411 24.304C278.664 24.304 278.003 24.176 277.427 23.92C276.861 23.664 276.387 23.3227 276.003 22.896C275.629 22.4587 275.341 21.9733 275.139 21.44C274.947 20.896 274.851 20.3413 274.851 19.776V19.456C274.851 18.8693 274.947 18.3093 275.139 17.776C275.341 17.232 275.629 16.7467 276.003 16.32C276.376 15.8933 276.84 15.5573 277.395 15.312C277.96 15.056 278.6 14.928 279.315 14.928C280.253 14.928 281.043 15.1413 281.683 15.568C282.333 15.984 282.829 16.5333 283.171 17.216C283.512 17.888 283.683 18.624 283.683 19.424V20.288H275.923V18.832H282.131L281.299 19.504C281.299 18.9813 281.224 18.5333 281.075 18.16C280.925 17.7867 280.701 17.504 280.403 17.312C280.115 17.1093 279.752 17.008 279.315 17.008C278.867 17.008 278.488 17.1093 278.179 17.312C277.869 17.5147 277.635 17.8133 277.475 18.208C277.315 18.592 277.235 19.0667 277.235 19.632C277.235 20.1547 277.309 20.6133 277.459 21.008C277.608 21.392 277.843 21.6907 278.163 21.904C278.483 22.1173 278.899 22.224 279.411 22.224C279.88 22.224 280.264 22.1333 280.563 21.952C280.861 21.7707 281.064 21.5467 281.171 21.28H283.523C283.395 21.8667 283.144 22.3893 282.771 22.848C282.397 23.3067 281.928 23.664 281.363 23.92C280.797 24.176 280.147 24.304 279.411 24.304ZM288.707 24.272C287.459 24.272 286.483 24.016 285.779 23.504C285.075 22.992 284.702 22.272 284.659 21.344H286.931C286.974 21.6213 287.139 21.872 287.427 22.096C287.726 22.3093 288.168 22.416 288.755 22.416C289.203 22.416 289.571 22.3413 289.859 22.192C290.158 22.032 290.307 21.808 290.307 21.52C290.307 21.264 290.195 21.0613 289.971 20.912C289.747 20.752 289.347 20.64 288.771 20.576L288.083 20.512C287.027 20.4053 286.232 20.112 285.699 19.632C285.176 19.152 284.915 18.5387 284.915 17.792C284.915 17.1733 285.07 16.656 285.379 16.24C285.688 15.824 286.115 15.5093 286.659 15.296C287.214 15.0827 287.843 14.976 288.547 14.976C289.678 14.976 290.59 15.2267 291.283 15.728C291.976 16.2187 292.339 16.9333 292.371 17.872H290.099C290.056 17.584 289.907 17.344 289.651 17.152C289.395 16.9493 289.016 16.848 288.515 16.848C288.12 16.848 287.806 16.9227 287.571 17.072C287.336 17.2213 287.219 17.424 287.219 17.68C287.219 17.9253 287.32 18.112 287.523 18.24C287.726 18.368 288.056 18.4587 288.515 18.512L289.203 18.576C290.28 18.6933 291.118 18.992 291.715 19.472C292.312 19.952 292.611 20.5973 292.611 21.408C292.611 21.9947 292.451 22.5067 292.131 22.944C291.811 23.3707 291.358 23.7013 290.771 23.936C290.184 24.16 289.496 24.272 288.707 24.272ZM297.598 24.272C296.35 24.272 295.374 24.016 294.67 23.504C293.966 22.992 293.592 22.272 293.55 21.344H295.822C295.864 21.6213 296.03 21.872 296.318 22.096C296.616 22.3093 297.059 22.416 297.646 22.416C298.094 22.416 298.462 22.3413 298.75 22.192C299.048 22.032 299.198 21.808 299.198 21.52C299.198 21.264 299.086 21.0613 298.862 20.912C298.638 20.752 298.238 20.64 297.662 20.576L296.974 20.512C295.918 20.4053 295.123 20.112 294.59 19.632C294.067 19.152 293.806 18.5387 293.806 17.792C293.806 17.1733 293.96 16.656 294.27 16.24C294.579 15.824 295.006 15.5093 295.55 15.296C296.104 15.0827 296.734 14.976 297.438 14.976C298.568 14.976 299.48 15.2267 300.174 15.728C300.867 16.2187 301.23 16.9333 301.262 17.872H298.99C298.947 17.584 298.798 17.344 298.542 17.152C298.286 16.9493 297.907 16.848 297.406 16.848C297.011 16.848 296.696 16.9227 296.462 17.072C296.227 17.2213 296.11 17.424 296.11 17.68C296.11 17.9253 296.211 18.112 296.414 18.24C296.616 18.368 296.947 18.4587 297.406 18.512L298.094 18.576C299.171 18.6933 300.008 18.992 300.606 19.472C301.203 19.952 301.502 20.5973 301.502 21.408C301.502 21.9947 301.342 22.5067 301.022 22.944C300.702 23.3707 300.248 23.7013 299.662 23.936C299.075 24.16 298.387 24.272 297.598 24.272ZM310.504 24.112C309.618 24.112 308.904 24.0053 308.36 23.792C307.816 23.568 307.416 23.2 307.16 22.688C306.914 22.1653 306.792 21.4613 306.792 20.576V12.864H309.176V20.672C309.176 21.088 309.282 21.408 309.496 21.632C309.72 21.8453 310.034 21.952 310.44 21.952H311.736V24.112H310.504ZM305.464 17.104V15.232H311.736V17.104H305.464ZM317.698 24.304C316.93 24.304 316.247 24.1867 315.65 23.952C315.052 23.7067 314.546 23.376 314.13 22.96C313.724 22.544 313.415 22.0693 313.202 21.536C312.988 20.992 312.882 20.4213 312.882 19.824V19.456C312.882 18.848 312.988 18.272 313.202 17.728C313.426 17.1733 313.746 16.688 314.162 16.272C314.588 15.856 315.1 15.5307 315.698 15.296C316.295 15.0507 316.962 14.928 317.698 14.928C318.455 14.928 319.127 15.0507 319.714 15.296C320.311 15.5307 320.818 15.856 321.234 16.272C321.65 16.688 321.97 17.1733 322.194 17.728C322.418 18.272 322.53 18.848 322.53 19.456V19.824C322.53 20.4213 322.423 20.992 322.21 21.536C321.996 22.0693 321.682 22.544 321.266 22.96C320.86 23.376 320.359 23.7067 319.762 23.952C319.164 24.1867 318.476 24.304 317.698 24.304ZM317.698 22.144C318.199 22.144 318.615 22.0373 318.946 21.824C319.276 21.6107 319.527 21.312 319.698 20.928C319.879 20.544 319.97 20.1173 319.97 19.648C319.97 19.1467 319.879 18.7093 319.698 18.336C319.516 17.952 319.255 17.648 318.914 17.424C318.583 17.2 318.178 17.088 317.698 17.088C317.228 17.088 316.823 17.2 316.482 17.424C316.14 17.648 315.879 17.952 315.698 18.336C315.527 18.7093 315.442 19.1467 315.442 19.648C315.442 20.1173 315.527 20.544 315.698 20.928C315.868 21.312 316.124 21.6107 316.466 21.824C316.807 22.0373 317.218 22.144 317.698 22.144ZM331.948 24.304C331.18 24.304 330.497 24.1867 329.9 23.952C329.302 23.7067 328.796 23.376 328.38 22.96C327.974 22.544 327.665 22.0693 327.452 21.536C327.238 20.992 327.132 20.4213 327.132 19.824V19.456C327.132 18.848 327.238 18.272 327.452 17.728C327.676 17.1733 327.996 16.688 328.412 16.272C328.838 15.856 329.35 15.5307 329.948 15.296C330.545 15.0507 331.212 14.928 331.948 14.928C332.705 14.928 333.377 15.0507 333.964 15.296C334.561 15.5307 335.068 15.856 335.484 16.272C335.9 16.688 336.22 17.1733 336.444 17.728C336.668 18.272 336.78 18.848 336.78 19.456V19.824C336.78 20.4213 336.673 20.992 336.46 21.536C336.246 22.0693 335.932 22.544 335.516 22.96C335.11 23.376 334.609 23.7067 334.012 23.952C333.414 24.1867 332.726 24.304 331.948 24.304ZM331.948 22.144C332.449 22.144 332.865 22.0373 333.196 21.824C333.526 21.6107 333.777 21.312 333.948 20.928C334.129 20.544 334.22 20.1173 334.22 19.648C334.22 19.1467 334.129 18.7093 333.948 18.336C333.766 17.952 333.505 17.648 333.164 17.424C332.833 17.2 332.428 17.088 331.948 17.088C331.478 17.088 331.073 17.2 330.732 17.424C330.39 17.648 330.129 17.952 329.948 18.336C329.777 18.7093 329.692 19.1467 329.692 19.648C329.692 20.1173 329.777 20.544 329.948 20.928C330.118 21.312 330.374 21.6107 330.716 21.824C331.057 22.0373 331.468 22.144 331.948 22.144ZM341.526 24.272C340.513 24.272 339.734 23.9467 339.19 23.296C338.646 22.6347 338.374 21.6427 338.374 20.32V15.232H340.934V20.448C340.934 20.9173 341.068 21.2907 341.334 21.568C341.601 21.8453 341.958 21.984 342.406 21.984C342.865 21.984 343.238 21.84 343.526 21.552C343.814 21.264 343.958 20.8747 343.958 20.384V15.232H346.518V24H344.486V20.304H344.662C344.662 21.1893 344.545 21.9307 344.31 22.528C344.086 23.1147 343.75 23.552 343.302 23.84C342.854 24.128 342.3 24.272 341.638 24.272H341.526ZM348.879 24V15.232H350.911V18.992H350.863C350.863 17.7547 351.124 16.8 351.647 16.128C352.18 15.456 352.948 15.12 353.951 15.12H354.287V17.328H353.647C352.943 17.328 352.399 17.52 352.015 17.904C351.631 18.2773 351.439 18.8213 351.439 19.536V24H348.879ZM109.241 44V34.288H111.865V44H109.241ZM105.961 34.608V32.32H115.161V34.608H105.961ZM119.831 44.304C119.063 44.304 118.38 44.1867 117.783 43.952C117.185 43.7067 116.679 43.376 116.263 42.96C115.857 42.544 115.548 42.0693 115.335 41.536C115.121 40.992 115.015 40.4213 115.015 39.824V39.456C115.015 38.848 115.121 38.272 115.335 37.728C115.559 37.1733 115.879 36.688 116.295 36.272C116.721 35.856 117.233 35.5307 117.831 35.296C118.428 35.0507 119.095 34.928 119.831 34.928C120.588 34.928 121.26 35.0507 121.847 35.296C122.444 35.5307 122.951 35.856 123.367 36.272C123.783 36.688 124.103 37.1733 124.327 37.728C124.551 38.272 124.663 38.848 124.663 39.456V39.824C124.663 40.4213 124.556 40.992 124.343 41.536C124.129 42.0693 123.815 42.544 123.399 42.96C122.993 43.376 122.492 43.7067 121.895 43.952C121.297 44.1867 120.609 44.304 119.831 44.304ZM119.831 42.144C120.332 42.144 120.748 42.0373 121.079 41.824C121.409 41.6107 121.66 41.312 121.831 40.928C122.012 40.544 122.103 40.1173 122.103 39.648C122.103 39.1467 122.012 38.7093 121.831 38.336C121.649 37.952 121.388 37.648 121.047 37.424C120.716 37.2 120.311 37.088 119.831 37.088C119.361 37.088 118.956 37.2 118.615 37.424C118.273 37.648 118.012 37.952 117.831 38.336C117.66 38.7093 117.575 39.1467 117.575 39.648C117.575 40.1173 117.66 40.544 117.831 40.928C118.001 41.312 118.257 41.6107 118.599 41.824C118.94 42.0373 119.351 42.144 119.831 42.144ZM126.449 47.2V35.232H128.481V39.024L128.209 39.008C128.252 38.1333 128.433 37.3973 128.753 36.8C129.073 36.192 129.505 35.7387 130.049 35.44C130.593 35.1307 131.207 34.976 131.889 34.976C132.497 34.976 133.047 35.088 133.537 35.312C134.039 35.536 134.465 35.8507 134.817 36.256C135.18 36.6507 135.452 37.12 135.633 37.664C135.825 38.1973 135.921 38.784 135.921 39.424V39.792C135.921 40.4213 135.831 41.0133 135.649 41.568C135.468 42.112 135.201 42.5867 134.849 42.992C134.508 43.3973 134.087 43.7173 133.585 43.952C133.095 44.176 132.529 44.288 131.889 44.288C131.228 44.288 130.631 44.1547 130.097 43.888C129.575 43.6107 129.153 43.1947 128.833 42.64C128.513 42.0747 128.337 41.36 128.305 40.496L129.009 41.456V47.2H126.449ZM131.169 42.144C131.607 42.144 131.985 42.0373 132.305 41.824C132.636 41.6107 132.892 41.312 133.073 40.928C133.255 40.544 133.345 40.1013 133.345 39.6C133.345 39.0987 133.255 38.6613 133.073 38.288C132.892 37.9147 132.641 37.6267 132.321 37.424C132.001 37.2107 131.617 37.104 131.169 37.104C130.785 37.104 130.423 37.1947 130.081 37.376C129.74 37.5573 129.463 37.8187 129.249 38.16C129.047 38.4907 128.945 38.896 128.945 39.376V39.968C128.945 40.4267 129.052 40.8213 129.265 41.152C129.489 41.472 129.772 41.7173 130.113 41.888C130.455 42.0587 130.807 42.144 131.169 42.144ZM141.203 44V32.32H144.819L147.491 38.88H147.795L150.435 32.32H154.115V44H151.523V34.032L151.891 34.064L148.803 41.632H146.307L143.203 34.064L143.603 34.032V44H141.203ZM161.886 44V41.408H161.454V38.592C161.454 38.144 161.347 37.808 161.134 37.584C160.921 37.36 160.579 37.248 160.11 37.248C159.875 37.248 159.566 37.2533 159.182 37.264C158.798 37.2747 158.403 37.2907 157.998 37.312C157.593 37.3333 157.225 37.3547 156.894 37.376V35.216C157.139 35.1947 157.427 35.1733 157.758 35.152C158.089 35.1307 158.43 35.1147 158.782 35.104C159.134 35.0933 159.465 35.088 159.774 35.088C160.67 35.088 161.422 35.216 162.03 35.472C162.649 35.728 163.118 36.1173 163.438 36.64C163.758 37.152 163.918 37.8133 163.918 38.624V44H161.886ZM159.086 44.224C158.457 44.224 157.902 44.112 157.422 43.888C156.953 43.664 156.585 43.344 156.318 42.928C156.051 42.5013 155.918 41.9947 155.918 41.408C155.918 40.768 156.083 40.2453 156.414 39.84C156.745 39.424 157.209 39.12 157.806 38.928C158.403 38.7253 159.091 38.624 159.87 38.624H161.742V40.048H159.854C159.406 40.048 159.059 40.16 158.814 40.384C158.579 40.5973 158.462 40.8907 158.462 41.264C158.462 41.616 158.579 41.904 158.814 42.128C159.059 42.3413 159.406 42.448 159.854 42.448C160.142 42.448 160.398 42.4 160.622 42.304C160.857 42.1973 161.049 42.0213 161.198 41.776C161.347 41.5307 161.433 41.1893 161.454 40.752L162.062 41.392C162.009 42 161.859 42.512 161.614 42.928C161.379 43.344 161.049 43.664 160.622 43.888C160.206 44.112 159.694 44.224 159.086 44.224ZM169.418 44.272C168.17 44.272 167.194 44.016 166.49 43.504C165.786 42.992 165.413 42.272 165.37 41.344H167.642C167.685 41.6213 167.85 41.872 168.138 42.096C168.437 42.3093 168.879 42.416 169.466 42.416C169.914 42.416 170.282 42.3413 170.57 42.192C170.869 42.032 171.018 41.808 171.018 41.52C171.018 41.264 170.906 41.0613 170.682 40.912C170.458 40.752 170.058 40.64 169.482 40.576L168.794 40.512C167.738 40.4053 166.943 40.112 166.41 39.632C165.887 39.152 165.626 38.5387 165.626 37.792C165.626 37.1733 165.781 36.656 166.09 36.24C166.399 35.824 166.826 35.5093 167.37 35.296C167.925 35.0827 168.554 34.976 169.258 34.976C170.389 34.976 171.301 35.2267 171.994 35.728C172.687 36.2187 173.05 36.9333 173.082 37.872H170.81C170.767 37.584 170.618 37.344 170.362 37.152C170.106 36.9493 169.727 36.848 169.226 36.848C168.831 36.848 168.517 36.9227 168.282 37.072C168.047 37.2213 167.93 37.424 167.93 37.68C167.93 37.9253 168.031 38.112 168.234 38.24C168.437 38.368 168.767 38.4587 169.226 38.512L169.914 38.576C170.991 38.6933 171.829 38.992 172.426 39.472C173.023 39.952 173.322 40.5973 173.322 41.408C173.322 41.9947 173.162 42.5067 172.842 42.944C172.522 43.3707 172.069 43.7013 171.482 43.936C170.895 44.16 170.207 44.272 169.418 44.272ZM178.965 44.112C178.079 44.112 177.365 44.0053 176.821 43.792C176.277 43.568 175.877 43.2 175.621 42.688C175.375 42.1653 175.253 41.4613 175.253 40.576V32.864H177.637V40.672C177.637 41.088 177.743 41.408 177.957 41.632C178.181 41.8453 178.495 41.952 178.901 41.952H180.197V44.112H178.965ZM173.925 37.104V35.232H180.197V37.104H173.925ZM185.903 44.304C185.156 44.304 184.495 44.176 183.919 43.92C183.353 43.664 182.879 43.3227 182.495 42.896C182.121 42.4587 181.833 41.9733 181.631 41.44C181.439 40.896 181.343 40.3413 181.343 39.776V39.456C181.343 38.8693 181.439 38.3093 181.631 37.776C181.833 37.232 182.121 36.7467 182.495 36.32C182.868 35.8933 183.332 35.5573 183.887 35.312C184.452 35.056 185.092 34.928 185.807 34.928C186.745 34.928 187.535 35.1413 188.175 35.568C188.825 35.984 189.321 36.5333 189.663 37.216C190.004 37.888 190.175 38.624 190.175 39.424V40.288H182.415V38.832H188.623L187.791 39.504C187.791 38.9813 187.716 38.5333 187.567 38.16C187.417 37.7867 187.193 37.504 186.895 37.312C186.607 37.1093 186.244 37.008 185.807 37.008C185.359 37.008 184.98 37.1093 184.671 37.312C184.361 37.5147 184.127 37.8133 183.967 38.208C183.807 38.592 183.727 39.0667 183.727 39.632C183.727 40.1547 183.801 40.6133 183.951 41.008C184.1 41.392 184.335 41.6907 184.655 41.904C184.975 42.1173 185.391 42.224 185.903 42.224C186.372 42.224 186.756 42.1333 187.055 41.952C187.353 41.7707 187.556 41.5467 187.663 41.28H190.015C189.887 41.8667 189.636 42.3893 189.263 42.848C188.889 43.3067 188.42 43.664 187.855 43.92C187.289 44.176 186.639 44.304 185.903 44.304ZM191.871 44V35.232H193.903V38.992H193.855C193.855 37.7547 194.116 36.8 194.639 36.128C195.172 35.456 195.94 35.12 196.943 35.12H197.279V37.328H196.639C195.935 37.328 195.391 37.52 195.007 37.904C194.623 38.2773 194.431 38.8213 194.431 39.536V44H191.871ZM201.934 44.272C200.686 44.272 199.71 44.016 199.006 43.504C198.302 42.992 197.928 42.272 197.886 41.344H200.158C200.2 41.6213 200.366 41.872 200.654 42.096C200.952 42.3093 201.395 42.416 201.982 42.416C202.43 42.416 202.798 42.3413 203.086 42.192C203.384 42.032 203.534 41.808 203.534 41.52C203.534 41.264 203.422 41.0613 203.198 40.912C202.974 40.752 202.574 40.64 201.998 40.576L201.31 40.512C200.254 40.4053 199.459 40.112 198.926 39.632C198.403 39.152 198.142 38.5387 198.142 37.792C198.142 37.1733 198.296 36.656 198.606 36.24C198.915 35.824 199.342 35.5093 199.886 35.296C200.44 35.0827 201.07 34.976 201.774 34.976C202.904 34.976 203.816 35.2267 204.51 35.728C205.203 36.2187 205.566 36.9333 205.598 37.872H203.326C203.283 37.584 203.134 37.344 202.878 37.152C202.622 36.9493 202.243 36.848 201.742 36.848C201.347 36.848 201.032 36.9227 200.798 37.072C200.563 37.2213 200.446 37.424 200.446 37.68C200.446 37.9253 200.547 38.112 200.75 38.24C200.952 38.368 201.283 38.4587 201.742 38.512L202.43 38.576C203.507 38.6933 204.344 38.992 204.942 39.472C205.539 39.952 205.838 40.5973 205.838 41.408C205.838 41.9947 205.678 42.5067 205.358 42.944C205.038 43.3707 204.584 43.7013 203.998 43.936C203.411 44.16 202.723 44.272 201.934 44.272ZM211.048 44V35.152C211.048 34.1387 211.336 33.3867 211.912 32.896C212.488 32.4053 213.336 32.16 214.456 32.16H215.576V34.08H214.344C214.056 34.08 213.832 34.16 213.672 34.32C213.512 34.48 213.432 34.704 213.432 34.992V44H211.048ZM210.008 37.28V35.408H215.704V37.28H210.008ZM221.206 44.304C220.438 44.304 219.755 44.1867 219.158 43.952C218.56 43.7067 218.054 43.376 217.638 42.96C217.232 42.544 216.923 42.0693 216.71 41.536C216.496 40.992 216.39 40.4213 216.39 39.824V39.456C216.39 38.848 216.496 38.272 216.71 37.728C216.934 37.1733 217.254 36.688 217.67 36.272C218.096 35.856 218.608 35.5307 219.206 35.296C219.803 35.0507 220.47 34.928 221.206 34.928C221.963 34.928 222.635 35.0507 223.222 35.296C223.819 35.5307 224.326 35.856 224.742 36.272C225.158 36.688 225.478 37.1733 225.702 37.728C225.926 38.272 226.038 38.848 226.038 39.456V39.824C226.038 40.4213 225.931 40.992 225.718 41.536C225.504 42.0693 225.19 42.544 224.774 42.96C224.368 43.376 223.867 43.7067 223.27 43.952C222.672 44.1867 221.984 44.304 221.206 44.304ZM221.206 42.144C221.707 42.144 222.123 42.0373 222.454 41.824C222.784 41.6107 223.035 41.312 223.206 40.928C223.387 40.544 223.478 40.1173 223.478 39.648C223.478 39.1467 223.387 38.7093 223.206 38.336C223.024 37.952 222.763 37.648 222.422 37.424C222.091 37.2 221.686 37.088 221.206 37.088C220.736 37.088 220.331 37.2 219.99 37.424C219.648 37.648 219.387 37.952 219.206 38.336C219.035 38.7093 218.95 39.1467 218.95 39.648C218.95 40.1173 219.035 40.544 219.206 40.928C219.376 41.312 219.632 41.6107 219.974 41.824C220.315 42.0373 220.726 42.144 221.206 42.144ZM227.824 44V35.232H229.856V38.992H229.808C229.808 37.7547 230.07 36.8 230.592 36.128C231.126 35.456 231.894 35.12 232.896 35.12H233.232V37.328H232.592C231.888 37.328 231.344 37.52 230.96 37.904C230.576 38.2773 230.384 38.8213 230.384 39.536V44H227.824ZM238.062 44V32.32H240.686V44H238.062ZM240.366 39.296V37.12H244.878V39.296H240.366ZM240.366 34.496V32.32H245.07V34.496H240.366ZM247.015 44V32.224H249.639V44H247.015ZM254.103 44L250.679 38.976H253.559L257.143 44H254.103ZM248.935 40.256V38.192H251.815C252.199 38.192 252.53 38.1173 252.807 37.968C253.095 37.808 253.314 37.5893 253.463 37.312C253.623 37.024 253.703 36.6933 253.703 36.32C253.703 35.9467 253.623 35.6213 253.463 35.344C253.314 35.056 253.095 34.8373 252.807 34.688C252.53 34.528 252.199 34.448 251.815 34.448H248.935V32.224H251.607C252.578 32.224 253.42 32.3733 254.135 32.672C254.85 32.96 255.399 33.392 255.783 33.968C256.167 34.544 256.359 35.2693 256.359 36.144V36.4C256.359 37.264 256.162 37.984 255.767 38.56C255.383 39.1253 254.834 39.552 254.119 39.84C253.415 40.1173 252.578 40.256 251.607 40.256H248.935ZM258.703 44V32.32H261.263V44H258.703ZM260.943 44V41.824H266.047V44H260.943ZM260.943 39.152V36.976H265.679V39.152H260.943ZM260.943 34.496V32.32H265.935V34.496H260.943ZM268.203 44V32.32H270.763V44H268.203ZM270.443 44V41.824H275.547V44H270.443ZM270.443 39.152V36.976H275.179V39.152H270.443ZM270.443 34.496V32.32H275.435V34.496H270.443Z" fill="black"/>
</svg>
