<svg width="149" height="237" viewBox="0 0 149 237" fill="none" xmlns="http://www.w3.org/2000/svg">
<g clip-path="url(#clip0_363_1744)">
<path d="M22.7812 204.601C22.7812 204.323 22.8913 204.058 23.0873 203.862C23.2833 203.666 23.5491 203.556 23.8263 203.556H44.7291C45.0063 203.556 45.2721 203.666 45.4681 203.862C45.6641 204.058 45.7742 204.323 45.7742 204.601C45.7742 205.725 45.7492 206.795 45.7032 207.811C46.5291 207.948 47.3193 208.249 48.0271 208.696C48.735 209.143 49.3462 209.727 49.8246 210.414C50.3031 211.101 50.6391 211.877 50.8129 212.696C50.9867 213.515 50.9948 214.36 50.8367 215.182C50.6785 216.005 50.3574 216.787 49.8921 217.483C49.4269 218.179 48.827 218.775 48.1278 219.235C47.4287 219.695 46.6444 220.011 45.8212 220.164C44.998 220.316 44.1526 220.302 43.3349 220.123C41.6836 224.021 39.4093 225.928 37.4131 226.417V230.959L40.3918 231.703C40.7973 231.804 41.1798 231.985 41.5143 232.236L45.3562 235.119C45.5317 235.25 45.6613 235.434 45.7267 235.643C45.7921 235.853 45.79 236.077 45.7206 236.285C45.6512 236.493 45.5182 236.674 45.3402 236.803C45.1623 236.931 44.9485 237 44.7291 237H23.8263C23.607 237 23.3932 236.931 23.2152 236.803C23.0373 236.674 22.9042 236.493 22.8348 236.285C22.7655 236.077 22.7633 235.853 22.8287 235.643C22.8941 235.434 23.0238 235.25 23.1992 235.119L27.0412 232.236C27.3756 231.985 27.7581 231.804 28.1637 231.703L31.1423 230.959V226.417C29.1461 225.928 26.8719 224.021 25.2205 220.121C24.4024 220.301 23.5564 220.316 22.7325 220.164C21.9086 220.012 21.1235 219.696 20.4236 219.236C19.7237 218.775 19.1232 218.179 18.6575 217.483C18.1918 216.786 17.8704 216.004 17.7123 215.181C17.5542 214.358 17.5625 213.512 17.7369 212.692C17.9112 211.873 18.248 211.097 18.7273 210.41C19.2066 209.722 19.8188 209.138 20.5276 208.692C21.2365 208.245 22.0276 207.945 22.8543 207.809C22.8051 206.74 22.7807 205.671 22.7812 204.601ZM22.9881 209.91C21.8974 210.11 20.9306 210.734 20.3005 211.647C19.6703 212.559 19.4284 213.684 19.628 214.775C19.8276 215.866 20.4523 216.833 21.3647 217.463C22.277 218.093 23.4024 218.335 24.4931 218.135C23.7971 215.94 23.264 213.231 22.9881 209.91ZM44.0644 218.135C45.1551 218.335 46.2805 218.093 47.1929 217.463C48.1052 216.833 48.7299 215.866 48.9295 214.775C49.1291 213.684 48.8872 212.559 48.2571 211.647C47.6269 210.734 46.6601 210.11 45.5694 209.91C45.2914 213.234 44.7584 215.94 44.0644 218.135ZM24.8798 205.646C24.8945 206.726 24.9342 207.749 24.9969 208.716C25.2686 212.956 25.9521 216.129 26.8154 218.472C28.6214 223.371 31.1089 224.458 32.1874 224.458C32.4646 224.458 32.7305 224.568 32.9265 224.764C33.1225 224.96 33.2326 225.226 33.2326 225.503V230.959C33.2326 231.425 33.0768 231.878 32.7902 232.245C32.5035 232.612 32.1023 232.873 31.6502 232.987L28.6695 233.731C28.5342 233.764 28.407 233.825 28.2953 233.908L26.9617 234.91H41.5937L40.2601 233.908C40.1478 233.825 40.0199 233.764 39.8838 233.731L36.9052 232.987C36.4532 232.873 36.052 232.612 35.7653 232.245C35.4786 231.878 35.3229 231.425 35.3229 230.959V225.503C35.3229 225.226 35.433 224.96 35.629 224.764C35.825 224.568 36.0908 224.458 36.368 224.458C37.4466 224.458 39.934 223.371 41.74 218.472C42.6033 216.131 43.2868 212.953 43.5585 208.716C43.6213 207.749 43.661 206.726 43.6756 205.646H24.8798Z" fill="#FF9D42"/>
</g>
<g clip-path="url(#clip1_363_1744)" filter="url(#filter0_d_363_1744)">
<path d="M22.0034 203.823C22.0034 203.546 22.1135 203.28 22.3095 203.084C22.5055 202.888 22.7713 202.778 23.0485 202.778H43.9513C44.2285 202.778 44.4943 202.888 44.6903 203.084C44.8863 203.28 44.9964 203.546 44.9964 203.823C44.9964 204.947 44.9713 206.018 44.9253 207.034C45.7513 207.17 46.5415 207.471 47.2493 207.918C47.9572 208.365 48.5683 208.949 49.0468 209.636C49.5252 210.323 49.8613 211.099 50.0351 211.918C50.2089 212.737 50.217 213.583 50.0588 214.405C49.9007 215.227 49.5795 216.009 49.1143 216.705C48.6491 217.401 48.0492 217.997 47.35 218.457C46.6508 218.918 45.8665 219.234 45.0433 219.386C44.2202 219.539 43.3748 219.525 42.5571 219.345C40.9057 223.244 38.6315 225.15 36.6353 225.639V230.181L39.6139 230.925C40.0195 231.026 40.402 231.208 40.7364 231.458L44.5784 234.341C44.7538 234.473 44.8835 234.656 44.9489 234.865C45.0143 235.075 45.0121 235.299 44.9428 235.508C44.8734 235.716 44.7403 235.897 44.5624 236.025C44.3844 236.153 44.1706 236.222 43.9513 236.222H23.0485C22.8291 236.222 22.6153 236.153 22.4374 236.025C22.2594 235.897 22.1264 235.716 22.057 235.508C21.9876 235.299 21.9855 235.075 22.0509 234.865C22.1163 234.656 22.2459 234.473 22.4214 234.341L26.2633 231.458C26.5978 231.208 26.9803 231.026 27.3858 230.925L30.3645 230.181V225.639C28.3683 225.15 26.094 223.244 24.4427 219.343C23.6245 219.524 22.7785 219.538 21.9546 219.386C21.1307 219.234 20.3457 218.919 19.6458 218.458C18.9459 217.998 18.3453 217.401 17.8797 216.705C17.414 216.008 17.0926 215.226 16.9345 214.403C16.7764 213.58 16.7847 212.734 16.959 211.915C17.1334 211.095 17.4701 210.319 17.9494 209.632C18.4288 208.945 19.0409 208.361 19.7498 207.914C20.4586 207.467 21.2498 207.167 22.0765 207.031C22.0273 205.963 22.0029 204.893 22.0034 203.823ZM22.2103 209.132C21.1196 209.332 20.1528 209.956 19.5226 210.869C18.8925 211.781 18.6506 212.907 18.8502 213.997C19.0497 215.088 19.6744 216.055 20.5868 216.685C21.4992 217.315 22.6246 217.557 23.7153 217.357C23.0192 215.163 22.4862 212.454 22.2103 209.132ZM43.2866 217.357C44.3773 217.557 45.5026 217.315 46.415 216.685C47.3274 216.055 47.9521 215.088 48.1517 213.997C48.3513 212.907 48.1094 211.781 47.4792 210.869C46.8491 209.956 45.8823 209.332 44.7916 209.132C44.5136 212.456 43.9805 215.163 43.2866 217.357ZM24.102 204.868C24.1166 205.949 24.1563 206.971 24.2191 207.939C24.4908 212.178 25.1743 215.351 26.0376 217.694C27.8436 222.594 30.331 223.681 31.4096 223.681C31.6868 223.681 31.9526 223.791 32.1486 223.987C32.3446 224.183 32.4547 224.448 32.4547 224.726V230.181C32.4547 230.647 32.299 231.1 32.0123 231.467C31.7256 231.835 31.3244 232.096 30.8724 232.209L27.8917 232.953C27.7563 232.987 27.6291 233.047 27.5175 233.131L26.1839 234.132H40.8159L39.4823 233.131C39.37 233.047 39.242 232.986 39.106 232.953L36.1274 232.209C35.6753 232.096 35.2741 231.835 34.9874 231.467C34.7008 231.1 34.545 230.647 34.545 230.181V224.726C34.545 224.448 34.6551 224.183 34.8511 223.987C35.0471 223.791 35.313 223.681 35.5902 223.681C36.6687 223.681 39.1562 222.594 40.9622 217.694C41.8255 215.353 42.509 212.176 42.7807 207.939C42.8434 206.971 42.8831 205.949 42.8978 204.868H24.102Z" fill="black"/>
</g>
<g clip-path="url(#clip2_363_1744)" filter="url(#filter1_d_363_1744)">
<path d="M21.2255 203.045C21.2255 202.768 21.3356 202.502 21.5316 202.306C21.7276 202.11 21.9935 202 22.2707 202H43.1734C43.4506 202 43.7165 202.11 43.9125 202.306C44.1085 202.502 44.2186 202.768 44.2186 203.045C44.2186 204.17 44.1935 205.24 44.1475 206.256C44.9734 206.393 45.7636 206.693 46.4715 207.14C47.1793 207.587 47.7905 208.172 48.2689 208.859C48.7474 209.546 49.0834 210.321 49.2572 211.14C49.4311 211.959 49.4391 212.805 49.281 213.627C49.1229 214.449 48.8017 215.231 48.3365 215.927C47.8712 216.623 47.2713 217.219 46.5722 217.679C45.873 218.14 45.0887 218.456 44.2655 218.608C43.4423 218.761 42.597 218.747 41.7792 218.568C40.1279 222.466 37.8537 224.372 35.8575 224.861V229.404L38.8361 230.148C39.2416 230.248 39.6241 230.43 39.9586 230.681L43.8005 233.563C43.976 233.695 44.1056 233.878 44.171 234.088C44.2364 234.297 44.2343 234.522 44.1649 234.73C44.0956 234.938 43.9625 235.119 43.7845 235.247C43.6066 235.375 43.3928 235.444 43.1734 235.444H22.2707C22.0513 235.444 21.8375 235.375 21.6596 235.247C21.4816 235.119 21.3485 234.938 21.2792 234.73C21.2098 234.522 21.2077 234.297 21.2731 234.088C21.3385 233.878 21.4681 233.695 21.6436 233.563L25.4855 230.681C25.82 230.43 26.2025 230.248 26.608 230.148L29.5866 229.404V224.861C27.5904 224.372 25.3162 222.466 23.6649 218.565C22.8467 218.746 22.0007 218.76 21.1768 218.608C20.3529 218.456 19.5678 218.141 18.8679 217.68C18.168 217.22 17.5675 216.624 17.1018 215.927C16.6362 215.231 16.3148 214.448 16.1566 213.625C15.9985 212.802 16.0069 211.956 16.1812 211.137C16.3555 210.317 16.6923 209.541 17.1716 208.854C17.6509 208.167 18.2631 207.583 18.9719 207.136C19.6808 206.69 20.4719 206.389 21.2987 206.254C21.2495 205.185 21.2251 204.115 21.2255 203.045ZM21.4325 208.354C20.3417 208.554 19.3749 209.179 18.7448 210.091C18.1147 211.003 17.8728 212.129 18.0723 213.22C18.2719 214.31 18.8966 215.277 19.809 215.907C20.7214 216.537 21.8467 216.779 22.9375 216.58C22.2414 214.385 21.7084 211.676 21.4325 208.354ZM42.5087 216.58C43.5995 216.779 44.7248 216.537 45.6372 215.907C46.5496 215.277 47.1743 214.31 47.3739 213.22C47.5734 212.129 47.3315 211.003 46.7014 210.091C46.0712 209.179 45.1045 208.554 44.0137 208.354C43.7357 211.678 43.2027 214.385 42.5087 216.58ZM23.3242 204.09C23.3388 205.171 23.3785 206.193 23.4412 207.161C23.713 211.4 24.3965 214.573 25.2598 216.916C27.0658 221.816 29.5532 222.903 30.6318 222.903C30.909 222.903 31.1748 223.013 31.3708 223.209C31.5668 223.405 31.6769 223.671 31.6769 223.948V229.404C31.6769 229.87 31.5212 230.322 31.2345 230.689C30.9478 231.057 30.5466 231.318 30.0946 231.431L27.1138 232.175C26.9785 232.209 26.8513 232.269 26.7397 232.353L25.4061 233.354H40.038L38.7044 232.353C38.5922 232.269 38.4642 232.209 38.3282 232.175L35.3495 231.431C34.8975 231.318 34.4963 231.057 34.2096 230.689C33.9229 230.322 33.7672 229.87 33.7672 229.404V223.948C33.7672 223.671 33.8773 223.405 34.0733 223.209C34.2693 223.013 34.5351 222.903 34.8123 222.903C35.8909 222.903 38.3783 221.816 40.1843 216.916C41.0476 214.575 41.7311 211.398 42.0029 207.161C42.0656 206.193 42.1053 205.171 42.1199 204.09H23.3242Z" fill="white"/>
</g>
<defs>
<filter id="filter0_d_363_1744" x="0.777832" y="0.777771" width="147.444" height="235.444" filterUnits="userSpaceOnUse" color-interpolation-filters="sRGB">
<feFlood flood-opacity="0" result="BackgroundImageFix"/>
<feColorMatrix in="SourceAlpha" type="matrix" values="0 0 0 0 0 0 0 0 0 0 0 0 0 0 0 0 0 0 127 0" result="hardAlpha"/>
<feOffset dx="41" dy="-145"/>
<feGaussianBlur stdDeviation="28.5"/>
<feComposite in2="hardAlpha" operator="out"/>
<feColorMatrix type="matrix" values="0 0 0 0 0 0 0 0 0 0 0 0 0 0 0 0 0 0 1 0"/>
<feBlend mode="normal" in2="BackgroundImageFix" result="effect1_dropShadow_363_1744"/>
<feBlend mode="normal" in="SourceGraphic" in2="effect1_dropShadow_363_1744" result="shape"/>
</filter>
<filter id="filter1_d_363_1744" x="0" y="0" width="147.444" height="235.444" filterUnits="userSpaceOnUse" color-interpolation-filters="sRGB">
<feFlood flood-opacity="0" result="BackgroundImageFix"/>
<feColorMatrix in="SourceAlpha" type="matrix" values="0 0 0 0 0 0 0 0 0 0 0 0 0 0 0 0 0 0 127 0" result="hardAlpha"/>
<feOffset dx="41" dy="-145"/>
<feGaussianBlur stdDeviation="28.5"/>
<feComposite in2="hardAlpha" operator="out"/>
<feColorMatrix type="matrix" values="0 0 0 0 0 0 0 0 0 0 0 0 0 0 0 0 0 0 1 0"/>
<feBlend mode="normal" in2="BackgroundImageFix" result="effect1_dropShadow_363_1744"/>
<feBlend mode="normal" in="SourceGraphic" in2="effect1_dropShadow_363_1744" result="shape"/>
</filter>
<clipPath id="clip0_363_1744">
<rect width="33.4444" height="33.4444" fill="white" transform="translate(17.5557 203.556)"/>
</clipPath>
<clipPath id="clip1_363_1744">
<rect width="33.4444" height="33.4444" fill="white" transform="translate(16.7778 202.778)"/>
</clipPath>
<clipPath id="clip2_363_1744">
<rect width="33.4444" height="33.4444" fill="white" transform="translate(16 202)"/>
</clipPath>
</defs>
</svg>
