<svg width="26" height="26" viewBox="0 0 26 26" fill="none" xmlns="http://www.w3.org/2000/svg">
<path d="M10.4326 20.0504L10.5564 20.4092C10.9849 21.6541 12.341 22.3155 13.5859 21.887C14.8308 21.4586 15.4922 20.1024 15.0637 18.8575L14.94 18.4987" stroke="white" stroke-width="1.5" stroke-linecap="round" stroke-linejoin="round"/>
<path d="M11.9055 5.69218L11.5946 4.78946C11.2514 3.79418 10.1666 3.26482 9.17032 3.60802C8.17504 3.95122 7.64568 5.03594 7.98784 6.03122L8.2988 6.93394" stroke="white" stroke-width="1.5" stroke-linecap="round" stroke-linejoin="round"/>
<path d="M6.25715 12.5167C5.40955 10.056 6.71787 7.37387 9.17851 6.52627L10.9611 5.91267C13.4217 5.06507 16.1039 6.37339 16.9515 8.83403L17.8979 11.5838C18.0778 12.1059 18.4574 12.5343 18.9524 12.7756L19.8 13.1885C20.2961 13.4308 20.6757 13.8593 20.8546 14.3803C21.2082 15.4068 20.6622 16.5259 19.6357 16.8795L9.09531 20.5091C8.06883 20.8627 6.94979 20.3167 6.59619 19.2902C6.41627 18.7681 6.45163 18.1971 6.69291 17.7011L7.10579 16.8535C7.34811 16.3574 7.38243 15.7864 7.20251 15.2643L6.25715 12.5167V12.5167Z" stroke="white" stroke-width="1.5" stroke-linecap="round" stroke-linejoin="round"/>
</svg>
