<svg width="56" height="19" viewBox="0 0 56 19" fill="none" xmlns="http://www.w3.org/2000/svg">
<path d="M17.0352 9.41016C17.0352 12.2461 16.332 14.4258 14.9258 15.9492C13.5195 17.4727 11.5039 18.2344 8.87891 18.2344C6.25391 18.2344 4.23828 17.4727 2.83203 15.9492C1.42578 14.4258 0.722656 12.2383 0.722656 9.38672C0.722656 6.53516 1.42578 4.35938 2.83203 2.85938C4.24609 1.35156 6.26953 0.597656 8.90234 0.597656C11.5352 0.597656 13.5469 1.35547 14.9375 2.87109C16.3359 4.38672 17.0352 6.56641 17.0352 9.41016ZM4.53125 9.41016C4.53125 11.3242 4.89453 12.7656 5.62109 13.7344C6.34766 14.7031 7.43359 15.1875 8.87891 15.1875C11.7773 15.1875 13.2266 13.2617 13.2266 9.41016C13.2266 5.55078 11.7852 3.62109 8.90234 3.62109C7.45703 3.62109 6.36719 4.10938 5.63281 5.08594C4.89844 6.05469 4.53125 7.49609 4.53125 9.41016ZM22.9219 18L17.9297 4.89844H21.668L24.1992 12.3633C24.4805 13.3086 24.6562 14.2031 24.7266 15.0469H24.7969C24.8359 14.2969 25.0117 13.4023 25.3242 12.3633L27.8438 4.89844H31.582L26.5898 18H22.9219ZM38.3945 7.19531C37.6367 7.19531 37.043 7.4375 36.6133 7.92188C36.1836 8.39844 35.9375 9.07812 35.875 9.96094H40.8906C40.875 9.07812 40.6445 8.39844 40.1992 7.92188C39.7539 7.4375 39.1523 7.19531 38.3945 7.19531ZM38.8984 18.2344C36.7891 18.2344 35.1406 17.6523 33.9531 16.4883C32.7656 15.3242 32.1719 13.6758 32.1719 11.543C32.1719 9.34766 32.7188 7.65234 33.8125 6.45703C34.9141 5.25391 36.4336 4.65234 38.3711 4.65234C40.2227 4.65234 41.6641 5.17969 42.6953 6.23438C43.7266 7.28906 44.2422 8.74609 44.2422 10.6055V12.3398H35.793C35.832 13.3555 36.1328 14.1484 36.6953 14.7188C37.2578 15.2891 38.0469 15.5742 39.0625 15.5742C39.8516 15.5742 40.5977 15.4922 41.3008 15.3281C42.0039 15.1641 42.7383 14.9023 43.5039 14.543V17.3086C42.8789 17.6211 42.2109 17.8516 41.5 18C40.7891 18.1562 39.9219 18.2344 38.8984 18.2344ZM53.9609 4.65234C54.4453 4.65234 54.8477 4.6875 55.168 4.75781L54.8984 8.10938C54.6094 8.03125 54.2578 7.99219 53.8438 7.99219C52.7031 7.99219 51.8125 8.28516 51.1719 8.87109C50.5391 9.45703 50.2227 10.2773 50.2227 11.332V18H46.6484V4.89844H49.3555L49.8828 7.10156H50.0586C50.4648 6.36719 51.0117 5.77734 51.6992 5.33203C52.3945 4.87891 53.1484 4.65234 53.9609 4.65234Z" fill="#FF9D42"/>
</svg>
