<svg width="84" height="83" viewBox="0 0 84 83" fill="none" xmlns="http://www.w3.org/2000/svg">
<path d="M42 82.7647C65.196 82.7647 84 64.2372 84 41.3824C84 18.5275 65.196 0 42 0C18.804 0 0 18.5275 0 41.3824C0 64.2372 18.804 82.7647 42 82.7647Z" fill="#FF9D42"/>
<path d="M51.8596 49.7119C50.6737 49.2882 48.7355 49.2672 47.877 48.9386C47.2157 48.7671 46.5911 48.4766 46.0339 48.0813C45.7973 47.0936 45.6938 46.0787 45.7263 45.0635C46.1657 44.6394 46.5214 44.1366 46.7751 43.5812C47.0317 42.6274 47.202 41.6526 47.284 40.6683C47.284 40.6683 47.9832 40.9648 48.2587 39.5665C48.4922 38.3596 48.9369 37.7234 48.8195 36.834C48.7022 35.9446 48.2019 36.1558 48.2019 36.1558C48.2019 36.1558 48.8195 35.2553 48.8195 32.1955C48.8195 29.0393 46.4366 25.9362 41.9784 25.9362C37.5203 25.9362 35.1263 29.0504 35.1263 32.1955C35.1263 35.2565 35.7303 36.1558 35.7303 36.1558C35.7303 36.1558 35.2362 35.9446 35.1127 36.834C34.9892 37.7234 35.4302 38.3596 35.6735 39.5665C35.949 40.9747 36.6482 40.6683 36.6482 40.6683C36.731 41.6525 36.9013 42.6272 37.1571 43.5812C37.4108 44.1366 37.7665 44.6394 38.2059 45.0635C38.2384 46.0787 38.1349 47.0936 37.8983 48.0813C37.3428 48.4774 36.7175 48.7649 36.0552 48.9287C35.2078 49.2573 33.2696 49.2993 32.0726 49.723C30.6288 50.2641 29.3876 51.2384 28.5191 52.5124C27.6507 53.7865 27.1975 55.2979 27.2216 56.8396H56.6957C56.7255 55.2973 56.2764 53.7837 55.4103 52.5072C54.5442 51.2308 53.3037 50.2542 51.8596 49.7119Z" fill="white"/>
<path d="M29.7156 44.5496C30.9605 44.5321 32.1796 44.1916 33.2535 43.5614C31.6117 41.0723 32.5012 38.1706 32.1627 35.4591C32.1462 34.8426 32.0023 34.2361 31.74 33.6779C31.4777 33.1198 31.1026 32.6219 30.6385 32.2158C30.1743 31.8097 29.6311 31.504 29.043 31.3181C28.455 31.1322 27.8348 31.0701 27.2215 31.1356H27.1733C26.5635 31.0777 25.9482 31.1455 25.3656 31.3347C24.7829 31.524 24.2453 31.8306 23.7858 32.2358C23.3263 32.641 22.9548 33.1361 22.6942 33.6905C22.4335 34.2449 22.2893 34.8468 22.2705 35.4591C21.932 38.1595 22.8745 41.3885 21.1908 43.5614C22.1963 44.4718 24.7386 44.4409 24.7386 44.4409C24.8026 45.0357 24.7667 45.6369 24.6323 46.2198C24.2678 46.5234 23.8291 46.7246 23.3612 46.8028C22.4327 47.0036 21.5167 47.2581 20.6176 47.565C19.8976 47.9413 19.2941 48.5071 18.8721 49.2013C18.4502 49.8956 18.226 50.6919 18.2236 51.5043H26.7299C27.504 50.1258 28.6883 49.0226 30.1183 48.3482C30.9477 48.0008 31.8355 47.8138 32.7346 47.7972C32.7346 47.7972 33.1373 47.1623 31.8131 46.9177C31.1095 46.7633 30.4269 46.5253 29.7798 46.2086C29.5785 45.9789 29.7156 44.5496 29.7156 44.5496Z" fill="white"/>
<path d="M54.2859 44.5496C53.041 44.5321 51.8219 44.1916 50.748 43.5614C52.3898 41.0723 51.5003 38.1706 51.8388 35.4591C51.8553 34.8426 51.9992 34.2361 52.2615 33.6779C52.5238 33.1198 52.8989 32.6219 53.363 32.2158C53.8272 31.8097 54.3704 31.504 54.9585 31.3181C55.5465 31.1322 56.1667 31.0701 56.78 31.1356H56.822C57.4319 31.0777 58.0471 31.1455 58.6297 31.3347C59.2124 31.524 59.7501 31.8306 60.2095 32.2358C60.669 32.641 61.0405 33.1361 61.3012 33.6905C61.5618 34.2449 61.706 34.8468 61.7249 35.4591C62.0633 38.1595 61.1208 41.3885 62.8045 43.5614C61.799 44.4718 59.2568 44.4409 59.2568 44.4409C59.1927 45.0357 59.2286 45.6369 59.363 46.2198C59.7275 46.5234 60.1662 46.7246 60.6341 46.8028C61.5626 47.0036 62.4787 47.2581 63.3777 47.565C64.0977 47.9413 64.7013 48.5071 65.1232 49.2013C65.5451 49.8956 65.7693 50.6919 65.7717 51.5043H57.2729C56.4988 50.1258 55.3144 49.0226 53.8845 48.3482C53.055 48.0008 52.1672 47.8138 51.2681 47.7972C51.2681 47.7972 50.8654 47.1623 52.1896 46.9177C52.8933 46.7633 53.5759 46.5253 54.2229 46.2086C54.4243 45.9789 54.2859 44.5496 54.2859 44.5496Z" fill="white"/>
</svg>
