<svg width="43" height="44" viewBox="0 0 43 44" fill="none" xmlns="http://www.w3.org/2000/svg">
<path d="M21.5 42.5C32.5457 42.5 41.5 33.3218 41.5 22C41.5 10.6782 32.5457 1.5 21.5 1.5C10.4543 1.5 1.5 10.6782 1.5 22C1.5 33.3218 10.4543 42.5 21.5 42.5Z" stroke="white" stroke-width="3"/>
<path d="M29.4647 21.63C29.6186 21.7172 29.7466 21.8437 29.8357 21.9965C29.9248 22.1494 29.9717 22.3231 29.9717 22.5C29.9717 22.6769 29.9248 22.8506 29.8357 23.0035C29.7466 23.1563 29.6186 23.2828 29.4647 23.37L17.4927 30.154C17.3406 30.2402 17.1685 30.285 16.9937 30.284C16.8188 30.2829 16.6473 30.236 16.4963 30.148C16.3452 30.06 16.2198 29.9338 16.1327 29.7822C16.0456 29.6306 15.9997 29.4589 15.9997 29.284L15.9997 15.716C15.9997 15.5412 16.0456 15.3694 16.1327 15.2178C16.2198 15.0662 16.3452 14.9401 16.4963 14.852C16.6473 14.764 16.8188 14.7171 16.9937 14.7161C17.1685 14.715 17.3406 14.7598 17.4927 14.846L29.4647 21.63Z" fill="white"/>
</svg>
