<svg width="35" height="35" viewBox="0 0 35 35" fill="none" xmlns="http://www.w3.org/2000/svg">
<g clip-path="url(#clip0_304_1590)">
<path d="M11.4177 5.86893C12.1838 5.86893 12.8049 5.24787 12.8049 4.48174C12.8049 3.71561 12.1838 3.09454 11.4177 3.09454C10.6516 3.09454 10.0305 3.71561 10.0305 4.48174C10.0305 5.24787 10.6516 5.86893 11.4177 5.86893Z" fill="#FF9D42"/>
<path d="M5.86888 11.4177C6.63501 11.4177 7.25608 10.7966 7.25608 10.0305C7.25608 9.26438 6.63501 8.64331 5.86888 8.64331C5.10276 8.64331 4.48169 9.26438 4.48169 10.0305C4.48169 10.7966 5.10276 11.4177 5.86888 11.4177Z" fill="#FF9D42"/>
<path d="M18.3535 4.48173C19.1196 4.48173 19.7407 3.86066 19.7407 3.09453C19.7407 2.3284 19.1196 1.70734 18.3535 1.70734C17.5874 1.70734 16.9663 2.3284 16.9663 3.09453C16.9663 3.86066 17.5874 4.48173 18.3535 4.48173Z" fill="#FF9D42"/>
<path d="M25.2895 5.86893C26.0557 5.86893 26.6767 5.24787 26.6767 4.48174C26.6767 3.71561 26.0557 3.09454 25.2895 3.09454C24.5234 3.09454 23.9023 3.71561 23.9023 4.48174C23.9023 5.24787 24.5234 5.86893 25.2895 5.86893Z" fill="#FF9D42"/>
<path d="M30.8384 11.4177C31.6045 11.4177 32.2256 10.7966 32.2256 10.0305C32.2256 9.26438 31.6045 8.64331 30.8384 8.64331C30.0722 8.64331 29.4512 9.26438 29.4512 10.0305C29.4512 10.7966 30.0722 11.4177 30.8384 11.4177Z" fill="#FF9D42"/>
<path d="M25.9831 35L25.818 34.9598C23.3389 34.2936 21.1399 32.8476 19.5459 30.8354C17.9519 28.8233 17.0475 26.3517 16.9663 23.7859V17.9347L25.9831 14.1921L34.9998 17.9347V23.7859C34.9187 26.3517 34.0143 28.8233 32.4203 30.8354C30.8263 32.8476 28.6273 34.2936 26.1482 34.9598L25.9831 35ZM19.7407 19.5536V23.9233C19.784 25.7815 20.4099 27.5793 21.5299 29.0628C22.65 30.5462 24.2077 31.6404 25.9831 32.1909C27.7585 31.6404 29.3162 30.5462 30.4362 29.0628C31.5563 27.5793 32.1821 25.7815 32.2255 23.9233V19.5536L25.9831 17.0663L19.7407 19.5536Z" fill="#FF9D42"/>
<path d="M18.3535 35C19.1196 35 19.7407 34.379 19.7407 33.6128C19.7407 32.8467 19.1196 32.2256 18.3535 32.2256C17.5874 32.2256 16.9663 32.8467 16.9663 33.6128C16.9663 34.379 17.5874 35 18.3535 35Z" fill="#FF9D42"/>
<path d="M16.1341 16.1342C16.4282 16.1334 16.71 16.0163 16.918 15.8083C17.1259 15.6004 17.2431 15.3185 17.2438 15.0244V12.8049H19.4633C20.0263 12.8025 20.5674 12.5862 20.9769 12.1999C21.3864 11.8135 21.6338 11.286 21.669 10.7241C22.9566 11.2942 24.0793 12.1803 24.933 13.3001L26.6767 12.5732L28.1749 13.1975C27.2982 11.5236 26.0085 10.1014 24.4281 9.06579C22.8477 8.03013 21.0289 7.41532 19.1442 7.27967C17.2596 7.14401 15.3715 7.492 13.659 8.29064C11.9466 9.08928 10.4665 10.3121 9.35911 11.8431C8.25174 13.3742 7.5538 15.1627 7.33146 17.0391C7.10913 18.9155 7.36977 20.8176 8.08867 22.5651C8.80757 24.3125 9.9609 25.8474 11.4393 27.0241C12.9177 28.2008 14.6722 28.9804 16.5364 29.2889C16.1429 28.3074 15.8681 27.2824 15.7179 26.2357C13.8102 25.6088 12.1958 24.3091 11.176 22.5792C10.1562 20.8493 9.80081 18.8074 10.1761 16.8347L15.0243 21.683V22.7927C15.0269 23.3273 15.2241 23.8426 15.5792 24.2423V18.3537H13.9146V16.1342H16.1341Z" fill="#FF9D42"/>
<path d="M5.86888 28.0641C6.63501 28.0641 7.25608 27.443 7.25608 26.6769C7.25608 25.9107 6.63501 25.2897 5.86888 25.2897C5.10276 25.2897 4.48169 25.9107 4.48169 26.6769C4.48169 27.443 5.10276 28.0641 5.86888 28.0641Z" fill="#FF9D42"/>
<path d="M11.4177 33.6128C12.1838 33.6128 12.8049 32.9918 12.8049 32.2256C12.8049 31.4595 12.1838 30.8384 11.4177 30.8384C10.6516 30.8384 10.0305 31.4595 10.0305 32.2256C10.0305 32.9918 10.6516 33.6128 11.4177 33.6128Z" fill="#FF9D42"/>
<path d="M3.09447 19.7409C3.8606 19.7409 4.48167 19.1198 4.48167 18.3537C4.48167 17.5876 3.8606 16.9665 3.09447 16.9665C2.32834 16.9665 1.70728 17.5876 1.70728 18.3537C1.70728 19.1198 2.32834 19.7409 3.09447 19.7409Z" fill="#FF9D42"/>
</g>
<g clip-path="url(#clip1_304_1590)">
<path d="M10.5642 5.01523C11.3303 5.01523 11.9514 4.39417 11.9514 3.62804C11.9514 2.86191 11.3303 2.24084 10.5642 2.24084C9.79807 2.24084 9.177 2.86191 9.177 3.62804C9.177 4.39417 9.79807 5.01523 10.5642 5.01523Z" fill="black"/>
<path d="M5.01537 10.564C5.7815 10.564 6.40256 9.94293 6.40256 9.17681C6.40256 8.41068 5.7815 7.78961 5.01537 7.78961C4.24924 7.78961 3.62817 8.41068 3.62817 9.17681C3.62817 9.94293 4.24924 10.564 5.01537 10.564Z" fill="black"/>
<path d="M17.5 3.62803C18.2661 3.62803 18.8872 3.00696 18.8872 2.24083C18.8872 1.47471 18.2661 0.853638 17.5 0.853638C16.7339 0.853638 16.1128 1.47471 16.1128 2.24083C16.1128 3.00696 16.7339 3.62803 17.5 3.62803Z" fill="black"/>
<path d="M24.436 5.01523C25.2021 5.01523 25.8232 4.39417 25.8232 3.62804C25.8232 2.86191 25.2021 2.24084 24.436 2.24084C23.6699 2.24084 23.0488 2.86191 23.0488 3.62804C23.0488 4.39417 23.6699 5.01523 24.436 5.01523Z" fill="black"/>
<path d="M29.9849 10.564C30.751 10.564 31.372 9.94293 31.372 9.17681C31.372 8.41068 30.751 7.78961 29.9849 7.78961C29.2187 7.78961 28.5977 8.41068 28.5977 9.17681C28.5977 9.94293 29.2187 10.564 29.9849 10.564Z" fill="black"/>
<path d="M25.1296 34.1463L24.9645 34.1061C22.4854 33.4399 20.2864 31.9939 18.6923 29.9817C17.0983 27.9696 16.1939 25.498 16.1128 22.9322V17.081L25.1296 13.3384L34.1463 17.081V22.9322C34.0652 25.498 33.1608 27.9696 31.5668 29.9817C29.9728 31.9939 27.7737 33.4399 25.2946 34.1061L25.1296 34.1463ZM18.8872 18.6999V23.0696C18.9305 24.9278 19.5564 26.7256 20.6764 28.2091C21.7965 29.6925 23.3541 30.7867 25.1296 31.3372C26.905 30.7867 28.4626 29.6925 29.5827 28.2091C30.7028 26.7256 31.3286 24.9278 31.3719 23.0696V18.6999L25.1296 16.2126L18.8872 18.6999Z" fill="black"/>
<path d="M17.5 34.1463C18.2661 34.1463 18.8872 33.5253 18.8872 32.7591C18.8872 31.993 18.2661 31.3719 17.5 31.3719C16.7339 31.3719 16.1128 31.993 16.1128 32.7591C16.1128 33.5253 16.7339 34.1463 17.5 34.1463Z" fill="black"/>
<path d="M15.2805 15.2805C15.5746 15.2797 15.8565 15.1626 16.0645 14.9546C16.2724 14.7467 16.3896 14.4648 16.3903 14.1707V11.9512H18.6098C19.1728 11.9488 19.7138 11.7325 20.1234 11.3462C20.5329 10.9598 20.7803 10.4323 20.8155 9.87041C22.1031 10.4405 23.2258 11.3266 24.0795 12.4464L25.8232 11.7195L27.3214 12.3438C26.4447 10.6699 25.155 9.24775 23.5746 8.21209C21.9942 7.17643 20.1754 6.56162 18.2907 6.42597C16.4061 6.29031 14.518 6.6383 12.8055 7.43694C11.093 8.23558 9.61296 9.45839 8.50559 10.9894C7.39822 12.5205 6.70028 14.309 6.47795 16.1854C6.25561 18.0618 6.51625 19.9639 7.23515 21.7114C7.95405 23.4588 9.10738 24.9937 10.5858 26.1704C12.0642 27.3471 13.8187 28.1267 15.6828 28.4352C15.2894 27.4537 15.0146 26.4287 14.8644 25.382C12.9567 24.7551 11.3422 23.4554 10.3225 21.7255C9.30271 19.9956 8.94729 17.9537 9.32255 15.981L14.1708 20.8293V21.939C14.1734 22.4736 14.3706 22.989 14.7257 23.3886V17.5H13.061V15.2805H15.2805Z" fill="black"/>
<path d="M5.01537 27.2104C5.7815 27.2104 6.40256 26.5893 6.40256 25.8232C6.40256 25.057 5.7815 24.436 5.01537 24.436C4.24924 24.436 3.62817 25.057 3.62817 25.8232C3.62817 26.5893 4.24924 27.2104 5.01537 27.2104Z" fill="black"/>
<path d="M10.5642 32.7591C11.3303 32.7591 11.9514 32.1381 11.9514 31.3719C11.9514 30.6058 11.3303 29.9847 10.5642 29.9847C9.79807 29.9847 9.177 30.6058 9.177 31.3719C9.177 32.1381 9.79807 32.7591 10.5642 32.7591Z" fill="black"/>
<path d="M2.24095 18.8872C3.00708 18.8872 3.62815 18.2661 3.62815 17.5C3.62815 16.7339 3.00708 16.1128 2.24095 16.1128C1.47483 16.1128 0.85376 16.7339 0.85376 17.5C0.85376 18.2661 1.47483 18.8872 2.24095 18.8872Z" fill="black"/>
</g>
<g clip-path="url(#clip2_304_1590)">
<path d="M9.71044 4.1616C10.4766 4.1616 11.0976 3.54053 11.0976 2.7744C11.0976 2.00828 10.4766 1.38721 9.71044 1.38721C8.94431 1.38721 8.32324 2.00828 8.32324 2.7744C8.32324 3.54053 8.94431 4.1616 9.71044 4.1616Z" fill="white"/>
<path d="M4.16161 9.71036C4.92774 9.71036 5.5488 9.0893 5.5488 8.32317C5.5488 7.55704 4.92774 6.93597 4.16161 6.93597C3.39548 6.93597 2.77441 7.55704 2.77441 8.32317C2.77441 9.0893 3.39548 9.71036 4.16161 9.71036Z" fill="white"/>
<path d="M16.6462 2.77439C17.4124 2.77439 18.0334 2.15332 18.0334 1.3872C18.0334 0.621068 17.4124 0 16.6462 0C15.8801 0 15.259 0.621068 15.259 1.3872C15.259 2.15332 15.8801 2.77439 16.6462 2.77439Z" fill="white"/>
<path d="M23.5823 4.1616C24.3484 4.1616 24.9695 3.54053 24.9695 2.7744C24.9695 2.00828 24.3484 1.38721 23.5823 1.38721C22.8161 1.38721 22.1951 2.00828 22.1951 2.7744C22.1951 3.54053 22.8161 4.1616 23.5823 4.1616Z" fill="white"/>
<path d="M29.1311 9.71036C29.8972 9.71036 30.5183 9.0893 30.5183 8.32317C30.5183 7.55704 29.8972 6.93597 29.1311 6.93597C28.365 6.93597 27.7439 7.55704 27.7439 8.32317C27.7439 9.0893 28.365 9.71036 29.1311 9.71036Z" fill="white"/>
<path d="M24.2758 33.2927L24.1107 33.2524C21.6316 32.5863 19.4326 31.1403 17.8386 29.1281C16.2446 27.1159 15.3402 24.6443 15.259 22.0786V16.2274L24.2758 12.4847L33.2926 16.2274V22.0786C33.2114 24.6443 32.307 27.1159 30.713 29.1281C29.119 31.1403 26.92 32.5863 24.4409 33.2524L24.2758 33.2927ZM18.0334 17.8463V22.2159C18.0767 24.0742 18.7026 25.872 19.8227 27.3554C20.9427 28.8389 22.5004 29.9331 24.2758 30.4836C26.0512 29.9331 27.6089 28.8389 28.7289 27.3554C29.849 25.872 30.4749 24.0742 30.5182 22.2159V17.8463L24.2758 15.359L18.0334 17.8463Z" fill="white"/>
<path d="M16.6462 33.2927C17.4124 33.2927 18.0334 32.6716 18.0334 31.9055C18.0334 31.1394 17.4124 30.5183 16.6462 30.5183C15.8801 30.5183 15.259 31.1394 15.259 31.9055C15.259 32.6716 15.8801 33.2927 16.6462 33.2927Z" fill="white"/>
<path d="M14.4268 14.4268C14.7209 14.4261 15.0027 14.3089 15.2107 14.101C15.4187 13.893 15.5358 13.6112 15.5365 13.3171V11.0976H17.7561C18.319 11.0951 18.8601 10.8789 19.2696 10.4925C19.6791 10.1062 19.9265 9.57867 19.9617 9.01678C21.2493 9.58687 22.372 10.4729 23.2258 11.5928L24.9695 10.8659L26.4676 11.4901C25.591 9.81629 24.3013 8.39411 22.7208 7.35845C21.1404 6.32279 19.3216 5.70799 17.437 5.57233C15.5523 5.43667 13.6642 5.78466 11.9517 6.5833C10.2393 7.38194 8.7592 8.60476 7.65183 10.1358C6.54446 11.6668 5.84652 13.4554 5.62419 15.3318C5.40185 17.2082 5.66249 19.1103 6.38139 20.8577C7.10029 22.6052 8.25362 24.14 9.73203 25.3167C11.2104 26.4935 12.9649 27.2731 14.8291 27.5816C14.4356 26.6001 14.1609 25.5751 14.0106 24.5284C12.1029 23.9015 10.4885 22.6018 9.46872 20.8719C8.44895 19.142 8.09353 17.1001 8.46879 15.1274L13.317 19.9756V21.0854C13.3196 21.62 13.5169 22.1353 13.8719 22.535V16.6463H12.2073V14.4268H14.4268Z" fill="white"/>
<path d="M4.16161 26.3567C4.92774 26.3567 5.5488 25.7357 5.5488 24.9695C5.5488 24.2034 4.92774 23.5823 4.16161 23.5823C3.39548 23.5823 2.77441 24.2034 2.77441 24.9695C2.77441 25.7357 3.39548 26.3567 4.16161 26.3567Z" fill="white"/>
<path d="M9.71044 31.9055C10.4766 31.9055 11.0976 31.2844 11.0976 30.5183C11.0976 29.7522 10.4766 29.1311 9.71044 29.1311C8.94431 29.1311 8.32324 29.7522 8.32324 30.5183C8.32324 31.2844 8.94431 31.9055 9.71044 31.9055Z" fill="white"/>
<path d="M1.3872 18.0335C2.15332 18.0335 2.77439 17.4125 2.77439 16.6464C2.77439 15.8802 2.15332 15.2592 1.3872 15.2592C0.621068 15.2592 0 15.8802 0 16.6464C0 17.4125 0.621068 18.0335 1.3872 18.0335Z" fill="white"/>
</g>
<defs>
<clipPath id="clip0_304_1590">
<rect width="33.2927" height="33.2927" fill="white" transform="translate(1.70728 1.70734)"/>
</clipPath>
<clipPath id="clip1_304_1590">
<rect width="33.2927" height="33.2927" fill="white" transform="translate(0.85376 0.853638)"/>
</clipPath>
<clipPath id="clip2_304_1590">
<rect width="33.2927" height="33.2927" fill="white"/>
</clipPath>
</defs>
</svg>
