<svg width="8" height="9" viewBox="0 0 8 9" fill="none" xmlns="http://www.w3.org/2000/svg">
<path d="M3.40073 0.554363L3.79732 0.133363C3.83697 0.0910935 3.88409 0.0575533 3.93599 0.0346673C3.98788 0.0117812 4.04352 0 4.09971 0C4.1559 0 4.21154 0.0117812 4.26344 0.0346673C4.31533 0.0575533 4.36245 0.0910935 4.4021 0.133363L7.87254 3.81736C7.91236 3.85945 7.94395 3.90948 7.96551 3.96456C7.98707 4.01965 7.99817 4.07871 7.99817 4.13836C7.99817 4.19801 7.98707 4.25708 7.96551 4.31216C7.94395 4.36725 7.91236 4.41727 7.87254 4.45936L4.4021 8.14336C4.36245 8.18563 4.31533 8.21917 4.26344 8.24206C4.21154 8.26494 4.1559 8.27672 4.09971 8.27672C4.04352 8.27672 3.98788 8.26494 3.93599 8.24206C3.88409 8.21917 3.83697 8.18563 3.79732 8.14336L3.40073 7.72236C3.36048 7.67947 3.32871 7.62848 3.30726 7.57238C3.28581 7.51629 3.27513 7.45622 3.27583 7.39568C3.27653 7.33515 3.28861 7.27537 3.31135 7.21985C3.33409 7.16433 3.36704 7.11419 3.40826 7.07236L5.55797 4.89736H0.428624C0.372302 4.89749 0.316509 4.88582 0.26445 4.863C0.212391 4.84018 0.165091 4.80667 0.125265 4.76439C0.0854388 4.72211 0.0538714 4.6719 0.0323751 4.61664C0.0108787 4.56138 -0.000123156 4.50215 1.03986e-06 4.44236V3.83636C-0.000123156 3.77657 0.0108787 3.71735 0.0323751 3.66209C0.0538714 3.60682 0.0854388 3.55661 0.125265 3.51433C0.165091 3.47206 0.212391 3.43855 0.26445 3.41573C0.316509 3.39291 0.372302 3.38123 0.428624 3.38136H5.55797L3.40826 1.20636C3.3664 1.16472 3.33289 1.11453 3.30976 1.05881C3.28662 1.00308 3.27433 0.942962 3.27363 0.882067C3.27292 0.821172 3.28382 0.760754 3.30566 0.704441C3.3275 0.648127 3.35984 0.597079 3.40073 0.554363V0.554363Z" fill="white"/>
</svg>
