<svg width="35" height="35" viewBox="0 0 35 35" fill="none" xmlns="http://www.w3.org/2000/svg">
<path d="M23.3598 14.0341C23.5232 14.0341 23.6758 14.0326 23.8285 14.0341C27.3921 14.0704 30.9557 14.1067 34.5193 14.1438C34.5907 14.1445 34.6641 14.1369 34.7326 14.1543C34.9823 14.2156 35.0807 14.4916 34.9259 14.7109C34.856 14.81 34.7604 14.8901 34.6727 14.974C31.9607 17.5549 29.2495 20.1373 26.5311 22.7106C26.3357 22.8951 26.2779 23.0683 26.3414 23.3292C26.9463 25.8223 27.5469 28.3162 28.146 30.8101C28.4292 31.9905 28.7031 33.174 28.9884 34.3536C29.0334 34.5389 29.0505 34.7075 28.895 34.8323C28.7431 34.954 28.5797 34.9041 28.4242 34.8225C27.8079 34.4988 27.1924 34.1744 26.5761 33.8523C26.452 33.7872 26.3243 33.7313 26.1445 33.6451C26.1381 33.906 26.1338 34.1139 26.1281 34.3219C26.1189 34.644 26.024 34.7491 25.7251 34.7635C25.5946 34.7695 25.4641 34.768 25.3328 34.7688C20.5095 34.7854 15.6862 34.8028 10.8636 34.8194C10.7923 34.8194 10.7202 34.8255 10.6503 34.8164C10.4378 34.7877 10.3622 34.7068 10.3486 34.4746C10.3351 34.2417 10.3358 34.0073 10.3294 33.7154C10.1717 33.7888 10.0662 33.8326 9.96558 33.8863C9.35144 34.2137 8.73871 34.5442 8.12528 34.8731C8.0618 34.9072 8.00046 34.9487 7.93341 34.9722C7.61385 35.0811 7.37846 34.858 7.45978 34.5132C7.55964 34.0867 7.67662 33.6647 7.78361 33.2398C8.22443 31.493 8.66311 29.7447 9.10535 27.9979C9.47983 26.518 9.85859 25.0389 10.2352 23.5598C10.2509 23.4993 10.2566 23.4343 10.2801 23.3776C10.3786 23.1484 10.3187 22.9896 10.1353 22.8271C9.41421 22.1911 8.7059 21.5393 7.99332 20.8927C6.27071 19.3297 4.54882 17.7667 2.82621 16.2044C2.43818 15.8527 2.04801 15.5034 1.65998 15.1525C1.5701 15.0708 1.47452 14.9922 1.39748 14.8984C1.2106 14.6701 1.2912 14.3941 1.5701 14.3184C1.68351 14.2874 1.80549 14.2882 1.92389 14.2859C3.3726 14.2632 4.82201 14.2458 6.27071 14.2201C8.37279 14.1823 10.4749 14.1339 12.577 14.1044C12.8616 14.1007 12.9942 13.9902 13.0984 13.7173C14.0299 11.2846 14.9743 8.858 15.9152 6.42988C16.5229 4.86155 17.1313 3.29322 17.7369 1.72337C17.804 1.5502 17.8817 1.39972 18.08 1.39292C18.2933 1.38535 18.3839 1.53357 18.4595 1.72337C19.1963 3.58889 19.9374 5.45213 20.6786 7.31614C21.516 9.42212 22.3548 11.5281 23.1936 13.6333C23.2421 13.7581 23.2964 13.8821 23.3598 14.0341ZM18.0893 2.75784C17.881 3.30229 17.7055 3.7681 17.5258 4.2324C16.2176 7.60349 14.9087 10.9738 13.6005 14.3449C13.4272 14.7911 13.378 14.8251 12.9108 14.8334C9.60965 14.8924 6.30852 14.9521 3.00739 15.0134C2.90681 15.0149 2.80695 15.0323 2.70638 15.0429C2.69283 15.0716 2.67856 15.1011 2.66501 15.1298C2.73277 15.1782 2.80553 15.2198 2.86758 15.2758C3.3298 15.6894 3.7913 16.1053 4.25138 16.522C6.00965 18.1175 7.76721 19.7138 9.52477 21.3101C9.97557 21.7192 10.4249 22.1306 10.8779 22.5374C11.0683 22.7083 11.1497 22.8898 11.0519 23.1651C10.9485 23.4577 10.8986 23.7708 10.8215 24.074C10.0191 27.2409 9.2152 30.4086 8.41417 33.5763C8.39277 33.661 8.40275 33.7547 8.39419 33.9014C9.01975 33.5664 9.58896 33.2602 10.1589 32.9562C10.2887 32.8874 10.298 32.7649 10.2973 32.6356C10.2966 32.3588 10.2851 32.0813 10.2958 31.8053C10.3144 31.316 10.2966 30.8177 10.3793 30.3398C10.7573 28.1665 12.4878 26.7154 14.1619 26.5052C14.393 26.4764 14.6783 26.4878 14.8331 26.3494C14.9922 26.2065 15.04 25.9078 15.1056 25.6673C15.1883 25.3656 15.3103 25.1327 15.642 25.1569C15.704 24.8771 15.6263 24.6835 15.458 24.4876C14.6305 23.525 14.2475 22.3688 14.209 21.0818C14.1861 20.315 14.1968 19.5467 14.1968 18.7792C14.1961 18.1674 14.2967 17.5731 14.5621 17.0271C15.087 15.9458 15.8745 15.2493 17.0729 15.2175C17.809 15.1979 18.5458 15.1979 19.2819 15.2085C19.9496 15.2183 20.5302 15.4731 21.0217 15.9578C21.7585 16.6853 22.108 17.5942 22.133 18.6446C22.1515 19.4242 22.1444 20.2046 22.1401 20.985C22.1323 22.3484 21.7228 23.5515 20.8398 24.5565C20.6864 24.7311 20.6258 24.9066 20.7107 25.1659C21.0102 25.1009 21.1215 25.3202 21.2157 25.5667C21.282 25.7414 21.3669 25.9093 21.4261 26.0862C21.5067 26.3297 21.6429 26.4205 21.8997 26.4333C24.2108 26.546 26.1174 28.6588 26.1381 31.1096C26.1417 31.5754 26.1531 32.0412 26.1367 32.5063C26.1288 32.7301 26.2052 32.8488 26.3906 32.9418C26.8949 33.1944 27.3914 33.4644 27.8921 33.7237C27.947 33.7517 28.0141 33.754 28.1061 33.7751C28.0847 33.6496 28.0761 33.5642 28.0562 33.4817C27.7495 32.203 27.4399 30.9258 27.1339 29.6471C26.6175 27.4912 26.106 25.3338 25.5825 23.1802C25.5054 22.8626 25.5532 22.6365 25.7922 22.4134C26.8264 21.45 27.8472 20.47 28.8729 19.4968C30.4293 18.0192 31.9857 16.5424 33.5407 15.0625C33.5835 15.0217 33.6013 14.9506 33.6577 14.8432C32.5242 14.8432 31.4443 14.8508 30.3644 14.8417C28.0248 14.8228 25.6852 14.7918 23.3449 14.7774C23.0167 14.7752 22.8206 14.667 22.7008 14.3237C22.5032 13.7589 22.2578 13.2129 22.0374 12.6571C20.7741 9.47051 19.513 6.28394 18.2498 3.09736C18.2148 3.00511 18.167 2.91966 18.0893 2.75784ZM16.7426 17.4944C16.6891 17.5451 16.6648 17.5579 16.6549 17.5784C16.6228 17.6449 16.5935 17.7137 16.5664 17.7825C16.2797 18.5107 15.9052 19.1958 15.3231 19.6843C14.8845 20.0526 14.7461 20.464 14.8174 21.0092C14.8253 21.0712 14.8188 21.1347 14.8231 21.1975C14.9116 22.4928 15.341 23.6218 16.3139 24.4551C17.3132 25.3119 18.5879 25.4533 19.7227 24.7016C20.6051 24.1171 21.1172 23.2483 21.3819 22.2093C21.608 21.3238 21.5324 20.4133 21.5153 19.5097C21.5145 19.4756 21.4881 19.4424 21.4575 19.3728C19.62 19.5452 18.0486 18.8987 16.7426 17.4944ZM17.4202 29.9541C17.3731 30.0297 17.3432 30.0834 17.3075 30.1326C17.0957 30.4283 16.8988 30.426 16.687 30.1243C16.6235 30.0335 16.5664 29.9375 16.5072 29.8437C15.9851 29.0195 15.4601 28.1975 14.9444 27.368C14.8424 27.2031 14.7297 27.1094 14.5392 27.1388C14.4572 27.1517 14.373 27.1464 14.291 27.1577C12.4407 27.4088 10.9735 29.1261 10.9414 31.0982C10.9264 32.0155 10.9407 32.9335 10.9449 33.8508C10.9457 33.946 10.9678 34.0406 10.9813 34.1411C11.6226 34.1411 12.236 34.1411 12.8844 34.1411C12.8929 33.9922 12.9079 33.8583 12.9079 33.7245C12.9079 33.0832 12.9029 32.442 12.9029 31.8015C12.9029 31.6896 12.9058 31.5724 12.9365 31.4673C12.9793 31.3206 13.0912 31.251 13.2375 31.2517C13.3723 31.2525 13.47 31.3236 13.5092 31.4529C13.5413 31.558 13.5527 31.6737 13.5535 31.7841C13.5599 32.4375 13.5584 33.0916 13.5642 33.7449C13.5649 33.8765 13.582 34.0073 13.5905 34.1245C14.7718 34.1245 15.9052 34.1245 17.0429 34.1245C17.065 34.036 17.0857 33.977 17.0943 33.9166C17.177 33.3199 17.259 32.724 17.3382 32.1267C17.4152 31.5421 17.4908 30.9568 17.5622 30.3715C17.58 30.2286 17.615 30.0706 17.4202 29.9541ZM25.4969 34.0754C25.5033 33.9559 25.5104 33.8946 25.5097 33.8326C25.5026 32.9138 25.489 31.9958 25.489 31.0771C25.489 29.139 23.9768 27.2477 21.8997 27.1041C21.6658 27.0882 21.5245 27.1638 21.4047 27.3717C21.1329 27.8444 20.8433 28.3049 20.5602 28.7699C20.2834 29.2244 20.0116 29.6827 19.7242 30.1296C19.5351 30.423 19.3404 30.4177 19.1264 30.1402C19.0801 30.0797 19.0273 30.0252 18.9146 29.8951C18.9146 30.1091 18.9025 30.2294 18.9167 30.3458C19.0565 31.493 19.1999 32.6401 19.3454 33.7865C19.3875 34.1192 19.4032 34.1306 19.7299 34.129C20.6686 34.1238 21.6066 34.1177 22.5453 34.1079C22.658 34.1064 22.7707 34.0829 22.9019 34.067C22.9019 33.9007 22.9019 33.7759 22.9019 33.6519C22.8998 33.0227 22.8969 32.3936 22.8969 31.7644C22.8969 31.6518 22.8976 31.5353 22.924 31.4279C22.9604 31.2805 23.0709 31.1958 23.2136 31.1928C23.3598 31.1897 23.4647 31.282 23.5039 31.4257C23.5325 31.5323 23.5317 31.6495 23.5325 31.7622C23.5389 32.4042 23.5403 33.0454 23.546 33.6874C23.5474 33.8084 23.5603 33.9302 23.5695 34.0746C24.2222 34.0754 24.8442 34.0754 25.4969 34.0754ZM14.831 19.304C14.928 19.2314 14.9708 19.2087 15.0029 19.1739C15.3709 18.7762 15.6826 18.3323 15.8966 17.8234C16.045 17.4695 16.1477 17.0936 16.2768 16.7307C16.3874 16.4206 16.5978 16.3768 16.8175 16.6135C16.8838 16.6853 16.9402 16.767 17.0022 16.8433C17.9195 17.9716 19.0822 18.6083 20.4767 18.758C20.8012 18.7928 21.1322 18.7633 21.4739 18.7633C21.4867 18.6272 21.5038 18.5425 21.5017 18.4586C21.4903 18.0109 21.3783 17.5867 21.1714 17.2003C20.7128 16.3427 20.0601 15.8164 19.0786 15.8474C18.4146 15.8679 17.7498 15.855 17.085 15.8558C16.6813 15.8558 16.3111 15.9783 15.9851 16.2248C14.9972 16.9674 14.7468 18.0253 14.831 19.304ZM17.8204 27.8149C17.0828 27.2077 16.386 26.6337 15.6513 26.0288C15.5728 26.2352 15.52 26.3978 15.4501 26.5513C15.3567 26.7555 15.3888 26.9256 15.5086 27.1101C15.9451 27.7801 16.3688 28.4591 16.7997 29.1337C16.8432 29.2017 16.8995 29.2607 16.9858 29.3688C17.3018 28.8584 17.5344 28.3465 17.8204 27.8149ZM20.67 26.0204C19.9781 26.6156 19.2933 27.2054 18.5872 27.8126C18.8761 28.3374 19.1122 28.8531 19.4446 29.3484C19.5166 29.2494 19.5708 29.1858 19.6143 29.114C19.9824 28.5128 20.3497 27.9117 20.7157 27.3082C21.1015 26.6723 21.0901 26.8795 20.7749 26.1263C20.7656 26.1059 20.742 26.0923 20.67 26.0204ZM16.3225 25.2506C16.2262 25.5879 16.2932 25.8004 16.5529 25.9857C16.9159 26.2443 17.2483 26.5513 17.595 26.8356C17.7897 26.9952 17.9866 27.1525 18.1728 27.3022C18.2348 27.2757 18.2726 27.2697 18.299 27.2477C18.8261 26.7986 19.3483 26.3448 19.8782 25.9002C20.083 25.7286 20.0687 25.5304 19.9952 25.2703C18.7598 25.9978 17.5386 25.9705 16.3225 25.2506ZM18.7684 34.1449C18.6157 32.9244 18.4688 31.7478 18.3183 30.5727C18.3133 30.5334 18.2705 30.5001 18.1913 30.3867C18.0222 31.6835 17.8404 32.8942 17.7134 34.1449C18.0715 34.1449 18.3846 34.1449 18.7684 34.1449ZM18.3974 28.6981C18.2969 28.5733 18.2505 28.5159 18.1849 28.4342C18.1364 28.537 18.1043 28.6058 18.0601 28.6981C18.1678 28.6981 18.2419 28.6981 18.3974 28.6981ZM18.4003 29.6017C18.3076 29.5556 18.2477 29.5004 18.197 29.5095C18.1506 29.5178 18.115 29.5949 18.075 29.6411C18.1314 29.6713 18.1863 29.7205 18.2441 29.7235C18.2833 29.7265 18.3254 29.6638 18.4003 29.6017Z" fill="#FF9D42"/>
<path d="M27.016 23.3382C27.0053 23.1439 27.1337 23.0418 27.2485 22.9329C27.7264 22.4807 28.2051 22.0293 28.6837 21.5771C29.1973 21.0916 29.7108 20.6061 30.2258 20.1222C30.3236 20.0307 30.4199 19.9346 30.5297 19.8613C30.6809 19.7592 30.8485 19.7849 30.9527 19.9029C31.0668 20.0322 31.0697 20.2273 30.9548 20.3853C30.9192 20.4345 30.8735 20.4768 30.8293 20.5184C29.9148 21.3782 29.0004 22.2372 28.0859 23.0962C28.0325 23.1462 27.9861 23.2059 27.9269 23.2475C27.7486 23.3723 27.7379 23.5333 27.7878 23.7398C28.0032 24.6268 28.2065 25.5176 28.4155 26.4061C28.4904 26.7222 28.5703 27.0367 28.6466 27.3528C28.658 27.4012 28.6666 27.4511 28.6701 27.501C28.6887 27.74 28.5981 27.8935 28.4176 27.9336C28.2357 27.9737 28.0831 27.8746 28.0232 27.6485C27.9205 27.2621 27.8299 26.8719 27.7371 26.4825C27.5146 25.5455 27.2928 24.6086 27.0724 23.6709C27.0467 23.5628 27.0346 23.4494 27.016 23.3382Z" fill="#FF9D42"/>
<path d="M9.58751 23.4555C9.49977 23.8464 9.41489 24.2381 9.32431 24.6283C9.10318 25.5789 8.87992 26.5294 8.65595 27.4792C8.63027 27.5888 8.60388 27.7 8.56251 27.8036C8.49474 27.9745 8.33425 28.072 8.19801 28.0425C8.04109 28.0085 7.92411 27.8436 7.93124 27.6501C7.93481 27.5639 7.95692 27.4769 7.97689 27.3922C8.24652 26.2473 8.51186 25.101 8.79147 23.9584C8.86423 23.6604 8.82286 23.4578 8.58533 23.2422C7.66589 22.4074 6.76857 21.5454 5.8634 20.6924C5.78351 20.6175 5.69791 20.5457 5.63229 20.458C5.53172 20.3241 5.5417 20.1214 5.63871 20.0035C5.73786 19.8825 5.91404 19.8507 6.06169 19.9437C6.15228 20.0012 6.23146 20.0799 6.31135 20.1555C7.33136 21.1173 8.34994 22.0807 9.37138 23.0411C9.49122 23.1545 9.59821 23.2657 9.58751 23.4555Z" fill="#FF9D42"/>
<path d="M6.92383 31.9308C6.93667 31.8446 6.94451 31.7433 6.96734 31.6465C7.10073 31.0741 7.23625 30.5024 7.3732 29.9307C7.39389 29.846 7.41458 29.7583 7.45095 29.6804C7.52442 29.5224 7.69419 29.4437 7.83613 29.4906C7.98735 29.5397 8.09506 29.6887 8.07937 29.8596C8.06795 29.9829 8.02872 30.1039 8.00019 30.2256C7.86609 30.798 7.73128 31.3697 7.59504 31.9414C7.58077 32.0011 7.56508 32.0631 7.53655 32.1168C7.45238 32.2764 7.3033 32.3407 7.14424 32.2908C6.98232 32.2401 6.92953 32.1085 6.92383 31.9308Z" fill="#FF9D42"/>
<path d="M29.6816 31.8446C29.6723 32.0208 29.6095 32.1463 29.4512 32.1977C29.2928 32.2499 29.1402 32.1924 29.066 32.0215C29.0032 31.8756 28.9675 31.7145 28.9305 31.5572C28.7999 31.0113 28.6715 30.4638 28.5488 29.9156C28.5282 29.8218 28.5096 29.6985 28.5503 29.6267C28.6038 29.5307 28.71 29.4248 28.8056 29.4104C28.9019 29.3953 29.0218 29.4724 29.1131 29.5375C29.1623 29.573 29.183 29.6668 29.2001 29.7386C29.3556 30.3942 29.5075 31.0514 29.6594 31.7085C29.6701 31.7561 29.6759 31.806 29.6816 31.8446Z" fill="#FF9D42"/>
<path d="M22.7116 13.3378C22.875 13.3378 23.0276 13.3363 23.1803 13.3378C26.7439 13.3741 30.3075 13.4104 33.8711 13.4474C33.9425 13.4482 34.0159 13.4406 34.0844 13.458C34.3341 13.5193 34.4325 13.7953 34.2777 14.0146C34.2078 14.1136 34.1122 14.1938 34.0245 14.2777C31.3126 16.8586 28.6013 19.441 25.883 22.0143C25.6875 22.1988 25.6297 22.372 25.6932 22.6329C26.2981 25.126 26.8987 27.6199 27.4979 30.1138C27.781 31.2942 28.0549 32.4777 28.3403 33.6573C28.3852 33.8426 28.4023 34.0112 28.2468 34.136C28.0949 34.2577 27.9315 34.2078 27.776 34.1261C27.1597 33.8025 26.5442 33.4781 25.9279 33.156C25.8038 33.0909 25.6761 33.035 25.4963 32.9488C25.4899 33.2096 25.4856 33.4176 25.4799 33.6256C25.4707 33.9477 25.3758 34.0528 25.0769 34.0672C24.9464 34.0732 24.8159 34.0717 24.6846 34.0725C19.8613 34.0891 15.038 34.1065 10.2154 34.1231C10.1441 34.1231 10.0721 34.1292 10.0022 34.1201C9.78959 34.0914 9.71398 34.0104 9.70043 33.7783C9.68688 33.5454 9.68759 33.311 9.68117 33.0191C9.52353 33.0924 9.41796 33.1363 9.31739 33.19C8.70324 33.5174 8.09052 33.8479 7.47709 34.1768C7.4136 34.2108 7.35226 34.2524 7.28521 34.2759C6.96566 34.3848 6.73027 34.1617 6.81158 33.8169C6.91145 33.3904 7.02843 32.9684 7.13542 32.5434C7.57624 30.7967 8.01491 29.0483 8.45716 27.3016C8.83164 25.8217 9.21039 24.3426 9.58701 22.8635C9.60271 22.803 9.60841 22.738 9.63195 22.6812C9.73039 22.4521 9.67047 22.2933 9.48715 22.1307C8.76601 21.4948 8.05771 20.843 7.34513 20.1964C5.62252 18.6334 3.90063 17.0703 2.17802 15.508C1.78999 15.1564 1.39981 14.8071 1.01178 14.4562C0.921907 14.3745 0.826326 14.2959 0.74929 14.2021C0.562407 13.9737 0.643009 13.6977 0.921907 13.6221C1.03532 13.5911 1.15729 13.5919 1.2757 13.5896C2.7244 13.5669 4.17382 13.5495 5.62252 13.5238C7.7246 13.486 9.82668 13.4376 11.9288 13.4081C12.2134 13.4043 12.346 13.2939 12.4502 13.0209C13.3817 10.5883 14.3261 8.16168 15.267 5.73356C15.8747 4.16523 16.4831 2.5969 17.0887 1.02705C17.1558 0.853883 17.2335 0.703402 17.4318 0.696597C17.6451 0.689035 17.7357 0.837247 17.8113 1.02705C18.5481 2.89257 19.2893 4.75581 20.0304 6.61982C20.8678 8.7258 21.7066 10.8318 22.5454 12.937C22.5939 13.0618 22.6482 13.1858 22.7116 13.3378ZM17.4411 2.06152C17.2328 2.60597 17.0574 3.07178 16.8776 3.53608C15.5694 6.90717 14.2605 10.2775 12.9523 13.6486C12.779 14.0947 12.7298 14.1288 12.2626 14.1371C8.96145 14.1961 5.66033 14.2558 2.3592 14.3171C2.25862 14.3186 2.15876 14.336 2.05819 14.3465C2.04463 14.3753 2.03037 14.4048 2.01682 14.4335C2.08458 14.4819 2.15733 14.5235 2.21939 14.5795C2.68161 14.9931 3.14311 15.409 3.60318 15.8256C5.36145 17.4212 7.11901 19.0175 8.87657 20.6138C9.32738 21.0229 9.77675 21.4343 10.2297 21.8411C10.4201 22.012 10.5015 22.1935 10.4037 22.4688C10.3003 22.7614 10.2504 23.0745 10.1733 23.3777C9.37089 26.5446 8.567 29.7123 7.76597 32.8799C7.74457 32.9646 7.75456 33.0584 7.746 33.2051C8.37156 32.8701 8.94077 32.5639 9.51069 32.2599C9.64051 32.1911 9.64979 32.0686 9.64907 31.9393C9.64836 31.6625 9.63695 31.385 9.64764 31.109C9.66619 30.6197 9.64836 30.1214 9.7311 29.6435C10.1091 27.4702 11.8396 26.0191 13.5137 25.8088C13.7448 25.7801 14.0301 25.7914 14.1849 25.6531C14.344 25.5101 14.3918 25.2115 14.4574 24.971C14.5401 24.6693 14.6621 24.4364 14.9938 24.4606C15.0558 24.1808 14.9781 23.9872 14.8098 23.7913C13.9823 22.8287 13.5993 21.6725 13.5608 20.3855C13.538 19.6187 13.5487 18.8504 13.5487 18.0829C13.5479 17.4711 13.6485 16.8767 13.9139 16.3308C14.4388 15.2494 15.2263 14.553 16.4247 14.5212C17.1608 14.5016 17.8976 14.5016 18.6337 14.5121C19.3014 14.522 19.882 14.7768 20.3735 15.2615C21.1103 15.989 21.4598 16.8979 21.4848 17.9483C21.5033 18.7279 21.4962 19.5083 21.4919 20.2887C21.4841 21.6521 21.0746 22.8552 20.1916 23.8601C20.0382 24.0348 19.9776 24.2103 20.0625 24.4696C20.362 24.4046 20.4733 24.6239 20.5675 24.8704C20.6338 25.0451 20.7187 25.213 20.7779 25.3899C20.8585 25.6334 20.9947 25.7241 21.2515 25.737C23.5626 25.8497 25.4692 27.9625 25.4899 30.4133C25.4935 30.8791 25.5049 31.3449 25.4885 31.8099C25.4807 32.0338 25.557 32.1525 25.7424 32.2455C26.2467 32.4981 26.7432 32.768 27.2439 33.0274C27.2988 33.0554 27.3659 33.0577 27.4579 33.0788C27.4365 32.9533 27.4279 32.8678 27.408 32.7854C27.1013 31.5067 26.7917 30.2295 26.4857 28.9508C25.9693 26.7949 25.4578 24.6375 24.9343 22.4839C24.8572 22.1663 24.905 21.9402 25.144 21.7171C26.1783 20.7537 27.199 19.7737 28.2247 18.8005C29.7811 17.3229 31.3375 15.8461 32.8925 14.3662C32.9353 14.3254 32.9531 14.2543 33.0095 14.1469C31.8761 14.1469 30.7961 14.1545 29.7162 14.1454C27.3766 14.1265 25.037 14.0955 22.6967 14.0811C22.3685 14.0789 22.1724 13.9707 22.0526 13.6274C21.855 13.0625 21.6096 12.5166 21.3892 11.9608C20.1259 8.77419 18.8648 5.58762 17.6016 2.40104C17.5666 2.30879 17.5189 2.22334 17.4411 2.06152ZM16.0944 16.7981C16.0409 16.8488 16.0167 16.8616 16.0067 16.882C15.9746 16.9486 15.9453 17.0174 15.9182 17.0862C15.6315 17.8144 15.257 18.4995 14.6749 18.988C14.2363 19.3563 14.0979 19.7677 14.1692 20.3129C14.1771 20.3749 14.1706 20.4384 14.1749 20.5012C14.2634 21.7965 14.6928 22.9255 15.6657 23.7588C16.665 24.6156 17.9397 24.757 19.0746 24.0053C19.9569 23.4208 20.469 22.5519 20.7337 21.5129C20.9598 20.6274 20.8842 19.717 20.8671 18.8133C20.8663 18.7793 20.84 18.746 20.8093 18.6765C18.9718 18.8489 17.4004 18.2023 16.0944 16.7981ZM16.772 29.2578C16.725 29.3334 16.695 29.3871 16.6593 29.4363C16.4475 29.7319 16.2506 29.7297 16.0388 29.428C15.9753 29.3372 15.9182 29.2412 15.859 29.1474C15.3369 28.3232 14.8119 27.5012 14.2962 26.6716C14.1942 26.5068 14.0815 26.413 13.891 26.4425C13.809 26.4554 13.7248 26.4501 13.6428 26.4614C11.7925 26.7125 10.3253 28.4298 10.2932 30.4019C10.2782 31.3192 10.2925 32.2372 10.2967 33.1544C10.2975 33.2497 10.3196 33.3442 10.3331 33.4448C10.9744 33.4448 11.5878 33.4448 12.2362 33.4448C12.2448 33.2959 12.2597 33.162 12.2597 33.0282C12.2597 32.3869 12.2547 31.7457 12.2547 31.1052C12.2547 30.9933 12.2576 30.8761 12.2883 30.7709C12.3311 30.6242 12.443 30.5547 12.5893 30.5554C12.7241 30.5562 12.8218 30.6273 12.861 30.7566C12.8931 30.8617 12.9045 30.9774 12.9053 31.0878C12.9117 31.7411 12.9103 32.3952 12.916 33.0486C12.9167 33.1802 12.9338 33.311 12.9424 33.4282C14.1236 33.4282 15.257 33.4282 16.3947 33.4282C16.4168 33.3397 16.4375 33.2807 16.4461 33.2202C16.5288 32.6236 16.6108 32.0277 16.69 31.4303C16.767 30.8458 16.8427 30.2605 16.914 29.6752C16.9318 29.5323 16.9668 29.3743 16.772 29.2578ZM24.8487 33.379C24.8551 33.2596 24.8622 33.1983 24.8615 33.1363C24.8544 32.2175 24.8408 31.2995 24.8408 30.3807C24.8408 28.4426 23.3286 26.5514 21.2515 26.4077C21.0176 26.3919 20.8763 26.4675 20.7565 26.6754C20.4847 27.148 20.1951 27.6086 19.912 28.0736C19.6352 28.5281 19.3634 28.9863 19.076 29.4332C18.887 29.7266 18.6922 29.7214 18.4782 29.4438C18.4319 29.3833 18.3791 29.3289 18.2664 29.1988C18.2664 29.4128 18.2543 29.5331 18.2685 29.6495C18.4083 30.7967 18.5517 31.9438 18.6972 33.0902C18.7393 33.4229 18.755 33.4342 19.0817 33.4327C20.0204 33.4274 20.9584 33.4214 21.8971 33.4115C22.0098 33.41 22.1225 33.3866 22.2537 33.3707C22.2537 33.2044 22.2537 33.0796 22.2537 32.9556C22.2516 32.3264 22.2487 31.6973 22.2487 31.0681C22.2487 30.9555 22.2494 30.839 22.2758 30.7316C22.3122 30.5842 22.4228 30.4995 22.5654 30.4964C22.7116 30.4934 22.8165 30.5857 22.8557 30.7294C22.8843 30.836 22.8835 30.9532 22.8843 31.0659C22.8907 31.7079 22.8921 32.3491 22.8978 32.9911C22.8992 33.1121 22.9121 33.2338 22.9214 33.3783C23.574 33.379 24.196 33.379 24.8487 33.379ZM14.1828 18.6077C14.2798 18.5351 14.3226 18.5124 14.3547 18.4776C14.7227 18.0798 15.0344 17.636 15.2484 17.127C15.3968 16.7732 15.4995 16.3973 15.6286 16.0344C15.7392 15.7243 15.9496 15.6805 16.1693 15.9171C16.2356 15.989 16.292 16.0707 16.354 16.147C17.2713 17.2753 18.434 17.912 19.8285 18.0617C20.1531 18.0965 20.484 18.067 20.8257 18.067C20.8385 17.9309 20.8556 17.8462 20.8535 17.7622C20.8421 17.3146 20.7301 16.8904 20.5233 16.5039C20.0646 15.6464 19.4119 15.1201 18.4304 15.1511C17.7664 15.1715 17.1016 15.1587 16.4368 15.1594C16.0331 15.1594 15.6629 15.2819 15.3369 15.5285C14.349 16.271 14.0986 17.3289 14.1828 18.6077ZM17.1722 27.1186C16.4346 26.5113 15.7378 25.9374 15.0031 25.3324C14.9246 25.5389 14.8718 25.7015 14.8019 25.855C14.7085 26.0591 14.7406 26.2293 14.8604 26.4138C15.2969 27.0838 15.7206 27.7628 16.1515 28.4373C16.195 28.5054 16.2513 28.5644 16.3376 28.6725C16.6536 28.1621 16.8862 27.6502 17.1722 27.1186ZM20.0218 25.3241C19.3299 25.9192 18.6451 26.5091 17.939 27.1163C18.2279 27.6411 18.464 28.1568 18.7964 28.6521C18.8684 28.553 18.9226 28.4895 18.9661 28.4177C19.3342 27.8165 19.7015 27.2153 20.0675 26.6119C20.4534 25.976 20.4419 26.1832 20.1267 25.43C20.1174 25.4096 20.0938 25.396 20.0218 25.3241ZM15.6743 24.5543C15.578 24.8916 15.645 25.1041 15.9047 25.2893C16.2677 25.548 16.6001 25.855 16.9468 26.1393C17.1415 26.2988 17.3384 26.4561 17.5246 26.6059C17.5866 26.5794 17.6244 26.5733 17.6508 26.5514C18.1779 26.1022 18.7001 25.6485 19.23 25.2039C19.4348 25.0322 19.4205 24.8341 19.347 24.574C18.1116 25.3014 16.8904 25.2742 15.6743 24.5543ZM18.1202 33.4486C17.9675 32.2281 17.8206 31.0515 17.6701 29.8764C17.6651 29.837 17.6223 29.8038 17.5431 29.6903C17.3741 30.9872 17.1922 32.1979 17.0652 33.4486C17.4233 33.4486 17.7364 33.4486 18.1202 33.4486ZM17.7492 28.0018C17.6487 27.877 17.6023 27.8195 17.5367 27.7379C17.4882 27.8407 17.4561 27.9095 17.4119 28.0018C17.5196 28.0018 17.5938 28.0018 17.7492 28.0018ZM17.7521 28.9054C17.6594 28.8593 17.5995 28.8041 17.5488 28.8132C17.5024 28.8215 17.4668 28.8986 17.4268 28.9447C17.4832 28.975 17.5381 29.0242 17.5959 29.0272C17.6351 29.0302 17.6772 28.9674 17.7521 28.9054Z" fill="black"/>
<path d="M26.3678 22.6419C26.3571 22.4476 26.4855 22.3455 26.6003 22.2366C27.0783 21.7844 27.5569 21.3329 28.0355 20.8807C28.5491 20.3953 29.0626 19.9098 29.5776 19.4258C29.6754 19.3343 29.7717 19.2383 29.8815 19.165C30.0327 19.0629 30.2004 19.0886 30.3045 19.2065C30.4186 19.3359 30.4215 19.531 30.3066 19.689C30.271 19.7381 30.2253 19.7805 30.1811 19.8221C29.2666 20.6819 28.3522 21.5409 27.4378 22.3999C27.3843 22.4498 27.3379 22.5096 27.2787 22.5512C27.1004 22.6759 27.0897 22.837 27.1396 23.0434C27.355 23.9305 27.5583 24.8212 27.7673 25.7098C27.8422 26.0259 27.9221 26.3404 27.9984 26.6565C28.0098 26.7049 28.0184 26.7548 28.0219 26.8047C28.0405 27.0437 27.9499 27.1972 27.7694 27.2373C27.5875 27.2773 27.4349 27.1783 27.375 26.9522C27.2723 26.5658 27.1817 26.1756 27.089 25.7861C26.8664 24.8492 26.6446 23.9123 26.4242 22.9746C26.3985 22.8665 26.3864 22.7531 26.3678 22.6419Z" fill="black"/>
<path d="M8.93932 22.7591C8.85158 23.1501 8.7667 23.5418 8.67611 23.932C8.45499 24.8825 8.23173 25.833 8.00775 26.7828C7.98208 26.8925 7.95568 27.0036 7.91431 27.1072C7.84655 27.2781 7.68606 27.3757 7.54982 27.3462C7.39289 27.3121 7.27591 27.1473 7.28305 26.9537C7.28661 26.8675 7.30873 26.7805 7.3287 26.6958C7.59832 25.551 7.86367 24.4046 8.14328 23.262C8.21604 22.9641 8.17467 22.7614 7.93714 22.5459C7.0177 21.7111 6.12038 20.849 5.2152 19.996C5.13532 19.9212 5.04972 19.8493 4.9841 19.7616C4.88352 19.6278 4.89351 19.4251 4.99052 19.3071C5.08967 19.1861 5.26585 19.1544 5.4135 19.2474C5.50409 19.3049 5.58326 19.3835 5.66315 19.4591C6.68317 20.421 7.70175 21.3844 8.72319 22.3447C8.84302 22.4582 8.95002 22.5693 8.93932 22.7591Z" fill="black"/>
<path d="M6.27588 31.2345C6.28872 31.1483 6.29656 31.047 6.31939 30.9502C6.45278 30.3777 6.5883 29.8061 6.72525 29.2344C6.74594 29.1497 6.76663 29.062 6.803 28.9841C6.87647 28.826 7.04624 28.7474 7.18818 28.7943C7.3394 28.8434 7.44711 28.9924 7.43142 29.1633C7.42 29.2866 7.38077 29.4075 7.35224 29.5293C7.21814 30.1017 7.08333 30.6734 6.94709 31.2451C6.93282 31.3048 6.91713 31.3668 6.8886 31.4205C6.80443 31.5801 6.65535 31.6443 6.49629 31.5944C6.33437 31.5438 6.28159 31.4122 6.27588 31.2345Z" fill="black"/>
<path d="M29.0334 31.1483C29.0241 31.3245 28.9613 31.45 28.803 31.5014C28.6446 31.5536 28.492 31.4961 28.4178 31.3252C28.355 31.1793 28.3194 31.0182 28.2823 30.8609C28.1517 30.315 28.0233 29.7675 27.9007 29.2192C27.88 29.1255 27.8614 29.0022 27.9021 28.9304C27.9556 28.8343 28.0619 28.7285 28.1574 28.7141C28.2537 28.699 28.3736 28.7761 28.4649 28.8411C28.5141 28.8767 28.5348 28.9705 28.5519 29.0423C28.7074 29.6979 28.8593 30.355 29.0113 31.0122C29.022 31.0598 29.0277 31.1097 29.0334 31.1483Z" fill="black"/>
<path d="M22.0634 12.6415C22.2268 12.6415 22.3794 12.64 22.5321 12.6415C26.0957 12.6778 29.6593 12.7141 33.2229 12.7511C33.2943 12.7519 33.3677 12.7443 33.4362 12.7617C33.6859 12.823 33.7843 13.099 33.6295 13.3183C33.5596 13.4173 33.464 13.4975 33.3763 13.5814C30.6644 16.1623 27.9531 18.7447 25.2348 21.318C25.0393 21.5025 24.9815 21.6756 25.045 21.9365C25.6499 24.4297 26.2505 26.9236 26.8497 29.4175C27.1328 30.5979 27.4067 31.7813 27.6921 32.961C27.737 33.1463 27.7541 33.3149 27.5986 33.4397C27.4467 33.5614 27.2833 33.5115 27.1278 33.4298C26.5116 33.1062 25.896 32.7818 25.2797 32.4596C25.1556 32.3946 25.0279 32.3386 24.8482 32.2524C24.8417 32.5133 24.8375 32.7213 24.8317 32.9292C24.8225 33.2514 24.7276 33.3565 24.4287 33.3708C24.2982 33.3769 24.1677 33.3754 24.0364 33.3761C19.2131 33.3928 14.3898 33.4102 9.56723 33.4268C9.4959 33.4268 9.42386 33.4329 9.35396 33.4238C9.1414 33.395 9.06579 33.3141 9.05224 33.082C9.03868 32.8491 9.0394 32.6147 9.03298 32.3228C8.87534 32.3961 8.76977 32.44 8.6692 32.4937C8.05505 32.8211 7.44233 33.1516 6.82889 33.4805C6.76541 33.5145 6.70407 33.5561 6.63702 33.5796C6.31746 33.6884 6.08208 33.4654 6.16339 33.1205C6.26325 32.6941 6.38023 32.2721 6.48723 31.8471C6.92804 30.1003 7.36672 28.352 7.80896 26.6052C8.18344 25.1254 8.5622 23.6463 8.93882 22.1672C8.95451 22.1067 8.96022 22.0416 8.98376 21.9849C9.08219 21.7558 9.02228 21.597 8.83896 21.4344C8.11782 20.7985 7.40952 20.1466 6.69694 19.5001C4.97433 17.9371 3.25243 16.374 1.52983 14.8117C1.14179 14.4601 0.751622 14.1107 0.363589 13.7599C0.273714 13.6782 0.178132 13.5996 0.101097 13.5058C-0.0857867 13.2774 -0.00518452 13.0014 0.273714 12.9258C0.387128 12.8948 0.509101 12.8955 0.627508 12.8933C2.07621 12.8706 3.52563 12.8532 4.97433 12.8275C7.07641 12.7897 9.17849 12.7413 11.2806 12.7118C11.5652 12.708 11.6978 12.5976 11.802 12.3246C12.7336 9.89197 13.678 7.46536 14.6188 5.03725C15.2265 3.46891 15.835 1.90058 16.4405 0.330731C16.5076 0.157564 16.5853 0.00708266 16.7836 0.000276967C16.9969 -0.00728491 17.0875 0.140928 17.1631 0.330731C17.8999 2.19625 18.6411 4.05949 19.3822 5.9235C20.2196 8.02948 21.0584 10.1355 21.8972 12.2407C21.9458 12.3655 22 12.4895 22.0634 12.6415ZM16.7929 1.3652C16.5846 1.90965 16.4092 2.37546 16.2294 2.83976C14.9212 6.21085 13.6123 9.58118 12.3041 12.9523C12.1308 13.3984 12.0816 13.4324 11.6144 13.4408C8.31326 13.4997 5.01213 13.5595 1.711 13.6207C1.61043 13.6222 1.51057 13.6396 1.40999 13.6502C1.39644 13.679 1.38217 13.7085 1.36862 13.7372C1.43639 13.7856 1.50914 13.8272 1.5712 13.8831C2.03341 14.2968 2.49491 14.7127 2.95499 15.1293C4.71326 16.7249 6.47082 18.3212 8.22838 19.9175C8.67918 20.3266 9.12856 20.738 9.5815 21.1448C9.77195 21.3157 9.85327 21.4972 9.75554 21.7724C9.65212 22.0651 9.60219 22.3781 9.52515 22.6814C8.72269 25.8483 7.91881 29.016 7.11778 32.1836C7.09638 32.2683 7.10637 32.3621 7.09781 32.5088C7.72337 32.1738 8.29258 31.8675 8.8625 31.5636C8.99232 31.4947 9.00159 31.3722 9.00088 31.2429C9.00016 30.9662 8.98875 30.6886 8.99945 30.4126C9.018 29.9234 9.00016 29.4251 9.08291 28.9471C9.46095 26.7739 11.1914 25.3227 12.8655 25.1125C13.0966 25.0838 13.3819 25.0951 13.5367 24.9567C13.6958 24.8138 13.7436 24.5151 13.8092 24.2747C13.8919 23.9729 14.0139 23.74 14.3456 23.7642C14.4077 23.4844 14.3299 23.2909 14.1616 23.095C13.3341 22.1324 12.9511 20.9762 12.9126 19.6891C12.8898 18.9224 12.9005 18.1541 12.9005 17.3865C12.8997 16.7748 13.0003 16.1804 13.2657 15.6345C13.7907 14.5531 14.5781 13.8567 15.7765 13.8249C16.5126 13.8052 17.2494 13.8052 17.9855 13.8158C18.6532 13.8257 19.2338 14.0805 19.7253 14.5652C20.4621 15.2927 20.8116 16.2016 20.8366 17.2519C20.8551 18.0316 20.848 18.812 20.8437 19.5923C20.8359 20.9558 20.4264 22.1588 19.5434 23.1638C19.39 23.3385 19.3294 23.5139 19.4143 23.7733C19.7139 23.7083 19.8251 23.9276 19.9193 24.1741C19.9856 24.3488 20.0705 24.5166 20.1297 24.6936C20.2103 24.9371 20.3465 25.0278 20.6033 25.0407C22.9144 25.1534 24.821 27.2661 24.8417 29.7169C24.8453 30.1828 24.8567 30.6486 24.8403 31.1136C24.8325 31.3375 24.9088 31.4562 25.0942 31.5492C25.5985 31.8018 26.095 32.0717 26.5957 32.3311C26.6506 32.3591 26.7177 32.3613 26.8097 32.3825C26.7883 32.257 26.7798 32.1715 26.7598 32.0891C26.4531 30.8104 26.1435 29.5332 25.8375 28.2545C25.3211 26.0986 24.8096 23.9412 24.2861 21.7876C24.209 21.47 24.2568 21.2439 24.4958 21.0208C25.5301 20.0574 26.5508 19.0774 27.5765 18.1042C29.1329 16.6266 30.6893 15.1497 32.2443 13.6699C32.2871 13.6291 32.3049 13.558 32.3613 13.4506C31.2279 13.4506 30.1479 13.4581 29.068 13.4491C26.7284 13.4302 24.3888 13.3992 22.0485 13.3848C21.7204 13.3825 21.5242 13.2744 21.4044 12.9311C21.2068 12.3662 20.9614 11.8202 20.741 11.2645C19.4778 8.07787 18.2166 4.8913 16.9534 1.70472C16.9185 1.61247 16.8707 1.52702 16.7929 1.3652ZM15.4462 16.1018C15.3927 16.1524 15.3685 16.1653 15.3585 16.1857C15.3264 16.2523 15.2971 16.3211 15.27 16.3899C14.9833 17.1181 14.6088 17.8032 14.0268 18.2917C13.5881 18.66 13.4497 19.0713 13.521 19.6165C13.5289 19.6786 13.5225 19.7421 13.5267 19.8048C13.6152 21.1002 14.0446 22.2292 15.0175 23.0625C16.0168 23.9193 17.2915 24.0607 18.4264 23.309C19.3087 22.7245 19.8208 21.8556 20.0855 20.8166C20.3116 19.9311 20.236 19.0207 20.2189 18.117C20.2182 18.083 20.1918 18.0497 20.1611 17.9802C18.3236 18.1526 16.7523 17.506 15.4462 16.1018ZM16.1238 28.5615C16.0768 28.6371 16.0468 28.6908 16.0111 28.74C15.7993 29.0356 15.6024 29.0334 15.3906 28.7316C15.3271 28.6409 15.27 28.5449 15.2108 28.4511C14.6887 27.6268 14.1637 26.8049 13.648 25.9753C13.546 25.8105 13.4333 25.7167 13.2428 25.7462C13.1608 25.7591 13.0766 25.7538 12.9946 25.7651C11.1443 26.0162 9.67708 27.7335 9.64498 29.7056C9.63 30.6229 9.64427 31.5409 9.64855 32.4581C9.64926 32.5534 9.67138 32.6479 9.68493 32.7485C10.3262 32.7485 10.9396 32.7485 11.588 32.7485C11.5966 32.5995 11.6115 32.4657 11.6115 32.3318C11.6115 31.6906 11.6065 31.0493 11.6065 30.4089C11.6065 30.2969 11.6094 30.1797 11.6401 30.0746C11.6829 29.9279 11.7949 29.8584 11.9411 29.8591C12.0759 29.8599 12.1736 29.9309 12.2128 30.0603C12.2449 30.1654 12.2564 30.2811 12.2571 30.3915C12.2635 31.0448 12.2621 31.6989 12.2678 32.3523C12.2685 32.4838 12.2856 32.6147 12.2942 32.7319C13.4754 32.7319 14.6088 32.7319 15.7465 32.7319C15.7686 32.6434 15.7893 32.5844 15.7979 32.5239C15.8806 31.9273 15.9626 31.3314 16.0418 30.734C16.1188 30.1495 16.1945 29.5642 16.2658 28.9789C16.2836 28.836 16.3186 28.6779 16.1238 28.5615ZM24.2005 32.6827C24.2069 32.5632 24.214 32.502 24.2133 32.44C24.2062 31.5212 24.1926 30.6032 24.1926 29.6844C24.1926 27.7463 22.6804 25.8551 20.6033 25.7114C20.3694 25.6955 20.2281 25.7712 20.1083 25.9791C19.8365 26.4517 19.5469 26.9122 19.2638 27.3773C18.987 27.8318 18.7152 28.29 18.4278 28.7369C18.2388 29.0303 18.044 29.025 17.83 28.7475C17.7837 28.687 17.7309 28.6326 17.6182 28.5025C17.6182 28.7165 17.6061 28.8367 17.6203 28.9532C17.7601 30.1003 17.9035 31.2475 18.049 32.3939C18.0911 32.7266 18.1068 32.7379 18.4335 32.7364C19.3722 32.7311 20.3102 32.7251 21.2489 32.7152C21.3616 32.7137 21.4743 32.6903 21.6055 32.6744C21.6055 32.508 21.6055 32.3833 21.6055 32.2592C21.6034 31.6301 21.6005 31.001 21.6005 30.3718C21.6005 30.2591 21.6012 30.1427 21.6276 30.0353C21.664 29.8878 21.7746 29.8032 21.9172 29.8001C22.0634 29.7971 22.1683 29.8894 22.2075 30.033C22.2361 30.1397 22.2354 30.2569 22.2361 30.3695C22.2425 31.0115 22.2439 31.6528 22.2496 32.2948C22.251 32.4158 22.2639 32.5375 22.2732 32.682C22.9258 32.6827 23.5478 32.6827 24.2005 32.6827ZM13.5346 17.9113C13.6316 17.8387 13.6744 17.8161 13.7065 17.7813C14.0745 17.3835 14.3863 16.9396 14.6002 16.4307C14.7486 16.0768 14.8513 15.701 14.9804 15.338C15.091 15.028 15.3014 14.9841 15.5211 15.2208C15.5874 15.2927 15.6438 15.3743 15.7059 15.4507C16.6231 16.5789 17.7858 17.2157 19.1803 17.3654C19.5049 17.4002 19.8358 17.3707 20.1775 17.3707C20.1903 17.2346 20.2075 17.1499 20.2053 17.0659C20.1939 16.6183 20.0819 16.194 19.8751 15.8076C19.4164 14.9501 18.7637 14.4238 17.7823 14.4548C17.1182 14.4752 16.4534 14.4624 15.7886 14.4631C15.3849 14.4631 15.0147 14.5856 14.6887 14.8321C13.7008 15.5747 13.4504 16.6326 13.5346 17.9113ZM16.524 26.4222C15.7865 25.815 15.0896 25.2411 14.3549 24.6361C14.2764 24.8426 14.2236 25.0051 14.1537 25.1586C14.0603 25.3628 14.0924 25.533 14.2122 25.7175C14.6487 26.3875 15.0724 27.0665 15.5033 27.741C15.5468 27.8091 15.6031 27.8681 15.6894 27.9762C16.0054 27.4658 16.238 26.9538 16.524 26.4222ZM19.3736 24.6278C18.6817 25.2229 17.997 25.8127 17.2908 26.42C17.5797 26.9448 17.8158 27.4605 18.1482 27.9558C18.2202 27.8567 18.2744 27.7932 18.3179 27.7214C18.686 27.1202 19.0533 26.519 19.4193 25.9156C19.8052 25.2796 19.7937 25.4868 19.4785 24.7337C19.4692 24.7133 19.4457 24.6996 19.3736 24.6278ZM15.0261 23.858C14.9298 24.1953 14.9968 24.4078 15.2565 24.593C15.6195 24.8516 15.9519 25.1586 16.2986 25.443C16.4933 25.6025 16.6902 25.7598 16.8764 25.9095C16.9384 25.8831 16.9762 25.877 17.0026 25.8551C17.5297 25.4059 18.0519 24.9522 18.5819 24.5076C18.7866 24.3359 18.7723 24.1378 18.6988 23.8777C17.4634 24.6051 16.2422 24.5779 15.0261 23.858ZM17.472 32.7523C17.3193 31.5318 17.1724 30.3552 17.0219 29.1801C17.0169 29.1407 16.9741 29.1075 16.8949 28.994C16.7259 30.2909 16.544 31.5015 16.417 32.7523C16.7751 32.7523 17.0882 32.7523 17.472 32.7523ZM17.1011 27.3055C17.0005 27.1807 16.9541 27.1232 16.8885 27.0416C16.84 27.1444 16.8079 27.2132 16.7637 27.3055C16.8714 27.3055 16.9456 27.3055 17.1011 27.3055ZM17.1039 28.2091C17.0112 28.163 16.9513 28.1078 16.9006 28.1169C16.8543 28.1252 16.8186 28.2023 16.7786 28.2484C16.835 28.2787 16.8899 28.3278 16.9477 28.3309C16.9869 28.3339 17.029 28.2711 17.1039 28.2091Z" fill="white"/>
<path d="M25.7196 21.9456C25.7089 21.7513 25.8373 21.6492 25.9522 21.5403C26.4301 21.0881 26.9087 20.6366 27.3873 20.1844C27.9009 19.699 28.4145 19.2135 28.9295 18.7295C29.0272 18.638 29.1235 18.542 29.2333 18.4686C29.3845 18.3665 29.5522 18.3923 29.6563 18.5102C29.7704 18.6395 29.7733 18.8346 29.6584 18.9927C29.6228 19.0418 29.5771 19.0842 29.5329 19.1258C28.6185 19.9855 27.704 20.8446 26.7896 21.7036C26.7361 21.7535 26.6897 21.8133 26.6305 21.8548C26.4522 21.9796 26.4415 22.1407 26.4914 22.3471C26.7068 23.2341 26.9101 24.1249 27.1191 25.0134C27.194 25.3295 27.2739 25.6441 27.3502 25.9602C27.3616 26.0086 27.3702 26.0585 27.3738 26.1084C27.3923 26.3474 27.3017 26.5009 27.1212 26.5409C26.9394 26.581 26.7867 26.482 26.7268 26.2559C26.6241 25.8694 26.5335 25.4793 26.4408 25.0898C26.2182 24.1529 25.9964 23.216 25.776 22.2783C25.7503 22.1702 25.7382 22.0568 25.7196 21.9456Z" fill="white"/>
<path d="M8.29112 22.0628C8.20339 22.4538 8.11851 22.8455 8.02792 23.2357C7.8068 24.1862 7.58353 25.1367 7.35956 26.0865C7.33388 26.1961 7.30749 26.3073 7.26612 26.4109C7.19836 26.5818 7.03786 26.6793 6.90163 26.6498C6.7447 26.6158 6.62772 26.451 6.63485 26.2574C6.63842 26.1712 6.66053 26.0842 6.6805 25.9995C6.95013 24.8547 7.21548 23.7083 7.49509 22.5657C7.56784 22.2677 7.52647 22.0651 7.28894 21.8496C6.36951 21.0147 5.47218 20.1527 4.56701 19.2997C4.48712 19.2248 4.40153 19.153 4.3359 19.0653C4.23533 18.9314 4.24532 18.7288 4.34232 18.6108C4.44147 18.4898 4.61766 18.4581 4.76531 18.5511C4.8559 18.6085 4.93507 18.6872 5.01496 18.7628C6.03497 19.7247 7.05356 20.6881 8.075 21.6484C8.19483 21.7619 8.30182 21.873 8.29112 22.0628Z" fill="white"/>
<path d="M5.62769 30.5381C5.64052 30.4519 5.64837 30.3506 5.6712 30.2538C5.80458 29.6814 5.94011 29.1097 6.07706 28.538C6.09775 28.4533 6.11843 28.3656 6.15481 28.2877C6.22828 28.1297 6.39804 28.051 6.53999 28.0979C6.69121 28.1471 6.79892 28.296 6.78322 28.4669C6.77181 28.5902 6.73258 28.7112 6.70405 28.8329C6.56995 29.4054 6.43514 29.977 6.2989 30.5487C6.28463 30.6085 6.26894 30.6705 6.24041 30.7242C6.15624 30.8837 6.00716 30.948 5.84809 30.8981C5.68618 30.8474 5.63339 30.7158 5.62769 30.5381Z" fill="white"/>
<path d="M28.3852 30.452C28.3759 30.6282 28.3131 30.7537 28.1548 30.8051C27.9964 30.8573 27.8438 30.7998 27.7696 30.6289C27.7068 30.483 27.6712 30.3219 27.6341 30.1646C27.5035 29.6186 27.3751 29.0712 27.2525 28.5229C27.2318 28.4292 27.2132 28.3059 27.2539 28.2341C27.3074 28.138 27.4137 28.0322 27.5092 28.0178C27.6055 28.0027 27.7254 28.0798 27.8167 28.1448C27.8659 28.1804 27.8866 28.2741 27.9037 28.346C28.0592 29.0016 28.2111 29.6587 28.3631 30.3158C28.3738 30.3635 28.3795 30.4134 28.3852 30.452Z" fill="white"/>
</svg>
