<svg width="21" height="22" viewBox="0 0 21 22" fill="none" xmlns="http://www.w3.org/2000/svg">
<path fill-rule="evenodd" clip-rule="evenodd" d="M10.1562 0.359985C4.63552 0.359985 0.160156 4.73651 0.160156 10.1352C0.160156 15.5339 4.63552 19.9104 10.1562 19.9104C12.5173 19.9104 14.6873 19.1099 16.3977 17.7712L19.6467 20.9402L19.7331 21.013C20.0348 21.2313 20.4624 21.2064 20.7354 20.9388C21.0356 20.6444 21.035 20.1678 20.734 19.8741L17.5231 16.7424C19.1557 15.0025 20.1522 12.6827 20.1522 10.1352C20.1522 4.73651 15.6768 0.359985 10.1562 0.359985ZM10.1562 1.86563C14.8265 1.86563 18.6125 5.56805 18.6125 10.1352C18.6125 14.7024 14.8265 18.4048 10.1562 18.4048C5.48585 18.4048 1.69981 14.7024 1.69981 10.1352C1.69981 5.56805 5.48585 1.86563 10.1562 1.86563Z" fill="white"/>
</svg>
