<svg width="17" height="15" viewBox="0 0 17 15" fill="none" xmlns="http://www.w3.org/2000/svg">
<path d="M15.393 5.20098H10.139L8.53902 0.436982C8.49796 0.326051 8.42391 0.230355 8.32684 0.162772C8.22976 0.0951889 8.11431 0.05896 7.99602 0.05896C7.87774 0.05896 7.76229 0.0951889 7.66521 0.162772C7.56813 0.230355 7.49408 0.326051 7.45302 0.436982L5.85302 5.20098H0.571023C0.419747 5.20151 0.274817 5.26184 0.167847 5.36881C0.0608782 5.47578 0.000550228 5.62071 2.3128e-05 5.77198C-0.000330058 5.80564 0.00336301 5.83921 0.011023 5.87198C0.019087 5.9521 0.0446778 6.02947 0.0859809 6.0986C0.127284 6.16772 0.183288 6.22692 0.250023 6.27198L4.56802 9.31498L2.91102 14.133C2.87222 14.2476 2.87068 14.3715 2.9066 14.487C2.94253 14.6025 3.01409 14.7036 3.11102 14.776C3.20016 14.8558 3.3128 14.9046 3.43202 14.915C3.56063 14.9057 3.68418 14.861 3.78902 14.786L8.00302 11.786L12.217 14.786C12.3211 14.8625 12.4451 14.9074 12.574 14.915C12.693 14.907 12.8054 14.8579 12.892 14.776C12.9898 14.7044 13.062 14.6032 13.098 14.4875C13.1341 14.3717 13.1319 14.2474 13.092 14.133L11.435 9.31498L15.717 6.24398L15.817 6.15498C15.9048 6.07843 15.9659 5.9758 15.9912 5.86209C16.0165 5.74839 16.0048 5.62956 15.9577 5.52299C15.9107 5.41641 15.8308 5.32767 15.7298 5.26974C15.6287 5.21181 15.5118 5.18771 15.396 5.20098H15.393Z" fill="#F3BB20"/>
</svg>
