<svg width="35" height="35" viewBox="0 0 35 35" fill="none" xmlns="http://www.w3.org/2000/svg">
<path d="M18.1732 6.39424C17.5038 6.39424 16.8618 6.66016 16.3884 7.13351C15.9151 7.60686 15.6492 8.24886 15.6492 8.91828C15.6492 9.5877 15.9151 10.2297 16.3884 10.703C16.8618 11.1764 17.5038 11.4423 18.1732 11.4423C18.8426 11.4423 19.4846 11.1764 19.958 10.703C20.4313 10.2297 20.6972 9.5877 20.6972 8.91828C20.6972 8.24886 20.4313 7.60686 19.958 7.13351C19.4846 6.66016 18.8426 6.39424 18.1732 6.39424ZM13.9665 8.91828C13.9665 7.80258 14.4097 6.73259 15.1986 5.94367C15.9875 5.15476 17.0575 4.71155 18.1732 4.71155C19.2889 4.71155 20.3589 5.15476 21.1478 5.94367C21.9367 6.73259 22.3799 7.80258 22.3799 8.91828C22.3799 10.034 21.9367 11.104 21.1478 11.8929C20.3589 12.6818 19.2889 13.125 18.1732 13.125C17.0575 13.125 15.9875 12.6818 15.1986 11.8929C14.4097 11.104 13.9665 10.034 13.9665 8.91828ZM27.428 8.07693C26.9817 8.07693 26.5537 8.25422 26.2382 8.56978C25.9226 8.88535 25.7453 9.31335 25.7453 9.75962C25.7453 10.2059 25.9226 10.6339 26.2382 10.9495C26.5537 11.265 26.9817 11.4423 27.428 11.4423C27.8743 11.4423 28.3023 11.265 28.6179 10.9495C28.9334 10.6339 29.1107 10.2059 29.1107 9.75962C29.1107 9.31335 28.9334 8.88535 28.6179 8.56978C28.3023 8.25422 27.8743 8.07693 27.428 8.07693ZM24.0626 9.75962C24.0626 8.86707 24.4172 8.01107 25.0483 7.37994C25.6795 6.74881 26.5355 6.39424 27.428 6.39424C28.3206 6.39424 29.1766 6.74881 29.8077 7.37994C30.4388 8.01107 30.7934 8.86707 30.7934 9.75962C30.7934 10.6522 30.4388 11.5082 29.8077 12.1393C29.1766 12.7704 28.3206 13.125 27.428 13.125C26.5355 13.125 25.6795 12.7704 25.0483 12.1393C24.4172 11.5082 24.0626 10.6522 24.0626 9.75962ZM7.23571 9.75962C7.23571 9.31335 7.41299 8.88535 7.72856 8.56978C8.04412 8.25422 8.47212 8.07693 8.9184 8.07693C9.36468 8.07693 9.79268 8.25422 10.1082 8.56978C10.4238 8.88535 10.6011 9.31335 10.6011 9.75962C10.6011 10.2059 10.4238 10.6339 10.1082 10.9495C9.79268 11.265 9.36468 11.4423 8.9184 11.4423C8.47212 11.4423 8.04412 11.265 7.72856 10.9495C7.41299 10.6339 7.23571 10.2059 7.23571 9.75962ZM8.9184 6.39424C8.02585 6.39424 7.16985 6.74881 6.53871 7.37994C5.90758 8.01107 5.55302 8.86707 5.55302 9.75962C5.55302 10.6522 5.90758 11.5082 6.53871 12.1393C7.16985 12.7704 8.02585 13.125 8.9184 13.125C9.81096 13.125 10.667 12.7704 11.2981 12.1393C11.9292 11.5082 12.2838 10.6522 12.2838 9.75962C12.2838 8.86707 11.9292 8.01107 11.2981 7.37994C10.667 6.74881 9.81096 6.39424 8.9184 6.39424ZM9.92802 26.5832C9.4724 26.606 9.0169 26.5359 8.58919 26.3773C8.16149 26.2186 7.77051 25.9746 7.44001 25.6602C7.10951 25.3457 6.84639 24.9674 6.66664 24.5481C6.48688 24.1288 6.39425 23.6774 6.39436 23.2212V16.9111C6.39436 16.7995 6.43868 16.6925 6.51757 16.6136C6.59647 16.5347 6.70347 16.4904 6.81504 16.4904H9.7833C9.85061 15.8728 10.0694 15.299 10.3975 14.8077H6.81504C5.65398 14.8077 4.71167 15.75 4.71167 16.9111V23.2212C4.71159 23.9416 4.8657 24.6536 5.16364 25.3095C5.46159 25.9654 5.89646 26.5499 6.43905 27.0238C6.98163 27.4977 7.61936 27.85 8.30938 28.0569C8.9994 28.2639 9.72572 28.3208 10.4396 28.2238C10.2131 27.696 10.0417 27.1462 9.92802 26.5832ZM25.9069 28.2238C26.6207 28.3208 27.347 28.2639 28.037 28.0569C28.7271 27.85 29.3648 27.4977 29.9074 27.0238C30.45 26.5499 30.8848 25.9654 31.1828 25.3095C31.4807 24.6536 31.6348 23.9416 31.6347 23.2212V16.9111C31.6347 15.75 30.6924 14.8077 29.5314 14.8077H25.9489C26.2787 15.299 26.4958 15.8728 26.5631 16.4904H29.5314C29.643 16.4904 29.75 16.5347 29.8288 16.6136C29.9077 16.6925 29.9521 16.7995 29.9521 16.9111V23.2212C29.9522 23.6774 29.8595 24.1288 29.6798 24.5481C29.5 24.9674 29.2369 25.3457 28.9064 25.6602C28.5759 25.9746 28.1849 26.2186 27.7572 26.3773C27.3295 26.5359 26.874 26.606 26.4184 26.5832C26.3047 27.1462 26.1333 27.696 25.9069 28.2238ZM13.5458 14.8077C12.3847 14.8077 11.4424 15.75 11.4424 16.9111V24.9039C11.4424 26.689 12.1516 28.401 13.4138 29.6632C14.6761 30.9255 16.3881 31.6346 18.1732 31.6346C19.9583 31.6346 21.6703 30.9255 22.9326 29.6632C24.1948 28.401 24.904 26.689 24.904 24.9039V16.9111C24.904 15.75 23.9617 14.8077 22.8006 14.8077H13.5458ZM13.1251 16.9111C13.1251 16.7995 13.1695 16.6925 13.2483 16.6136C13.3272 16.5347 13.4342 16.4904 13.5458 16.4904H22.8006C22.9122 16.4904 23.0192 16.5347 23.0981 16.6136C23.177 16.6925 23.2213 16.7995 23.2213 16.9111V24.9039C23.2213 26.2427 22.6894 27.5267 21.7427 28.4734C20.796 29.4201 19.512 29.9519 18.1732 29.9519C16.8344 29.9519 15.5504 29.4201 14.6037 28.4734C13.657 27.5267 13.1251 26.2427 13.1251 24.9039V16.9111Z" fill="#FF9D42"/>
<path d="M17.5001 5.72114C16.8307 5.72114 16.1887 5.98707 15.7153 6.46042C15.242 6.93377 14.9761 7.57577 14.9761 8.24518C14.9761 8.9146 15.242 9.5566 15.7153 10.0299C16.1887 10.5033 16.8307 10.7692 17.5001 10.7692C18.1695 10.7692 18.8115 10.5033 19.2849 10.0299C19.7582 9.5566 20.0242 8.9146 20.0242 8.24518C20.0242 7.57577 19.7582 6.93377 19.2849 6.46042C18.8115 5.98707 18.1695 5.72114 17.5001 5.72114ZM13.2934 8.24518C13.2934 7.12949 13.7366 6.05949 14.5255 5.27058C15.3144 4.48166 16.3844 4.03845 17.5001 4.03845C18.6158 4.03845 19.6858 4.48166 20.4747 5.27058C21.2636 6.05949 21.7068 7.12949 21.7068 8.24518C21.7068 9.36088 21.2636 10.4309 20.4747 11.2198C19.6858 12.0087 18.6158 12.4519 17.5001 12.4519C16.3844 12.4519 15.3144 12.0087 14.5255 11.2198C13.7366 10.4309 13.2934 9.36088 13.2934 8.24518ZM26.7549 7.40384C26.3086 7.40384 25.8806 7.58112 25.5651 7.89669C25.2495 8.21225 25.0722 8.64025 25.0722 9.08653C25.0722 9.53281 25.2495 9.96081 25.5651 10.2764C25.8806 10.5919 26.3086 10.7692 26.7549 10.7692C27.2012 10.7692 27.6292 10.5919 27.9448 10.2764C28.2603 9.96081 28.4376 9.53281 28.4376 9.08653C28.4376 8.64025 28.2603 8.21225 27.9448 7.89669C27.6292 7.58112 27.2012 7.40384 26.7549 7.40384ZM23.3895 9.08653C23.3895 8.19397 23.7441 7.33797 24.3752 6.70684C25.0064 6.07571 25.8624 5.72114 26.7549 5.72114C27.6475 5.72114 28.5035 6.07571 29.1346 6.70684C29.7657 7.33797 30.1203 8.19397 30.1203 9.08653C30.1203 9.97908 29.7657 10.8351 29.1346 11.4662C28.5035 12.0973 27.6475 12.4519 26.7549 12.4519C25.8624 12.4519 25.0064 12.0973 24.3752 11.4662C23.7441 10.8351 23.3895 9.97908 23.3895 9.08653ZM6.56261 9.08653C6.56261 8.64025 6.7399 8.21225 7.05546 7.89669C7.37103 7.58112 7.79903 7.40384 8.24531 7.40384C8.69158 7.40384 9.11958 7.58112 9.43515 7.89669C9.75071 8.21225 9.928 8.64025 9.928 9.08653C9.928 9.53281 9.75071 9.96081 9.43515 10.2764C9.11958 10.5919 8.69158 10.7692 8.24531 10.7692C7.79903 10.7692 7.37103 10.5919 7.05546 10.2764C6.7399 9.96081 6.56261 9.53281 6.56261 9.08653ZM8.24531 5.72114C7.35275 5.72114 6.49675 6.07571 5.86562 6.70684C5.23449 7.33797 4.87992 8.19397 4.87992 9.08653C4.87992 9.97908 5.23449 10.8351 5.86562 11.4662C6.49675 12.0973 7.35275 12.4519 8.24531 12.4519C9.13786 12.4519 9.99386 12.0973 10.625 11.4662C11.2561 10.8351 11.6107 9.97908 11.6107 9.08653C11.6107 8.19397 11.2561 7.33797 10.625 6.70684C9.99386 6.07571 9.13786 5.72114 8.24531 5.72114ZM9.25492 25.9101C8.7993 25.9329 8.3438 25.8628 7.9161 25.7042C7.48839 25.5455 7.09741 25.3015 6.76691 24.9871C6.43641 24.6726 6.17329 24.2943 5.99354 23.875C5.81379 23.4557 5.72115 23.0043 5.72127 22.5481V16.238C5.72127 16.1264 5.76559 16.0194 5.84448 15.9405C5.92337 15.8616 6.03037 15.8173 6.14194 15.8173H9.11021C9.17752 15.1997 9.39627 14.626 9.72439 14.1346H6.14194C4.98088 14.1346 4.03857 15.0769 4.03857 16.238V22.5481C4.0385 23.2685 4.19261 23.9805 4.49055 24.6364C4.78849 25.2923 5.22336 25.8768 5.76595 26.3507C6.30854 26.8246 6.94626 27.1769 7.63628 27.3839C8.3263 27.5908 9.05263 27.6477 9.76646 27.5507C9.53998 27.0229 9.36856 26.4731 9.25492 25.9101ZM25.2338 27.5507C25.9476 27.6477 26.6739 27.5908 27.3639 27.3839C28.054 27.1769 28.6917 26.8246 29.2343 26.3507C29.7769 25.8768 30.2117 25.2923 30.5097 24.6364C30.8076 23.9805 30.9617 23.2685 30.9617 22.5481V16.238C30.9617 15.0769 30.0193 14.1346 28.8583 14.1346H25.2758C25.6056 14.626 25.8227 15.1997 25.89 15.8173H28.8583C28.9699 15.8173 29.0769 15.8616 29.1557 15.9405C29.2346 16.0194 29.279 16.1264 29.279 16.238V22.5481C29.2791 23.0043 29.1864 23.4557 29.0067 23.875C28.8269 24.2943 28.5638 24.6726 28.2333 24.9871C27.9028 25.3015 27.5118 25.5455 27.0841 25.7042C26.6564 25.8628 26.2009 25.9329 25.7453 25.9101C25.6316 26.4731 25.4602 27.0229 25.2338 27.5507ZM12.8727 14.1346C11.7117 14.1346 10.7693 15.0769 10.7693 16.238V24.2308C10.7693 26.0159 11.4785 27.7279 12.7407 28.9901C14.003 30.2524 15.715 30.9615 17.5001 30.9615C19.2852 30.9615 20.9972 30.2524 22.2595 28.9901C23.5217 27.7279 24.2309 26.0159 24.2309 24.2308V16.238C24.2309 15.0769 23.2886 14.1346 22.1275 14.1346H12.8727ZM12.452 16.238C12.452 16.1264 12.4964 16.0194 12.5752 15.9405C12.6541 15.8616 12.7611 15.8173 12.8727 15.8173H22.1275C22.2391 15.8173 22.3461 15.8616 22.425 15.9405C22.5039 16.0194 22.5482 16.1264 22.5482 16.238V24.2308C22.5482 25.5696 22.0163 26.8536 21.0696 27.8003C20.1229 28.747 18.8389 29.2788 17.5001 29.2788C16.1613 29.2788 14.8773 28.747 13.9306 27.8003C12.9839 26.8536 12.452 25.5696 12.452 24.2308V16.238Z" fill="black"/>
<path d="M16.827 5.04808C16.1576 5.04808 15.5156 5.314 15.0423 5.78735C14.5689 6.2607 14.303 6.9027 14.303 7.57212C14.303 8.24153 14.5689 8.88353 15.0423 9.35688C15.5156 9.83023 16.1576 10.0962 16.827 10.0962C17.4964 10.0962 18.1384 9.83023 18.6118 9.35688C19.0851 8.88353 19.3511 8.24153 19.3511 7.57212C19.3511 6.9027 19.0851 6.2607 18.6118 5.78735C18.1384 5.314 17.4964 5.04808 16.827 5.04808ZM12.6203 7.57212C12.6203 6.45642 13.0635 5.38643 13.8524 4.59751C14.6413 3.80859 15.7113 3.36539 16.827 3.36539C17.9427 3.36539 19.0127 3.80859 19.8016 4.59751C20.5905 5.38643 21.0337 6.45642 21.0337 7.57212C21.0337 8.68781 20.5905 9.75781 19.8016 10.5467C19.0127 11.3356 17.9427 11.7788 16.827 11.7788C15.7113 11.7788 14.6413 11.3356 13.8524 10.5467C13.0635 9.75781 12.6203 8.68781 12.6203 7.57212ZM26.0818 6.73077C25.6355 6.73077 25.2075 6.90806 24.892 7.22362C24.5764 7.53919 24.3991 7.96719 24.3991 8.41346C24.3991 8.85974 24.5764 9.28774 24.892 9.60331C25.2075 9.91887 25.6355 10.0962 26.0818 10.0962C26.5281 10.0962 26.9561 9.91887 27.2717 9.60331C27.5872 9.28774 27.7645 8.85974 27.7645 8.41346C27.7645 7.96719 27.5872 7.53919 27.2717 7.22362C26.9561 6.90806 26.5281 6.73077 26.0818 6.73077ZM22.7164 8.41346C22.7164 7.52091 23.071 6.66491 23.7021 6.03378C24.3333 5.40265 25.1893 5.04808 26.0818 5.04808C26.9744 5.04808 27.8304 5.40265 28.4615 6.03378C29.0926 6.66491 29.4472 7.52091 29.4472 8.41346C29.4472 9.30602 29.0926 10.162 28.4615 10.7932C27.8304 11.4243 26.9744 11.7788 26.0818 11.7788C25.1893 11.7788 24.3333 11.4243 23.7021 10.7932C23.071 10.162 22.7164 9.30602 22.7164 8.41346ZM5.88952 8.41346C5.88952 7.96719 6.0668 7.53919 6.38237 7.22362C6.69793 6.90806 7.12593 6.73077 7.57221 6.73077C8.01849 6.73077 8.44649 6.90806 8.76205 7.22362C9.07762 7.53919 9.2549 7.96719 9.2549 8.41346C9.2549 8.85974 9.07762 9.28774 8.76205 9.60331C8.44649 9.91887 8.01849 10.0962 7.57221 10.0962C7.12593 10.0962 6.69793 9.91887 6.38237 9.60331C6.0668 9.28774 5.88952 8.85974 5.88952 8.41346ZM7.57221 5.04808C6.67965 5.04808 5.82365 5.40265 5.19252 6.03378C4.56139 6.66491 4.20682 7.52091 4.20682 8.41346C4.20682 9.30602 4.56139 10.162 5.19252 10.7932C5.82365 11.4243 6.67965 11.7788 7.57221 11.7788C8.46476 11.7788 9.32076 11.4243 9.9519 10.7932C10.583 10.162 10.9376 9.30602 10.9376 8.41346C10.9376 7.52091 10.583 6.66491 9.9519 6.03378C9.32076 5.40265 8.46476 5.04808 7.57221 5.04808ZM8.58182 25.237C8.12621 25.2598 7.67071 25.1898 7.243 25.0311C6.8153 24.8724 6.42432 24.6285 6.09382 24.314C5.76332 23.9996 5.5002 23.6212 5.32044 23.2019C5.14069 22.7826 5.04806 22.3312 5.04817 21.875V15.5649C5.04817 15.4533 5.09249 15.3463 5.17138 15.2674C5.25027 15.1886 5.35727 15.1442 5.46884 15.1442H8.43711C8.50442 14.5267 8.72317 13.9529 9.0513 13.4615H5.46884C4.30779 13.4615 3.36548 14.4038 3.36548 15.5649V21.875C3.3654 22.5954 3.51951 23.3075 3.81745 23.9634C4.1154 24.6192 4.55027 25.2038 5.09285 25.6777C5.63544 26.1515 6.27317 26.5038 6.96319 26.7108C7.65321 26.9178 8.37953 26.9747 9.09336 26.8776C8.86689 26.3498 8.69547 25.8 8.58182 25.237ZM24.5607 26.8776C25.2745 26.9747 26.0008 26.9178 26.6908 26.7108C27.3809 26.5038 28.0186 26.1515 28.5612 25.6777C29.1038 25.2038 29.5386 24.6192 29.8366 23.9634C30.1345 23.3075 30.2886 22.5954 30.2886 21.875V15.5649C30.2886 14.4038 29.3462 13.4615 28.1852 13.4615H24.6027C24.9325 13.9529 25.1496 14.5267 25.2169 15.1442H28.1852C28.2968 15.1442 28.4038 15.1886 28.4827 15.2674C28.5615 15.3463 28.6059 15.4533 28.6059 15.5649V21.875C28.606 22.3312 28.5133 22.7826 28.3336 23.2019C28.1538 23.6212 27.8907 23.9996 27.5602 24.314C27.2297 24.6285 26.8387 24.8724 26.411 25.0311C25.9833 25.1898 25.5278 25.2598 25.0722 25.237C24.9585 25.8 24.7871 26.3498 24.5607 26.8776ZM12.1996 13.4615C11.0386 13.4615 10.0962 14.4038 10.0962 15.5649V23.5577C10.0962 25.3428 10.8054 27.0548 12.0676 28.3171C13.3299 29.5793 15.0419 30.2885 16.827 30.2885C18.6121 30.2885 20.3241 29.5793 21.5864 28.3171C22.8487 27.0548 23.5578 25.3428 23.5578 23.5577V15.5649C23.5578 14.4038 22.6155 13.4615 21.4544 13.4615H12.1996ZM11.7789 15.5649C11.7789 15.4533 11.8233 15.3463 11.9022 15.2674C11.981 15.1886 12.088 15.1442 12.1996 15.1442H21.4544C21.566 15.1442 21.673 15.1886 21.7519 15.2674C21.8308 15.3463 21.8751 15.4533 21.8751 15.5649V23.5577C21.8751 24.8965 21.3432 26.1805 20.3965 27.1272C19.4498 28.0739 18.1658 28.6058 16.827 28.6058C15.4882 28.6058 14.2042 28.0739 13.2575 27.1272C12.3108 26.1805 11.7789 24.8965 11.7789 23.5577V15.5649Z" fill="white"/>
</svg>
