<svg width="84" height="84" viewBox="0 0 84 84" fill="none" xmlns="http://www.w3.org/2000/svg">
<path d="M42 84C65.196 84 84 65.196 84 42C84 18.804 65.196 0 42 0C18.804 0 0 18.804 0 42C0 65.196 18.804 84 42 84Z" fill="#FF9D42"/>
<path d="M29.4076 34.8412H22.7804C22.5192 34.8412 22.2605 34.8926 22.0192 34.9927C21.7779 35.0927 21.5586 35.2392 21.3739 35.424C21.1893 35.6088 21.0428 35.8281 20.943 36.0695C20.8431 36.3109 20.7918 36.5696 20.792 36.8308V56.7138C20.792 57.2411 21.0015 57.7469 21.3744 58.1198C21.7473 58.4927 22.253 58.7022 22.7804 58.7022H29.4076C29.6688 58.7022 29.9273 58.6508 30.1686 58.5508C30.4098 58.4509 30.629 58.3044 30.8137 58.1198C30.9983 57.9351 31.1448 57.7159 31.2447 57.4747C31.3446 57.2335 31.3961 56.9749 31.3961 56.7138V36.8308C31.3962 36.5696 31.3449 36.3109 31.2451 36.0695C31.1452 35.8281 30.9988 35.6088 30.8141 35.424C30.6294 35.2392 30.4102 35.0927 30.1689 34.9927C29.9275 34.8926 29.6689 34.8412 29.4076 34.8412ZM26.094 55.3873C25.7009 55.3873 25.3165 55.2708 24.9896 55.0524C24.6626 54.834 24.4078 54.5236 24.2572 54.1604C24.1066 53.7972 24.0671 53.3975 24.1436 53.0119C24.2202 52.6263 24.4093 52.2719 24.6871 51.9938C24.9649 51.7156 25.319 51.526 25.7046 51.449C26.0901 51.372 26.4898 51.411 26.8532 51.5611C27.2166 51.7112 27.5273 51.9657 27.7461 52.2924C27.9649 52.619 28.0819 53.0032 28.0824 53.3964C28.0828 53.6577 28.0316 53.9166 27.9318 54.1581C27.832 54.3996 27.6856 54.6191 27.5009 54.804C27.3163 54.9889 27.0969 55.1356 26.8555 55.2357C26.6141 55.3358 26.3554 55.3873 26.094 55.3873ZM52.6042 23.0335C52.6042 26.544 50.4528 28.5186 49.846 30.8656H58.2786C59.5652 30.8693 60.7997 31.3739 61.7206 32.2724C62.6416 33.1708 63.1765 34.3926 63.212 35.6787C63.2087 37.1917 62.6337 38.6476 61.6022 39.7545L61.5934 39.7633C62.026 40.8375 62.182 42.0031 62.0473 43.1533C61.9126 44.3035 61.4914 45.4015 60.8224 46.3467C61.139 47.4094 61.1806 48.5352 60.9433 49.6184C60.7061 50.7017 60.1977 51.707 59.4658 52.5401C59.6573 53.156 59.7109 53.8065 59.623 54.4454C59.535 55.0843 59.3076 55.6961 58.9568 56.2374C57.2655 58.6671 53.0756 58.7009 49.5313 58.7009H49.2893C45.8357 58.5536 42.4557 57.6551 39.3848 56.0681C38.021 55.3684 36.5445 54.9148 35.0231 54.7279C34.7625 54.7233 34.5141 54.6165 34.3314 54.4305C34.1487 54.2446 34.0464 53.9943 34.0464 53.7336V36.0297C34.0464 35.8984 34.0725 35.7684 34.1231 35.6473C34.1736 35.5261 34.2477 35.4162 34.3411 35.3239C37.6233 32.083 39.035 28.6477 41.7293 25.9535C42.8565 24.5457 43.5833 22.86 43.8331 21.0739C44.1966 19.5457 44.9664 16.2859 46.6389 16.2859C48.6248 16.2859 52.6042 16.9492 52.6042 23.0335Z" fill="white"/>
</svg>
