<svg width="99" height="48" viewBox="0 0 99 48" fill="none" xmlns="http://www.w3.org/2000/svg">
<path d="M57.0003 19.1787C56.449 19.4229 55.8561 19.5858 55.2307 19.6629C55.8665 19.2854 56.3557 18.6833 56.5853 17.9721C55.9903 18.3208 55.3311 18.5771 54.6299 18.7121C54.0699 18.1183 53.2711 17.75 52.3861 17.75C50.6861 17.75 49.3082 19.1158 49.3082 20.8C49.3082 21.0383 49.3361 21.2704 49.3886 21.4958C46.8311 21.3675 44.5628 20.1517 43.0453 18.3067C42.7786 18.7575 42.6286 19.2854 42.6286 19.8425C42.6286 20.9013 43.1707 21.8333 43.9974 22.3825C43.4928 22.3671 43.0178 22.2267 42.6019 22.0017C42.6019 22.0108 42.6019 22.0246 42.6019 22.0375C42.6019 23.5171 43.6632 24.7492 45.0699 25.0296C44.8128 25.1 44.5411 25.1392 44.2611 25.1392C44.0624 25.1392 43.8686 25.1167 43.6811 25.0829C44.0728 26.2921 45.209 27.1758 46.5553 27.2021C45.5019 28.0187 44.1753 28.5079 42.7328 28.5079C42.4836 28.5079 42.2399 28.4937 41.999 28.4646C43.3619 29.3275 44.9803 29.8333 46.7174 29.8333C52.3778 29.8333 55.4744 25.185 55.4744 21.1525C55.4744 21.0204 55.4703 20.8888 55.464 20.7588C56.0682 20.3321 56.589 19.7937 57.0003 19.1787Z" fill="#FF9D42"/>
<path d="M24.333 2H74.6663V-2H24.333V2ZM74.6663 46H24.333V50H74.6663V46ZM24.333 46C12.1828 46 2.33301 36.1503 2.33301 24H-1.66699C-1.66699 38.3594 9.97363 50 24.333 50V46ZM96.6663 24C96.6663 36.1503 86.8166 46 74.6663 46V50C89.0257 50 100.666 38.3594 100.666 24H96.6663ZM74.6663 2C86.8166 2 96.6663 11.8497 96.6663 24H100.666C100.666 9.64059 89.0257 -2 74.6663 -2V2ZM24.333 -2C9.97361 -2 -1.66699 9.6406 -1.66699 24H2.33301C2.33301 11.8497 12.1827 2 24.333 2V-2Z" fill="#1F2022"/>
</svg>
