<svg width="80" height="20" viewBox="0 0 80 20" fill="none" xmlns="http://www.w3.org/2000/svg">
<path d="M19.4023 19H15.2656L12.9453 10C12.8594 9.67969 12.7109 9.01953 12.5 8.01953C12.2969 7.01172 12.1797 6.33594 12.1484 5.99219C12.1016 6.41406 11.9844 7.09375 11.7969 8.03125C11.6094 8.96094 11.4648 9.625 11.3633 10.0234L9.05469 19H4.92969L0.558594 1.86719H4.13281L6.32422 11.2188C6.70703 12.9453 6.98438 14.4414 7.15625 15.707C7.20312 15.2617 7.30859 14.5742 7.47266 13.6445C7.64453 12.707 7.80469 11.9805 7.95312 11.4648L10.4492 1.86719H13.8828L16.3789 11.4648C16.4883 11.8945 16.625 12.5508 16.7891 13.4336C16.9531 14.3164 17.0781 15.0742 17.1641 15.707C17.2422 15.0977 17.3672 14.3398 17.5391 13.4336C17.7109 12.5195 17.8672 11.7812 18.0078 11.2188L20.1875 1.86719H23.7617L19.4023 19ZM24.9844 2.51172C24.9844 1.34766 25.6328 0.765625 26.9297 0.765625C28.2266 0.765625 28.875 1.34766 28.875 2.51172C28.875 3.06641 28.7109 3.5 28.3828 3.8125C28.0625 4.11719 27.5781 4.26953 26.9297 4.26953C25.6328 4.26953 24.9844 3.68359 24.9844 2.51172ZM28.7109 19H25.1367V5.89844H28.7109V19ZM37.293 19.2344C33.2148 19.2344 31.1758 16.9961 31.1758 12.5195C31.1758 10.293 31.7305 8.59375 32.8398 7.42188C33.9492 6.24219 35.5391 5.65234 37.6094 5.65234C39.125 5.65234 40.4844 5.94922 41.6875 6.54297L40.6328 9.30859C40.0703 9.08203 39.5469 8.89844 39.0625 8.75781C38.5781 8.60938 38.0938 8.53516 37.6094 8.53516C35.75 8.53516 34.8203 9.85547 34.8203 12.4961C34.8203 15.0586 35.75 16.3398 37.6094 16.3398C38.2969 16.3398 38.9336 16.25 39.5195 16.0703C40.1055 15.8828 40.6914 15.5938 41.2773 15.2031V18.2617C40.6992 18.6289 40.1133 18.8828 39.5195 19.0234C38.9336 19.1641 38.1914 19.2344 37.293 19.2344ZM47.2578 11.875L48.8164 9.88281L52.4844 5.89844H56.5156L51.3125 11.582L56.832 19H52.707L48.9336 13.6914L47.3984 14.9219V19H43.8242V0.765625H47.3984V8.89844L47.2109 11.875H47.2578ZM63.6328 8.19531C62.875 8.19531 62.2812 8.4375 61.8516 8.92188C61.4219 9.39844 61.1758 10.0781 61.1133 10.9609H66.1289C66.1133 10.0781 65.8828 9.39844 65.4375 8.92188C64.9922 8.4375 64.3906 8.19531 63.6328 8.19531ZM64.1367 19.2344C62.0273 19.2344 60.3789 18.6523 59.1914 17.4883C58.0039 16.3242 57.4102 14.6758 57.4102 12.543C57.4102 10.3477 57.957 8.65234 59.0508 7.45703C60.1523 6.25391 61.6719 5.65234 63.6094 5.65234C65.4609 5.65234 66.9023 6.17969 67.9336 7.23438C68.9648 8.28906 69.4805 9.74609 69.4805 11.6055V13.3398H61.0312C61.0703 14.3555 61.3711 15.1484 61.9336 15.7188C62.4961 16.2891 63.2852 16.5742 64.3008 16.5742C65.0898 16.5742 65.8359 16.4922 66.5391 16.3281C67.2422 16.1641 67.9766 15.9023 68.7422 15.543V18.3086C68.1172 18.6211 67.4492 18.8516 66.7383 19C66.0273 19.1562 65.1602 19.2344 64.1367 19.2344ZM77.4062 16.3867C78.0312 16.3867 78.7812 16.25 79.6562 15.9766V18.6367C78.7656 19.0352 77.6719 19.2344 76.375 19.2344C74.9453 19.2344 73.9023 18.875 73.2461 18.1562C72.5977 17.4297 72.2734 16.3438 72.2734 14.8984V8.58203H70.5625V7.07031L72.5312 5.875L73.5625 3.10938H75.8477V5.89844H79.5156V8.58203H75.8477V14.8984C75.8477 15.4062 75.9883 15.7812 76.2695 16.0234C76.5586 16.2656 76.9375 16.3867 77.4062 16.3867Z" fill="#FF364D"/>
</svg>
