<svg width="24" height="20" viewBox="0 0 24 20" fill="none" xmlns="http://www.w3.org/2000/svg">
<path d="M0.503049 6.20763H11.9184C12.7416 6.20648 13.5306 5.87837 14.1118 5.29548C14.6931 4.71259 15.019 3.92267 15.0179 3.09949C15.0167 2.27631 14.6886 1.4873 14.1057 0.90603C13.5228 0.324763 12.7329 -0.00114437 11.9097 3.01936e-06C11.7763 3.01936e-06 11.6484 0.0530027 11.554 0.147343C11.4597 0.241683 11.4067 0.369635 11.4067 0.503052C11.4067 0.636469 11.4597 0.764421 11.554 0.858761C11.6484 0.953101 11.7763 1.0061 11.9097 1.0061C12.4661 1.00495 13.0001 1.22486 13.3943 1.61745C13.7885 2.01003 14.0106 2.54314 14.0118 3.09949C14.0129 3.65584 13.793 4.18986 13.4004 4.58406C13.0078 4.97827 12.4747 5.20038 11.9184 5.20153H0.503049C0.369632 5.20153 0.24168 5.25453 0.14734 5.34887C0.0529997 5.44321 0 5.57116 0 5.70458C0 5.838 0.0529997 5.96595 0.14734 6.06029C0.24168 6.15463 0.369632 6.20763 0.503049 6.20763Z" fill="#00ACEA"/>
<path d="M0.503049 8.52166H17.6037C18.4233 8.52052 19.2088 8.19386 19.7875 7.61354C20.3662 7.03322 20.6907 6.24678 20.6896 5.42723C20.6884 4.60768 20.3618 3.82215 19.7815 3.24344C19.2011 2.66474 18.4147 2.34026 17.5951 2.3414C17.4617 2.3414 17.3338 2.3944 17.2394 2.48874C17.1451 2.58308 17.0921 2.71104 17.0921 2.84445C17.0921 2.97787 17.1451 3.10582 17.2394 3.20016C17.3338 3.2945 17.4617 3.3475 17.5951 3.3475C18.1479 3.34636 18.6784 3.56483 19.07 3.95486C19.4617 4.34488 19.6823 4.87451 19.6835 5.42723C19.6846 5.97995 19.4661 6.51049 19.0761 6.90212C18.6861 7.29376 18.1565 7.51442 17.6037 7.51556H0.503049C0.369632 7.51556 0.24168 7.56856 0.14734 7.6629C0.0529997 7.75724 0 7.8852 0 8.01861C0 8.15203 0.0529997 8.27998 0.14734 8.37432C0.24168 8.46866 0.369632 8.52166 0.503049 8.52166ZM19.9542 10.3326H0.503049C0.369632 10.3326 0.24168 10.3856 0.14734 10.48C0.0529997 10.5743 0 10.7023 0 10.8357C0 10.9691 0.0529997 11.0971 0.14734 11.1914C0.24168 11.2857 0.369632 11.3387 0.503049 11.3387H19.9542C20.507 11.3387 21.0372 11.5582 21.4281 11.949C21.819 12.3398 22.0387 12.8699 22.0388 13.4227C22.0389 13.9754 21.8193 14.5056 21.4285 14.8965C21.0377 15.2875 20.5076 15.5071 19.9548 15.5072C19.8214 15.5072 19.6935 15.5602 19.5991 15.6545C19.5048 15.7489 19.4518 15.8768 19.4518 16.0103C19.4518 16.1437 19.5048 16.2716 19.5991 16.366C19.6935 16.4603 19.8214 16.5133 19.9548 16.5133C20.3607 16.5133 20.7625 16.4333 21.1374 16.2779C21.5124 16.1226 21.853 15.8949 22.14 15.6079C22.4269 15.321 22.6545 14.9803 22.8098 14.6053C22.965 14.2304 23.0449 13.8285 23.0449 13.4227C23.0448 13.0168 22.9649 12.615 22.8095 12.2401C22.6542 11.8652 22.4265 11.5245 22.1395 11.2376C21.8525 10.9506 21.5118 10.723 21.1369 10.5678C20.7619 10.4125 20.3601 10.3326 19.9542 10.3326Z" fill="#00ACEA"/>
<path d="M10.0049 13.2H0.503049C0.369632 13.2 0.24168 13.253 0.14734 13.3473C0.0529997 13.4417 0 13.5696 0 13.7031C0 13.8365 0.0529997 13.9644 0.14734 14.0588C0.24168 14.1531 0.369632 14.2061 0.503049 14.2061H10.0049C10.279 14.2042 10.5508 14.2565 10.8046 14.36C11.0584 14.4635 11.2892 14.6163 11.4837 14.8094C11.6783 15.0025 11.8327 15.2322 11.938 15.4853C12.0434 15.7384 12.0977 16.0098 12.0977 16.2839C12.0978 16.558 12.0436 16.8294 11.9383 17.0825C11.8329 17.3356 11.6786 17.5653 11.4841 17.7585C11.2897 17.9517 11.0589 18.1045 10.8051 18.2081C10.5513 18.3117 10.2796 18.3641 10.0054 18.3622C9.87203 18.3622 9.74407 18.4152 9.64974 18.5095C9.5554 18.6039 9.50239 18.7318 9.50239 18.8652C9.50239 18.9987 9.5554 19.1266 9.64974 19.2209C9.74407 19.3153 9.87203 19.3683 10.0054 19.3683C10.4119 19.3706 10.8149 19.2925 11.1911 19.1385C11.5673 18.9845 11.9094 18.7577 12.1976 18.471C12.4858 18.1844 12.7146 17.8436 12.8706 17.4682C13.0267 17.0929 13.107 16.6904 13.107 16.2839C13.1069 15.8774 13.0265 15.4749 12.8704 15.0996C12.7143 14.7242 12.4855 14.3835 12.1972 14.0969C11.9089 13.8103 11.5668 13.5835 11.1906 13.4296C10.8143 13.2757 10.4114 13.1976 10.0049 13.2Z" fill="#00ACEA"/>
</svg>
