<svg width="84" height="83" viewBox="0 0 84 83" fill="none" xmlns="http://www.w3.org/2000/svg">
<path d="M42 82.7647C65.196 82.7647 84 64.2372 84 41.3824C84 18.5275 65.196 0 42 0C18.804 0 0 18.5275 0 41.3824C0 64.2372 18.804 82.7647 42 82.7647Z" fill="#FF9D42"/>
<path d="M44.2151 60.9877L30.0019 43.1995L30.0834 39.6752C36.754 40.1347 41.9422 39.4282 43.1466 33.1195L28.9346 33.0416L31.2347 29.1888L42.5722 29.3518C40.8428 25.762 36.0931 25.3186 28.6875 25.583L31.2347 21.8116L55.3081 21.7758L52.9252 25.5002H46.2756C47.427 26.5543 48.1811 27.9721 48.4114 29.5161L55.313 29.4346L52.9301 33.1219L48.3287 33.2035C47.611 38.7043 42.5561 41.9617 36.1697 42.7152L50.4756 60.9828H44.2189L44.2151 60.9877Z" fill="black"/>
</svg>
