<svg width="84" height="84" viewBox="0 0 84 84" fill="none" xmlns="http://www.w3.org/2000/svg">
<path d="M42 84C65.196 84 84 65.196 84 42C84 18.804 65.196 0 42 0C18.804 0 0 18.804 0 42C0 65.196 18.804 84 42 84Z" fill="#FF9D42"/>
<path d="M41.9741 16.286C36.8894 16.2909 31.9204 17.8033 27.695 20.6318C23.4697 23.4603 20.1777 27.478 18.2353 32.177C16.293 36.8761 15.7873 42.0455 16.7823 47.0319C17.7773 52.0183 20.2283 56.5978 23.8255 60.1914C27.4227 63.7851 32.0045 66.2316 36.9919 67.2218C41.9792 68.2119 47.1482 67.7012 51.8453 65.7543C56.5425 63.8073 60.557 60.5115 63.3814 56.2833C66.2058 52.0552 67.7132 47.0847 67.7132 42C67.7149 38.6206 67.0501 35.2741 65.7568 32.1519C64.4636 29.0298 62.5673 26.1933 60.1766 23.8049C57.7858 21.4165 54.9475 19.523 51.8241 18.2328C48.7007 16.9426 45.3535 16.281 41.9741 16.286V16.286ZM41.9992 62.5712C37.9306 62.5712 33.9534 61.3647 30.5704 59.1044C27.1875 56.844 24.5509 53.6312 22.9939 49.8723C21.4369 46.1134 21.0295 41.9772 21.8232 37.9868C22.617 33.9963 24.5762 30.3309 27.4531 27.454C30.3301 24.577 33.9955 22.6178 37.986 21.8241C41.9764 21.0303 46.1126 21.4377 49.8715 22.9947C53.6304 24.5517 56.8431 27.1883 59.1035 30.5712C61.3639 33.9542 62.5704 37.9314 62.5704 42C62.5704 47.4558 60.4031 52.6882 56.5452 56.5461C52.6874 60.4039 47.455 62.5712 41.9992 62.5712V62.5712Z" fill="black"/>
<path d="M43.2823 29.143H39.4258V44.5702L52.926 52.6681L54.8542 49.5036L43.2835 42.642L43.2823 29.143Z" fill="black"/>
</svg>
