<svg width="84" height="83" viewBox="0 0 84 83" fill="none" xmlns="http://www.w3.org/2000/svg">
<path d="M42 82.7647C65.196 82.7647 84 64.2372 84 41.3824C84 18.5275 65.196 0 42 0C18.804 0 0 18.5275 0 41.3824C0 64.2372 18.804 82.7647 42 82.7647Z" fill="#FF9D42"/>
<path d="M51.8576 49.7119C50.6717 49.2882 48.7336 49.2672 47.875 48.9386C47.2137 48.7671 46.5892 48.4766 46.032 48.0813C45.7953 47.0936 45.6919 46.0787 45.7244 45.0635C46.1637 44.6394 46.5195 44.1366 46.7731 43.5812C47.0297 42.6274 47.2001 41.6526 47.2821 40.6683C47.2821 40.6683 47.9813 40.9648 48.2567 39.5665C48.4902 38.3596 48.9349 37.7234 48.8176 36.834C48.7002 35.9446 48.1999 36.1558 48.1999 36.1558C48.1999 36.1558 48.8176 35.2553 48.8176 32.1955C48.8176 29.0393 46.4347 25.9362 41.9765 25.9362C37.5183 25.9362 35.1243 29.0504 35.1243 32.1955C35.1243 35.2565 35.7284 36.1558 35.7284 36.1558C35.7284 36.1558 35.2343 35.9446 35.1107 36.834C34.9872 37.7234 35.4282 38.3596 35.6716 39.5665C35.947 40.9747 36.6462 40.6683 36.6462 40.6683C36.7291 41.6525 36.8994 42.6272 37.1551 43.5812C37.4088 44.1366 37.7646 44.6394 38.2039 45.0635C38.2364 46.0787 38.133 47.0936 37.8963 48.0813C37.3408 48.4774 36.7155 48.7649 36.0533 48.9287C35.2058 49.2573 33.2677 49.2993 32.0707 49.723C30.6268 50.2641 29.3856 51.2384 28.5172 52.5124C27.6487 53.7865 27.1955 55.2979 27.2197 56.8396H56.6938C56.7235 55.2973 56.2744 53.7837 55.4083 52.5072C54.5422 51.2308 53.3017 50.2542 51.8576 49.7119V49.7119Z" fill="black"/>
<path d="M29.7146 44.5496C30.9596 44.5321 32.1787 44.1916 33.2525 43.5614C31.6108 41.0723 32.5002 38.1706 32.1617 35.4591C32.1453 34.8426 32.0013 34.2361 31.739 33.6779C31.4767 33.1198 31.1016 32.6219 30.6375 32.2158C30.1733 31.8097 29.6301 31.504 29.0421 31.3181C28.454 31.1322 27.8338 31.0701 27.2205 31.1356H27.1724C26.5625 31.0777 25.9472 31.1455 25.3646 31.3347C24.782 31.524 24.2443 31.8306 23.7848 32.2358C23.3254 32.641 22.9538 33.1361 22.6932 33.6905C22.4326 34.2449 22.2884 34.8468 22.2695 35.4591C21.931 38.1595 22.8735 41.3885 21.1898 43.5614C22.1954 44.4718 24.7376 44.4409 24.7376 44.4409C24.8016 45.0357 24.7657 45.6369 24.6314 46.2198C24.2669 46.5234 23.8282 46.7246 23.3602 46.8028C22.4318 47.0036 21.5157 47.2581 20.6167 47.565C19.8966 47.9413 19.2931 48.5071 18.8712 49.2013C18.4493 49.8956 18.225 50.6919 18.2227 51.5043H26.7289C27.503 50.1258 28.6873 49.0226 30.1173 48.3482C30.9467 48.0008 31.8346 47.8138 32.7337 47.7972C32.7337 47.7972 33.1364 47.1623 31.8121 46.9177C31.1085 46.7633 30.4259 46.5253 29.7788 46.2086C29.5775 45.9789 29.7146 44.5496 29.7146 44.5496Z" fill="black"/>
<path d="M54.284 44.5496C53.039 44.5321 51.8199 44.1916 50.7461 43.5614C52.3878 41.0723 51.4984 38.1706 51.8369 35.4591C51.8533 34.8426 51.9972 34.2361 52.2596 33.6779C52.5219 33.1198 52.8969 32.6219 53.3611 32.2158C53.8252 31.8097 54.3685 31.504 54.9565 31.3181C55.5446 31.1322 56.1648 31.0701 56.778 31.1356H56.82C57.4299 31.0777 58.0452 31.1455 58.6278 31.3347C59.2104 31.524 59.7481 31.8306 60.2076 32.2358C60.667 32.641 61.0386 33.1361 61.2992 33.6905C61.5598 34.2449 61.704 34.8468 61.7229 35.4591C62.0614 38.1595 61.1189 41.3885 62.8026 43.5614C61.797 44.4718 59.2548 44.4409 59.2548 44.4409C59.1908 45.0357 59.2267 45.6369 59.361 46.2198C59.7255 46.5234 60.1642 46.7246 60.6322 46.8028C61.5606 47.0036 62.4767 47.2581 63.3757 47.565C64.0958 47.9413 64.6993 48.5071 65.1212 49.2013C65.5431 49.8956 65.7674 50.6919 65.7697 51.5043H57.2709C56.4968 50.1258 55.3125 49.0226 53.8825 48.3482C53.0531 48.0008 52.1653 47.8138 51.2662 47.7972C51.2662 47.7972 50.8634 47.1623 52.1877 46.9177C52.8913 46.7633 53.5739 46.5253 54.221 46.2086C54.4223 45.9789 54.284 44.5496 54.284 44.5496Z" fill="black"/>
</svg>
