<svg width="84" height="84" viewBox="0 0 84 84" fill="none" xmlns="http://www.w3.org/2000/svg">
<path d="M42 84C65.196 84 84 65.196 84 42C84 18.804 65.196 0 42 0C18.804 0 0 18.804 0 42C0 65.196 18.804 84 42 84Z" fill="#FF9D42"/>
<path d="M29.4086 34.8412H22.7814C22.5202 34.8412 22.2615 34.8926 22.0202 34.9927C21.7788 35.0927 21.5596 35.2392 21.3749 35.424C21.1903 35.6088 21.0438 35.8281 20.944 36.0695C20.8441 36.3109 20.7928 36.5696 20.793 36.8308V56.7138C20.793 57.2411 21.0025 57.7469 21.3754 58.1198C21.7483 58.4927 22.254 58.7022 22.7814 58.7022H29.4086C29.6697 58.7022 29.9283 58.6508 30.1695 58.5508C30.4108 58.4509 30.63 58.3044 30.8146 58.1198C30.9993 57.9351 31.1457 57.7159 31.2457 57.4747C31.3456 57.2335 31.397 56.9749 31.397 56.7138V36.8308C31.3972 36.5696 31.3459 36.3109 31.246 36.0695C31.1462 35.8281 30.9997 35.6088 30.8151 35.424C30.6304 35.2392 30.4112 35.0927 30.1698 34.9927C29.9285 34.8926 29.6698 34.8412 29.4086 34.8412V34.8412ZM26.095 55.3873C25.7018 55.3873 25.3175 55.2708 24.9906 55.0524C24.6636 54.834 24.4088 54.5236 24.2582 54.1604C24.1076 53.7972 24.0681 53.3975 24.1446 53.0119C24.2211 52.6263 24.4103 52.2719 24.6881 51.9938C24.9659 51.7156 25.32 51.526 25.7055 51.449C26.0911 51.372 26.4908 51.411 26.8542 51.5611C27.2176 51.7112 27.5283 51.9657 27.7471 52.2924C27.9659 52.619 28.0829 53.0032 28.0834 53.3964C28.0837 53.6577 28.0326 53.9166 27.9328 54.1581C27.833 54.3996 27.6866 54.6191 27.5019 54.804C27.3172 54.9889 27.0979 55.1356 26.8565 55.2357C26.6151 55.3358 26.3563 55.3873 26.095 55.3873V55.3873ZM52.6051 23.0335C52.6051 26.544 50.4537 28.5186 49.8469 30.8656H58.2795C59.5661 30.8693 60.8007 31.3739 61.7216 32.2724C62.6426 33.1708 63.1775 34.3926 63.213 35.6787C63.2097 37.1917 62.6347 38.6476 61.6032 39.7545L61.5944 39.7633C62.0269 40.8375 62.183 42.0031 62.0483 43.1533C61.9136 44.3035 61.4924 45.4015 60.8234 46.3467C61.1399 47.4094 61.1816 48.5352 60.9443 49.6184C60.707 50.7017 60.1987 51.707 59.4668 52.5401C59.6583 53.156 59.7119 53.8065 59.6239 54.4454C59.536 55.0843 59.3086 55.6961 58.9578 56.2373C57.2665 58.6671 53.0766 58.7009 49.5323 58.7009H49.2903C45.8367 58.5536 42.4567 57.6551 39.3858 56.0681C38.022 55.3684 36.5455 54.9148 35.0241 54.7279C34.7634 54.7233 34.5151 54.6165 34.3324 54.4305C34.1497 54.2446 34.0474 53.9943 34.0474 53.7336V36.0297C34.0474 35.8984 34.0735 35.7684 34.124 35.6473C34.1746 35.5261 34.2487 35.4162 34.342 35.3239C37.6243 32.083 39.036 28.6477 41.7303 25.9535C42.8575 24.5457 43.5842 22.86 43.834 21.0739C44.1976 19.5457 44.9674 16.2859 46.6399 16.2859C48.6258 16.2859 52.6051 16.9492 52.6051 23.0335Z" fill="black"/>
</svg>
